G04*
G04 #@! TF.GenerationSoftware,Altium Limited,Altium Designer,24.5.2 (23)*
G04*
G04 Layer_Color=65535*
%FSLAX25Y25*%
%MOIN*%
G70*
G04*
G04 #@! TF.SameCoordinates,878A51A9-24BE-43F0-8DEF-E1219167CBE3*
G04*
G04*
G04 #@! TF.FilePolarity,Positive*
G04*
G01*
G75*
%ADD10C,0.00787*%
%ADD11C,0.00394*%
%ADD12C,0.00500*%
%ADD13C,0.00984*%
%ADD14C,0.00197*%
%ADD15C,0.01000*%
%ADD16C,0.00799*%
G36*
X204734Y249409D02*
Y215158D01*
X194873D01*
Y249409D01*
X204734D01*
D02*
G37*
G36*
X179134Y203731D02*
X145669D01*
Y213592D01*
X179134D01*
Y203731D01*
D02*
G37*
G36*
X17421Y13770D02*
X6201D01*
Y23631D01*
X17421D01*
Y13770D01*
D02*
G37*
G36*
X103569Y203731D02*
X59817D01*
Y213592D01*
X103569D01*
Y203731D01*
D02*
G37*
G36*
X40363Y215158D02*
X30503D01*
Y249409D01*
X40363D01*
Y215158D01*
D02*
G37*
G36*
X128641Y13770D02*
X117421D01*
Y23631D01*
X128641D01*
Y13770D01*
D02*
G37*
%LPC*%
G36*
X201724Y246849D02*
D01*
Y245445D01*
X200114D01*
X197883Y246849D01*
Y245956D01*
X199404Y245073D01*
X197883Y244169D01*
Y243264D01*
X200108Y244668D01*
X201724D01*
Y243264D01*
X197883D01*
X201724D01*
Y246849D01*
D02*
G37*
G36*
Y243159D02*
D01*
Y242026D01*
X198532D01*
Y243159D01*
X197883D01*
Y240112D01*
X201724D01*
Y243159D01*
D02*
G37*
G36*
Y239640D02*
X197883D01*
Y238863D01*
X201724D01*
Y239640D01*
D02*
G37*
G36*
Y238103D02*
X197883D01*
Y236937D01*
X200508Y236255D01*
X197883Y235566D01*
Y234406D01*
X201724D01*
Y238103D01*
D02*
G37*
G36*
Y233674D02*
X197883D01*
Y232897D01*
X201724D01*
Y233674D01*
D02*
G37*
G36*
Y232519D02*
D01*
X199725Y231198D01*
X197883Y232403D01*
Y231498D01*
X199032Y230738D01*
X197883Y229977D01*
Y229073D01*
X199725Y230277D01*
X201724Y228951D01*
X197883D01*
X201724D01*
Y232519D01*
D02*
G37*
G36*
X199848Y228734D02*
X199809D01*
X199637Y228729D01*
X199476Y228712D01*
X199326Y228690D01*
X199181Y228657D01*
X199054Y228618D01*
X198932Y228573D01*
X198821Y228529D01*
X198726Y228479D01*
X198638Y228429D01*
X198560Y228385D01*
X198493Y228340D01*
X198438Y228301D01*
X198399Y228274D01*
X198366Y228246D01*
X198349Y228229D01*
X198344Y228224D01*
X198249Y228124D01*
X198166Y228018D01*
X198094Y227907D01*
X198033Y227796D01*
X197983Y227680D01*
X197938Y227569D01*
X197905Y227458D01*
X197877Y227352D01*
X197855Y227252D01*
X197838Y227158D01*
X197827Y227075D01*
X197816Y227003D01*
Y226947D01*
X197811Y226903D01*
Y226919D01*
Y226864D01*
X197816Y226697D01*
X197833Y226536D01*
X197861Y226398D01*
X197888Y226276D01*
X197905Y226226D01*
X197916Y226176D01*
X197927Y226137D01*
X197944Y226103D01*
X197950Y226076D01*
X197960Y226054D01*
X197966Y226043D01*
Y226037D01*
X198011Y225937D01*
X198066Y225843D01*
X198127Y225759D01*
X198182Y225687D01*
X198232Y225626D01*
X198277Y225576D01*
X198305Y225549D01*
X198310Y225543D01*
X198316Y225537D01*
X198405Y225460D01*
X198499Y225388D01*
X198582Y225326D01*
X198665Y225277D01*
X198738Y225238D01*
X198793Y225204D01*
X198815Y225199D01*
X198832Y225188D01*
X198837Y225182D01*
X198843D01*
X198998Y225127D01*
X199165Y225082D01*
X199331Y225055D01*
X199487Y225032D01*
X199559Y225027D01*
X199626Y225021D01*
X199681Y225016D01*
X199731D01*
X199775Y225010D01*
X197811D01*
X201796D01*
X199831D01*
X199997Y225016D01*
X200158Y225032D01*
X200308Y225055D01*
X200447Y225088D01*
X200575Y225127D01*
X200691Y225171D01*
X200802Y225216D01*
X200897Y225266D01*
X200985Y225310D01*
X201057Y225354D01*
X201124Y225399D01*
X201180Y225437D01*
X201218Y225471D01*
X201252Y225493D01*
X201268Y225510D01*
X201274Y225515D01*
X201368Y225615D01*
X201446Y225721D01*
X201518Y225826D01*
X201574Y225943D01*
X201624Y226054D01*
X201668Y226170D01*
X201701Y226276D01*
X201729Y226387D01*
X201751Y226486D01*
X201768Y226581D01*
X201779Y226664D01*
X201784Y226736D01*
X201790Y226792D01*
X201796Y226836D01*
Y226875D01*
X201790Y227030D01*
X201773Y227175D01*
X201746Y227313D01*
X201712Y227441D01*
X201674Y227563D01*
X201629Y227674D01*
X201585Y227774D01*
X201535Y227868D01*
X201485Y227946D01*
X201440Y228018D01*
X201396Y228079D01*
X201357Y228129D01*
X201324Y228174D01*
X201296Y228201D01*
X201279Y228218D01*
X201274Y228224D01*
X201168Y228312D01*
X201057Y228390D01*
X200941Y228462D01*
X200824Y228518D01*
X200702Y228568D01*
X200580Y228612D01*
X200458Y228645D01*
X200342Y228673D01*
X200236Y228690D01*
X200131Y228707D01*
X200042Y228718D01*
X199964Y228729D01*
X199898D01*
X199848Y228734D01*
D02*
G37*
G36*
X201724Y224749D02*
D01*
X200974Y224278D01*
X200897Y224228D01*
X200819Y224178D01*
X200752Y224133D01*
X200691Y224089D01*
X200636Y224050D01*
X200580Y224017D01*
X200497Y223950D01*
X200430Y223900D01*
X200386Y223867D01*
X200358Y223839D01*
X200353Y223834D01*
X200286Y223773D01*
X200225Y223700D01*
X200175Y223634D01*
X200125Y223567D01*
X200086Y223512D01*
X200058Y223467D01*
X200036Y223434D01*
X200031Y223428D01*
Y223423D01*
X200014Y223517D01*
X199992Y223601D01*
X199970Y223678D01*
X199942Y223756D01*
X199914Y223822D01*
X199886Y223884D01*
X199859Y223945D01*
X199825Y223994D01*
X199798Y224039D01*
X199770Y224078D01*
X199742Y224111D01*
X199720Y224133D01*
X199703Y224155D01*
X199687Y224172D01*
X199681Y224178D01*
X199676Y224183D01*
X199620Y224228D01*
X199565Y224267D01*
X199442Y224333D01*
X199326Y224377D01*
X199209Y224405D01*
X199109Y224427D01*
X199071Y224433D01*
X199032D01*
X199004Y224439D01*
X198976D01*
X198965D01*
X198960D01*
X198837Y224433D01*
X198721Y224411D01*
X198621Y224383D01*
X198532Y224355D01*
X198460Y224322D01*
X198405Y224294D01*
X198388Y224283D01*
X198371Y224272D01*
X198366Y224267D01*
X198360D01*
X198266Y224200D01*
X198188Y224128D01*
X198127Y224056D01*
X198072Y223983D01*
X198038Y223917D01*
X198011Y223867D01*
X197994Y223834D01*
X197988Y223828D01*
Y223822D01*
X197972Y223767D01*
X197955Y223706D01*
X197927Y223567D01*
X197911Y223417D01*
X197894Y223273D01*
Y223201D01*
X197888Y223140D01*
Y223079D01*
X197883Y223029D01*
Y221297D01*
X201724D01*
Y224749D01*
D02*
G37*
G36*
Y220659D02*
D01*
Y218495D01*
X200275D01*
Y219183D01*
X200269Y219266D01*
Y219344D01*
X200264Y219416D01*
X200258Y219482D01*
X200253Y219543D01*
X200247Y219593D01*
Y219643D01*
X200242Y219682D01*
X200236Y219721D01*
X200231Y219749D01*
Y219771D01*
X200225Y219788D01*
Y219799D01*
X200203Y219876D01*
X200175Y219949D01*
X200147Y220015D01*
X200114Y220076D01*
X200086Y220126D01*
X200064Y220165D01*
X200047Y220187D01*
X200042Y220198D01*
X199986Y220270D01*
X199925Y220332D01*
X199859Y220393D01*
X199803Y220437D01*
X199748Y220476D01*
X199703Y220504D01*
X199676Y220520D01*
X199664Y220526D01*
X199570Y220570D01*
X199470Y220603D01*
X199365Y220626D01*
X199270Y220642D01*
X199193Y220653D01*
X199154D01*
X199126Y220659D01*
X201723D01*
X199065D01*
X198904Y220648D01*
X198754Y220626D01*
X198632Y220587D01*
X198521Y220548D01*
X198477Y220526D01*
X198438Y220504D01*
X198405Y220487D01*
X198371Y220465D01*
X198349Y220454D01*
X198332Y220443D01*
X198327Y220431D01*
X198321D01*
X198221Y220343D01*
X198138Y220254D01*
X198072Y220160D01*
X198022Y220076D01*
X197988Y219999D01*
X197960Y219937D01*
X197955Y219915D01*
X197950Y219899D01*
X197944Y219887D01*
Y219882D01*
X197933Y219838D01*
X197922Y219782D01*
X197916Y219715D01*
X197911Y219649D01*
X197899Y219494D01*
X197888Y219338D01*
Y219194D01*
X197883Y219133D01*
Y217718D01*
X201724D01*
Y220659D01*
D02*
G37*
%LPD*%
G36*
Y240112D02*
X198532D01*
Y241249D01*
X201724D01*
Y240112D01*
D02*
G37*
G36*
Y236626D02*
X198704Y237381D01*
X201724Y237387D01*
Y236626D01*
D02*
G37*
G36*
Y235122D02*
X198704D01*
X201724Y235877D01*
Y235122D01*
D02*
G37*
G36*
Y229883D02*
X200425Y230738D01*
X201724Y231587D01*
Y229883D01*
D02*
G37*
G36*
X199914Y227929D02*
X200031Y227924D01*
X200136Y227907D01*
X200231Y227891D01*
X200325Y227868D01*
X200408Y227841D01*
X200480Y227813D01*
X200547Y227785D01*
X200608Y227757D01*
X200658Y227730D01*
X200702Y227708D01*
X200741Y227680D01*
X200769Y227663D01*
X200785Y227646D01*
X200797Y227641D01*
X200802Y227635D01*
X200863Y227580D01*
X200913Y227519D01*
X200957Y227452D01*
X200996Y227391D01*
X201024Y227325D01*
X201052Y227263D01*
X201091Y227141D01*
X201118Y227036D01*
X201124Y226992D01*
X201130Y226953D01*
X201135Y226919D01*
Y226875D01*
X201130Y226792D01*
X201118Y226709D01*
X201102Y226631D01*
X201080Y226559D01*
X201030Y226425D01*
X200963Y226320D01*
X200935Y226270D01*
X200902Y226231D01*
X200874Y226192D01*
X200847Y226165D01*
X200830Y226142D01*
X200813Y226126D01*
X200802Y226115D01*
X200797Y226109D01*
X200730Y226059D01*
X200658Y226009D01*
X200580Y225970D01*
X200497Y225937D01*
X200336Y225882D01*
X200175Y225848D01*
X200097Y225837D01*
X200031Y225826D01*
X199964Y225820D01*
X199909Y225815D01*
X199864Y225809D01*
X199831D01*
X199809D01*
X199803D01*
X199681Y225815D01*
X199570Y225820D01*
X199465Y225837D01*
X199365Y225854D01*
X199276Y225876D01*
X199193Y225898D01*
X199120Y225926D01*
X199054Y225954D01*
X198993Y225981D01*
X198943Y226009D01*
X198904Y226031D01*
X198865Y226054D01*
X198837Y226070D01*
X198821Y226087D01*
X198810Y226092D01*
X198804Y226098D01*
X198743Y226153D01*
X198693Y226215D01*
X198649Y226281D01*
X198610Y226342D01*
X198577Y226409D01*
X198554Y226475D01*
X198510Y226597D01*
X198488Y226709D01*
X198482Y226753D01*
X198477Y226797D01*
X198471Y226831D01*
Y226875D01*
X198477Y226964D01*
X198488Y227047D01*
X198499Y227125D01*
X198521Y227197D01*
X198577Y227325D01*
X198604Y227386D01*
X198632Y227435D01*
X198665Y227485D01*
X198693Y227524D01*
X198721Y227558D01*
X198749Y227591D01*
X198771Y227613D01*
X198782Y227630D01*
X198793Y227635D01*
X198799Y227641D01*
X198865Y227691D01*
X198937Y227741D01*
X199010Y227780D01*
X199093Y227813D01*
X199259Y227863D01*
X199420Y227896D01*
X199492Y227913D01*
X199565Y227918D01*
X199626Y227924D01*
X199681Y227929D01*
X199731Y227935D01*
X199764D01*
X199786D01*
X199792D01*
X199914Y227929D01*
D02*
G37*
G36*
X201724Y222074D02*
X200119D01*
Y222324D01*
X200125Y222402D01*
X200131Y222468D01*
X200142Y222524D01*
X200147Y222568D01*
X200158Y222596D01*
X200164Y222613D01*
Y222618D01*
X200186Y222662D01*
X200208Y222707D01*
X200236Y222746D01*
X200258Y222785D01*
X200286Y222812D01*
X200308Y222835D01*
X200319Y222846D01*
X200325Y222851D01*
X200353Y222873D01*
X200380Y222901D01*
X200464Y222962D01*
X200552Y223029D01*
X200652Y223101D01*
X200741Y223162D01*
X200785Y223190D01*
X200819Y223212D01*
X200847Y223234D01*
X200869Y223251D01*
X200885Y223256D01*
X200891Y223262D01*
X201724Y223817D01*
Y222074D01*
D02*
G37*
G36*
X199076Y223634D02*
X199132Y223628D01*
X199181Y223612D01*
X199226Y223601D01*
X199259Y223584D01*
X199281Y223567D01*
X199298Y223562D01*
X199304Y223556D01*
X199343Y223523D01*
X199376Y223489D01*
X199426Y223417D01*
X199442Y223390D01*
X199453Y223362D01*
X199465Y223345D01*
Y223340D01*
X199470Y223312D01*
X199481Y223268D01*
X199487Y223223D01*
X199492Y223173D01*
X199498Y223057D01*
X199503Y222940D01*
X199509Y222829D01*
Y222074D01*
X198532D01*
Y222962D01*
X198538Y223012D01*
Y223134D01*
X198543Y223184D01*
Y223218D01*
X198549Y223234D01*
Y223240D01*
X198565Y223306D01*
X198588Y223367D01*
X198610Y223417D01*
X198638Y223456D01*
X198665Y223489D01*
X198682Y223517D01*
X198699Y223528D01*
X198704Y223534D01*
X198749Y223567D01*
X198804Y223595D01*
X198854Y223612D01*
X198904Y223628D01*
X198949Y223634D01*
X198982Y223639D01*
X199004D01*
X199015D01*
X199076Y223634D01*
D02*
G37*
G36*
X199143Y219854D02*
X199198Y219849D01*
X199248Y219832D01*
X199293Y219815D01*
X199331Y219799D01*
X199359Y219788D01*
X199376Y219777D01*
X199381Y219771D01*
X199426Y219738D01*
X199465Y219693D01*
X199498Y219654D01*
X199526Y219616D01*
X199542Y219582D01*
X199559Y219554D01*
X199565Y219532D01*
X199570Y219527D01*
X199581Y219494D01*
X199587Y219455D01*
X199603Y219366D01*
X199615Y219266D01*
X199620Y219166D01*
Y219066D01*
X199626Y219027D01*
Y218495D01*
X198532D01*
Y219072D01*
X198538Y219127D01*
Y219177D01*
X198543Y219227D01*
Y219299D01*
X198549Y219355D01*
X198554Y219394D01*
X198560Y219416D01*
Y219421D01*
X198577Y219488D01*
X198599Y219549D01*
X198626Y219604D01*
X198660Y219649D01*
X198688Y219682D01*
X198710Y219710D01*
X198726Y219727D01*
X198732Y219732D01*
X198787Y219777D01*
X198843Y219804D01*
X198904Y219827D01*
X198960Y219843D01*
X199010Y219854D01*
X199048Y219860D01*
X199071D01*
X199082D01*
X199143Y219854D01*
D02*
G37*
%LPC*%
G36*
X151390Y210654D02*
X151340D01*
X151218Y210648D01*
X151102Y210632D01*
X150996Y210610D01*
X150896Y210576D01*
X150802Y210537D01*
X150719Y210493D01*
X150641Y210449D01*
X150569Y210399D01*
X150508Y210354D01*
X150452Y210310D01*
X150402Y210265D01*
X150364Y210226D01*
X150336Y210193D01*
X150314Y210171D01*
X150303Y210154D01*
X150297Y210149D01*
X150247Y210077D01*
X150203Y210004D01*
X150169Y209932D01*
X150136Y209855D01*
X150086Y209710D01*
X150053Y209577D01*
X150042Y209522D01*
X150036Y209466D01*
X150025Y209416D01*
Y209372D01*
X150020Y209338D01*
Y209294D01*
X150025Y209189D01*
X150036Y209089D01*
X150053Y208994D01*
X150075Y208906D01*
X150097Y208828D01*
X150130Y208750D01*
X150158Y208678D01*
X150192Y208617D01*
X150225Y208561D01*
X150253Y208512D01*
X150286Y208467D01*
X150308Y208434D01*
X150330Y208406D01*
X150347Y208384D01*
X150358Y208373D01*
X150364Y208367D01*
X150430Y208306D01*
X150497Y208251D01*
X150569Y208201D01*
X150641Y208156D01*
X150708Y208123D01*
X150780Y208095D01*
X150908Y208051D01*
X150969Y208034D01*
X151024Y208023D01*
X151074Y208018D01*
X151113Y208012D01*
X151146Y208007D01*
X151196D01*
X151291Y208012D01*
X151385Y208029D01*
X151468Y208045D01*
X151546Y208068D01*
X151607Y208095D01*
X151657Y208112D01*
X151690Y208129D01*
X151696Y208134D01*
X151701D01*
X151585Y207479D01*
X150192D01*
Y206791D01*
X150020D01*
X152140D01*
X152517Y208795D01*
X151923Y208878D01*
X151873Y208828D01*
X151823Y208784D01*
X151773Y208745D01*
X151723Y208711D01*
X151629Y208661D01*
X151540Y208628D01*
X151462Y208611D01*
X151407Y208600D01*
X151385Y208595D01*
X151351D01*
X151263Y208600D01*
X151180Y208623D01*
X151107Y208650D01*
X151046Y208684D01*
X151002Y208722D01*
X150963Y208750D01*
X150941Y208772D01*
X150935Y208778D01*
X150880Y208850D01*
X150841Y208933D01*
X150813Y209022D01*
X150796Y209111D01*
X150780Y209189D01*
X150774Y209250D01*
Y209278D01*
Y209294D01*
Y209305D01*
Y209311D01*
X150780Y209444D01*
X150796Y209560D01*
X150824Y209655D01*
X150852Y209733D01*
X150885Y209799D01*
X150908Y209844D01*
X150930Y209866D01*
X150935Y209877D01*
X150996Y209938D01*
X151063Y209988D01*
X151129Y210021D01*
X151191Y210043D01*
X151246Y210054D01*
X151291Y210060D01*
X151318Y210066D01*
X151329D01*
X151401Y210060D01*
X151474Y210043D01*
X151535Y210021D01*
X151585Y209993D01*
X151629Y209966D01*
X151662Y209944D01*
X151684Y209927D01*
X151690Y209921D01*
X151740Y209860D01*
X151784Y209799D01*
X151818Y209733D01*
X151840Y209671D01*
X151857Y209616D01*
X151868Y209566D01*
X151873Y209538D01*
Y209527D01*
X152606Y209605D01*
X152589Y209694D01*
X152573Y209777D01*
X152517Y209927D01*
X152456Y210060D01*
X152423Y210116D01*
X152384Y210171D01*
X152350Y210215D01*
X152323Y210254D01*
X152289Y210288D01*
X152267Y210321D01*
X152245Y210343D01*
X152228Y210360D01*
X152217Y210365D01*
X152212Y210371D01*
X152145Y210421D01*
X152079Y210465D01*
X152006Y210504D01*
X151934Y210532D01*
X151784Y210587D01*
X151651Y210621D01*
X151585Y210632D01*
X151529Y210637D01*
X151474Y210643D01*
X151429Y210648D01*
X151390Y210654D01*
D02*
G37*
G36*
X178524D02*
D01*
Y208650D01*
X178513Y208856D01*
X178491Y209044D01*
X178452Y209216D01*
X178436Y209300D01*
X178413Y209372D01*
X178391Y209438D01*
X178375Y209500D01*
X178352Y209549D01*
X178336Y209594D01*
X178324Y209627D01*
X178313Y209655D01*
X178302Y209671D01*
Y209677D01*
X178208Y209844D01*
X178103Y209988D01*
X177991Y210116D01*
X177881Y210215D01*
X177831Y210260D01*
X177781Y210299D01*
X177742Y210332D01*
X177703Y210354D01*
X177675Y210376D01*
X177647Y210393D01*
X177636Y210399D01*
X177631Y210404D01*
X177542Y210449D01*
X177459Y210487D01*
X177276Y210548D01*
X177098Y210593D01*
X176937Y210621D01*
X176859Y210632D01*
X176793Y210643D01*
X176732Y210648D01*
X176676D01*
X176637Y210654D01*
X176576D01*
X176399Y210648D01*
X176232Y210626D01*
X176071Y210598D01*
X175933Y210565D01*
X175871Y210548D01*
X175816Y210532D01*
X175766Y210515D01*
X175722Y210504D01*
X175688Y210493D01*
X175666Y210482D01*
X175649Y210476D01*
X175644D01*
X175477Y210410D01*
X175339Y210337D01*
X175216Y210265D01*
X175111Y210204D01*
X175033Y210149D01*
X175006Y210127D01*
X174978Y210104D01*
X174961Y210088D01*
X174945Y210077D01*
X174934Y210066D01*
Y208523D01*
X176604D01*
Y209172D01*
X175716D01*
Y209666D01*
X175783Y209716D01*
X175855Y209760D01*
X175927Y209799D01*
X175994Y209833D01*
X176049Y209860D01*
X176099Y209882D01*
X176127Y209893D01*
X176132Y209899D01*
X176138D01*
X176227Y209932D01*
X176315Y209955D01*
X176399Y209971D01*
X176471Y209982D01*
X176537Y209988D01*
X176582Y209993D01*
X176626D01*
X176715Y209988D01*
X176804Y209977D01*
X176882Y209960D01*
X176959Y209938D01*
X177098Y209882D01*
X177154Y209855D01*
X177209Y209821D01*
X177259Y209788D01*
X177303Y209760D01*
X177337Y209727D01*
X177370Y209705D01*
X177392Y209683D01*
X177409Y209666D01*
X177420Y209655D01*
X177425Y209649D01*
X177475Y209583D01*
X177525Y209505D01*
X177564Y209427D01*
X177597Y209344D01*
X177653Y209172D01*
X177686Y209005D01*
X177697Y208928D01*
X177708Y208850D01*
X177714Y208789D01*
X177720Y208728D01*
X177725Y208684D01*
Y208645D01*
Y208623D01*
Y208617D01*
X177720Y208501D01*
X177714Y208395D01*
X177697Y208290D01*
X177681Y208195D01*
X177658Y208112D01*
X177631Y208034D01*
X177603Y207962D01*
X177575Y207895D01*
X177553Y207840D01*
X177525Y207790D01*
X177498Y207751D01*
X177475Y207718D01*
X177459Y207690D01*
X177442Y207674D01*
X177436Y207662D01*
X177431Y207657D01*
X177370Y207601D01*
X177309Y207546D01*
X177242Y207507D01*
X177176Y207468D01*
X177109Y207435D01*
X177042Y207407D01*
X176915Y207368D01*
X176854Y207357D01*
X176798Y207346D01*
X176748Y207341D01*
X176704Y207335D01*
X176671Y207329D01*
X176621D01*
X176499Y207335D01*
X176393Y207357D01*
X176299Y207379D01*
X176216Y207413D01*
X176154Y207440D01*
X176104Y207468D01*
X176077Y207490D01*
X176066Y207496D01*
X175988Y207562D01*
X175921Y207635D01*
X175866Y207707D01*
X175827Y207779D01*
X175794Y207846D01*
X175771Y207895D01*
X175760Y207929D01*
X175755Y207934D01*
Y207940D01*
X174983Y207796D01*
X175006Y207701D01*
X175039Y207607D01*
X175072Y207524D01*
X175117Y207446D01*
X175155Y207368D01*
X175200Y207302D01*
X175244Y207241D01*
X175289Y207185D01*
X175333Y207135D01*
X175372Y207091D01*
X175405Y207052D01*
X175438Y207024D01*
X175466Y207002D01*
X175488Y206980D01*
X175500Y206974D01*
X175505Y206969D01*
X175583Y206913D01*
X175666Y206869D01*
X175755Y206830D01*
X175849Y206797D01*
X176032Y206741D01*
X176210Y206708D01*
X176293Y206691D01*
X176371Y206686D01*
X176443Y206680D01*
X176504Y206675D01*
X176554Y206669D01*
X174934D01*
X178524D01*
Y210654D01*
D02*
G37*
G36*
X157495Y210582D02*
D01*
Y207390D01*
X156358D01*
Y210582D01*
X155581D01*
Y207390D01*
X154448D01*
Y206741D01*
X157495D01*
Y210582D01*
D02*
G37*
G36*
X152606Y210654D02*
D01*
Y206952D01*
Y210654D01*
D02*
G37*
G36*
X174212Y210582D02*
X171160D01*
Y206741D01*
X171875D01*
Y209327D01*
X173463Y206741D01*
X174212D01*
Y210582D01*
D02*
G37*
G36*
X170338D02*
X168884D01*
X168734Y210576D01*
X168595Y210571D01*
X168479Y210560D01*
X168385Y210543D01*
X168307Y210526D01*
X168246Y210515D01*
X168229Y210510D01*
X168212D01*
X168207Y210504D01*
X168201D01*
X168079Y210460D01*
X167968Y210410D01*
X167879Y210360D01*
X167802Y210310D01*
X167741Y210265D01*
X167696Y210232D01*
X167668Y210210D01*
X167657Y210199D01*
X167563Y210093D01*
X167480Y209982D01*
X167408Y209866D01*
X167352Y209760D01*
X167308Y209660D01*
X167286Y209622D01*
X167274Y209588D01*
X167263Y209555D01*
X167252Y209533D01*
X167247Y209522D01*
Y209516D01*
X167208Y209383D01*
X167175Y209244D01*
X167152Y209111D01*
X167141Y208983D01*
X167136Y208922D01*
X167130Y208867D01*
Y208822D01*
X167125Y208778D01*
Y208700D01*
X167130Y208506D01*
X167147Y208334D01*
X167152Y208251D01*
X167164Y208179D01*
X167175Y208106D01*
X167186Y208045D01*
X167202Y207990D01*
X167213Y207940D01*
X167225Y207895D01*
X167230Y207862D01*
X167241Y207835D01*
X167247Y207812D01*
X167252Y207801D01*
Y207796D01*
X167302Y207662D01*
X167363Y207540D01*
X167424Y207435D01*
X167485Y207346D01*
X167535Y207274D01*
X167580Y207218D01*
X167607Y207185D01*
X167613Y207174D01*
X167619D01*
X167713Y207085D01*
X167807Y207013D01*
X167907Y206952D01*
X167996Y206902D01*
X168074Y206863D01*
X168140Y206836D01*
X168163Y206830D01*
X168179Y206824D01*
X168190Y206819D01*
X168196D01*
X168301Y206791D01*
X168418Y206774D01*
X168540Y206758D01*
X168656Y206752D01*
X168762Y206747D01*
X168806Y206741D01*
X167125D01*
D01*
X170338D01*
Y210582D01*
D02*
G37*
G36*
X164971D02*
X161758D01*
X163517D01*
X163367Y210576D01*
X163228Y210571D01*
X163112Y210560D01*
X163018Y210543D01*
X162940Y210526D01*
X162879Y210515D01*
X162862Y210510D01*
X162846D01*
X162840Y210504D01*
X162835D01*
X162712Y210460D01*
X162601Y210410D01*
X162513Y210360D01*
X162435Y210310D01*
X162374Y210265D01*
X162329Y210232D01*
X162302Y210210D01*
X162291Y210199D01*
X162196Y210093D01*
X162113Y209982D01*
X162041Y209866D01*
X161985Y209760D01*
X161941Y209660D01*
X161919Y209622D01*
X161908Y209588D01*
X161897Y209555D01*
X161885Y209533D01*
X161880Y209522D01*
Y209516D01*
X161841Y209383D01*
X161808Y209244D01*
X161785Y209111D01*
X161774Y208983D01*
X161769Y208922D01*
X161763Y208867D01*
Y208822D01*
X161758Y208778D01*
Y208700D01*
X161763Y208506D01*
X161780Y208334D01*
X161785Y208251D01*
X161797Y208179D01*
X161808Y208106D01*
X161819Y208045D01*
X161836Y207990D01*
X161847Y207940D01*
X161858Y207895D01*
X161863Y207862D01*
X161874Y207835D01*
X161880Y207812D01*
X161885Y207801D01*
Y207796D01*
X161935Y207662D01*
X161996Y207540D01*
X162057Y207435D01*
X162118Y207346D01*
X162169Y207274D01*
X162213Y207218D01*
X162241Y207185D01*
X162246Y207174D01*
X162252D01*
X162346Y207085D01*
X162440Y207013D01*
X162540Y206952D01*
X162629Y206902D01*
X162707Y206863D01*
X162773Y206836D01*
X162796Y206830D01*
X162812Y206824D01*
X162823Y206819D01*
X162829D01*
X162934Y206791D01*
X163051Y206774D01*
X163173Y206758D01*
X163290Y206752D01*
X163395Y206747D01*
X163439Y206741D01*
X161758D01*
X164971D01*
Y210582D01*
D02*
G37*
G36*
X161491D02*
D01*
Y206741D01*
X160004D01*
X161491Y210582D01*
X160670D01*
X160354Y209710D01*
X158811D01*
X158478Y210582D01*
X160602D01*
X157640D01*
D01*
X159183Y206741D01*
X157640D01*
X161491D01*
Y210582D01*
D02*
G37*
G36*
X149859D02*
D01*
Y206741D01*
X148482Y210582D01*
X147644D01*
X146279Y206741D01*
D01*
X149859D01*
Y210582D01*
D02*
G37*
%LPD*%
G36*
X178524Y206669D02*
X176621D01*
X176821Y206675D01*
X176998Y206697D01*
X177076Y206713D01*
X177154Y206730D01*
X177226Y206747D01*
X177287Y206763D01*
X177342Y206785D01*
X177398Y206802D01*
X177436Y206819D01*
X177475Y206830D01*
X177503Y206847D01*
X177525Y206852D01*
X177536Y206863D01*
X177542D01*
X177714Y206963D01*
X177786Y207024D01*
X177858Y207080D01*
X177925Y207141D01*
X177986Y207202D01*
X178042Y207263D01*
X178091Y207318D01*
X178130Y207374D01*
X178169Y207424D01*
X178202Y207468D01*
X178230Y207507D01*
X178247Y207540D01*
X178263Y207562D01*
X178269Y207579D01*
X178275Y207585D01*
X178319Y207674D01*
X178358Y207762D01*
X178419Y207945D01*
X178463Y208129D01*
X178491Y208290D01*
X178502Y208367D01*
X178513Y208434D01*
X178519Y208495D01*
Y208550D01*
X178524Y208589D01*
Y206669D01*
D02*
G37*
G36*
X173496Y208051D02*
X171937Y210582D01*
X173496D01*
Y208051D01*
D02*
G37*
G36*
X169561Y207390D02*
X169056D01*
X168984Y207396D01*
X168917D01*
X168862Y207402D01*
X168812D01*
X168762Y207407D01*
X168723D01*
X168662Y207418D01*
X168618Y207424D01*
X168590Y207429D01*
X168584D01*
X168507Y207452D01*
X168440Y207479D01*
X168379Y207507D01*
X168323Y207540D01*
X168285Y207568D01*
X168251Y207590D01*
X168235Y207607D01*
X168229Y207612D01*
X168179Y207668D01*
X168135Y207729D01*
X168096Y207790D01*
X168063Y207846D01*
X168040Y207901D01*
X168024Y207945D01*
X168013Y207973D01*
X168007Y207979D01*
Y207984D01*
X167979Y208084D01*
X167957Y208190D01*
X167946Y208306D01*
X167935Y208417D01*
X167929Y208512D01*
X167924Y208556D01*
Y208595D01*
Y208623D01*
Y208645D01*
Y208661D01*
Y208667D01*
X167929Y208822D01*
X167935Y208967D01*
X167952Y209083D01*
X167963Y209183D01*
X167979Y209266D01*
X167985Y209300D01*
X167996Y209322D01*
X168001Y209344D01*
Y209361D01*
X168007Y209366D01*
Y209372D01*
X168040Y209461D01*
X168068Y209538D01*
X168107Y209599D01*
X168135Y209649D01*
X168163Y209688D01*
X168185Y209716D01*
X168201Y209733D01*
X168207Y209738D01*
X168257Y209777D01*
X168307Y209810D01*
X168357Y209838D01*
X168407Y209860D01*
X168451Y209877D01*
X168484Y209888D01*
X168507Y209899D01*
X168518D01*
X168579Y209910D01*
X168651Y209916D01*
X168729Y209927D01*
X168806D01*
X168878Y209932D01*
X169561D01*
Y207390D01*
D02*
G37*
G36*
X164194D02*
X163689D01*
X163617Y207396D01*
X163550D01*
X163495Y207402D01*
X163445D01*
X163395Y207407D01*
X163356D01*
X163295Y207418D01*
X163251Y207424D01*
X163223Y207429D01*
X163217D01*
X163140Y207452D01*
X163073Y207479D01*
X163012Y207507D01*
X162957Y207540D01*
X162918Y207568D01*
X162884Y207590D01*
X162868Y207607D01*
X162862Y207612D01*
X162812Y207668D01*
X162768Y207729D01*
X162729Y207790D01*
X162696Y207846D01*
X162673Y207901D01*
X162657Y207945D01*
X162646Y207973D01*
X162640Y207979D01*
Y207984D01*
X162612Y208084D01*
X162590Y208190D01*
X162579Y208306D01*
X162568Y208417D01*
X162563Y208512D01*
X162557Y208556D01*
Y208595D01*
Y208623D01*
Y208645D01*
Y208661D01*
Y208667D01*
X162563Y208822D01*
X162568Y208967D01*
X162585Y209083D01*
X162596Y209183D01*
X162612Y209266D01*
X162618Y209300D01*
X162629Y209322D01*
X162635Y209344D01*
Y209361D01*
X162640Y209366D01*
Y209372D01*
X162673Y209461D01*
X162701Y209538D01*
X162740Y209599D01*
X162768Y209649D01*
X162796Y209688D01*
X162818Y209716D01*
X162835Y209733D01*
X162840Y209738D01*
X162890Y209777D01*
X162940Y209810D01*
X162990Y209838D01*
X163040Y209860D01*
X163084Y209877D01*
X163118Y209888D01*
X163140Y209899D01*
X163151D01*
X163212Y209910D01*
X163284Y209916D01*
X163362Y209927D01*
X163439D01*
X163512Y209932D01*
X164194D01*
Y207390D01*
D02*
G37*
G36*
X159599Y207635D02*
X159061Y209061D01*
X160120D01*
X159599Y207635D01*
D02*
G37*
G36*
X149021Y206741D02*
X147106D01*
X148044Y209583D01*
X149021Y206741D01*
D02*
G37*
%LPC*%
G36*
X8578Y20621D02*
X7801D01*
Y16781D01*
X8578D01*
Y20621D01*
D02*
G37*
G36*
X14628Y20643D02*
X13329D01*
Y16708D01*
Y18679D01*
X13334Y18479D01*
X13346Y18296D01*
X13362Y18124D01*
X13385Y17968D01*
X13407Y17829D01*
X13434Y17702D01*
X13468Y17591D01*
X13501Y17491D01*
X13529Y17408D01*
X13562Y17330D01*
X13590Y17269D01*
X13618Y17219D01*
X13634Y17186D01*
X13651Y17158D01*
X13662Y17141D01*
X13668Y17136D01*
X13734Y17058D01*
X13806Y16997D01*
X13878Y16936D01*
X13956Y16892D01*
X14028Y16847D01*
X14106Y16814D01*
X14178Y16786D01*
X14250Y16764D01*
X14317Y16742D01*
X14378Y16730D01*
X14433Y16719D01*
X14478Y16714D01*
X14517D01*
X14550Y16708D01*
X13329D01*
X14572D01*
X14672Y16714D01*
X14766Y16725D01*
X14861Y16747D01*
X14944Y16769D01*
X15022Y16797D01*
X15094Y16830D01*
X15155Y16869D01*
X15216Y16908D01*
X15266Y16941D01*
X15316Y16980D01*
X15355Y17014D01*
X15388Y17041D01*
X15410Y17063D01*
X15427Y17086D01*
X15438Y17097D01*
X15443Y17102D01*
X15510Y17197D01*
X15566Y17308D01*
X15621Y17424D01*
X15660Y17552D01*
X15699Y17680D01*
X15727Y17807D01*
X15754Y17940D01*
X15777Y18068D01*
X15788Y18190D01*
X15799Y18301D01*
X15810Y18407D01*
X15815Y18495D01*
X15821Y18568D01*
Y18673D01*
X15815Y18873D01*
X15804Y19056D01*
X15788Y19222D01*
X15760Y19378D01*
X15732Y19522D01*
X15704Y19650D01*
X15665Y19766D01*
X15632Y19866D01*
X15599Y19961D01*
X15566Y20033D01*
X15532Y20099D01*
X15505Y20155D01*
X15477Y20194D01*
X15460Y20222D01*
X15449Y20238D01*
X15443Y20244D01*
X15382Y20316D01*
X15316Y20377D01*
X15244Y20427D01*
X15171Y20477D01*
X15099Y20516D01*
X15027Y20543D01*
X14961Y20571D01*
X14888Y20593D01*
X14822Y20610D01*
X14766Y20621D01*
X14711Y20632D01*
X14667Y20638D01*
X14628Y20643D01*
D02*
G37*
G36*
X12885Y20693D02*
X9161D01*
Y16708D01*
Y18673D01*
X9166Y18507D01*
X9183Y18346D01*
X9205Y18196D01*
X9239Y18057D01*
X9278Y17929D01*
X9322Y17813D01*
X9366Y17702D01*
X9416Y17607D01*
X9461Y17519D01*
X9505Y17447D01*
X9549Y17380D01*
X9588Y17324D01*
X9622Y17286D01*
X9644Y17252D01*
X9660Y17236D01*
X9666Y17230D01*
X9766Y17136D01*
X9871Y17058D01*
X9977Y16986D01*
X10093Y16930D01*
X10204Y16880D01*
X10321Y16836D01*
X10426Y16803D01*
X10537Y16775D01*
X10637Y16753D01*
X10732Y16736D01*
X10815Y16725D01*
X10887Y16719D01*
X10942Y16714D01*
X10987Y16708D01*
X9161D01*
X12885D01*
X11026D01*
X11181Y16714D01*
X11325Y16730D01*
X11464Y16758D01*
X11592Y16792D01*
X11714Y16830D01*
X11825Y16875D01*
X11925Y16919D01*
X12019Y16969D01*
X12097Y17019D01*
X12169Y17063D01*
X12230Y17108D01*
X12280Y17147D01*
X12324Y17180D01*
X12352Y17208D01*
X12369Y17224D01*
X12374Y17230D01*
X12463Y17335D01*
X12541Y17447D01*
X12613Y17563D01*
X12668Y17680D01*
X12718Y17802D01*
X12763Y17924D01*
X12796Y18046D01*
X12824Y18162D01*
X12841Y18268D01*
X12857Y18373D01*
X12868Y18462D01*
X12879Y18540D01*
Y18606D01*
X12885Y18656D01*
Y18695D01*
X12879Y18867D01*
X12863Y19028D01*
X12841Y19178D01*
X12807Y19322D01*
X12768Y19450D01*
X12724Y19572D01*
X12680Y19683D01*
X12630Y19778D01*
X12580Y19866D01*
X12535Y19944D01*
X12491Y20011D01*
X12452Y20066D01*
X12424Y20105D01*
X12397Y20138D01*
X12380Y20155D01*
X12374Y20160D01*
X12274Y20255D01*
X12169Y20338D01*
X12058Y20410D01*
X11947Y20471D01*
X11830Y20521D01*
X11720Y20566D01*
X11609Y20599D01*
X11503Y20627D01*
X11403Y20649D01*
X11309Y20665D01*
X11225Y20677D01*
X11153Y20688D01*
X11098D01*
X11053Y20693D01*
X12885D01*
D02*
G37*
%LPD*%
G36*
X14472Y20638D02*
X14378Y20627D01*
X14284Y20604D01*
X14200Y20582D01*
X14123Y20549D01*
X14051Y20516D01*
X13989Y20482D01*
X13928Y20444D01*
X13878Y20405D01*
X13828Y20371D01*
X13790Y20338D01*
X13762Y20305D01*
X13734Y20282D01*
X13717Y20260D01*
X13706Y20249D01*
X13701Y20244D01*
X13634Y20149D01*
X13579Y20038D01*
X13529Y19922D01*
X13484Y19800D01*
X13451Y19672D01*
X13418Y19539D01*
X13396Y19411D01*
X13373Y19284D01*
X13362Y19161D01*
X13351Y19050D01*
X13340Y18945D01*
X13334Y18856D01*
X13329Y18784D01*
Y20643D01*
X14572D01*
X14472Y20638D01*
D02*
G37*
G36*
X14622Y20027D02*
X14667Y20022D01*
X14705Y20005D01*
X14739Y19988D01*
X14766Y19972D01*
X14789Y19961D01*
X14800Y19950D01*
X14805Y19944D01*
X14839Y19905D01*
X14872Y19855D01*
X14900Y19800D01*
X14927Y19744D01*
X14944Y19689D01*
X14961Y19644D01*
X14966Y19616D01*
X14972Y19611D01*
Y19605D01*
X14983Y19556D01*
X14994Y19494D01*
X15005Y19422D01*
X15016Y19350D01*
X15027Y19200D01*
X15033Y19045D01*
X15038Y18973D01*
Y18901D01*
X15044Y18839D01*
Y18784D01*
Y18740D01*
Y18701D01*
Y18679D01*
Y18673D01*
Y18551D01*
X15038Y18434D01*
Y18329D01*
X15033Y18235D01*
X15027Y18146D01*
X15022Y18068D01*
X15011Y17996D01*
X15005Y17935D01*
X14999Y17879D01*
X14988Y17835D01*
X14983Y17796D01*
X14977Y17763D01*
X14972Y17741D01*
Y17718D01*
X14966Y17713D01*
Y17707D01*
X14944Y17630D01*
X14916Y17569D01*
X14888Y17513D01*
X14866Y17474D01*
X14844Y17441D01*
X14822Y17419D01*
X14811Y17408D01*
X14805Y17402D01*
X14766Y17374D01*
X14728Y17352D01*
X14689Y17341D01*
X14650Y17330D01*
X14622Y17324D01*
X14594Y17319D01*
X14572D01*
X14522Y17324D01*
X14478Y17330D01*
X14439Y17347D01*
X14406Y17363D01*
X14378Y17374D01*
X14356Y17391D01*
X14345Y17397D01*
X14339Y17402D01*
X14306Y17441D01*
X14273Y17491D01*
X14245Y17546D01*
X14217Y17602D01*
X14200Y17652D01*
X14184Y17696D01*
X14178Y17724D01*
X14173Y17735D01*
X14161Y17791D01*
X14150Y17852D01*
X14139Y17918D01*
X14134Y17990D01*
X14123Y18146D01*
X14117Y18301D01*
X14111Y18373D01*
Y18446D01*
X14106Y18507D01*
Y18562D01*
Y18606D01*
Y18645D01*
Y18667D01*
Y18673D01*
Y18795D01*
X14111Y18912D01*
Y19012D01*
X14117Y19112D01*
X14123Y19195D01*
X14128Y19278D01*
X14134Y19345D01*
X14145Y19411D01*
X14150Y19467D01*
X14156Y19511D01*
X14161Y19550D01*
X14167Y19583D01*
X14173Y19605D01*
Y19628D01*
X14178Y19633D01*
Y19639D01*
X14200Y19716D01*
X14228Y19783D01*
X14250Y19833D01*
X14278Y19877D01*
X14300Y19905D01*
X14317Y19927D01*
X14328Y19938D01*
X14333Y19944D01*
X14372Y19972D01*
X14417Y19994D01*
X14456Y20011D01*
X14494Y20022D01*
X14522Y20027D01*
X14550Y20033D01*
X14572D01*
X14622Y20027D01*
D02*
G37*
G36*
X10848Y20688D02*
X10687Y20671D01*
X10548Y20643D01*
X10426Y20616D01*
X10376Y20599D01*
X10326Y20588D01*
X10288Y20577D01*
X10254Y20560D01*
X10227Y20554D01*
X10204Y20543D01*
X10193Y20538D01*
X10188D01*
X10088Y20493D01*
X9993Y20438D01*
X9910Y20377D01*
X9838Y20321D01*
X9777Y20271D01*
X9727Y20227D01*
X9699Y20199D01*
X9694Y20194D01*
X9688Y20188D01*
X9611Y20099D01*
X9538Y20005D01*
X9477Y19922D01*
X9427Y19839D01*
X9388Y19766D01*
X9355Y19711D01*
X9350Y19689D01*
X9339Y19672D01*
X9333Y19667D01*
Y19661D01*
X9278Y19505D01*
X9233Y19339D01*
X9205Y19173D01*
X9183Y19017D01*
X9178Y18945D01*
X9172Y18878D01*
X9166Y18823D01*
Y18773D01*
X9161Y18729D01*
Y20693D01*
X11015D01*
X10848Y20688D01*
D02*
G37*
G36*
X11114Y20027D02*
X11198Y20016D01*
X11275Y20005D01*
X11348Y19983D01*
X11475Y19927D01*
X11536Y19900D01*
X11586Y19872D01*
X11636Y19839D01*
X11675Y19811D01*
X11708Y19783D01*
X11742Y19755D01*
X11764Y19733D01*
X11780Y19722D01*
X11786Y19711D01*
X11792Y19705D01*
X11841Y19639D01*
X11891Y19567D01*
X11930Y19494D01*
X11964Y19411D01*
X12014Y19245D01*
X12047Y19084D01*
X12064Y19012D01*
X12069Y18939D01*
X12075Y18878D01*
X12080Y18823D01*
X12086Y18773D01*
Y18740D01*
Y18717D01*
Y18712D01*
X12080Y18590D01*
X12075Y18473D01*
X12058Y18368D01*
X12041Y18273D01*
X12019Y18179D01*
X11991Y18096D01*
X11964Y18024D01*
X11936Y17957D01*
X11908Y17896D01*
X11880Y17846D01*
X11858Y17802D01*
X11830Y17763D01*
X11814Y17735D01*
X11797Y17718D01*
X11792Y17707D01*
X11786Y17702D01*
X11731Y17641D01*
X11670Y17591D01*
X11603Y17546D01*
X11542Y17507D01*
X11475Y17480D01*
X11414Y17452D01*
X11292Y17413D01*
X11187Y17385D01*
X11142Y17380D01*
X11103Y17374D01*
X11070Y17369D01*
X11026D01*
X10942Y17374D01*
X10859Y17385D01*
X10781Y17402D01*
X10709Y17424D01*
X10576Y17474D01*
X10471Y17541D01*
X10421Y17569D01*
X10382Y17602D01*
X10343Y17630D01*
X10315Y17657D01*
X10293Y17674D01*
X10276Y17691D01*
X10265Y17702D01*
X10260Y17707D01*
X10210Y17774D01*
X10160Y17846D01*
X10121Y17924D01*
X10088Y18007D01*
X10032Y18168D01*
X9999Y18329D01*
X9988Y18407D01*
X9977Y18473D01*
X9971Y18540D01*
X9966Y18595D01*
X9960Y18640D01*
Y18673D01*
Y18695D01*
Y18701D01*
X9966Y18823D01*
X9971Y18934D01*
X9988Y19039D01*
X10005Y19139D01*
X10027Y19228D01*
X10049Y19311D01*
X10077Y19383D01*
X10104Y19450D01*
X10132Y19511D01*
X10160Y19561D01*
X10182Y19600D01*
X10204Y19639D01*
X10221Y19667D01*
X10238Y19683D01*
X10243Y19694D01*
X10249Y19700D01*
X10304Y19761D01*
X10365Y19811D01*
X10432Y19855D01*
X10493Y19894D01*
X10560Y19927D01*
X10626Y19950D01*
X10748Y19994D01*
X10859Y20016D01*
X10904Y20022D01*
X10948Y20027D01*
X10981Y20033D01*
X11026D01*
X11114Y20027D01*
D02*
G37*
%LPC*%
G36*
X102289Y210654D02*
D01*
Y208650D01*
X102278Y208856D01*
X102256Y209044D01*
X102217Y209216D01*
X102200Y209300D01*
X102178Y209372D01*
X102156Y209438D01*
X102139Y209500D01*
X102117Y209549D01*
X102100Y209594D01*
X102089Y209627D01*
X102078Y209655D01*
X102067Y209671D01*
Y209677D01*
X101973Y209844D01*
X101867Y209988D01*
X101756Y210116D01*
X101645Y210215D01*
X101595Y210260D01*
X101545Y210299D01*
X101506Y210332D01*
X101468Y210354D01*
X101440Y210376D01*
X101412Y210393D01*
X101401Y210399D01*
X101395Y210404D01*
X101307Y210449D01*
X101223Y210487D01*
X101040Y210548D01*
X100863Y210593D01*
X100702Y210621D01*
X100624Y210632D01*
X100557Y210643D01*
X100496Y210648D01*
X100441D01*
X100402Y210654D01*
X102289D01*
X98698D01*
D01*
X100341D01*
X100163Y210648D01*
X99997Y210626D01*
X99836Y210598D01*
X99697Y210565D01*
X99636Y210548D01*
X99581Y210532D01*
X99531Y210515D01*
X99486Y210504D01*
X99453Y210493D01*
X99431Y210482D01*
X99414Y210476D01*
X99409D01*
X99242Y210410D01*
X99103Y210337D01*
X98981Y210265D01*
X98876Y210204D01*
X98798Y210149D01*
X98770Y210127D01*
X98743Y210104D01*
X98726Y210088D01*
X98709Y210077D01*
X98698Y210066D01*
Y208523D01*
X100369D01*
Y209172D01*
X99481D01*
Y209666D01*
X99547Y209716D01*
X99619Y209760D01*
X99692Y209799D01*
X99758Y209833D01*
X99814Y209860D01*
X99864Y209882D01*
X99891Y209893D01*
X99897Y209899D01*
X99902D01*
X99991Y209932D01*
X100080Y209955D01*
X100163Y209971D01*
X100235Y209982D01*
X100302Y209988D01*
X100347Y209993D01*
X100391D01*
X100480Y209988D01*
X100568Y209977D01*
X100646Y209960D01*
X100724Y209938D01*
X100863Y209882D01*
X100918Y209855D01*
X100974Y209821D01*
X101024Y209788D01*
X101068Y209760D01*
X101101Y209727D01*
X101135Y209705D01*
X101157Y209683D01*
X101173Y209666D01*
X101184Y209655D01*
X101190Y209649D01*
X101240Y209583D01*
X101290Y209505D01*
X101329Y209427D01*
X101362Y209344D01*
X101418Y209172D01*
X101451Y209005D01*
X101462Y208928D01*
X101473Y208850D01*
X101479Y208789D01*
X101484Y208728D01*
X101490Y208684D01*
Y208645D01*
Y208623D01*
Y208617D01*
X101484Y208501D01*
X101479Y208395D01*
X101462Y208290D01*
X101445Y208195D01*
X101423Y208112D01*
X101395Y208034D01*
X101368Y207962D01*
X101340Y207895D01*
X101318Y207840D01*
X101290Y207790D01*
X101262Y207751D01*
X101240Y207718D01*
X101223Y207690D01*
X101207Y207674D01*
X101201Y207662D01*
X101196Y207657D01*
X101135Y207601D01*
X101074Y207546D01*
X101007Y207507D01*
X100940Y207468D01*
X100874Y207435D01*
X100807Y207407D01*
X100680Y207368D01*
X100618Y207357D01*
X100563Y207346D01*
X100513Y207341D01*
X100469Y207335D01*
X100435Y207329D01*
X100385D01*
X100263Y207335D01*
X100158Y207357D01*
X100063Y207379D01*
X99980Y207413D01*
X99919Y207440D01*
X99869Y207468D01*
X99841Y207490D01*
X99830Y207496D01*
X99753Y207562D01*
X99686Y207635D01*
X99630Y207707D01*
X99592Y207779D01*
X99558Y207846D01*
X99536Y207895D01*
X99525Y207929D01*
X99519Y207934D01*
Y207940D01*
X98748Y207796D01*
X98770Y207701D01*
X98804Y207607D01*
X98837Y207524D01*
X98881Y207446D01*
X98920Y207368D01*
X98965Y207302D01*
X99009Y207241D01*
X99053Y207185D01*
X99098Y207135D01*
X99137Y207091D01*
X99170Y207052D01*
X99203Y207024D01*
X99231Y207002D01*
X99253Y206980D01*
X99264Y206974D01*
X99270Y206969D01*
X99348Y206913D01*
X99431Y206869D01*
X99519Y206830D01*
X99614Y206797D01*
X99797Y206741D01*
X99975Y206708D01*
X100058Y206691D01*
X100136Y206686D01*
X100208Y206680D01*
X100269Y206675D01*
X100319Y206669D01*
X102289D01*
Y210654D01*
D02*
G37*
G36*
X67424D02*
X64838D01*
D01*
X66158D01*
X66036Y210648D01*
X65920Y210632D01*
X65814Y210610D01*
X65715Y210576D01*
X65620Y210537D01*
X65537Y210493D01*
X65459Y210449D01*
X65387Y210399D01*
X65326Y210354D01*
X65271Y210310D01*
X65220Y210265D01*
X65182Y210226D01*
X65154Y210193D01*
X65132Y210171D01*
X65121Y210154D01*
X65115Y210149D01*
X65065Y210077D01*
X65021Y210004D01*
X64987Y209932D01*
X64954Y209855D01*
X64904Y209710D01*
X64871Y209577D01*
X64860Y209522D01*
X64854Y209466D01*
X64843Y209416D01*
Y209372D01*
X64838Y209338D01*
Y209294D01*
X64843Y209189D01*
X64854Y209089D01*
X64871Y208994D01*
X64893Y208906D01*
X64915Y208828D01*
X64949Y208750D01*
X64976Y208678D01*
X65010Y208617D01*
X65043Y208561D01*
X65071Y208512D01*
X65104Y208467D01*
X65126Y208434D01*
X65148Y208406D01*
X65165Y208384D01*
X65176Y208373D01*
X65182Y208367D01*
X65248Y208306D01*
X65315Y208251D01*
X65387Y208201D01*
X65459Y208156D01*
X65526Y208123D01*
X65598Y208095D01*
X65726Y208051D01*
X65787Y208034D01*
X65842Y208023D01*
X65892Y208018D01*
X65931Y208012D01*
X65964Y208007D01*
X66014D01*
X66109Y208012D01*
X66203Y208029D01*
X66286Y208045D01*
X66364Y208068D01*
X66425Y208095D01*
X66475Y208112D01*
X66508Y208129D01*
X66514Y208134D01*
X66519D01*
X66403Y207479D01*
X65010D01*
Y206791D01*
X66958D01*
X67335Y208795D01*
X66741Y208878D01*
X66691Y208828D01*
X66641Y208784D01*
X66591Y208745D01*
X66541Y208711D01*
X66447Y208661D01*
X66358Y208628D01*
X66281Y208611D01*
X66225Y208600D01*
X66203Y208595D01*
X66170D01*
X66081Y208600D01*
X65997Y208623D01*
X65925Y208650D01*
X65864Y208684D01*
X65820Y208722D01*
X65781Y208750D01*
X65759Y208772D01*
X65753Y208778D01*
X65698Y208850D01*
X65659Y208933D01*
X65631Y209022D01*
X65615Y209111D01*
X65598Y209189D01*
X65592Y209250D01*
Y209278D01*
Y209294D01*
Y209305D01*
Y209311D01*
X65598Y209444D01*
X65615Y209560D01*
X65642Y209655D01*
X65670Y209733D01*
X65703Y209799D01*
X65726Y209844D01*
X65748Y209866D01*
X65753Y209877D01*
X65814Y209938D01*
X65881Y209988D01*
X65948Y210021D01*
X66009Y210043D01*
X66064Y210054D01*
X66109Y210060D01*
X66136Y210066D01*
X66147D01*
X66220Y210060D01*
X66292Y210043D01*
X66353Y210021D01*
X66403Y209993D01*
X66447Y209966D01*
X66480Y209944D01*
X66503Y209927D01*
X66508Y209921D01*
X66558Y209860D01*
X66602Y209799D01*
X66636Y209733D01*
X66658Y209671D01*
X66675Y209616D01*
X66686Y209566D01*
X66691Y209538D01*
Y209527D01*
X67424Y209605D01*
X67407Y209694D01*
X67391Y209777D01*
X67335Y209927D01*
X67274Y210060D01*
X67241Y210116D01*
X67202Y210171D01*
X67169Y210215D01*
X67141Y210254D01*
X67107Y210288D01*
X67085Y210321D01*
X67063Y210343D01*
X67046Y210360D01*
X67035Y210365D01*
X67030Y210371D01*
X66963Y210421D01*
X66897Y210465D01*
X66825Y210504D01*
X66752Y210532D01*
X66602Y210587D01*
X66469Y210621D01*
X66403Y210632D01*
X66347Y210637D01*
X66292Y210643D01*
X66247Y210648D01*
X66208Y210654D01*
X67424D01*
Y207296D01*
Y210654D01*
D02*
G37*
G36*
X97977Y210582D02*
X94924D01*
Y206741D01*
X95640D01*
Y209327D01*
X97227Y206741D01*
X97977D01*
Y210582D01*
D02*
G37*
G36*
X94103D02*
X90889D01*
X92649D01*
X92499Y210576D01*
X92360Y210571D01*
X92243Y210560D01*
X92149Y210543D01*
X92071Y210526D01*
X92010Y210515D01*
X91994Y210510D01*
X91977D01*
X91971Y210504D01*
X91966D01*
X91844Y210460D01*
X91733Y210410D01*
X91644Y210360D01*
X91566Y210310D01*
X91505Y210265D01*
X91461Y210232D01*
X91433Y210210D01*
X91422Y210199D01*
X91328Y210093D01*
X91245Y209982D01*
X91172Y209866D01*
X91117Y209760D01*
X91072Y209660D01*
X91050Y209622D01*
X91039Y209588D01*
X91028Y209555D01*
X91017Y209533D01*
X91011Y209522D01*
Y209516D01*
X90973Y209383D01*
X90939Y209244D01*
X90917Y209111D01*
X90906Y208983D01*
X90900Y208922D01*
X90895Y208867D01*
Y208822D01*
X90889Y208778D01*
Y208700D01*
X90895Y208506D01*
X90912Y208334D01*
X90917Y208251D01*
X90928Y208179D01*
X90939Y208106D01*
X90950Y208045D01*
X90967Y207990D01*
X90978Y207940D01*
X90989Y207895D01*
X90995Y207862D01*
X91006Y207835D01*
X91011Y207812D01*
X91017Y207801D01*
Y207796D01*
X91067Y207662D01*
X91128Y207540D01*
X91189Y207435D01*
X91250Y207346D01*
X91300Y207274D01*
X91344Y207218D01*
X91372Y207185D01*
X91378Y207174D01*
X91383D01*
X91478Y207085D01*
X91572Y207013D01*
X91672Y206952D01*
X91761Y206902D01*
X91838Y206863D01*
X91905Y206836D01*
X91927Y206830D01*
X91944Y206824D01*
X91955Y206819D01*
X91960D01*
X92066Y206791D01*
X92182Y206774D01*
X92304Y206758D01*
X92421Y206752D01*
X92527Y206747D01*
X92571Y206741D01*
X90889D01*
X94103D01*
Y210582D01*
D02*
G37*
G36*
X88764D02*
X87987D01*
Y206741D01*
X88764D01*
Y210582D01*
D02*
G37*
G36*
X87243D02*
X84190D01*
Y206741D01*
X84906D01*
Y209327D01*
X86494Y206741D01*
X87243D01*
Y210582D01*
D02*
G37*
G36*
X83369D02*
X81704D01*
X81610Y210576D01*
X81443D01*
X81377Y210571D01*
X81271D01*
X81232Y210565D01*
X81177D01*
X81155Y210560D01*
X81132D01*
X81021Y210543D01*
X80922Y210515D01*
X80833Y210487D01*
X80755Y210454D01*
X80694Y210426D01*
X80650Y210399D01*
X80622Y210382D01*
X80611Y210376D01*
X80533Y210315D01*
X80472Y210249D01*
X80411Y210188D01*
X80366Y210121D01*
X80328Y210066D01*
X80300Y210021D01*
X80283Y209993D01*
X80278Y209982D01*
X80239Y209888D01*
X80206Y209799D01*
X80183Y209710D01*
X80172Y209633D01*
X80161Y209566D01*
X80156Y209516D01*
Y209472D01*
X80161Y209350D01*
X80183Y209239D01*
X80217Y209144D01*
X80250Y209055D01*
X80283Y208989D01*
X80317Y208939D01*
X80339Y208906D01*
X80344Y208894D01*
X80422Y208806D01*
X80505Y208734D01*
X80600Y208672D01*
X80683Y208628D01*
X80761Y208589D01*
X80827Y208561D01*
X80849Y208556D01*
X80866Y208550D01*
X80877Y208545D01*
X80883D01*
X80794Y208495D01*
X80716Y208445D01*
X80650Y208384D01*
X80594Y208334D01*
X80555Y208284D01*
X80522Y208245D01*
X80500Y208217D01*
X80494Y208206D01*
X80444Y208118D01*
X80405Y208034D01*
X80383Y207951D01*
X80361Y207873D01*
X80350Y207807D01*
X80344Y207757D01*
Y207723D01*
Y207718D01*
Y207712D01*
X80350Y207624D01*
X80361Y207535D01*
X80383Y207463D01*
X80405Y207396D01*
X80427Y207341D01*
X80450Y207296D01*
X80461Y207274D01*
X80466Y207263D01*
X80511Y207191D01*
X80561Y207130D01*
X80611Y207074D01*
X80655Y207024D01*
X80699Y206991D01*
X80733Y206963D01*
X80755Y206946D01*
X80761Y206941D01*
X80827Y206896D01*
X80899Y206863D01*
X80966Y206836D01*
X81027Y206813D01*
X81082Y206797D01*
X81121Y206785D01*
X81149Y206780D01*
X81160D01*
X81255Y206769D01*
X81360Y206758D01*
X81471Y206752D01*
X81582Y206747D01*
X81682Y206741D01*
X80156D01*
X83369D01*
Y210582D01*
D02*
G37*
G36*
X78030D02*
X77253D01*
Y206741D01*
X78030D01*
Y210582D01*
D02*
G37*
G36*
X76509D02*
X73457D01*
Y206741D01*
X74173D01*
Y209327D01*
X75760Y206741D01*
X76509D01*
Y210582D01*
D02*
G37*
G36*
X73029D02*
D01*
Y206741D01*
X71542D01*
X73029Y210582D01*
X72208D01*
X71892Y209710D01*
X70349D01*
X70016Y210582D01*
X72141D01*
X69178D01*
D01*
X70721Y206741D01*
X69178D01*
X73029D01*
Y210582D01*
D02*
G37*
G36*
X64677D02*
D01*
Y206741D01*
X63300Y210582D01*
X62462D01*
X61097Y206741D01*
D01*
X64677D01*
Y210582D01*
D02*
G37*
%LPD*%
G36*
X102289Y206669D02*
X100385D01*
X100585Y206675D01*
X100763Y206697D01*
X100840Y206713D01*
X100918Y206730D01*
X100990Y206747D01*
X101051Y206763D01*
X101107Y206785D01*
X101162Y206802D01*
X101201Y206819D01*
X101240Y206830D01*
X101268Y206847D01*
X101290Y206852D01*
X101301Y206863D01*
X101307D01*
X101479Y206963D01*
X101551Y207024D01*
X101623Y207080D01*
X101690Y207141D01*
X101751Y207202D01*
X101806Y207263D01*
X101856Y207318D01*
X101895Y207374D01*
X101934Y207424D01*
X101967Y207468D01*
X101995Y207507D01*
X102012Y207540D01*
X102028Y207562D01*
X102034Y207579D01*
X102039Y207585D01*
X102084Y207674D01*
X102122Y207762D01*
X102183Y207945D01*
X102228Y208129D01*
X102256Y208290D01*
X102267Y208367D01*
X102278Y208434D01*
X102283Y208495D01*
Y208550D01*
X102289Y208589D01*
Y206669D01*
D02*
G37*
G36*
X97261Y208051D02*
X95701Y210582D01*
X97261D01*
Y208051D01*
D02*
G37*
G36*
X93326Y207390D02*
X92821D01*
X92748Y207396D01*
X92682D01*
X92626Y207402D01*
X92576D01*
X92527Y207407D01*
X92488D01*
X92427Y207418D01*
X92382Y207424D01*
X92355Y207429D01*
X92349D01*
X92271Y207452D01*
X92205Y207479D01*
X92144Y207507D01*
X92088Y207540D01*
X92049Y207568D01*
X92016Y207590D01*
X91999Y207607D01*
X91994Y207612D01*
X91944Y207668D01*
X91899Y207729D01*
X91861Y207790D01*
X91827Y207846D01*
X91805Y207901D01*
X91788Y207945D01*
X91777Y207973D01*
X91772Y207979D01*
Y207984D01*
X91744Y208084D01*
X91722Y208190D01*
X91711Y208306D01*
X91700Y208417D01*
X91694Y208512D01*
X91689Y208556D01*
Y208595D01*
Y208623D01*
Y208645D01*
Y208661D01*
Y208667D01*
X91694Y208822D01*
X91700Y208967D01*
X91716Y209083D01*
X91727Y209183D01*
X91744Y209266D01*
X91750Y209300D01*
X91761Y209322D01*
X91766Y209344D01*
Y209361D01*
X91772Y209366D01*
Y209372D01*
X91805Y209461D01*
X91833Y209538D01*
X91872Y209599D01*
X91899Y209649D01*
X91927Y209688D01*
X91949Y209716D01*
X91966Y209733D01*
X91971Y209738D01*
X92022Y209777D01*
X92071Y209810D01*
X92121Y209838D01*
X92171Y209860D01*
X92216Y209877D01*
X92249Y209888D01*
X92271Y209899D01*
X92282D01*
X92343Y209910D01*
X92415Y209916D01*
X92493Y209927D01*
X92571D01*
X92643Y209932D01*
X93326D01*
Y207390D01*
D02*
G37*
G36*
X86527Y208051D02*
X84967Y210582D01*
X86527D01*
Y208051D01*
D02*
G37*
G36*
X82592Y208906D02*
X81787D01*
X81710Y208911D01*
X81643Y208917D01*
X81576D01*
X81521Y208922D01*
X81471Y208928D01*
X81432Y208933D01*
X81393Y208939D01*
X81366Y208945D01*
X81321Y208950D01*
X81293Y208961D01*
X81288D01*
X81232Y208983D01*
X81182Y209011D01*
X81138Y209039D01*
X81105Y209072D01*
X81077Y209094D01*
X81060Y209117D01*
X81049Y209133D01*
X81044Y209139D01*
X81016Y209189D01*
X80994Y209239D01*
X80977Y209283D01*
X80966Y209333D01*
X80960Y209372D01*
X80955Y209405D01*
Y209427D01*
Y209433D01*
X80960Y209505D01*
X80971Y209572D01*
X80988Y209627D01*
X81010Y209671D01*
X81033Y209710D01*
X81049Y209738D01*
X81060Y209755D01*
X81066Y209760D01*
X81110Y209799D01*
X81155Y209833D01*
X81204Y209860D01*
X81249Y209882D01*
X81288Y209893D01*
X81321Y209905D01*
X81343Y209910D01*
X81349D01*
X81371Y209916D01*
X81404D01*
X81476Y209921D01*
X81565Y209927D01*
X81654D01*
X81737Y209932D01*
X82592D01*
Y208906D01*
D02*
G37*
G36*
Y207379D02*
X81821D01*
X81760Y207385D01*
X81615D01*
X81582Y207390D01*
X81521D01*
X81499Y207396D01*
X81493D01*
X81427Y207407D01*
X81366Y207424D01*
X81315Y207446D01*
X81271Y207468D01*
X81243Y207490D01*
X81216Y207513D01*
X81204Y207524D01*
X81199Y207529D01*
X81166Y207574D01*
X81143Y207624D01*
X81121Y207668D01*
X81110Y207712D01*
X81105Y207757D01*
X81099Y207790D01*
Y207812D01*
Y207818D01*
X81105Y207884D01*
X81116Y207945D01*
X81138Y207995D01*
X81155Y208040D01*
X81177Y208079D01*
X81199Y208101D01*
X81210Y208118D01*
X81216Y208123D01*
X81260Y208162D01*
X81310Y208190D01*
X81360Y208212D01*
X81410Y208228D01*
X81460Y208245D01*
X81493Y208251D01*
X81515Y208256D01*
X81549D01*
X81582Y208262D01*
X81754D01*
X81848Y208267D01*
X82592D01*
Y207379D01*
D02*
G37*
G36*
X75793Y208051D02*
X74234Y210582D01*
X75793D01*
Y208051D01*
D02*
G37*
G36*
X71137Y207635D02*
X70599Y209061D01*
X71658D01*
X71137Y207635D01*
D02*
G37*
G36*
X63839Y206741D02*
X61924D01*
X62862Y209583D01*
X63839Y206741D01*
D02*
G37*
%LPC*%
G36*
X37353Y245487D02*
X33513D01*
Y242568D01*
X37353D01*
Y245487D01*
D02*
G37*
G36*
Y241907D02*
X33513D01*
Y241191D01*
X36044D01*
X33513Y239632D01*
Y238855D01*
X37353D01*
Y241907D01*
D02*
G37*
G36*
X37426Y238172D02*
D01*
Y236379D01*
X37420Y236524D01*
X37403Y236668D01*
X37376Y236796D01*
X37342Y236923D01*
X37303Y237034D01*
X37259Y237145D01*
X37209Y237240D01*
X37159Y237328D01*
X37109Y237412D01*
X37059Y237478D01*
X37015Y237539D01*
X36976Y237589D01*
X36943Y237628D01*
X36915Y237656D01*
X36898Y237672D01*
X36893Y237678D01*
X36787Y237767D01*
X36676Y237839D01*
X36560Y237906D01*
X36438Y237961D01*
X36310Y238011D01*
X36188Y238050D01*
X36066Y238083D01*
X35949Y238111D01*
X35833Y238133D01*
X35733Y238144D01*
X35638Y238155D01*
X35561Y238166D01*
X35494D01*
X35444Y238172D01*
X35400D01*
X35233Y238166D01*
X35078Y238150D01*
X34928Y238128D01*
X34795Y238094D01*
X34667Y238061D01*
X34545Y238017D01*
X34440Y237972D01*
X34345Y237928D01*
X34257Y237883D01*
X34179Y237839D01*
X34118Y237795D01*
X34062Y237761D01*
X34023Y237728D01*
X33990Y237706D01*
X33973Y237689D01*
X33968Y237684D01*
X33874Y237589D01*
X33796Y237489D01*
X33724Y237384D01*
X33668Y237279D01*
X33618Y237173D01*
X33574Y237068D01*
X33540Y236968D01*
X33513Y236873D01*
X33491Y236779D01*
X33474Y236696D01*
X33463Y236618D01*
X33457Y236557D01*
X33452Y236502D01*
X33446Y236463D01*
Y236429D01*
X33452Y236313D01*
X33457Y236207D01*
X33474Y236102D01*
X33496Y236007D01*
X33518Y235919D01*
X33540Y235836D01*
X33568Y235758D01*
X33602Y235686D01*
X33629Y235625D01*
X33657Y235569D01*
X33679Y235519D01*
X33702Y235480D01*
X33724Y235447D01*
X33740Y235425D01*
X33746Y235414D01*
X33751Y235408D01*
X33812Y235336D01*
X33879Y235269D01*
X34029Y235147D01*
X34184Y235047D01*
X34334Y234970D01*
X34406Y234936D01*
X34473Y234909D01*
X34534Y234886D01*
X34584Y234864D01*
X34628Y234848D01*
X34662Y234837D01*
X34684Y234831D01*
X33446D01*
X37426D01*
Y238172D01*
D02*
G37*
G36*
Y234320D02*
Y232467D01*
X37420Y232633D01*
X37403Y232794D01*
X37376Y232933D01*
X37348Y233055D01*
X37331Y233105D01*
X37320Y233155D01*
X37309Y233194D01*
X37292Y233227D01*
X37287Y233255D01*
X37276Y233277D01*
X37270Y233288D01*
Y233294D01*
X37226Y233394D01*
X37170Y233488D01*
X37109Y233571D01*
X37054Y233643D01*
X37004Y233704D01*
X36959Y233754D01*
X36932Y233782D01*
X36926Y233787D01*
X36920Y233793D01*
X36832Y233871D01*
X36737Y233943D01*
X36654Y234004D01*
X36571Y234054D01*
X36499Y234093D01*
X36443Y234126D01*
X36421Y234132D01*
X36404Y234143D01*
X36399Y234148D01*
X36393D01*
X36238Y234204D01*
X36071Y234248D01*
X35905Y234276D01*
X35749Y234298D01*
X35677Y234304D01*
X35611Y234309D01*
X35555Y234315D01*
X35505D01*
X35461Y234320D01*
X33441D01*
X35405D01*
X35239Y234315D01*
X35078Y234298D01*
X34928Y234276D01*
X34789Y234243D01*
X34662Y234204D01*
X34545Y234159D01*
X34434Y234115D01*
X34340Y234065D01*
X34251Y234021D01*
X34179Y233976D01*
X34112Y233932D01*
X34057Y233893D01*
X34018Y233860D01*
X33985Y233838D01*
X33968Y233821D01*
X33962Y233815D01*
X33868Y233715D01*
X33790Y233610D01*
X33718Y233505D01*
X33663Y233388D01*
X33613Y233277D01*
X33568Y233160D01*
X33535Y233055D01*
X33507Y232944D01*
X33485Y232844D01*
X33468Y232750D01*
X33457Y232666D01*
X33452Y232594D01*
X33446Y232539D01*
X33441Y232494D01*
Y232455D01*
X33446Y232300D01*
X33463Y232156D01*
X33491Y232017D01*
X33524Y231889D01*
X33563Y231767D01*
X33607Y231656D01*
X33652Y231556D01*
X33702Y231462D01*
X33751Y231384D01*
X33796Y231312D01*
X33840Y231251D01*
X33879Y231201D01*
X33912Y231157D01*
X33940Y231129D01*
X33957Y231112D01*
X33962Y231107D01*
X34068Y231018D01*
X34179Y230940D01*
X34295Y230868D01*
X34412Y230813D01*
X34534Y230763D01*
X34656Y230718D01*
X34778Y230685D01*
X34895Y230657D01*
X35000Y230641D01*
X35106Y230624D01*
X35194Y230613D01*
X35272Y230602D01*
X35339D01*
X35389Y230596D01*
X37426D01*
Y234320D01*
D02*
G37*
G36*
X37353Y229986D02*
X33513D01*
Y228532D01*
X33518Y228382D01*
X33524Y228243D01*
X33535Y228127D01*
X33552Y228032D01*
X33568Y227955D01*
X33579Y227893D01*
X33585Y227877D01*
Y227860D01*
X33590Y227855D01*
Y227849D01*
X33635Y227727D01*
X33685Y227616D01*
X33735Y227527D01*
X33785Y227449D01*
X33829Y227388D01*
X33862Y227344D01*
X33885Y227316D01*
X33896Y227305D01*
X34001Y227211D01*
X34112Y227128D01*
X34229Y227055D01*
X34334Y227000D01*
X34434Y226956D01*
X34473Y226933D01*
X34506Y226922D01*
X34539Y226911D01*
X34562Y226900D01*
X34573Y226894D01*
X34578D01*
X34712Y226856D01*
X34850Y226822D01*
X34984Y226800D01*
X35111Y226789D01*
X35172Y226783D01*
X35228Y226778D01*
X35272D01*
X35317Y226772D01*
X33513D01*
D01*
X37353D01*
Y229986D01*
D02*
G37*
G36*
Y226112D02*
X33513D01*
Y223193D01*
X37353D01*
Y226112D01*
D02*
G37*
G36*
Y222532D02*
X33513D01*
Y221755D01*
X35117D01*
Y221505D01*
X35111Y221428D01*
X35106Y221361D01*
X35094Y221306D01*
X35089Y221261D01*
X35078Y221233D01*
X35072Y221217D01*
Y221211D01*
X35050Y221167D01*
X35028Y221122D01*
X35000Y221084D01*
X34978Y221045D01*
X34950Y221017D01*
X34928Y220995D01*
X34917Y220984D01*
X34911Y220978D01*
X34884Y220956D01*
X34856Y220928D01*
X34773Y220867D01*
X34684Y220800D01*
X34584Y220728D01*
X34495Y220667D01*
X34451Y220640D01*
X34417Y220617D01*
X34390Y220595D01*
X34367Y220579D01*
X34351Y220573D01*
X34345Y220567D01*
X33513Y220012D01*
Y219080D01*
X34262Y219552D01*
X34340Y219602D01*
X34417Y219652D01*
X34484Y219696D01*
X34545Y219741D01*
X34601Y219779D01*
X34656Y219813D01*
X34739Y219879D01*
X34806Y219929D01*
X34850Y219963D01*
X34878Y219990D01*
X34884Y219996D01*
X34950Y220057D01*
X35011Y220129D01*
X35061Y220196D01*
X35111Y220262D01*
X35150Y220318D01*
X35178Y220362D01*
X35200Y220395D01*
X35206Y220401D01*
Y220407D01*
X35222Y220312D01*
X35244Y220229D01*
X35267Y220151D01*
X35294Y220074D01*
X35322Y220007D01*
X35350Y219946D01*
X35378Y219885D01*
X35411Y219835D01*
X35439Y219790D01*
X35466Y219752D01*
X35494Y219718D01*
X35516Y219696D01*
X35533Y219674D01*
X35550Y219657D01*
X35555Y219652D01*
X35561Y219646D01*
X35616Y219602D01*
X35672Y219563D01*
X35794Y219496D01*
X35910Y219452D01*
X36027Y219424D01*
X36127Y219402D01*
X36166Y219396D01*
X36204D01*
X36232Y219391D01*
X36260D01*
X36271D01*
X36277D01*
X36399Y219396D01*
X36515Y219419D01*
X36615Y219446D01*
X36704Y219474D01*
X36776Y219507D01*
X36832Y219535D01*
X36848Y219546D01*
X36865Y219557D01*
X36871Y219563D01*
X36876D01*
X36970Y219630D01*
X37048Y219702D01*
X37109Y219774D01*
X37165Y219846D01*
X37198Y219913D01*
X37226Y219963D01*
X37242Y219996D01*
X37248Y220001D01*
Y220007D01*
X37265Y220062D01*
X37281Y220123D01*
X37309Y220262D01*
X37326Y220412D01*
X37342Y220556D01*
Y220628D01*
X37348Y220690D01*
Y220751D01*
X37353Y220800D01*
Y219080D01*
X33513D01*
D01*
X37353D01*
Y222532D01*
D02*
G37*
%LPD*%
G36*
X36704Y242640D02*
X37353D01*
Y242568D01*
X34162D01*
Y244710D01*
X35206D01*
Y242784D01*
X35855D01*
Y244710D01*
X36704D01*
Y242640D01*
D02*
G37*
G36*
X37353Y239571D02*
X34767D01*
X37353Y241158D01*
Y239571D01*
D02*
G37*
G36*
X35583Y237367D02*
X35699Y237362D01*
X35805Y237351D01*
X35905Y237334D01*
X35994Y237312D01*
X36077Y237290D01*
X36149Y237267D01*
X36216Y237240D01*
X36271Y237217D01*
X36321Y237195D01*
X36360Y237173D01*
X36393Y237151D01*
X36421Y237134D01*
X36438Y237123D01*
X36449Y237112D01*
X36454D01*
X36510Y237062D01*
X36560Y237006D01*
X36599Y236951D01*
X36632Y236890D01*
X36687Y236773D01*
X36726Y236662D01*
X36748Y236568D01*
X36754Y236524D01*
X36759Y236490D01*
X36765Y236457D01*
Y236418D01*
X36759Y236307D01*
X36737Y236207D01*
X36710Y236119D01*
X36676Y236041D01*
X36643Y235980D01*
X36615Y235935D01*
X36593Y235908D01*
X36588Y235896D01*
X36521Y235824D01*
X36443Y235758D01*
X36366Y235708D01*
X36288Y235669D01*
X36221Y235641D01*
X36171Y235625D01*
X36149Y235613D01*
X36132D01*
X36127Y235608D01*
X36121D01*
X36304Y234842D01*
X36465Y234897D01*
X36604Y234959D01*
X36726Y235025D01*
X36826Y235086D01*
X36904Y235147D01*
X36937Y235170D01*
X36965Y235192D01*
X36981Y235208D01*
X36998Y235225D01*
X37009Y235230D01*
Y235236D01*
X37081Y235319D01*
X37148Y235414D01*
X37203Y235503D01*
X37248Y235597D01*
X37292Y235697D01*
X37326Y235791D01*
X37353Y235885D01*
X37376Y235974D01*
X37392Y236057D01*
X37403Y236135D01*
X37414Y236202D01*
X37420Y236263D01*
X37426Y236313D01*
Y234831D01*
X34689D01*
X34923Y235586D01*
X34773Y235630D01*
X34645Y235680D01*
X34539Y235730D01*
X34451Y235786D01*
X34384Y235830D01*
X34340Y235869D01*
X34312Y235896D01*
X34301Y235908D01*
X34234Y235996D01*
X34190Y236085D01*
X34157Y236174D01*
X34129Y236252D01*
X34118Y236324D01*
X34112Y236385D01*
X34107Y236407D01*
Y236435D01*
X34112Y236513D01*
X34118Y236585D01*
X34157Y236718D01*
X34201Y236835D01*
X34262Y236929D01*
X34317Y237006D01*
X34362Y237062D01*
X34384Y237084D01*
X34401Y237101D01*
X34406Y237106D01*
X34412Y237112D01*
X34473Y237156D01*
X34545Y237195D01*
X34623Y237234D01*
X34706Y237262D01*
X34878Y237306D01*
X35050Y237339D01*
X35133Y237351D01*
X35206Y237356D01*
X35278Y237367D01*
X35339D01*
X35383Y237373D01*
X35422D01*
X35450D01*
X35455D01*
X35583Y237367D01*
D02*
G37*
G36*
X35555Y233516D02*
X35666Y233510D01*
X35772Y233493D01*
X35871Y233477D01*
X35960Y233454D01*
X36044Y233432D01*
X36116Y233405D01*
X36182Y233377D01*
X36243Y233349D01*
X36293Y233321D01*
X36332Y233299D01*
X36371Y233277D01*
X36399Y233260D01*
X36415Y233244D01*
X36426Y233238D01*
X36432Y233232D01*
X36493Y233177D01*
X36543Y233116D01*
X36588Y233049D01*
X36626Y232988D01*
X36660Y232922D01*
X36682Y232855D01*
X36726Y232733D01*
X36748Y232622D01*
X36754Y232578D01*
X36759Y232533D01*
X36765Y232500D01*
Y232455D01*
X36759Y232367D01*
X36748Y232283D01*
X36737Y232206D01*
X36715Y232134D01*
X36660Y232006D01*
X36632Y231945D01*
X36604Y231895D01*
X36571Y231845D01*
X36543Y231806D01*
X36515Y231773D01*
X36488Y231740D01*
X36465Y231717D01*
X36454Y231701D01*
X36443Y231695D01*
X36438Y231690D01*
X36371Y231640D01*
X36299Y231590D01*
X36227Y231551D01*
X36143Y231518D01*
X35977Y231468D01*
X35816Y231434D01*
X35744Y231418D01*
X35672Y231412D01*
X35611Y231407D01*
X35555Y231401D01*
X35505Y231396D01*
X35472D01*
X35450D01*
X35444D01*
X35322Y231401D01*
X35206Y231407D01*
X35100Y231423D01*
X35006Y231440D01*
X34911Y231462D01*
X34828Y231490D01*
X34756Y231518D01*
X34689Y231545D01*
X34628Y231573D01*
X34578Y231601D01*
X34534Y231623D01*
X34495Y231651D01*
X34467Y231667D01*
X34451Y231684D01*
X34440Y231690D01*
X34434Y231695D01*
X34373Y231751D01*
X34323Y231812D01*
X34279Y231878D01*
X34240Y231939D01*
X34212Y232006D01*
X34184Y232067D01*
X34146Y232189D01*
X34118Y232295D01*
X34112Y232339D01*
X34107Y232378D01*
X34101Y232411D01*
Y232455D01*
X34107Y232539D01*
X34118Y232622D01*
X34134Y232700D01*
X34157Y232772D01*
X34207Y232905D01*
X34273Y233011D01*
X34301Y233061D01*
X34334Y233099D01*
X34362Y233138D01*
X34390Y233166D01*
X34406Y233188D01*
X34423Y233205D01*
X34434Y233216D01*
X34440Y233221D01*
X34506Y233271D01*
X34578Y233321D01*
X34656Y233360D01*
X34739Y233394D01*
X34900Y233449D01*
X35061Y233482D01*
X35139Y233493D01*
X35206Y233505D01*
X35272Y233510D01*
X35328Y233516D01*
X35372Y233521D01*
X35405D01*
X35427D01*
X35433D01*
X35555Y233516D01*
D02*
G37*
G36*
X37426Y230596D02*
X35427D01*
X35600Y230602D01*
X35761Y230619D01*
X35910Y230641D01*
X36055Y230674D01*
X36182Y230713D01*
X36304Y230757D01*
X36415Y230802D01*
X36510Y230852D01*
X36599Y230902D01*
X36676Y230946D01*
X36743Y230990D01*
X36798Y231029D01*
X36837Y231057D01*
X36871Y231085D01*
X36887Y231101D01*
X36893Y231107D01*
X36987Y231207D01*
X37070Y231312D01*
X37143Y231423D01*
X37203Y231534D01*
X37253Y231651D01*
X37298Y231762D01*
X37331Y231873D01*
X37359Y231978D01*
X37381Y232078D01*
X37398Y232172D01*
X37409Y232256D01*
X37420Y232328D01*
Y232383D01*
X37426Y232428D01*
Y230596D01*
D02*
G37*
G36*
X36704Y228704D02*
X36698Y228632D01*
Y228565D01*
X36693Y228509D01*
Y228460D01*
X36687Y228410D01*
Y228371D01*
X36676Y228310D01*
X36671Y228265D01*
X36665Y228238D01*
Y228232D01*
X36643Y228154D01*
X36615Y228088D01*
X36588Y228027D01*
X36554Y227971D01*
X36526Y227932D01*
X36504Y227899D01*
X36488Y227882D01*
X36482Y227877D01*
X36426Y227827D01*
X36366Y227782D01*
X36304Y227744D01*
X36249Y227710D01*
X36193Y227688D01*
X36149Y227671D01*
X36121Y227660D01*
X36116Y227655D01*
X36110D01*
X36010Y227627D01*
X35905Y227605D01*
X35788Y227594D01*
X35677Y227583D01*
X35583Y227577D01*
X35539Y227572D01*
X35500D01*
X35472D01*
X35450D01*
X35433D01*
X35427D01*
X35272Y227577D01*
X35128Y227583D01*
X35011Y227599D01*
X34911Y227610D01*
X34828Y227627D01*
X34795Y227633D01*
X34773Y227644D01*
X34750Y227649D01*
X34734D01*
X34728Y227655D01*
X34723D01*
X34634Y227688D01*
X34556Y227716D01*
X34495Y227755D01*
X34445Y227782D01*
X34406Y227810D01*
X34379Y227832D01*
X34362Y227849D01*
X34356Y227855D01*
X34317Y227905D01*
X34284Y227955D01*
X34257Y228004D01*
X34234Y228054D01*
X34218Y228099D01*
X34207Y228132D01*
X34195Y228154D01*
Y228165D01*
X34184Y228226D01*
X34179Y228299D01*
X34168Y228376D01*
Y228454D01*
X34162Y228526D01*
Y229209D01*
X36704D01*
Y228704D01*
D02*
G37*
G36*
X37353Y226772D02*
X35394D01*
X35588Y226778D01*
X35761Y226795D01*
X35844Y226800D01*
X35916Y226811D01*
X35988Y226822D01*
X36049Y226833D01*
X36105Y226850D01*
X36155Y226861D01*
X36199Y226872D01*
X36232Y226878D01*
X36260Y226889D01*
X36282Y226894D01*
X36293Y226900D01*
X36299D01*
X36432Y226950D01*
X36554Y227011D01*
X36660Y227072D01*
X36748Y227133D01*
X36821Y227183D01*
X36876Y227227D01*
X36909Y227255D01*
X36920Y227261D01*
Y227266D01*
X37009Y227361D01*
X37081Y227455D01*
X37143Y227555D01*
X37192Y227644D01*
X37231Y227721D01*
X37259Y227788D01*
X37265Y227810D01*
X37270Y227827D01*
X37276Y227838D01*
Y227843D01*
X37303Y227949D01*
X37320Y228065D01*
X37337Y228188D01*
X37342Y228304D01*
X37348Y228410D01*
X37353Y228454D01*
Y226772D01*
D02*
G37*
G36*
X36704Y223265D02*
X37353D01*
Y223193D01*
X34162D01*
Y225335D01*
X35206D01*
Y223409D01*
X35855D01*
Y225335D01*
X36704D01*
Y223265D01*
D02*
G37*
G36*
Y220867D02*
X36698Y220817D01*
Y220695D01*
X36693Y220645D01*
Y220612D01*
X36687Y220595D01*
Y220590D01*
X36671Y220523D01*
X36648Y220462D01*
X36626Y220412D01*
X36599Y220373D01*
X36571Y220340D01*
X36554Y220312D01*
X36538Y220301D01*
X36532Y220296D01*
X36488Y220262D01*
X36432Y220234D01*
X36382Y220218D01*
X36332Y220201D01*
X36288Y220196D01*
X36255Y220190D01*
X36232D01*
X36221D01*
X36160Y220196D01*
X36105Y220201D01*
X36055Y220218D01*
X36010Y220229D01*
X35977Y220246D01*
X35955Y220262D01*
X35938Y220268D01*
X35933Y220273D01*
X35894Y220307D01*
X35860Y220340D01*
X35811Y220412D01*
X35794Y220440D01*
X35783Y220467D01*
X35772Y220484D01*
Y220490D01*
X35766Y220517D01*
X35755Y220562D01*
X35749Y220606D01*
X35744Y220656D01*
X35738Y220773D01*
X35733Y220889D01*
X35727Y221000D01*
Y221755D01*
X36704D01*
Y220867D01*
D02*
G37*
%LPC*%
G36*
X126348Y20621D02*
X125632D01*
Y18035D01*
X124044Y20621D01*
X123295D01*
Y16781D01*
X126348D01*
Y20621D01*
D02*
G37*
G36*
X122635D02*
X119715D01*
Y16781D01*
X122635D01*
Y20621D01*
D02*
G37*
%LPD*%
G36*
X125571Y16781D02*
X124011D01*
Y19311D01*
X125571Y16781D01*
D02*
G37*
G36*
X122635Y17430D02*
X120492D01*
Y18473D01*
X122418D01*
Y19123D01*
X120492D01*
Y19972D01*
X122563D01*
Y20621D01*
X122635D01*
Y17430D01*
D02*
G37*
D10*
X298228Y182087D02*
X298207Y183089D01*
X298143Y184090D01*
X298037Y185087D01*
X297889Y186079D01*
X297698Y187063D01*
X297466Y188039D01*
X297193Y189004D01*
X296879Y189956D01*
X296525Y190894D01*
X296131Y191817D01*
X295699Y192721D01*
X295229Y193607D01*
X294721Y194472D01*
X294177Y195314D01*
X293598Y196133D01*
X292985Y196926D01*
X292339Y197693D01*
X291660Y198432D01*
X290951Y199141D01*
X290213Y199819D01*
X289446Y200465D01*
X288653Y201079D01*
X287834Y201658D01*
X286992Y202202D01*
X286127Y202709D01*
X285241Y203179D01*
X284336Y203612D01*
X283414Y204005D01*
X282476Y204359D01*
X281523Y204673D01*
X280558Y204946D01*
X279583Y205178D01*
X278598Y205369D01*
X277607Y205517D01*
X276610Y205624D01*
X275609Y205687D01*
X274606Y205709D01*
X273604Y205687D01*
X272603Y205624D01*
X271606Y205517D01*
X270614Y205369D01*
X269630Y205178D01*
X268654Y204946D01*
X267689Y204673D01*
X266737Y204359D01*
X265799Y204005D01*
X264876Y203612D01*
X263971Y203179D01*
X263086Y202709D01*
X262221Y202202D01*
X261379Y201658D01*
X260560Y201079D01*
X259766Y200465D01*
X259000Y199819D01*
X258261Y199141D01*
X257552Y198432D01*
X256874Y197693D01*
X256227Y196926D01*
X255614Y196133D01*
X255035Y195314D01*
X254491Y194472D01*
X253984Y193607D01*
X253514Y192721D01*
X253081Y191816D01*
X252688Y190894D01*
X252334Y189956D01*
X252020Y189004D01*
X251747Y188039D01*
X251514Y187063D01*
X251324Y186079D01*
X251176Y185087D01*
X251069Y184090D01*
X251006Y183089D01*
X250984Y182087D01*
X251006Y181084D01*
X251069Y180083D01*
X251176Y179086D01*
X251324Y178094D01*
X251514Y177110D01*
X251747Y176134D01*
X252020Y175170D01*
X252334Y174217D01*
X252688Y173279D01*
X253081Y172357D01*
X253514Y171452D01*
X253984Y170566D01*
X254491Y169701D01*
X255035Y168859D01*
X255614Y168040D01*
X256227Y167247D01*
X256874Y166480D01*
X257552Y165742D01*
X258261Y165032D01*
X259000Y164354D01*
X259767Y163708D01*
X260560Y163094D01*
X261379Y162515D01*
X262221Y161972D01*
X263086Y161464D01*
X263972Y160994D01*
X264876Y160562D01*
X265799Y160168D01*
X266737Y159814D01*
X267689Y159500D01*
X268654Y159227D01*
X269630Y158995D01*
X270614Y158804D01*
X271606Y158656D01*
X272603Y158550D01*
X273604Y158486D01*
X274606Y158465D01*
X275609Y158486D01*
X276610Y158550D01*
X277607Y158656D01*
X278598Y158804D01*
X279583Y158995D01*
X280559Y159227D01*
X281523Y159500D01*
X282476Y159814D01*
X283414Y160168D01*
X284336Y160562D01*
X285241Y160994D01*
X286127Y161464D01*
X286992Y161972D01*
X287834Y162516D01*
X288653Y163095D01*
X289446Y163708D01*
X290213Y164354D01*
X290951Y165033D01*
X291660Y165742D01*
X292339Y166480D01*
X292985Y167247D01*
X293598Y168040D01*
X294177Y168859D01*
X294721Y169702D01*
X295229Y170566D01*
X295699Y171452D01*
X296131Y172357D01*
X296525Y173279D01*
X296879Y174217D01*
X297193Y175170D01*
X297466Y176134D01*
X297698Y177110D01*
X297889Y178095D01*
X298037Y179086D01*
X298143Y180083D01*
X298207Y181084D01*
X298228Y182087D01*
X265158Y242126D02*
X264370D01*
X265158D01*
X214055D02*
X213268D01*
X214055D01*
X239567D02*
X238779D01*
X239567D01*
X353346Y161417D02*
X353326Y162415D01*
X353266Y163410D01*
X353165Y164402D01*
X353024Y165390D01*
X352843Y166370D01*
X352622Y167343D01*
X352362Y168306D01*
X352064Y169258D01*
X351727Y170197D01*
X351352Y171121D01*
X350940Y172029D01*
X350492Y172920D01*
X350008Y173792D01*
X349489Y174644D01*
X348936Y175474D01*
X348350Y176281D01*
X347731Y177064D01*
X347082Y177820D01*
X346402Y178550D01*
X345693Y179252D01*
X344956Y179924D01*
X344193Y180566D01*
X343404Y181177D01*
X342592Y181755D01*
X341756Y182299D01*
X340899Y182810D01*
X340022Y183285D01*
X339127Y183724D01*
X338214Y184127D01*
X337286Y184492D01*
X336344Y184819D01*
X335389Y185108D01*
X334424Y185358D01*
X333449Y185569D01*
X332466Y185740D01*
X331477Y185871D01*
X330484Y185962D01*
X329488Y186012D01*
X328491Y186022D01*
X327494Y185992D01*
X326499Y185921D01*
X325508Y185810D01*
X324522Y185659D01*
X323543Y185468D01*
X322572Y185238D01*
X321612Y184969D01*
X320664Y184660D01*
X319728Y184314D01*
X318808Y183930D01*
X317904Y183509D01*
X317017Y183052D01*
X316150Y182559D01*
X315304Y182031D01*
X314479Y181470D01*
X313679Y180875D01*
X312902Y180249D01*
X312152Y179592D01*
X311429Y178904D01*
X310735Y178189D01*
X310070Y177445D01*
X309436Y176675D01*
X308833Y175881D01*
X308263Y175062D01*
X307727Y174221D01*
X307226Y173359D01*
X306760Y172477D01*
X306329Y171577D01*
X305936Y170661D01*
X305580Y169729D01*
X305262Y168783D01*
X304983Y167826D01*
X304743Y166858D01*
X304542Y165881D01*
X304381Y164897D01*
X304260Y163907D01*
X304179Y162913D01*
X304139Y161916D01*
Y160919D01*
X304179Y159922D01*
X304260Y158928D01*
X304381Y157938D01*
X304542Y156954D01*
X304743Y155977D01*
X304983Y155009D01*
X305262Y154051D01*
X305580Y153106D01*
X305936Y152174D01*
X306329Y151257D01*
X306760Y150357D01*
X307226Y149476D01*
X307727Y148614D01*
X308263Y147773D01*
X308833Y146954D01*
X309436Y146159D01*
X310070Y145389D01*
X310735Y144646D01*
X311429Y143930D01*
X312152Y143243D01*
X312902Y142586D01*
X313679Y141959D01*
X314479Y141365D01*
X315304Y140803D01*
X316150Y140276D01*
X317017Y139783D01*
X317904Y139326D01*
X318808Y138905D01*
X319728Y138521D01*
X320664Y138174D01*
X321612Y137866D01*
X322573Y137596D01*
X323543Y137366D01*
X324522Y137175D01*
X325508Y137024D01*
X326499Y136913D01*
X327494Y136843D01*
X328491Y136812D01*
X329488Y136822D01*
X330484Y136873D01*
X331478Y136964D01*
X332466Y137095D01*
X333449Y137266D01*
X334424Y137476D01*
X335389Y137726D01*
X336344Y138015D01*
X337286Y138343D01*
X338214Y138708D01*
X339127Y139111D01*
X340022Y139550D01*
X340899Y140025D01*
X341756Y140535D01*
X342592Y141080D01*
X343404Y141658D01*
X344193Y142269D01*
X344956Y142911D01*
X345693Y143583D01*
X346402Y144284D01*
X347082Y145014D01*
X347731Y145771D01*
X348350Y146554D01*
X348936Y147361D01*
X349489Y148190D01*
X350008Y149042D01*
X350492Y149914D01*
X350940Y150805D01*
X351352Y151714D01*
X351727Y152638D01*
X352064Y153577D01*
X352362Y154528D01*
X352622Y155491D01*
X352843Y156464D01*
X353024Y157445D01*
X353165Y158432D01*
X353266Y159424D01*
X353326Y160420D01*
X353346Y161417D01*
Y33465D02*
X353326Y34462D01*
X353266Y35457D01*
X353165Y36450D01*
X353024Y37437D01*
X352843Y38418D01*
X352622Y39391D01*
X352362Y40353D01*
X352064Y41305D01*
X351727Y42244D01*
X351352Y43168D01*
X350940Y44077D01*
X350492Y44968D01*
X350008Y45840D01*
X349489Y46691D01*
X348936Y47521D01*
X348350Y48328D01*
X347731Y49111D01*
X347082Y49867D01*
X346402Y50597D01*
X345693Y51299D01*
X344956Y51971D01*
X344193Y52613D01*
X343404Y53224D01*
X342592Y53802D01*
X341756Y54347D01*
X340899Y54857D01*
X340022Y55332D01*
X339127Y55771D01*
X338214Y56174D01*
X337286Y56539D01*
X336344Y56867D01*
X335389Y57156D01*
X334424Y57406D01*
X333449Y57616D01*
X332466Y57787D01*
X331477Y57918D01*
X330484Y58009D01*
X329488Y58060D01*
X328491Y58070D01*
X327494Y58039D01*
X326499Y57969D01*
X325508Y57858D01*
X324522Y57707D01*
X323543Y57516D01*
X322572Y57285D01*
X321612Y57016D01*
X320664Y56708D01*
X319728Y56361D01*
X318808Y55977D01*
X317904Y55556D01*
X317017Y55099D01*
X316150Y54606D01*
X315304Y54079D01*
X314479Y53517D01*
X313679Y52923D01*
X312902Y52296D01*
X312152Y51639D01*
X311429Y50952D01*
X310735Y50236D01*
X310070Y49492D01*
X309436Y48723D01*
X308833Y47928D01*
X308263Y47109D01*
X307727Y46268D01*
X307226Y45406D01*
X306760Y44524D01*
X306329Y43624D01*
X305936Y42708D01*
X305580Y41776D01*
X305262Y40831D01*
X304983Y39873D01*
X304743Y38905D01*
X304542Y37928D01*
X304381Y36944D01*
X304260Y35954D01*
X304179Y34960D01*
X304139Y33963D01*
Y32966D01*
X304179Y31969D01*
X304260Y30975D01*
X304381Y29985D01*
X304542Y29001D01*
X304743Y28024D01*
X304983Y27056D01*
X305262Y26098D01*
X305580Y25153D01*
X305936Y24221D01*
X306329Y23305D01*
X306760Y22405D01*
X307226Y21523D01*
X307727Y20661D01*
X308263Y19820D01*
X308833Y19001D01*
X309436Y18206D01*
X310070Y17437D01*
X310735Y16693D01*
X311429Y15977D01*
X312152Y15290D01*
X312902Y14633D01*
X313679Y14006D01*
X314479Y13412D01*
X315304Y12851D01*
X316150Y12323D01*
X317017Y11830D01*
X317904Y11373D01*
X318808Y10952D01*
X319728Y10568D01*
X320664Y10221D01*
X321612Y9913D01*
X322573Y9644D01*
X323543Y9413D01*
X324522Y9223D01*
X325508Y9071D01*
X326499Y8961D01*
X327494Y8890D01*
X328491Y8860D01*
X329488Y8870D01*
X330484Y8920D01*
X331478Y9011D01*
X332466Y9142D01*
X333449Y9313D01*
X334424Y9524D01*
X335389Y9774D01*
X336344Y10063D01*
X337286Y10390D01*
X338214Y10755D01*
X339127Y11158D01*
X340022Y11597D01*
X340899Y12072D01*
X341756Y12583D01*
X342592Y13127D01*
X343404Y13705D01*
X344193Y14316D01*
X344956Y14958D01*
X345693Y15630D01*
X346402Y16332D01*
X347082Y17062D01*
X347731Y17818D01*
X348350Y18601D01*
X348936Y19408D01*
X349489Y20238D01*
X350008Y21090D01*
X350492Y21961D01*
X350940Y22852D01*
X351352Y23761D01*
X351727Y24685D01*
X352064Y25624D01*
X352362Y26576D01*
X352622Y27539D01*
X352843Y28511D01*
X353024Y29492D01*
X353165Y30479D01*
X353266Y31472D01*
X353326Y32467D01*
X353346Y33465D01*
X19685Y236221D02*
X19620Y237227D01*
X19428Y238218D01*
X19110Y239175D01*
X18672Y240084D01*
X18121Y240930D01*
X17467Y241698D01*
X16720Y242377D01*
X15893Y242954D01*
X14998Y243421D01*
X14051Y243769D01*
X13068Y243994D01*
X12063Y244091D01*
X11055Y244058D01*
X10059Y243897D01*
X9092Y243610D01*
X8169Y243202D01*
X7306Y242678D01*
X6517Y242049D01*
X5815Y241325D01*
X5212Y240516D01*
X4717Y239637D01*
X4338Y238702D01*
X4082Y237726D01*
X3953Y236725D01*
Y235716D01*
X4082Y234715D01*
X4338Y233739D01*
X4717Y232804D01*
X5212Y231925D01*
X5815Y231116D01*
X6517Y230392D01*
X7306Y229762D01*
X8169Y229239D01*
X9092Y228831D01*
X10059Y228544D01*
X11055Y228383D01*
X12063Y228350D01*
X13068Y228447D01*
X14051Y228672D01*
X14998Y229020D01*
X15893Y229487D01*
X16720Y230064D01*
X17467Y230743D01*
X18121Y231511D01*
X18672Y232357D01*
X19110Y233266D01*
X19428Y234223D01*
X19620Y235213D01*
X19685Y236220D01*
X389764Y19685D02*
X389699Y20692D01*
X389506Y21682D01*
X389188Y22640D01*
X388751Y23549D01*
X388200Y24395D01*
X387546Y25163D01*
X386799Y25841D01*
X385972Y26419D01*
X385077Y26885D01*
X384130Y27234D01*
X383147Y27458D01*
X382142Y27555D01*
X381134Y27523D01*
X380138Y27362D01*
X379170Y27075D01*
X378248Y26666D01*
X377385Y26143D01*
X376596Y25514D01*
X375894Y24789D01*
X375291Y23981D01*
X374796Y23101D01*
X374417Y22166D01*
X374161Y21190D01*
X374032Y20189D01*
Y19181D01*
X374161Y18180D01*
X374417Y17204D01*
X374796Y16269D01*
X375291Y15390D01*
X375894Y14581D01*
X376596Y13856D01*
X377385Y13227D01*
X378248Y12704D01*
X379170Y12296D01*
X380138Y12008D01*
X381134Y11847D01*
X382142Y11815D01*
X383147Y11912D01*
X384130Y12137D01*
X385077Y12485D01*
X385972Y12952D01*
X386799Y13529D01*
X387546Y14207D01*
X388200Y14976D01*
X388751Y15821D01*
X389188Y16730D01*
X389506Y17688D01*
X389699Y18678D01*
X389764Y19685D01*
X200787Y13780D02*
X203740Y16732D01*
X200787Y13780D02*
X203740Y10827D01*
Y16732D01*
X270669Y56102D02*
X274606D01*
X247047D02*
X250984D01*
X247047Y41339D02*
Y56102D01*
X274606Y41339D02*
Y56102D01*
X288386Y235236D02*
X300197D01*
X287402Y234252D02*
X288386Y235236D01*
X287402Y234252D02*
X287402D01*
X285433Y232283D02*
X287402Y234252D01*
X284449Y232283D02*
X285433D01*
X272638D02*
X284449D01*
X278543Y207677D02*
X279528Y208661D01*
X270669Y207677D02*
X278543D01*
X245079D02*
X270669D01*
X248819Y98548D02*
Y122168D01*
X266929D01*
Y98548D02*
Y122168D01*
X248819Y98548D02*
X266929D01*
X42849Y175515D02*
X46807Y171557D01*
X42714Y175515D02*
X42849D01*
X46469Y172212D02*
X46731D01*
X43146Y175536D02*
X46469Y172212D01*
X46559Y174286D02*
X46602Y174329D01*
Y174891D01*
X46127Y175366D02*
X46602Y174891D01*
X45436Y175366D02*
X46127D01*
X45436D02*
X46516Y174286D01*
Y173681D02*
Y174286D01*
X45090Y175107D02*
X46516Y173681D01*
X44313Y175107D02*
X45090D01*
X44313D02*
X46602Y172817D01*
Y172342D02*
Y172817D01*
Y172342D02*
X46731Y172212D01*
X43146Y175536D02*
Y175539D01*
X12205Y162992D02*
Y175591D01*
X46850Y162992D02*
Y175591D01*
X12205Y162992D02*
X46850D01*
X12205Y175591D02*
X46850D01*
X129134Y152438D02*
Y176058D01*
X111024Y152438D02*
X129134D01*
X111024D02*
Y176058D01*
X129134D01*
X102559Y152438D02*
Y176058D01*
X84449Y152438D02*
X102559D01*
X84449D02*
Y176058D01*
X102559D01*
X354921Y74409D02*
X383268D01*
X354921Y49606D02*
X383268D01*
X354921Y70079D02*
Y74409D01*
X383268Y70079D02*
Y74409D01*
X354921Y49606D02*
Y53937D01*
X383268Y49606D02*
Y53937D01*
X372047Y55118D02*
Y68898D01*
X366142Y62008D02*
X372047Y55118D01*
X366142Y62008D02*
X372047Y68898D01*
X314759Y64409D02*
X325586Y64409D01*
X278342D02*
X289168Y64409D01*
X278342Y111653D02*
X289168Y111653D01*
X314759D02*
X325586Y111653D01*
X278342Y64409D02*
Y111653D01*
X325586Y64409D02*
Y111653D01*
X357283Y159417D02*
Y163417D01*
X355283Y161417D02*
X359283D01*
X328740Y136811D02*
Y186024D01*
X323819Y137795D02*
X328740Y141732D01*
X319882Y138779D02*
X328740Y145669D01*
X316299Y140276D02*
X328740Y149606D01*
X313400Y142294D02*
X328740Y153543D01*
X311024Y144685D02*
X328740Y158465D01*
X309055Y146653D02*
X328740Y162402D01*
X323900Y162305D02*
X328740Y166339D01*
X307427Y149157D02*
X316830Y156621D01*
X322904Y165273D02*
X328740Y170276D01*
X306102Y151575D02*
X314264Y158105D01*
X320432Y166827D02*
X328740Y174213D01*
X305118Y154528D02*
X313880Y161537D01*
X305118Y158465D02*
X328740Y178150D01*
X304571Y157959D02*
X305118Y158465D01*
X304134Y161417D02*
X328740Y182087D01*
X304395Y165304D02*
X328740Y186024D01*
X306281Y171369D02*
X323623Y185494D01*
X333857Y9388D02*
X351199Y23513D01*
X328740Y8858D02*
X353085Y29578D01*
X328740Y12795D02*
X353346Y33465D01*
X352362Y36417D02*
X352910Y36922D01*
X328740Y16732D02*
X352362Y36417D01*
X343600Y33345D02*
X352362Y40354D01*
X328740Y20669D02*
X337049Y28055D01*
X343216Y36777D02*
X351378Y43307D01*
X328740Y24606D02*
X334576Y29609D01*
X340650Y38261D02*
X350053Y45725D01*
X328740Y28543D02*
X333581Y32577D01*
X328740Y32480D02*
X348425Y48228D01*
X328740Y36417D02*
X346457Y50197D01*
X328740Y41339D02*
X344081Y52588D01*
X328740Y45276D02*
X341181Y54606D01*
X328740Y49213D02*
X337598Y56102D01*
X328740Y53150D02*
X333661Y57087D01*
X328740Y8858D02*
Y58071D01*
X298197Y33465D02*
X302197D01*
X300197Y31465D02*
Y35465D01*
X361221Y157480D02*
Y188976D01*
Y157480D02*
X374016D01*
X376969D01*
Y188976D01*
X361221D02*
X376969D01*
X354331Y191339D02*
X375984D01*
X354331Y251378D02*
X363189D01*
X354331Y244488D02*
Y251378D01*
Y228740D02*
Y233661D01*
X375984Y191339D02*
X377953D01*
X385827Y197923D02*
Y204134D01*
Y251378D01*
X354331Y191339D02*
Y228740D01*
X363189Y251378D02*
X385827D01*
X309449Y192520D02*
X312992D01*
X345669D02*
Y251181D01*
X309646Y221654D02*
Y251181D01*
X345669D01*
X340945Y192520D02*
X345669D01*
X57874Y176058D02*
X75984D01*
X57874Y152438D02*
Y176058D01*
Y152438D02*
X75984D01*
Y176058D01*
D11*
X214969Y128953D02*
X214751Y129908D01*
X214140Y130673D01*
X213257Y131098D01*
X212278D01*
X211396Y130673D01*
X210785Y129908D01*
X210567Y128953D01*
X210785Y127998D01*
X211396Y127232D01*
X212278Y126807D01*
X213257D01*
X214140Y127232D01*
X214751Y127998D01*
X214969Y128953D01*
X151969Y17520D02*
Y31693D01*
X135433D02*
X151969D01*
X135433Y17520D02*
Y31693D01*
Y17520D02*
X151969D01*
X42947Y214896D02*
Y246982D01*
Y214896D02*
X124601D01*
Y246982D01*
X42947D02*
X124601D01*
X42947Y244739D02*
Y245339D01*
X44547Y246939D01*
X45647D01*
X42942Y244233D02*
X45647Y246939D01*
X45018Y246439D02*
Y246878D01*
X44909Y246768D02*
X45018Y246878D01*
X44909Y246549D02*
Y246768D01*
X43141Y244781D02*
X44909Y246549D01*
X43141Y244781D02*
Y245047D01*
X44752Y246658D01*
X43939D02*
X44752D01*
X43016Y245736D02*
X43939Y246658D01*
X43016Y245736D02*
Y246033D01*
X43798Y246815D01*
X43391D02*
X43798D01*
X43047Y246471D02*
X43391Y246815D01*
X43047Y246471D02*
Y246471D01*
X43078Y246502D01*
X130834Y246471D02*
X130865Y246502D01*
X130834Y246471D02*
Y246471D01*
Y246471D02*
X131178Y246815D01*
X131585D01*
X130803Y246033D02*
X131585Y246815D01*
X130803Y245736D02*
Y246033D01*
Y245736D02*
X131726Y246658D01*
X132540D01*
X130928Y245047D02*
X132540Y246658D01*
X130928Y244781D02*
Y245047D01*
Y244781D02*
X132696Y246549D01*
Y246768D01*
X132806Y246878D01*
Y246439D02*
Y246878D01*
X130729Y244233D02*
X133434Y246939D01*
X132334D02*
X133434D01*
X130734Y245339D02*
X132334Y246939D01*
X130734Y244739D02*
Y245339D01*
Y246982D02*
X192703D01*
Y214896D02*
Y246982D01*
X130734Y214896D02*
X192703D01*
X130734D02*
Y246982D01*
X205878Y128953D02*
X212768D01*
X205878D02*
X207846Y126984D01*
X205878Y128953D02*
X207846Y130921D01*
Y126984D02*
Y130921D01*
X210799Y124031D02*
X214736D01*
X212768Y122063D02*
X214736Y124031D01*
X210799D02*
X212768Y122063D01*
Y128953D01*
X236174Y140739D02*
Y140748D01*
X236614D01*
X238583D01*
Y143701D01*
X219094Y177362D02*
X223031D01*
Y181299D01*
X249039Y102106D02*
X252781Y98596D01*
X248988Y101798D02*
X252614Y98416D01*
X250448Y100313D02*
X250763Y99932D01*
X250159Y100733D02*
X250448Y100313D01*
X249515Y101364D02*
X250159Y100733D01*
X249213Y101613D02*
X249515Y101364D01*
X249108Y101639D02*
X249213Y101613D01*
X249068Y101390D02*
X249108Y101639D01*
X249068Y101390D02*
X249778Y101180D01*
X249029Y101049D02*
X249778Y101180D01*
X249029Y101049D02*
X250041Y100917D01*
X249042Y100694D02*
X250041Y100917D01*
X249042Y100694D02*
X250185Y100667D01*
X248898Y100418D02*
X250185Y100667D01*
X248898Y100418D02*
X250632Y100352D01*
X249068Y100247D02*
X250632Y100352D01*
X249068Y100247D02*
X250934Y100023D01*
X249134Y99919D02*
X250934Y100023D01*
X249134Y99919D02*
X251091Y99761D01*
X249042Y99748D02*
X251091Y99761D01*
X249042Y99748D02*
X251328Y99537D01*
X249029Y99432D02*
X251328Y99537D01*
X249029Y99432D02*
X251722Y99248D01*
X249279Y99157D02*
X251722Y99248D01*
X249279Y99157D02*
X252195Y98894D01*
X249173Y98881D02*
X252195Y98894D01*
X249173Y98881D02*
X252274Y98723D01*
X249213Y98592D02*
X252274Y98723D01*
X249213Y98592D02*
X252445Y98447D01*
X296457Y139370D02*
Y155905D01*
X282283Y139370D02*
X296457D01*
X282283D02*
Y155905D01*
X296457D01*
X125172Y176010D02*
X128913Y172500D01*
X125339Y176190D02*
X128965Y172809D01*
X127190Y174675D02*
X127505Y174293D01*
X127794Y173873D01*
X128438Y173243D01*
X128740Y172993D01*
X128845Y172967D01*
X128884Y173216D01*
X128175Y173427D02*
X128884Y173216D01*
X128175Y173427D02*
X128924Y173558D01*
X127912Y173689D02*
X128924Y173558D01*
X127912Y173689D02*
X128911Y173913D01*
X127768Y173939D02*
X128911Y173913D01*
X127768Y173939D02*
X129055Y174189D01*
X127321Y174254D02*
X129055Y174189D01*
X127321Y174254D02*
X128884Y174359D01*
X127019Y174583D02*
X128884Y174359D01*
X127019Y174583D02*
X128819Y174688D01*
X126861Y174846D02*
X128819Y174688D01*
X126861Y174846D02*
X128911Y174859D01*
X126625Y175069D02*
X128911Y174859D01*
X126625Y175069D02*
X128924Y175174D01*
X126231Y175358D02*
X128924Y175174D01*
X126231Y175358D02*
X128674Y175450D01*
X125758Y175712D02*
X128674Y175450D01*
X125758Y175712D02*
X128779Y175725D01*
X125679Y175883D02*
X128779Y175725D01*
X125679Y175883D02*
X128740Y176015D01*
X125508Y176159D02*
X128740Y176015D01*
X98597Y176010D02*
X102339Y172500D01*
X98764Y176190D02*
X102390Y172809D01*
X100615Y174675D02*
X100930Y174293D01*
X101219Y173873D01*
X101863Y173243D01*
X102165Y172993D01*
X102270Y172967D01*
X102310Y173216D01*
X101600Y173427D02*
X102310Y173216D01*
X101600Y173427D02*
X102349Y173558D01*
X101337Y173689D02*
X102349Y173558D01*
X101337Y173689D02*
X102336Y173913D01*
X101193Y173939D02*
X102336Y173913D01*
X101193Y173939D02*
X102480Y174189D01*
X100746Y174254D02*
X102480Y174189D01*
X100746Y174254D02*
X102310Y174359D01*
X100444Y174583D02*
X102310Y174359D01*
X100444Y174583D02*
X102244Y174688D01*
X100286Y174846D02*
X102244Y174688D01*
X100286Y174846D02*
X102336Y174859D01*
X100050Y175069D02*
X102336Y174859D01*
X100050Y175069D02*
X102349Y175174D01*
X99656Y175358D02*
X102349Y175174D01*
X99656Y175358D02*
X102099Y175450D01*
X99183Y175712D02*
X102099Y175450D01*
X99183Y175712D02*
X102205Y175725D01*
X99104Y175883D02*
X102205Y175725D01*
X99104Y175883D02*
X102165Y176015D01*
X98933Y176159D02*
X102165Y176015D01*
X177756Y31693D02*
X194291D01*
Y17520D02*
Y31693D01*
X177756Y17520D02*
X194291D01*
X177756D02*
Y31693D01*
X72358Y176159D02*
X75590Y176015D01*
X72529Y175883D02*
X75590Y176015D01*
X72529Y175883D02*
X75630Y175725D01*
X72608Y175712D02*
X75630Y175725D01*
X72608Y175712D02*
X75524Y175450D01*
X73081Y175358D02*
X75524Y175450D01*
X73081Y175358D02*
X75774Y175174D01*
X73475Y175069D02*
X75774Y175174D01*
X73475Y175069D02*
X75761Y174859D01*
X73712Y174846D02*
X75761Y174859D01*
X73712Y174846D02*
X75669Y174688D01*
X73869Y174583D02*
X75669Y174688D01*
X73869Y174583D02*
X75735Y174359D01*
X74172Y174254D02*
X75735Y174359D01*
X74172Y174254D02*
X75906Y174189D01*
X74618Y173939D02*
X75906Y174189D01*
X74618Y173939D02*
X75761Y173913D01*
X74763Y173689D02*
X75761Y173913D01*
X74763Y173689D02*
X75774Y173558D01*
X75025Y173427D02*
X75774Y173558D01*
X75025Y173427D02*
X75735Y173216D01*
X75695Y172967D02*
X75735Y173216D01*
X75590Y172993D02*
X75695Y172967D01*
X75288Y173243D02*
X75590Y172993D01*
X74645Y173873D02*
X75288Y173243D01*
X74355Y174293D02*
X74645Y173873D01*
X74040Y174675D02*
X74355Y174293D01*
X72189Y176190D02*
X75815Y172809D01*
X72022Y176010D02*
X75764Y172500D01*
D12*
X281459Y247227D02*
X280736Y247956D01*
X279923Y248583D01*
X279034Y249098D01*
X278085Y249490D01*
X277093Y249755D01*
X276075Y249886D01*
X275048Y249883D01*
X274031Y249744D01*
X273041Y249472D01*
X272095Y249072D01*
X271210Y248551D01*
X270402Y247917D01*
X269684Y247183D01*
X269069Y246361D01*
Y237891D02*
X269684Y237069D01*
X270402Y236335D01*
X271210Y235701D01*
X272095Y235180D01*
X273041Y234780D01*
X274031Y234508D01*
X275048Y234369D01*
X276075Y234366D01*
X277093Y234497D01*
X278085Y234762D01*
X279034Y235154D01*
X279923Y235669D01*
X280736Y236296D01*
X281459Y237025D01*
X230357Y247227D02*
X229633Y247956D01*
X228820Y248583D01*
X227932Y249098D01*
X226983Y249490D01*
X225991Y249755D01*
X224973Y249886D01*
X223946Y249883D01*
X222929Y249744D01*
X221938Y249472D01*
X220993Y249072D01*
X220108Y248551D01*
X219300Y247917D01*
X218582Y247183D01*
X217967Y246361D01*
Y237891D02*
X218582Y237069D01*
X219300Y236335D01*
X220108Y235701D01*
X220993Y235180D01*
X221938Y234780D01*
X222929Y234508D01*
X223946Y234369D01*
X224973Y234366D01*
X225991Y234497D01*
X226983Y234762D01*
X227932Y235154D01*
X228820Y235669D01*
X229633Y236296D01*
X230357Y237025D01*
X243479Y237891D02*
X244094Y237069D01*
X244812Y236335D01*
X245620Y235701D01*
X246505Y235180D01*
X247450Y234780D01*
X248440Y234508D01*
X249458Y234369D01*
X250484Y234366D01*
X251503Y234497D01*
X252495Y234762D01*
X253443Y235154D01*
X254332Y235669D01*
X255145Y236296D01*
X255868Y237025D01*
Y247227D02*
X255145Y247956D01*
X254332Y248583D01*
X253443Y249098D01*
X252495Y249490D01*
X251503Y249755D01*
X250484Y249886D01*
X249458Y249883D01*
X248440Y249744D01*
X247450Y249472D01*
X246505Y249072D01*
X245620Y248551D01*
X244812Y247917D01*
X244094Y247183D01*
X243479Y246361D01*
X176676Y185491D02*
X175719Y185858D01*
X174750Y186192D01*
X173770Y186492D01*
X172780Y186757D01*
X171781Y186987D01*
X195846Y157193D02*
X195830Y158189D01*
X195781Y159184D01*
X195700Y160177D01*
X195586Y161166D01*
X195440Y162151D01*
X195262Y163131D01*
X195051Y164105D01*
X194809Y165071D01*
X194536Y166029D01*
X194231Y166977D01*
X193895Y167915D01*
X193529Y168842D01*
X193133Y169755D01*
X192707Y170656D01*
X192252Y171542D01*
X191768Y172413D01*
X191595Y173155D02*
X191754Y172438D01*
X192444Y173917D02*
X191595Y173152D01*
X171694Y127359D02*
X172657Y127580D01*
X173613Y127832D01*
X174560Y128115D01*
X175497Y128429D01*
X176424Y128773D01*
X177339Y129146D01*
X178241Y129550D01*
X179130Y129982D01*
X180004Y130442D01*
X180863Y130931D01*
X181706Y131448D01*
X182531Y131991D01*
X183339Y132561D01*
X184127Y133157D01*
X184896Y133778D01*
X185644Y134423D01*
X186371Y135093D01*
X187076Y135785D01*
X187758Y136501D01*
X188417Y137238D01*
X189051Y137995D01*
X189661Y138773D01*
X190245Y139571D01*
X190802Y140387D01*
X191333Y141220D01*
X191837Y142070D01*
X192313Y142937D01*
X192761Y143818D01*
X193179Y144713D01*
X193569Y145621D01*
X193929Y146542D01*
X194259Y147473D01*
X194558Y148415D01*
X194827Y149366D01*
X195065Y150326D01*
X195272Y151292D01*
X195447Y152264D01*
X195591Y153242D01*
X195702Y154224D01*
X195782Y155209D01*
X195830Y156196D01*
X195846Y157185D01*
X158928Y186987D02*
X157929Y186757D01*
X156939Y186492D01*
X155959Y186192D01*
X154990Y185858D01*
X154033Y185491D01*
X138940Y172413D02*
X138456Y171542D01*
X138001Y170656D01*
X137575Y169755D01*
X137179Y168842D01*
X136813Y167915D01*
X136478Y166977D01*
X136173Y166029D01*
X135899Y165071D01*
X135657Y164105D01*
X135447Y163131D01*
X135269Y162151D01*
X135123Y161166D01*
X135009Y160177D01*
X134927Y159184D01*
X134879Y158189D01*
X134862Y157193D01*
X138955Y172438D02*
X139114Y173155D01*
X139114Y173152D02*
X138265Y173917D01*
X134862Y157185D02*
X134878Y156196D01*
X134926Y155209D01*
X135006Y154224D01*
X135118Y153242D01*
X135262Y152264D01*
X135437Y151292D01*
X135644Y150325D01*
X135882Y149366D01*
X136151Y148415D01*
X136450Y147473D01*
X136780Y146542D01*
X137140Y145621D01*
X137529Y144713D01*
X137948Y143818D01*
X138396Y142937D01*
X138872Y142070D01*
X139375Y141220D01*
X139906Y140387D01*
X140464Y139571D01*
X141048Y138773D01*
X141657Y137995D01*
X142292Y137237D01*
X142950Y136501D01*
X143632Y135785D01*
X144337Y135093D01*
X145064Y134423D01*
X145813Y133777D01*
X146581Y133157D01*
X147370Y132561D01*
X148178Y131991D01*
X149003Y131448D01*
X149846Y130931D01*
X150705Y130442D01*
X151579Y129982D01*
X152468Y129549D01*
X153370Y129146D01*
X154285Y128773D01*
X155212Y128429D01*
X156149Y128115D01*
X157096Y127832D01*
X158051Y127580D01*
X159015Y127359D01*
X24488Y109449D02*
X32756D01*
X44567D02*
X55984D01*
X11299Y102850D02*
Y106795D01*
Y60528D02*
Y80221D01*
X66614Y57874D02*
Y109449D01*
X80709Y6890D02*
X104331D01*
X80709D02*
Y30512D01*
X104331D01*
Y6890D02*
Y30512D01*
X53706Y6890D02*
Y30512D01*
X30084D02*
X53706D01*
X30084Y6890D02*
Y30512D01*
Y6890D02*
X53706D01*
X129921Y34409D02*
X200787D01*
X129921Y107441D02*
Y110000D01*
X139567D01*
X191142D02*
X200787D01*
Y107441D02*
Y110000D01*
X334449Y91220D02*
X366673D01*
Y131220D01*
X334449D02*
X366673D01*
X281496Y237068D02*
Y237898D01*
Y246354D02*
Y247184D01*
X135591Y5827D02*
Y15827D01*
X195591Y5827D02*
Y15827D01*
X135591D02*
X195591D01*
X135591Y5827D02*
X195591D01*
X230394Y237068D02*
Y237898D01*
Y246354D02*
Y247184D01*
X255906Y246354D02*
Y247184D01*
Y237068D02*
Y237898D01*
X192441Y173917D02*
X193701D01*
Y185531D01*
X176575D02*
X193701D01*
X137008Y173917D02*
X138268D01*
X137008D02*
Y185531D01*
X154134D01*
D13*
X282972Y209252D02*
X282234Y209678D01*
Y208826D01*
X282972Y209252D01*
X275787Y219783D02*
Y222441D01*
X279724D01*
X275787Y210630D02*
Y213287D01*
Y210630D02*
X279724D01*
D14*
X194207Y5974D02*
X194448D01*
X195473Y7000D01*
Y6860D02*
Y7000D01*
X194612Y5999D02*
X195473Y6860D01*
X194612Y5999D02*
X194777D01*
X195410Y6633D01*
Y6518D02*
Y6633D01*
X194853Y5961D02*
X195410Y6518D01*
X194853Y5961D02*
X195005D01*
X195435Y6392D01*
Y6215D02*
Y6392D01*
X195157Y5936D02*
X195435Y6215D01*
D15*
X257653Y175243D02*
X261652D01*
X259653Y177243D02*
Y173244D01*
X203894Y130983D02*
X201894Y127984D01*
Y130983D02*
X203894Y127984D01*
X219052Y127874D02*
X217053D01*
Y128373D01*
X219052Y130373D01*
Y130873D01*
X217053D01*
X211799Y117080D02*
Y117579D01*
X212799Y118579D01*
X213798Y117579D01*
Y117080D01*
X212799Y118579D02*
Y120079D01*
D16*
X112143Y54800D02*
Y57799D01*
X113643D01*
X114142Y57299D01*
Y56299D01*
X113643Y55799D01*
X112143D01*
X113143D02*
X114142Y54800D01*
X116642D02*
Y57799D01*
X115142Y56299D01*
X117141D01*
X118141Y57299D02*
X118641Y57799D01*
X119641D01*
X120141Y57299D01*
Y55300D01*
X119641Y54800D01*
X118641D01*
X118141Y55300D01*
Y57299D01*
X73350Y95411D02*
X70351D01*
Y96910D01*
X70851Y97410D01*
X71850D01*
X72350Y96910D01*
Y95411D01*
Y96410D02*
X73350Y97410D01*
X70851Y98410D02*
X70351Y98910D01*
Y99909D01*
X70851Y100409D01*
X71351D01*
X71850Y99909D01*
Y99410D01*
Y99909D01*
X72350Y100409D01*
X72850D01*
X73350Y99909D01*
Y98910D01*
X72850Y98410D01*
Y101409D02*
X73350Y101909D01*
Y102908D01*
X72850Y103408D01*
X70851D01*
X70351Y102908D01*
Y101909D01*
X70851Y101409D01*
X71351D01*
X71850Y101909D01*
Y103408D01*
X81224Y95411D02*
X78225D01*
Y96910D01*
X78725Y97410D01*
X79724D01*
X80224Y96910D01*
Y95411D01*
Y96410D02*
X81224Y97410D01*
X78725Y98410D02*
X78225Y98910D01*
Y99909D01*
X78725Y100409D01*
X79225D01*
X79724Y99909D01*
Y99410D01*
Y99909D01*
X80224Y100409D01*
X80724D01*
X81224Y99909D01*
Y98910D01*
X80724Y98410D01*
X78725Y101409D02*
X78225Y101909D01*
Y102908D01*
X78725Y103408D01*
X79225D01*
X79724Y102908D01*
X80224Y103408D01*
X80724D01*
X81224Y102908D01*
Y101909D01*
X80724Y101409D01*
X80224D01*
X79724Y101909D01*
X79225Y101409D01*
X78725D01*
X79724Y101909D02*
Y102908D01*
X81224Y58994D02*
X78225D01*
Y60493D01*
X78725Y60993D01*
X79724D01*
X80224Y60493D01*
Y58994D01*
Y59993D02*
X81224Y60993D01*
Y63992D02*
Y61993D01*
X79224Y63992D01*
X78725D01*
X78225Y63492D01*
Y62492D01*
X78725Y61993D01*
Y64991D02*
X78225Y65491D01*
Y66491D01*
X78725Y66991D01*
X79224D01*
X79724Y66491D01*
Y65991D01*
Y66491D01*
X80224Y66991D01*
X80724D01*
X81224Y66491D01*
Y65491D01*
X80724Y64991D01*
X73350Y58993D02*
X70351D01*
Y60493D01*
X70851Y60993D01*
X71850D01*
X72350Y60493D01*
Y58993D01*
Y59993D02*
X73350Y60993D01*
Y63992D02*
Y61993D01*
X71351Y63992D01*
X70851D01*
X70351Y63492D01*
Y62492D01*
X70851Y61993D01*
Y64991D02*
X70351Y65491D01*
Y66491D01*
X70851Y66991D01*
X72850D01*
X73350Y66491D01*
Y65491D01*
X72850Y64991D01*
X70851D01*
X154813Y27033D02*
Y30032D01*
X156312D01*
X156812Y29532D01*
Y28533D01*
X156312Y28033D01*
X154813D01*
X155813D02*
X156812Y27033D01*
X159811D02*
X157812D01*
X159811Y29032D01*
Y29532D01*
X159311Y30032D01*
X158312D01*
X157812Y29532D01*
X160811Y27033D02*
X161811D01*
X161311D01*
Y30032D01*
X160811Y29532D01*
X168495Y19170D02*
Y22169D01*
X169995D01*
X170495Y21669D01*
Y20669D01*
X169995Y20169D01*
X168495D01*
X169495D02*
X170495Y19170D01*
X171494D02*
X172494D01*
X171994D01*
Y22169D01*
X171494Y21669D01*
X173994Y19670D02*
X174493Y19170D01*
X175493D01*
X175993Y19670D01*
Y21669D01*
X175493Y22169D01*
X174493D01*
X173994Y21669D01*
Y21169D01*
X174493Y20669D01*
X175993D01*
X12120Y117152D02*
X11120D01*
X11620D01*
Y114653D01*
X11120Y114153D01*
X10620D01*
X10120Y114653D01*
X13119Y117152D02*
X15119D01*
Y116652D01*
X13119Y114653D01*
Y114153D01*
X243579Y98129D02*
X246078D01*
X246578Y98629D01*
Y99629D01*
X246078Y100128D01*
X243579D01*
X246578Y101128D02*
Y102128D01*
Y101628D01*
X243579D01*
X244079Y101128D01*
X246578Y103627D02*
Y104627D01*
Y104127D01*
X243579D01*
X244079Y103627D01*
X249969Y162417D02*
X249469Y162917D01*
X248470D01*
X247970Y162417D01*
Y161917D01*
X248470Y161417D01*
X249469D01*
X249969Y160917D01*
Y160418D01*
X249469Y159918D01*
X248470D01*
X247970Y160418D01*
X250969Y162917D02*
Y159918D01*
X251969Y160917D01*
X252968Y159918D01*
Y162917D01*
X255467Y159918D02*
Y162917D01*
X253968Y161417D01*
X255967D01*
X284387Y130390D02*
Y133389D01*
X285887D01*
X286386Y132889D01*
Y131890D01*
X285887Y131390D01*
X284387D01*
X285387D02*
X286386Y130390D01*
X289386Y133389D02*
X288386Y132889D01*
X287386Y131890D01*
Y130890D01*
X287886Y130390D01*
X288886D01*
X289386Y130890D01*
Y131390D01*
X288886Y131890D01*
X287386D01*
X290385Y132889D02*
X290885Y133389D01*
X291885D01*
X292385Y132889D01*
Y132390D01*
X291885Y131890D01*
X292385Y131390D01*
Y130890D01*
X291885Y130390D01*
X290885D01*
X290385Y130890D01*
Y131390D01*
X290885Y131890D01*
X290385Y132390D01*
Y132889D01*
X290885Y131890D02*
X291885D01*
X279059Y147576D02*
X276060D01*
Y149076D01*
X276559Y149575D01*
X277559D01*
X278059Y149076D01*
Y147576D01*
Y148576D02*
X279059Y149575D01*
X276060Y152575D02*
X276559Y151575D01*
X277559Y150575D01*
X278559D01*
X279059Y151075D01*
Y152075D01*
X278559Y152575D01*
X278059D01*
X277559Y152075D01*
Y150575D01*
X276060Y153574D02*
Y155573D01*
X276559D01*
X278559Y153574D01*
X279059D01*
X275122Y89505D02*
X272123D01*
Y91005D01*
X272622Y91505D01*
X273622D01*
X274122Y91005D01*
Y89505D01*
Y90505D02*
X275122Y91505D01*
X272123Y94504D02*
X272622Y93504D01*
X273622Y92504D01*
X274622D01*
X275122Y93004D01*
Y94004D01*
X274622Y94504D01*
X274122D01*
X273622Y94004D01*
Y92504D01*
X272123Y97503D02*
X272622Y96503D01*
X273622Y95503D01*
X274622D01*
X275122Y96003D01*
Y97003D01*
X274622Y97503D01*
X274122D01*
X273622Y97003D01*
Y95503D01*
X271184Y147576D02*
X268185D01*
Y149076D01*
X268685Y149575D01*
X269685D01*
X270185Y149076D01*
Y147576D01*
Y148576D02*
X271184Y149575D01*
X268185Y152575D02*
X268685Y151575D01*
X269685Y150575D01*
X270685D01*
X271184Y151075D01*
Y152075D01*
X270685Y152575D01*
X270185D01*
X269685Y152075D01*
Y150575D01*
X268185Y155573D02*
Y153574D01*
X269685D01*
X269185Y154574D01*
Y155074D01*
X269685Y155573D01*
X270685D01*
X271184Y155074D01*
Y154074D01*
X270685Y153574D01*
X281027Y115096D02*
X278028D01*
Y116595D01*
X278528Y117095D01*
X279528D01*
X280027Y116595D01*
Y115096D01*
Y116095D02*
X281027Y117095D01*
X278028Y120094D02*
X278528Y119095D01*
X279528Y118095D01*
X280527D01*
X281027Y118595D01*
Y119594D01*
X280527Y120094D01*
X280027D01*
X279528Y119594D01*
Y118095D01*
X281027Y122593D02*
X278028D01*
X279528Y121094D01*
Y123093D01*
X301197Y142217D02*
X299197D01*
X298697Y141717D01*
Y140717D01*
X299197Y140217D01*
X301197D01*
X301696Y140717D01*
Y141717D01*
X300697Y141217D02*
X301696Y142217D01*
Y141717D02*
X301197Y142217D01*
X299197Y143216D02*
X298697Y143716D01*
Y144716D01*
X299197Y145216D01*
X299697D01*
X300197Y144716D01*
Y144216D01*
Y144716D01*
X300697Y145216D01*
X301197D01*
X301696Y144716D01*
Y143716D01*
X301197Y143216D01*
X198521Y145154D02*
Y148153D01*
X200021D01*
X200520Y147653D01*
Y146653D01*
X200021Y146154D01*
X198521D01*
X199521D02*
X200520Y145154D01*
X203519Y148153D02*
X201520D01*
Y146653D01*
X202520Y147153D01*
X203019D01*
X203519Y146653D01*
Y145654D01*
X203019Y145154D01*
X202020D01*
X201520Y145654D01*
X206019Y145154D02*
Y148153D01*
X204519Y146653D01*
X206518D01*
X242641Y158403D02*
X239642D01*
Y159902D01*
X240142Y160402D01*
X241142D01*
X241642Y159902D01*
Y158403D01*
Y159403D02*
X242641Y160402D01*
X239642Y163401D02*
Y161402D01*
X241142D01*
X240642Y162402D01*
Y162901D01*
X241142Y163401D01*
X242141D01*
X242641Y162901D01*
Y161902D01*
X242141Y161402D01*
X240142Y164401D02*
X239642Y164901D01*
Y165901D01*
X240142Y166400D01*
X240642D01*
X241142Y165901D01*
Y165401D01*
Y165901D01*
X241642Y166400D01*
X242141D01*
X242641Y165901D01*
Y164901D01*
X242141Y164401D01*
X112143Y102831D02*
Y105830D01*
X113643D01*
X114142Y105330D01*
Y104331D01*
X113643Y103831D01*
X112143D01*
X113143D02*
X114142Y102831D01*
X116642D02*
Y105830D01*
X115142Y104331D01*
X117141D01*
X120140Y105830D02*
X119141Y105330D01*
X118141Y104331D01*
Y103331D01*
X118641Y102831D01*
X119641D01*
X120140Y103331D01*
Y103831D01*
X119641Y104331D01*
X118141D01*
X205844Y82162D02*
Y85161D01*
X207343D01*
X207843Y84661D01*
Y83662D01*
X207343Y83162D01*
X205844D01*
X206843D02*
X207843Y82162D01*
X208843Y84661D02*
X209343Y85161D01*
X210342D01*
X210842Y84661D01*
Y84161D01*
X210342Y83662D01*
X209842D01*
X210342D01*
X210842Y83162D01*
Y82662D01*
X210342Y82162D01*
X209343D01*
X208843Y82662D01*
X213341Y82162D02*
Y85161D01*
X211842Y83662D01*
X213841D01*
X205844Y96106D02*
Y99105D01*
X207343D01*
X207843Y98606D01*
Y97606D01*
X207343Y97106D01*
X205844D01*
X206843D02*
X207843Y96106D01*
X210842D02*
X208843D01*
X210842Y98106D01*
Y98606D01*
X210342Y99105D01*
X209343D01*
X208843Y98606D01*
X211842Y99105D02*
X213841D01*
Y98606D01*
X211842Y96606D01*
Y96106D01*
X199303Y8389D02*
X198304D01*
X198803D01*
Y5890D01*
X198304Y5390D01*
X197804D01*
X197304Y5890D01*
X201802Y5390D02*
Y8389D01*
X200303Y6890D01*
X202302D01*
X112643Y68382D02*
Y71381D01*
X114142D01*
X114642Y70882D01*
Y69882D01*
X114142Y69382D01*
X112643D01*
X113643D02*
X114642Y68382D01*
X115642Y70882D02*
X116142Y71381D01*
X117141D01*
X117641Y70882D01*
Y70382D01*
X117141Y69882D01*
X116642D01*
X117141D01*
X117641Y69382D01*
Y68882D01*
X117141Y68382D01*
X116142D01*
X115642Y68882D01*
X118641Y68382D02*
X119641D01*
X119141D01*
Y71381D01*
X118641Y70882D01*
X112143Y75272D02*
Y78271D01*
X113643D01*
X114142Y77771D01*
Y76772D01*
X113643Y76272D01*
X112143D01*
X113143D02*
X114142Y75272D01*
X115142Y77771D02*
X115642Y78271D01*
X116642D01*
X117141Y77771D01*
Y77271D01*
X116642Y76772D01*
X116142D01*
X116642D01*
X117141Y76272D01*
Y75772D01*
X116642Y75272D01*
X115642D01*
X115142Y75772D01*
X118141Y77771D02*
X118641Y78271D01*
X119641D01*
X120140Y77771D01*
Y75772D01*
X119641Y75272D01*
X118641D01*
X118141Y75772D01*
Y77771D01*
X112143Y82162D02*
Y85161D01*
X113643D01*
X114142Y84661D01*
Y83661D01*
X113643Y83162D01*
X112143D01*
X113143D02*
X114142Y82162D01*
X117141D02*
X115142D01*
X117141Y84161D01*
Y84661D01*
X116642Y85161D01*
X115642D01*
X115142Y84661D01*
X118141Y82662D02*
X118641Y82162D01*
X119641D01*
X120140Y82662D01*
Y84661D01*
X119641Y85161D01*
X118641D01*
X118141Y84661D01*
Y84161D01*
X118641Y83661D01*
X120140D01*
X112143Y89052D02*
Y92051D01*
X113643D01*
X114142Y91551D01*
Y90551D01*
X113643Y90051D01*
X112143D01*
X113143D02*
X114142Y89052D01*
X117141D02*
X115142D01*
X117141Y91051D01*
Y91551D01*
X116642Y92051D01*
X115642D01*
X115142Y91551D01*
X118141D02*
X118641Y92051D01*
X119641D01*
X120140Y91551D01*
Y91051D01*
X119641Y90551D01*
X120140Y90051D01*
Y89552D01*
X119641Y89052D01*
X118641D01*
X118141Y89552D01*
Y90051D01*
X118641Y90551D01*
X118141Y91051D01*
Y91551D01*
X118641Y90551D02*
X119641D01*
X205844Y102831D02*
Y105830D01*
X207343D01*
X207843Y105330D01*
Y104331D01*
X207343Y103831D01*
X205844D01*
X206843D02*
X207843Y102831D01*
X210842D02*
X208843D01*
X210842Y104831D01*
Y105330D01*
X210342Y105830D01*
X209343D01*
X208843Y105330D01*
X213841Y105830D02*
X212842Y105330D01*
X211842Y104331D01*
Y103331D01*
X212342Y102831D01*
X213341D01*
X213841Y103331D01*
Y103831D01*
X213341Y104331D01*
X211842D01*
X205844Y54603D02*
Y57602D01*
X207343D01*
X207843Y57102D01*
Y56102D01*
X207343Y55603D01*
X205844D01*
X206843D02*
X207843Y54603D01*
X210842D02*
X208843D01*
X210842Y56602D01*
Y57102D01*
X210342Y57602D01*
X209343D01*
X208843Y57102D01*
X213841Y57602D02*
X211842D01*
Y56102D01*
X212842Y56602D01*
X213341D01*
X213841Y56102D01*
Y55103D01*
X213341Y54603D01*
X212342D01*
X211842Y55103D01*
X112143Y95941D02*
Y98940D01*
X113643D01*
X114142Y98441D01*
Y97441D01*
X113643Y96941D01*
X112143D01*
X113143D02*
X114142Y95941D01*
X117141D02*
X115142D01*
X117141Y97941D01*
Y98441D01*
X116642Y98940D01*
X115642D01*
X115142Y98441D01*
X119641Y95941D02*
Y98940D01*
X118141Y97441D01*
X120140D01*
X131421Y131774D02*
X128422D01*
Y133274D01*
X128922Y133774D01*
X129921D01*
X130421Y133274D01*
Y131774D01*
Y132774D02*
X131421Y133774D01*
Y134774D02*
Y135773D01*
Y135273D01*
X128422D01*
X128922Y134774D01*
X128422Y139272D02*
X128922Y138272D01*
X129921Y137273D01*
X130921D01*
X131421Y137773D01*
Y138772D01*
X130921Y139272D01*
X130421D01*
X129921Y138772D01*
Y137273D01*
X202256Y206708D02*
X201756Y207208D01*
X200757D01*
X200257Y206708D01*
Y204709D01*
X200757Y204209D01*
X201756D01*
X202256Y204709D01*
X205255Y204209D02*
X203256D01*
X205255Y206208D01*
Y206708D01*
X204755Y207208D01*
X203756D01*
X203256Y206708D01*
X202756Y201197D02*
X202256Y201696D01*
X201256D01*
X200757Y201197D01*
Y199197D01*
X201256Y198697D01*
X202256D01*
X202756Y199197D01*
X203756Y198697D02*
X204755D01*
X204255D01*
Y201696D01*
X203756Y201197D01*
X33168Y191414D02*
Y194413D01*
X34668D01*
X35168Y193913D01*
Y192913D01*
X34668Y192414D01*
X33168D01*
X34168D02*
X35168Y191414D01*
X36167D02*
X37167D01*
X36667D01*
Y194413D01*
X36167Y193913D01*
X38667Y191414D02*
X39666D01*
X39166D01*
Y194413D01*
X38667Y193913D01*
X19154Y191414D02*
Y194413D01*
X20654D01*
X21154Y193913D01*
Y192913D01*
X20654Y192414D01*
X19154D01*
X20154D02*
X21154Y191414D01*
X22153Y194413D02*
X24153D01*
Y193913D01*
X22153Y191914D01*
Y191414D01*
X209834Y226847D02*
Y229846D01*
X211333D01*
X211833Y229346D01*
Y228346D01*
X211333Y227847D01*
X209834D01*
X210834D02*
X211833Y226847D01*
X212833D02*
X213833D01*
X213333D01*
Y229846D01*
X212833Y229346D01*
X217332Y226847D02*
X215332D01*
X217332Y228846D01*
Y229346D01*
X216832Y229846D01*
X215832D01*
X215332Y229346D01*
X210678Y237720D02*
Y234721D01*
X212177D01*
X212677Y235221D01*
Y237220D01*
X212177Y237720D01*
X210678D01*
X213677Y234721D02*
X214676D01*
X214177D01*
Y237720D01*
X213677Y237220D01*
X214955Y30473D02*
X214455Y29973D01*
Y28973D01*
X214955Y28473D01*
X216954D01*
X217454Y28973D01*
Y29973D01*
X216954Y30473D01*
X217454Y32972D02*
X214455D01*
X215955Y31472D01*
Y33472D01*
X205844Y68382D02*
Y71381D01*
X207343D01*
X207843Y70882D01*
Y69882D01*
X207343Y69382D01*
X205844D01*
X206843D02*
X207843Y68382D01*
X208843Y70882D02*
X209343Y71381D01*
X210342D01*
X210842Y70882D01*
Y70382D01*
X210342Y69882D01*
X209842D01*
X210342D01*
X210842Y69382D01*
Y68882D01*
X210342Y68382D01*
X209343D01*
X208843Y68882D01*
X211842Y71381D02*
X213841D01*
Y70882D01*
X211842Y68882D01*
Y68382D01*
X51696Y174743D02*
X49197D01*
X48697Y174243D01*
Y173244D01*
X49197Y172744D01*
X51696D01*
Y169745D02*
Y171744D01*
X50197D01*
X50697Y170745D01*
Y170245D01*
X50197Y169745D01*
X49197D01*
X48697Y170245D01*
Y171244D01*
X49197Y171744D01*
X205844Y61493D02*
Y64492D01*
X207343D01*
X207843Y63992D01*
Y62992D01*
X207343Y62492D01*
X205844D01*
X206843D02*
X207843Y61493D01*
X208843Y63992D02*
X209343Y64492D01*
X210342D01*
X210842Y63992D01*
Y63492D01*
X210342Y62992D01*
X209842D01*
X210342D01*
X210842Y62492D01*
Y61993D01*
X210342Y61493D01*
X209343D01*
X208843Y61993D01*
X213841Y64492D02*
X212842Y63992D01*
X211842Y62992D01*
Y61993D01*
X212342Y61493D01*
X213341D01*
X213841Y61993D01*
Y62492D01*
X213341Y62992D01*
X211842D01*
X205844Y89052D02*
Y92051D01*
X207343D01*
X207843Y91551D01*
Y90551D01*
X207343Y90051D01*
X205844D01*
X206843D02*
X207843Y89052D01*
X208843Y91551D02*
X209343Y92051D01*
X210342D01*
X210842Y91551D01*
Y91051D01*
X210342Y90551D01*
X209842D01*
X210342D01*
X210842Y90051D01*
Y89552D01*
X210342Y89052D01*
X209343D01*
X208843Y89552D01*
X213841Y92051D02*
X211842D01*
Y90551D01*
X212842Y91051D01*
X213341D01*
X213841Y90551D01*
Y89552D01*
X213341Y89052D01*
X212342D01*
X211842Y89552D01*
X205844Y75272D02*
Y78271D01*
X207343D01*
X207843Y77771D01*
Y76772D01*
X207343Y76272D01*
X205844D01*
X206843D02*
X207843Y75272D01*
X208843Y77771D02*
X209343Y78271D01*
X210342D01*
X210842Y77771D01*
Y77271D01*
X210342Y76772D01*
X209842D01*
X210342D01*
X210842Y76272D01*
Y75772D01*
X210342Y75272D01*
X209343D01*
X208843Y75772D01*
X211842Y77771D02*
X212342Y78271D01*
X213341D01*
X213841Y77771D01*
Y77271D01*
X213341Y76772D01*
X212842D01*
X213341D01*
X213841Y76272D01*
Y75772D01*
X213341Y75272D01*
X212342D01*
X211842Y75772D01*
X112143Y61493D02*
Y64492D01*
X113643D01*
X114142Y63992D01*
Y62992D01*
X113643Y62492D01*
X112143D01*
X113143D02*
X114142Y61493D01*
X115142Y63992D02*
X115642Y64492D01*
X116642D01*
X117141Y63992D01*
Y63492D01*
X116642Y62992D01*
X116142D01*
X116642D01*
X117141Y62492D01*
Y61993D01*
X116642Y61493D01*
X115642D01*
X115142Y61993D01*
X120140Y61493D02*
X118141D01*
X120140Y63492D01*
Y63992D01*
X119641Y64492D01*
X118641D01*
X118141Y63992D01*
X299728Y224348D02*
X296729D01*
Y225847D01*
X297229Y226347D01*
X298228D01*
X298728Y225847D01*
Y224348D01*
Y225347D02*
X299728Y226347D01*
X296729Y229346D02*
Y227347D01*
X298228D01*
X297728Y228346D01*
Y228846D01*
X298228Y229346D01*
X299228D01*
X299728Y228846D01*
Y227847D01*
X299228Y227347D01*
X297229Y230346D02*
X296729Y230846D01*
Y231845D01*
X297229Y232345D01*
X297728D01*
X298228Y231845D01*
X298728Y232345D01*
X299228D01*
X299728Y231845D01*
Y230846D01*
X299228Y230346D01*
X298728D01*
X298228Y230846D01*
X297728Y230346D01*
X297229D01*
X298228Y230846D02*
Y231845D01*
X321335Y125454D02*
X323834D01*
X324334Y125953D01*
Y126953D01*
X323834Y127453D01*
X321335D01*
X321835Y128453D02*
X321335Y128952D01*
Y129952D01*
X321835Y130452D01*
X322335D01*
X322835Y129952D01*
X323335Y130452D01*
X323834D01*
X324334Y129952D01*
Y128952D01*
X323834Y128453D01*
X323335D01*
X322835Y128952D01*
X322335Y128453D01*
X321835D01*
X322835Y128952D02*
Y129952D01*
X355784Y76241D02*
X358783D01*
Y77741D01*
X358283Y78240D01*
X356284D01*
X355784Y77741D01*
Y76241D01*
X358783Y80739D02*
X355784D01*
X357283Y79240D01*
Y81239D01*
X376203Y139779D02*
X375704Y140279D01*
X374704D01*
X374204Y139779D01*
Y137780D01*
X374704Y137280D01*
X375704D01*
X376203Y137780D01*
X377203Y137280D02*
X378203D01*
X377703D01*
Y140279D01*
X377203Y139779D01*
X379702D02*
X380202Y140279D01*
X381202D01*
X381701Y139779D01*
Y137780D01*
X381202Y137280D01*
X380202D01*
X379702Y137780D01*
Y139779D01*
X304603Y194382D02*
Y193382D01*
Y193882D01*
X307102D01*
X307602Y193382D01*
Y192883D01*
X307102Y192383D01*
X304603Y197381D02*
X305103Y196381D01*
X306102Y195382D01*
X307102D01*
X307602Y195882D01*
Y196881D01*
X307102Y197381D01*
X306602D01*
X306102Y196881D01*
Y195382D01*
X130284Y111689D02*
Y114689D01*
X131284Y113689D01*
X132283Y114689D01*
Y111689D01*
X133283D02*
X134283D01*
X133783D01*
Y114689D01*
X133283Y114189D01*
X349394Y193867D02*
X348894Y193367D01*
Y192367D01*
X349394Y191867D01*
X349894D01*
X350394Y192367D01*
Y193367D01*
X350893Y193867D01*
X351393D01*
X351893Y193367D01*
Y192367D01*
X351393Y191867D01*
X348894Y194867D02*
X351893D01*
X350893Y195866D01*
X351893Y196866D01*
X348894D01*
X349394Y197865D02*
X348894Y198365D01*
Y199365D01*
X349394Y199865D01*
X349894D01*
X350394Y199365D01*
Y198865D01*
Y199365D01*
X350893Y199865D01*
X351393D01*
X351893Y199365D01*
Y198365D01*
X351393Y197865D01*
X268677Y7699D02*
X268177Y7200D01*
Y6200D01*
X268677Y5700D01*
X270676D01*
X271176Y6200D01*
Y7200D01*
X270676Y7699D01*
X271176Y8699D02*
Y9699D01*
Y9199D01*
X268177D01*
X268677Y8699D01*
X268177Y13198D02*
Y11198D01*
X269677D01*
X269177Y12198D01*
Y12698D01*
X269677Y13198D01*
X270676D01*
X271176Y12698D01*
Y11698D01*
X270676Y11198D01*
X387326Y79663D02*
X384327D01*
Y81162D01*
X384827Y81662D01*
X385827D01*
X386327Y81162D01*
Y79663D01*
Y80662D02*
X387326Y81662D01*
X384327Y84661D02*
Y82662D01*
X385827D01*
X385327Y83661D01*
Y84161D01*
X385827Y84661D01*
X386826D01*
X387326Y84161D01*
Y83162D01*
X386826Y82662D01*
X384327Y85661D02*
Y87660D01*
X384827D01*
X386826Y85661D01*
X387326D01*
X369610Y79663D02*
X366611D01*
Y81162D01*
X367111Y81662D01*
X368110D01*
X368610Y81162D01*
Y79663D01*
Y80662D02*
X369610Y81662D01*
X366611Y84661D02*
Y82662D01*
X368110D01*
X367610Y83661D01*
Y84161D01*
X368110Y84661D01*
X369110D01*
X369610Y84161D01*
Y83162D01*
X369110Y82662D01*
X366611Y87660D02*
X367111Y86660D01*
X368110Y85661D01*
X369110D01*
X369610Y86161D01*
Y87160D01*
X369110Y87660D01*
X368610D01*
X368110Y87160D01*
Y85661D01*
X276009Y8208D02*
X275509Y7709D01*
Y6709D01*
X276009Y6209D01*
X278008D01*
X278508Y6709D01*
Y7709D01*
X278008Y8208D01*
X278508Y9208D02*
Y10208D01*
Y9708D01*
X275509D01*
X276009Y9208D01*
X278508Y13207D02*
X275509D01*
X277009Y11707D01*
Y13707D01*
X356284Y31715D02*
X355784Y31215D01*
Y30216D01*
X356284Y29716D01*
X358283D01*
X358783Y30216D01*
Y31215D01*
X358283Y31715D01*
X358783Y32715D02*
Y33715D01*
Y33215D01*
X355784D01*
X356284Y32715D01*
X358783Y37213D02*
Y35214D01*
X356784Y37213D01*
X356284D01*
X355784Y36713D01*
Y35714D01*
X356284Y35214D01*
X320835Y116657D02*
Y113658D01*
X322835D01*
X323834D02*
X324834D01*
X324334D01*
Y116657D01*
X323834Y116157D01*
X299197Y160168D02*
X298697Y159668D01*
Y158668D01*
X299197Y158168D01*
X301197D01*
X301696Y158668D01*
Y159668D01*
X301197Y160168D01*
X301696Y161167D02*
Y162167D01*
Y161667D01*
X298697D01*
X299197Y161167D01*
X301696Y163667D02*
Y164666D01*
Y164166D01*
X298697D01*
X299197Y163667D01*
X376203Y146669D02*
X375704Y147169D01*
X374704D01*
X374204Y146669D01*
Y144670D01*
X374704Y144170D01*
X375704D01*
X376203Y144670D01*
X377203Y144170D02*
X378203D01*
X377703D01*
Y147169D01*
X377203Y146669D01*
X379702D02*
X380202Y147169D01*
X381202D01*
X381701Y146669D01*
Y146169D01*
X381202Y145669D01*
X380702D01*
X381202D01*
X381701Y145169D01*
Y144670D01*
X381202Y144170D01*
X380202D01*
X379702Y144670D01*
X52634Y152028D02*
X55133D01*
X55633Y152528D01*
Y153528D01*
X55133Y154028D01*
X52634D01*
X55633Y157027D02*
Y155027D01*
X53634Y157027D01*
X53134D01*
X52634Y156527D01*
Y155527D01*
X53134Y155027D01*
X79209Y152528D02*
X81708D01*
X82208Y153028D01*
Y154028D01*
X81708Y154528D01*
X79209D01*
X82208Y155527D02*
Y156527D01*
Y156027D01*
X79209D01*
X79709Y155527D01*
X104800Y152028D02*
X107299D01*
X107799Y152528D01*
Y153528D01*
X107299Y154028D01*
X104800D01*
X107799Y156527D02*
X104800D01*
X106299Y155027D01*
Y157027D01*
X57602Y133062D02*
X54603D01*
Y134562D01*
X55103Y135062D01*
X56102D01*
X56602Y134562D01*
Y133062D01*
Y134062D02*
X57602Y135062D01*
Y136061D02*
Y137061D01*
Y136561D01*
X54603D01*
X55103Y136061D01*
X57602Y140060D02*
X54603D01*
X56102Y138560D01*
Y140560D01*
X66399Y196335D02*
Y199334D01*
X67898D01*
X68398Y198834D01*
Y197835D01*
X67898Y197335D01*
X66399D01*
X67398D02*
X68398Y196335D01*
X71397Y199334D02*
X70397Y198834D01*
X69397Y197835D01*
Y196835D01*
X69897Y196335D01*
X70897D01*
X71397Y196835D01*
Y197335D01*
X70897Y197835D01*
X69397D01*
X78271Y133024D02*
X75272D01*
Y134524D01*
X75772Y135023D01*
X76772D01*
X77271Y134524D01*
Y133024D01*
Y134024D02*
X78271Y135023D01*
X75772Y136023D02*
X75272Y136523D01*
Y137523D01*
X75772Y138022D01*
X76272D01*
X76772Y137523D01*
Y137023D01*
Y137523D01*
X77271Y138022D01*
X77771D01*
X78271Y137523D01*
Y136523D01*
X77771Y136023D01*
X85161Y132078D02*
X82162D01*
Y133578D01*
X82662Y134077D01*
X83661D01*
X84161Y133578D01*
Y132078D01*
Y133078D02*
X85161Y134077D01*
Y135077D02*
Y136077D01*
Y135577D01*
X82162D01*
X82662Y135077D01*
Y137576D02*
X82162Y138076D01*
Y139076D01*
X82662Y139576D01*
X83162D01*
X83661Y139076D01*
Y138576D01*
Y139076D01*
X84161Y139576D01*
X84661D01*
X85161Y139076D01*
Y138076D01*
X84661Y137576D01*
X55792Y192750D02*
X52793D01*
Y194249D01*
X53293Y194749D01*
X54293D01*
X54792Y194249D01*
Y192750D01*
Y193750D02*
X55792Y194749D01*
Y197248D02*
X52793D01*
X54293Y195749D01*
Y197748D01*
X83192Y193367D02*
X80193D01*
Y194867D01*
X80693Y195366D01*
X81693D01*
X82193Y194867D01*
Y193367D01*
Y194367D02*
X83192Y195366D01*
Y198365D02*
Y196366D01*
X81193Y198365D01*
X80693D01*
X80193Y197865D01*
Y196866D01*
X80693Y196366D01*
X111736Y132078D02*
X108737D01*
Y133578D01*
X109237Y134077D01*
X110236D01*
X110736Y133578D01*
Y132078D01*
Y133078D02*
X111736Y134077D01*
Y135077D02*
Y136077D01*
Y135577D01*
X108737D01*
X109237Y135077D01*
Y137576D02*
X108737Y138076D01*
Y139076D01*
X109237Y139576D01*
X109736D01*
X110236Y139076D01*
X110736Y139576D01*
X111236D01*
X111736Y139076D01*
Y138076D01*
X111236Y137576D01*
X110736D01*
X110236Y138076D01*
X109736Y137576D01*
X109237D01*
X110236Y138076D02*
Y139076D01*
X118298Y194367D02*
Y197366D01*
X119798D01*
X120298Y196866D01*
Y195866D01*
X119798Y195366D01*
X118298D01*
X119298D02*
X120298Y194367D01*
X121298D02*
X122297D01*
X121797D01*
Y197366D01*
X121298Y196866D01*
X123797Y197366D02*
X125796D01*
Y196866D01*
X123797Y194867D01*
Y194367D01*
X92973Y196335D02*
Y199334D01*
X94473D01*
X94973Y198834D01*
Y197835D01*
X94473Y197335D01*
X92973D01*
X93973D02*
X94973Y196335D01*
X97972Y199334D02*
X95972D01*
Y197835D01*
X96972Y198335D01*
X97472D01*
X97972Y197835D01*
Y196835D01*
X97472Y196335D01*
X96472D01*
X95972Y196835D01*
X105374Y133524D02*
X102374D01*
Y135023D01*
X102874Y135523D01*
X103874D01*
X104374Y135023D01*
Y133524D01*
Y134524D02*
X105374Y135523D01*
Y136523D02*
Y137523D01*
Y137023D01*
X102374D01*
X102874Y136523D01*
X121547Y213114D02*
X120548D01*
X121048D01*
Y210614D01*
X120548Y210115D01*
X120048D01*
X119548Y210614D01*
X124546Y210115D02*
X122547D01*
X124546Y212114D01*
Y212614D01*
X124047Y213114D01*
X123047D01*
X122547Y212614D01*
X189461Y213114D02*
X188461D01*
X188961D01*
Y210614D01*
X188461Y210115D01*
X187961D01*
X187461Y210614D01*
X190461Y212614D02*
X190960Y213114D01*
X191960D01*
X192460Y212614D01*
Y212114D01*
X191960Y211614D01*
X191460D01*
X191960D01*
X192460Y211114D01*
Y210614D01*
X191960Y210115D01*
X190960D01*
X190461Y210614D01*
X257328Y145154D02*
Y148153D01*
X258827D01*
X259327Y147653D01*
Y146653D01*
X258827Y146154D01*
X257328D01*
X258328D02*
X259327Y145154D01*
X262326Y148153D02*
X260327D01*
Y146653D01*
X261327Y147153D01*
X261826D01*
X262326Y146653D01*
Y145654D01*
X261826Y145154D01*
X260827D01*
X260327Y145654D01*
X263326Y145154D02*
X264326D01*
X263826D01*
Y148153D01*
X263326Y147653D01*
X190945Y190476D02*
X189945D01*
X190445D01*
Y187977D01*
X189945Y187477D01*
X189445D01*
X188945Y187977D01*
X191945Y187477D02*
X192944D01*
X192444D01*
Y190476D01*
X191945Y189976D01*
X199007Y170154D02*
Y173153D01*
X200507D01*
X201007Y172653D01*
Y171653D01*
X200507Y171154D01*
X199007D01*
X200007D02*
X201007Y170154D01*
X202006D02*
X203006D01*
X202506D01*
Y173153D01*
X202006Y172653D01*
X206505Y173153D02*
X204505D01*
Y171653D01*
X205505Y172153D01*
X206005D01*
X206505Y171653D01*
Y170654D01*
X206005Y170154D01*
X205005D01*
X204505Y170654D01*
X241094Y176847D02*
Y179846D01*
X242593D01*
X243093Y179346D01*
Y178347D01*
X242593Y177847D01*
X241094D01*
X242093D02*
X243093Y176847D01*
X244093D02*
X245093D01*
X244593D01*
Y179846D01*
X244093Y179346D01*
X246592D02*
X247092Y179846D01*
X248092D01*
X248591Y179346D01*
Y177347D01*
X248092Y176847D01*
X247092D01*
X246592Y177347D01*
Y179346D01*
X242343Y184721D02*
Y187720D01*
X243843D01*
X244343Y187220D01*
Y186221D01*
X243843Y185721D01*
X242343D01*
X243343D02*
X244343Y184721D01*
X245342Y185221D02*
X245842Y184721D01*
X246842D01*
X247342Y185221D01*
Y187220D01*
X246842Y187720D01*
X245842D01*
X245342Y187220D01*
Y186720D01*
X245842Y186221D01*
X247342D01*
X242343Y192595D02*
Y195594D01*
X243843D01*
X244343Y195094D01*
Y194095D01*
X243843Y193595D01*
X242343D01*
X243343D02*
X244343Y192595D01*
X245342Y195094D02*
X245842Y195594D01*
X246842D01*
X247342Y195094D01*
Y194594D01*
X246842Y194095D01*
X247342Y193595D01*
Y193095D01*
X246842Y192595D01*
X245842D01*
X245342Y193095D01*
Y193595D01*
X245842Y194095D01*
X245342Y194594D01*
Y195094D01*
X245842Y194095D02*
X246842D01*
X217973Y175712D02*
Y173213D01*
X218473Y172713D01*
X219473D01*
X219973Y173213D01*
Y175712D01*
X220972Y175212D02*
X221472Y175712D01*
X222472D01*
X222972Y175212D01*
Y174712D01*
X222472Y174213D01*
X221972D01*
X222472D01*
X222972Y173713D01*
Y173213D01*
X222472Y172713D01*
X221472D01*
X220972Y173213D01*
X229194Y140181D02*
Y137682D01*
X229694Y137182D01*
X230693D01*
X231193Y137682D01*
Y140181D01*
X232193D02*
X234192D01*
Y139681D01*
X232193Y137682D01*
Y137182D01*
X256828Y152044D02*
Y155043D01*
X258328D01*
X258827Y154543D01*
Y153543D01*
X258328Y153043D01*
X256828D01*
X257828D02*
X258827Y152044D01*
X261826Y155043D02*
X259827D01*
Y153543D01*
X260827Y154043D01*
X261327D01*
X261826Y153543D01*
Y152544D01*
X261327Y152044D01*
X260327D01*
X259827Y152544D01*
X264826Y155043D02*
X262826D01*
Y153543D01*
X263826Y154043D01*
X264326D01*
X264826Y153543D01*
Y152544D01*
X264326Y152044D01*
X263326D01*
X262826Y152544D01*
X224925Y124938D02*
X221926D01*
Y126438D01*
X222426Y126938D01*
X223425D01*
X223925Y126438D01*
Y124938D01*
Y125938D02*
X224925Y126938D01*
X221926Y129937D02*
Y127937D01*
X223425D01*
X222925Y128937D01*
Y129437D01*
X223425Y129937D01*
X224425D01*
X224925Y129437D01*
Y128437D01*
X224425Y127937D01*
X224925Y132936D02*
Y130936D01*
X222925Y132936D01*
X222426D01*
X221926Y132436D01*
Y131436D01*
X222426Y130936D01*
X242641Y124938D02*
X239642D01*
Y126438D01*
X240142Y126938D01*
X241142D01*
X241642Y126438D01*
Y124938D01*
Y125938D02*
X242641Y126938D01*
X239642Y129937D02*
Y127937D01*
X241142D01*
X240642Y128937D01*
Y129437D01*
X241142Y129937D01*
X242141D01*
X242641Y129437D01*
Y128437D01*
X242141Y127937D01*
X240142Y130936D02*
X239642Y131436D01*
Y132436D01*
X240142Y132936D01*
X242141D01*
X242641Y132436D01*
Y131436D01*
X242141Y130936D01*
X240142D01*
X256828Y138264D02*
Y141263D01*
X258328D01*
X258827Y140763D01*
Y139764D01*
X258328Y139264D01*
X256828D01*
X257828D02*
X258827Y138264D01*
X261327D02*
Y141263D01*
X259827Y139764D01*
X261826D01*
X262826Y140763D02*
X263326Y141263D01*
X264326D01*
X264826Y140763D01*
Y140264D01*
X264326Y139764D01*
X264826Y139264D01*
Y138764D01*
X264326Y138264D01*
X263326D01*
X262826Y138764D01*
Y139264D01*
X263326Y139764D01*
X262826Y140264D01*
Y140763D01*
X263326Y139764D02*
X264326D01*
X198521Y138264D02*
Y141263D01*
X200021D01*
X200520Y140763D01*
Y139764D01*
X200021Y139264D01*
X198521D01*
X199521D02*
X200520Y138264D01*
X203019D02*
Y141263D01*
X201520Y139764D01*
X203519D01*
X204519Y138764D02*
X205019Y138264D01*
X206019D01*
X206518Y138764D01*
Y140763D01*
X206019Y141263D01*
X205019D01*
X204519Y140763D01*
Y140264D01*
X205019Y139764D01*
X206518D01*
X202020Y154543D02*
X201520Y155043D01*
X200520D01*
X200021Y154543D01*
Y152544D01*
X200520Y152044D01*
X201520D01*
X202020Y152544D01*
X203019D02*
X203519Y152044D01*
X204519D01*
X205019Y152544D01*
Y154543D01*
X204519Y155043D01*
X203519D01*
X203019Y154543D01*
Y154043D01*
X203519Y153543D01*
X205019D01*
X222426Y161902D02*
X221926Y161402D01*
Y160402D01*
X222426Y159902D01*
X224425D01*
X224925Y160402D01*
Y161402D01*
X224425Y161902D01*
X222426Y162901D02*
X221926Y163401D01*
Y164401D01*
X222426Y164901D01*
X222925D01*
X223425Y164401D01*
X223925Y164901D01*
X224425D01*
X224925Y164401D01*
Y163401D01*
X224425Y162901D01*
X223925D01*
X223425Y163401D01*
X222925Y162901D01*
X222426D01*
X223425Y163401D02*
Y164401D01*
X270139Y61539D02*
Y59040D01*
X270638Y58540D01*
X271638D01*
X272138Y59040D01*
Y61539D01*
X273138Y59040D02*
X273638Y58540D01*
X274637D01*
X275137Y59040D01*
Y61039D01*
X274637Y61539D01*
X273638D01*
X273138Y61039D01*
Y60539D01*
X273638Y60039D01*
X275137D01*
X245267Y213114D02*
Y210614D01*
X245767Y210115D01*
X246766D01*
X247266Y210614D01*
Y213114D01*
X248266Y210115D02*
X249266D01*
X248766D01*
Y213114D01*
X248266Y212614D01*
X250765D02*
X251265Y213114D01*
X252265D01*
X252765Y212614D01*
Y210614D01*
X252265Y210115D01*
X251265D01*
X250765Y210614D01*
Y212614D01*
X72804Y36433D02*
X72304Y36933D01*
X71304D01*
X70804Y36433D01*
Y35933D01*
X71304Y35433D01*
X72304D01*
X72804Y34933D01*
Y34433D01*
X72304Y33934D01*
X71304D01*
X70804Y34433D01*
X73804Y36933D02*
Y33934D01*
X74803Y34933D01*
X75803Y33934D01*
Y36933D01*
X78802Y33934D02*
X76802D01*
X78802Y35933D01*
Y36433D01*
X78302Y36933D01*
X77302D01*
X76802Y36433D01*
X21138Y35449D02*
X20638Y35948D01*
X19639D01*
X19139Y35449D01*
Y34949D01*
X19639Y34449D01*
X20638D01*
X21138Y33949D01*
Y33449D01*
X20638Y32949D01*
X19639D01*
X19139Y33449D01*
X22138Y35948D02*
Y32949D01*
X23138Y33949D01*
X24137Y32949D01*
Y35948D01*
X25137Y32949D02*
X26137D01*
X25637D01*
Y35948D01*
X25137Y35449D01*
X261342Y224348D02*
X258343D01*
Y225847D01*
X258843Y226347D01*
X259842D01*
X260342Y225847D01*
Y224348D01*
Y225347D02*
X261342Y226347D01*
X258343Y229346D02*
X258843Y228346D01*
X259842Y227347D01*
X260842D01*
X261342Y227847D01*
Y228846D01*
X260842Y229346D01*
X260342D01*
X259842Y228846D01*
Y227347D01*
X258843Y230346D02*
X258343Y230846D01*
Y231845D01*
X258843Y232345D01*
X259343D01*
X259842Y231845D01*
Y231346D01*
Y231845D01*
X260342Y232345D01*
X260842D01*
X261342Y231845D01*
Y230846D01*
X260842Y230346D01*
X291854Y224505D02*
X288855D01*
Y226005D01*
X289355Y226505D01*
X290354D01*
X290854Y226005D01*
Y224505D01*
Y225505D02*
X291854Y226505D01*
X288855Y229504D02*
X289355Y228504D01*
X290354Y227504D01*
X291354D01*
X291854Y228004D01*
Y229004D01*
X291354Y229504D01*
X290854D01*
X290354Y229004D01*
Y227504D01*
X289355Y230503D02*
X288855Y231003D01*
Y232003D01*
X289355Y232503D01*
X291354D01*
X291854Y232003D01*
Y231003D01*
X291354Y230503D01*
X289355D01*
X268232Y224348D02*
X265233D01*
Y225847D01*
X265733Y226347D01*
X266732D01*
X267232Y225847D01*
Y224348D01*
Y225347D02*
X268232Y226347D01*
X265233Y229346D02*
Y227347D01*
X266732D01*
X266232Y228346D01*
Y228846D01*
X266732Y229346D01*
X267732D01*
X268232Y228846D01*
Y227847D01*
X267732Y227347D01*
Y230346D02*
X268232Y230846D01*
Y231845D01*
X267732Y232345D01*
X265733D01*
X265233Y231845D01*
Y230846D01*
X265733Y230346D01*
X266232D01*
X266732Y230846D01*
Y232345D01*
X109190Y34918D02*
Y37917D01*
X110690D01*
X111190Y37417D01*
Y36417D01*
X110690Y35917D01*
X109190D01*
X110190D02*
X111190Y34918D01*
X114189D02*
X112189D01*
X114189Y36917D01*
Y37417D01*
X113689Y37917D01*
X112689D01*
X112189Y37417D01*
X117188Y34918D02*
X115188D01*
X117188Y36917D01*
Y37417D01*
X116688Y37917D01*
X115688D01*
X115188Y37417D01*
X235674Y226847D02*
Y229846D01*
X237174D01*
X237674Y229346D01*
Y228346D01*
X237174Y227847D01*
X235674D01*
X236674D02*
X237674Y226847D01*
X240673Y229846D02*
X239673Y229346D01*
X238673Y228346D01*
Y227347D01*
X239173Y226847D01*
X240173D01*
X240673Y227347D01*
Y227847D01*
X240173Y228346D01*
X238673D01*
X241672Y226847D02*
X242672D01*
X242172D01*
Y229846D01*
X241672Y229346D01*
X291277Y237674D02*
Y240673D01*
X292776D01*
X293276Y240173D01*
Y239173D01*
X292776Y238673D01*
X291277D01*
X292277D02*
X293276Y237674D01*
X296275Y240673D02*
X295276Y240173D01*
X294276Y239173D01*
Y238174D01*
X294776Y237674D01*
X295775D01*
X296275Y238174D01*
Y238673D01*
X295775Y239173D01*
X294276D01*
X299274Y237674D02*
X297275D01*
X299274Y239673D01*
Y240173D01*
X298775Y240673D01*
X297775D01*
X297275Y240173D01*
X379406Y159449D02*
Y157449D01*
X380906D01*
Y158449D01*
Y157449D01*
X382405D01*
Y160449D02*
Y161448D01*
Y160948D01*
X379406D01*
X379906Y160449D01*
X234705Y237720D02*
Y234721D01*
X236205D01*
X236705Y235221D01*
Y237220D01*
X236205Y237720D01*
X234705D01*
X239704D02*
X237705D01*
Y236221D01*
X238704Y236720D01*
X239204D01*
X239704Y236221D01*
Y235221D01*
X239204Y234721D01*
X238204D01*
X237705Y235221D01*
X260296Y237720D02*
Y234721D01*
X261796D01*
X262295Y235221D01*
Y237220D01*
X261796Y237720D01*
X260296D01*
X265295D02*
X264295Y237220D01*
X263295Y236221D01*
Y235221D01*
X263795Y234721D01*
X264795D01*
X265295Y235221D01*
Y235721D01*
X264795Y236221D01*
X263295D01*
X259827Y8093D02*
X259327Y7593D01*
Y6594D01*
X259827Y6094D01*
X261826D01*
X262326Y6594D01*
Y7593D01*
X261826Y8093D01*
X262326Y9093D02*
Y10092D01*
Y9593D01*
X259327D01*
X259827Y9093D01*
X259327Y13591D02*
X259827Y12592D01*
X260827Y11592D01*
X261826D01*
X262326Y12092D01*
Y13092D01*
X261826Y13591D01*
X261327D01*
X260827Y13092D01*
Y11592D01*
X86599Y61508D02*
X86099Y61008D01*
Y60009D01*
X86599Y59509D01*
X88598D01*
X89098Y60009D01*
Y61008D01*
X88598Y61508D01*
X86599Y62508D02*
X86099Y63008D01*
Y64007D01*
X86599Y64507D01*
X87099D01*
X87598Y64007D01*
Y63507D01*
Y64007D01*
X88098Y64507D01*
X88598D01*
X89098Y64007D01*
Y63008D01*
X88598Y62508D01*
X209077Y30473D02*
X208577Y29973D01*
Y28973D01*
X209077Y28473D01*
X211076D01*
X211576Y28973D01*
Y29973D01*
X211076Y30473D01*
X208577Y33472D02*
Y31472D01*
X210076D01*
X209577Y32472D01*
Y32972D01*
X210076Y33472D01*
X211076D01*
X211576Y32972D01*
Y31972D01*
X211076Y31472D01*
M02*
