G04*
G04 #@! TF.GenerationSoftware,Altium Limited,Altium Designer,24.5.2 (23)*
G04*
G04 Layer_Color=255*
%FSLAX25Y25*%
%MOIN*%
G70*
G04*
G04 #@! TF.SameCoordinates,69DD5750-F066-4D08-A96F-D9ADA75AFFB9*
G04*
G04*
G04 #@! TF.FilePolarity,Positive*
G04*
G01*
G75*
%ADD97C,0.11811*%
%ADD98R,0.11811X0.11811*%
%ADD99C,0.05906*%
%ADD100C,0.05937*%
%ADD101R,0.05937X0.05937*%
%ADD102R,0.05906X0.05906*%
%ADD103R,0.07874X0.07874*%
%ADD104C,0.07874*%
%ADD105R,0.07874X0.19685*%
%ADD106R,0.19685X0.07874*%
%ADD107C,0.05118*%
%ADD108C,0.03937*%
D97*
X112947Y230939D02*
D03*
X92947D02*
D03*
X72947D02*
D03*
X160734D02*
D03*
X180734D02*
D03*
X381890Y19685D02*
D03*
X11811Y236221D02*
D03*
D98*
X52947Y230939D02*
D03*
X140734D02*
D03*
D99*
X259606Y182087D02*
D03*
X289606D02*
D03*
X180591Y10827D02*
D03*
X170591D02*
D03*
X160591D02*
D03*
X150591D02*
D03*
X140591D02*
D03*
X338583Y161417D02*
D03*
X318898D02*
D03*
X338583Y33465D02*
D03*
X318898D02*
D03*
D100*
X270590Y242126D02*
D03*
X219488D02*
D03*
X245000D02*
D03*
D101*
X280591D02*
D03*
X229488D02*
D03*
X255000D02*
D03*
D102*
X190591Y10827D02*
D03*
D103*
X375984Y228543D02*
D03*
D104*
Y215945D02*
D03*
Y203346D02*
D03*
X364173Y228543D02*
D03*
Y215945D02*
D03*
Y203346D02*
D03*
X383465Y192717D02*
D03*
X356693Y239173D02*
D03*
D105*
X309646Y208661D02*
D03*
D106*
X328150Y220472D02*
D03*
Y196063D02*
D03*
D107*
X165354Y172028D02*
D03*
D108*
Y142539D02*
D03*
M02*
