M48
;Layer_Color=9474304
;FILE_FORMAT=2:5
INCH,TZ
;TYPE=PLATED
T01F00S00C0.01181
T02F00S00C0.01575
T03F00S00C0.01968
T04F00S00C0.03150
T05F00S00C0.03189
T06F00S00C0.03937
T08F00S00C0.05118
T09F00S00C0.05906
T10F00S00C0.11811
;TYPE=NON_PLATED
T11F00S00C0.03937
T12F00S00C0.05118
%
T01
X1969Y1969
X5906
X9843
X13780
X1969Y5906
Y9843
Y13780
Y17717
Y21654
Y25591
Y29528
Y33465
X17717Y1969
X21654
X25591
X29528
X33465
X37402
X41339
X45276
X49213
X53150
X57087
X61024
X64961
X68898
X72835
X76772
X80709
X84646
X88583
X92520
X96457
X100394
X104331
X108268
X112205
X116142
X120079
X124016
X127953
X131890
X135827
X139764
X143701
X147638
X151575
X155512
X159449
X163386
X167323
X171260
X175197
X179134
X183071
X187008
X190945
X194882
X198819
X202756
X206693
X210630
X214567
X218504
X222441
X226378
X230315
X234252
X238189
X242126
X246063
X250000
X253937
X257874
X261811
X265748
X269685
X273622
X277559
X281496
X285433
X289370
X293307
X297244
X301181
X305118
X309055
X312992
X316929
X320866
X324803
X328740
X332677
X336614
X340551
X344488
X348425
X352362
X356299
X360236
X364173
X368110
X372047
X375984
X379921
X383858
X387795
X391732
Y5906
Y9843
Y13780
Y17717
Y21654
Y25591
Y29528
Y33465
Y37402
Y41339
Y45276
Y49213
Y53150
Y57087
Y61024
Y64961
Y68898
Y72835
Y76772
Y80709
Y84646
Y88583
Y92520
Y96457
Y100394
Y104331
Y108268
Y112205
Y116142
Y120079
Y124016
Y127953
Y131890
Y135827
Y139764
Y143701
Y147638
Y151575
Y155512
Y159449
Y163386
Y167323
Y171260
Y175197
Y179134
Y183071
Y187008
X1969
Y183071
Y179134
Y175197
Y171260
Y167323
Y163386
Y159449
Y155512
Y151575
Y147638
Y143701
Y139764
Y135827
Y131890
Y127953
Y124016
Y120079
Y116142
Y112205
Y108268
Y104331
Y100394
Y96457
Y92520
Y88583
Y84646
Y80709
Y76772
Y72835
Y68898
Y64961
Y61024
Y57087
Y53150
Y49213
Y45276
Y41339
Y37402
Y190945
Y194882
Y198819
Y202756
Y206693
Y210630
Y214567
Y218504
Y222441
Y226378
Y230315
Y234252
Y238189
Y242126
Y246063
Y250000
Y253937
X5906
X9843
X13780
X17717
X21654
X25591
X29528
X33465
X37402
X41339
X45276
X49213
X53150
X57087
X61024
X64961
X68898
X72835
X76772
X80709
X84646
X88583
X92520
X96457
X100394
X104331
X108268
X112205
X116142
X120079
X124016
X127953
X131890
X135827
X139764
X143701
X147638
X151575
X155512
X159449
X163386
X167323
X171260
X175197
X179134
X183071
X187008
X190945
X194882
X198819
X202756
X206693
X210630
X214567
X218504
X222441
X226378
X230315
X234252
X238189
X242126
X246063
X250000
X253937
X257874
X261811
X265748
X269685
X273622
X277559
X281496
X285433
X289370
X293307
X297244
X301181
X305118
X309055
X312992
X316929
X320866
X324803
X328740
X332677
X336614
X340551
X344488
X348425
X352362
X356299
X360236
X364173
X368110
X372047
X375984
X379921
X383858
X387795
X391732
Y250000
Y246063
Y242126
Y238189
Y234252
Y230315
Y226378
Y222441
Y218504
Y214567
Y210630
Y206693
Y202756
Y198819
Y194882
Y190945
T02
X60039Y22638
X110335Y22736
X155644Y25880
X172868Y23420
X172244Y32480
X231299Y56102
Y62992
Y97441
Y104331
X211614Y106299
X211221Y134843
X230019Y137008
X235728Y136811
X246091Y134843
X241142Y125669
X243110Y119095
X246063Y115157
X223892Y125669
X221842Y151681
X227756Y153543
X232677Y154527
X242126Y165354
X241142Y172244
X241732Y178347
Y186221
X224016Y187205
X210566Y183889
X269685Y147638
X280512Y121221
X293408Y133933
X182835Y114921
X129921Y132346
X103874Y132346
X102829Y127160
X101221Y109095
X97441Y97441
Y91535
Y82677
Y76772
Y56102
X87598Y60039
X79724Y60532
Y45276
X71850
X68898Y66929
Y84646
Y91535
X71850Y118110
X79724
X76772Y132346
X48228Y149606
X30512
X29528Y187008
X44528
X62008Y175197
X88504
X124980Y59095
Y54094
X107441Y36417
X92520Y198976
X64961
X33307Y192913
X18543
X104874Y219094
X233268Y208661
X225000Y194095
X241732Y194095
X246063Y195866
X253110Y223425
X298228Y225608
X290354Y208875
T03
X285433Y23622
X290354
X295276
X300197
Y28543
Y33465
X295276
Y28543
X290354
X285433
Y33465
X290354
X238189Y38386
Y43307
X233268
X228346
X223425
Y38386
X228346
X233268
X253431Y69086
Y74007
Y78928
X258352
X263273
X268195
Y74007
X263273
X258352
Y69086
X263273
X268195
X271654Y92323
X262874Y120434
X268701Y128937
X115079Y175197
T04
X318898Y33465
X338583
Y161417
X318898
X289606Y182087
X259606
T05
X140591Y10827
X150591
X160591
X170591
X180591
X190591
T06
X219488Y242126
X229488
X245000
X255000
X270590
X280591
T08
X364173Y203346
X375984
Y215945
X364173
Y228543
X375984
X356693Y239173
X383465Y192717
T09
X52947Y230939
X72947
X92947
X112947
X140734
X160734
X180734
T10
X381890Y19685
X11811Y236221
T11
X165354Y142539
T12
X165354Y172028
M30
