G04*
G04 #@! TF.GenerationSoftware,Altium Limited,Altium Designer,24.5.2 (23)*
G04*
G04 Layer_Physical_Order=2*
G04 Layer_Color=36540*
%FSLAX25Y25*%
%MOIN*%
G70*
G04*
G04 #@! TF.SameCoordinates,878A51A9-24BE-43F0-8DEF-E1219167CBE3*
G04*
G04*
G04 #@! TF.FilePolarity,Positive*
G04*
G01*
G75*
%ADD98C,0.11811*%
%ADD99R,0.11811X0.11811*%
%ADD100C,0.05906*%
%ADD101C,0.05937*%
%ADD103R,0.05906X0.05906*%
%ADD104R,0.07874X0.07874*%
%ADD105C,0.07874*%
%ADD106R,0.07874X0.19685*%
%ADD107R,0.19685X0.07874*%
%ADD108C,0.05118*%
%ADD109C,0.03937*%
%ADD110C,0.02756*%
%ADD111C,0.01968*%
G36*
X391894Y1806D02*
X1806D01*
Y30512D01*
X1806Y30512D01*
Y123031D01*
X1806Y123031D01*
X1806Y254099D01*
X391894D01*
X391894Y1806D01*
D02*
G37*
%LPC*%
G36*
X281271Y249031D02*
X279910D01*
X278576Y248766D01*
X277320Y248246D01*
X276188Y247490D01*
X275590Y246892D01*
X274992Y247490D01*
X273862Y248246D01*
X272605Y248766D01*
X271271Y249031D01*
X269910D01*
X268576Y248766D01*
X267320Y248246D01*
X266189Y247490D01*
X265227Y246528D01*
X264471Y245397D01*
X263950Y244140D01*
X263685Y242806D01*
Y241446D01*
X263950Y240112D01*
X264471Y238855D01*
X265227Y237724D01*
X266189Y236762D01*
X267320Y236006D01*
X268576Y235486D01*
X269910Y235221D01*
X271271D01*
X272605Y235486D01*
X273862Y236006D01*
X274992Y236762D01*
X275590Y237360D01*
X276188Y236762D01*
X277320Y236006D01*
X278576Y235486D01*
X279910Y235221D01*
X281271D01*
X282605Y235486D01*
X283861Y236006D01*
X284993Y236762D01*
X285954Y237724D01*
X286710Y238855D01*
X287231Y240112D01*
X287496Y241446D01*
Y242806D01*
X287231Y244140D01*
X286710Y245397D01*
X285954Y246528D01*
X284993Y247490D01*
X283861Y248246D01*
X282605Y248766D01*
X281271Y249031D01*
D02*
G37*
G36*
X230168D02*
X228808D01*
X227474Y248766D01*
X226217Y248246D01*
X225086Y247490D01*
X224488Y246892D01*
X223890Y247490D01*
X222759Y248246D01*
X221502Y248766D01*
X220168Y249031D01*
X218808D01*
X217474Y248766D01*
X216217Y248246D01*
X215086Y247490D01*
X214124Y246528D01*
X213369Y245397D01*
X212848Y244140D01*
X212583Y242806D01*
Y241446D01*
X212848Y240112D01*
X213369Y238855D01*
X214124Y237724D01*
X215086Y236762D01*
X216217Y236006D01*
X217474Y235486D01*
X218808Y235221D01*
X220168D01*
X221502Y235486D01*
X222759Y236006D01*
X223890Y236762D01*
X224488Y237360D01*
X225086Y236762D01*
X226217Y236006D01*
X227474Y235486D01*
X228808Y235221D01*
X230168D01*
X231502Y235486D01*
X232759Y236006D01*
X233890Y236762D01*
X234852Y237724D01*
X235608Y238855D01*
X236128Y240112D01*
X236394Y241446D01*
Y242806D01*
X236128Y244140D01*
X235608Y245397D01*
X234852Y246528D01*
X233890Y247490D01*
X232759Y248246D01*
X231502Y248766D01*
X230168Y249031D01*
D02*
G37*
G36*
X255522Y246094D02*
X255500D01*
Y242626D01*
X258968D01*
Y242648D01*
X258698Y243658D01*
X258176Y244563D01*
X257437Y245302D01*
X256532Y245824D01*
X255522Y246094D01*
D02*
G37*
G36*
X357343Y244110D02*
X357193D01*
Y239673D01*
X361630D01*
Y239823D01*
X361294Y241079D01*
X360644Y242205D01*
X359724Y243124D01*
X358598Y243774D01*
X357343Y244110D01*
D02*
G37*
G36*
X356193D02*
X356043D01*
X354787Y243774D01*
X353661Y243124D01*
X352742Y242205D01*
X352092Y241079D01*
X351756Y239823D01*
Y239673D01*
X356193D01*
Y244110D01*
D02*
G37*
G36*
X258968Y241626D02*
X255500D01*
Y238158D01*
X255522D01*
X256532Y238428D01*
X257437Y238950D01*
X258176Y239689D01*
X258698Y240594D01*
X258968Y241603D01*
Y241626D01*
D02*
G37*
G36*
X245680Y249031D02*
X244320D01*
X242986Y248766D01*
X241729Y248246D01*
X240598Y247490D01*
X239636Y246528D01*
X238880Y245397D01*
X238360Y244140D01*
X238094Y242806D01*
Y241446D01*
X238360Y240112D01*
X238880Y238855D01*
X239636Y237724D01*
X240598Y236762D01*
X241729Y236006D01*
X242986Y235486D01*
X244320Y235221D01*
X245680D01*
X247014Y235486D01*
X248271Y236006D01*
X249402Y236762D01*
X250364Y237724D01*
X251120Y238855D01*
X251245Y239157D01*
X252183Y239331D01*
X252563Y238950D01*
X253468Y238428D01*
X254478Y238158D01*
X254500D01*
Y242126D01*
X255000D01*
D01*
X254500D01*
Y246094D01*
X254478D01*
X253468Y245824D01*
X252563Y245302D01*
X252183Y244921D01*
X251245Y245095D01*
X251120Y245397D01*
X250364Y246528D01*
X249402Y247490D01*
X248271Y248246D01*
X247014Y248766D01*
X245680Y249031D01*
D02*
G37*
G36*
X356193Y238673D02*
X351756D01*
Y238523D01*
X352092Y237268D01*
X352742Y236142D01*
X353661Y235223D01*
X354787Y234573D01*
X356043Y234236D01*
X356193D01*
Y238673D01*
D02*
G37*
G36*
X161704Y240781D02*
X159765D01*
X157863Y240403D01*
X156072Y239661D01*
X154460Y238584D01*
X153089Y237213D01*
X152012Y235601D01*
X151377Y234068D01*
X150577Y234227D01*
Y240781D01*
X130892D01*
Y221096D01*
X150577D01*
Y227651D01*
X151377Y227810D01*
X152012Y226277D01*
X153089Y224665D01*
X154460Y223294D01*
X156072Y222217D01*
X157863Y221475D01*
X159765Y221096D01*
X161704D01*
X163605Y221475D01*
X165396Y222217D01*
X167008Y223294D01*
X168379Y224665D01*
X169457Y226277D01*
X170199Y228068D01*
X170577Y229970D01*
Y231908D01*
X170199Y233810D01*
X169457Y235601D01*
X168379Y237213D01*
X167008Y238584D01*
X165396Y239661D01*
X163605Y240403D01*
X161704Y240781D01*
D02*
G37*
G36*
X93916D02*
X91978D01*
X90076Y240403D01*
X88285Y239661D01*
X86673Y238584D01*
X85302Y237213D01*
X84225Y235601D01*
X83483Y233810D01*
X83355Y233167D01*
X82539D01*
X82411Y233810D01*
X81669Y235601D01*
X80592Y237213D01*
X79221Y238584D01*
X77609Y239661D01*
X75818Y240403D01*
X73917Y240781D01*
X71978D01*
X70076Y240403D01*
X68285Y239661D01*
X66673Y238584D01*
X65302Y237213D01*
X64225Y235601D01*
X63590Y234068D01*
X62790Y234227D01*
Y240781D01*
X43105D01*
Y221096D01*
X62790D01*
Y227651D01*
X63590Y227810D01*
X64225Y226277D01*
X65302Y224665D01*
X66673Y223294D01*
X68285Y222217D01*
X70076Y221475D01*
X71978Y221096D01*
X73917D01*
X75818Y221475D01*
X77609Y222217D01*
X79221Y223294D01*
X80592Y224665D01*
X81669Y226277D01*
X82411Y228068D01*
X82539Y228711D01*
X83355D01*
X83483Y228068D01*
X84225Y226277D01*
X85302Y224665D01*
X86673Y223294D01*
X88285Y222217D01*
X90076Y221475D01*
X91978Y221096D01*
X93916D01*
X95818Y221475D01*
X97609Y222217D01*
X99221Y223294D01*
X100592Y224665D01*
X101670Y226277D01*
X102411Y228068D01*
X102790Y229970D01*
Y231908D01*
X102411Y233810D01*
X101670Y235601D01*
X100592Y237213D01*
X99221Y238584D01*
X97609Y239661D01*
X95818Y240403D01*
X93916Y240781D01*
D02*
G37*
G36*
X181414Y237844D02*
X181234D01*
Y231439D01*
X187640D01*
Y231619D01*
X187374Y232953D01*
X186854Y234210D01*
X186098Y235341D01*
X185136Y236303D01*
X184005Y237058D01*
X182748Y237579D01*
X181414Y237844D01*
D02*
G37*
G36*
X180234D02*
X180054D01*
X178720Y237579D01*
X177463Y237058D01*
X176332Y236303D01*
X175370Y235341D01*
X174615Y234210D01*
X174094Y232953D01*
X173829Y231619D01*
Y231439D01*
X180234D01*
Y237844D01*
D02*
G37*
G36*
X113627D02*
X113447D01*
Y231439D01*
X119853D01*
Y231619D01*
X119587Y232953D01*
X119067Y234210D01*
X118311Y235341D01*
X117349Y236303D01*
X116218Y237058D01*
X114961Y237579D01*
X113627Y237844D01*
D02*
G37*
G36*
X112447D02*
X112267D01*
X110933Y237579D01*
X109676Y237058D01*
X108545Y236303D01*
X107583Y235341D01*
X106828Y234210D01*
X106307Y232953D01*
X106042Y231619D01*
Y231439D01*
X112447D01*
Y237844D01*
D02*
G37*
G36*
X11811Y244239D02*
X10247Y244085D01*
X8742Y243629D01*
X7356Y242888D01*
X6141Y241891D01*
X5144Y240675D01*
X4403Y239289D01*
X3946Y237785D01*
X3792Y236221D01*
X3946Y234656D01*
X4403Y233152D01*
X5144Y231765D01*
X6141Y230550D01*
X7356Y229553D01*
X8742Y228812D01*
X10247Y228356D01*
X11811Y228202D01*
X13375Y228356D01*
X14880Y228812D01*
X16266Y229553D01*
X17481Y230550D01*
X18478Y231765D01*
X19219Y233152D01*
X19676Y234656D01*
X19830Y236221D01*
X19676Y237785D01*
X19219Y239289D01*
X18478Y240675D01*
X17481Y241891D01*
X16266Y242888D01*
X14880Y243629D01*
X13375Y244085D01*
X11811Y244239D01*
D02*
G37*
G36*
X187640Y230439D02*
X181234D01*
Y224033D01*
X181414D01*
X182748Y224299D01*
X184005Y224819D01*
X185136Y225575D01*
X186098Y226537D01*
X186854Y227668D01*
X187374Y228925D01*
X187640Y230259D01*
Y230439D01*
D02*
G37*
G36*
X180234D02*
X173829D01*
Y230259D01*
X174094Y228925D01*
X174615Y227668D01*
X175370Y226537D01*
X176332Y225575D01*
X177463Y224819D01*
X178720Y224299D01*
X180054Y224033D01*
X180234D01*
Y230439D01*
D02*
G37*
G36*
X119853D02*
X113447D01*
Y224033D01*
X113627D01*
X114961Y224299D01*
X116218Y224819D01*
X117349Y225575D01*
X118311Y226537D01*
X119067Y227668D01*
X119587Y228925D01*
X119853Y230259D01*
Y230439D01*
D02*
G37*
G36*
X112447D02*
X106042D01*
Y230259D01*
X106307Y228925D01*
X106828Y227668D01*
X107583Y226537D01*
X108545Y225575D01*
X109676Y224819D01*
X110933Y224299D01*
X112267Y224033D01*
X112447D01*
Y230439D01*
D02*
G37*
G36*
X298669Y228954D02*
X297788D01*
X296937Y228726D01*
X296174Y228286D01*
X295550Y227663D01*
X295110Y226900D01*
X294882Y226048D01*
Y225167D01*
X295110Y224316D01*
X295550Y223553D01*
X296174Y222930D01*
X296937Y222489D01*
X297788Y222261D01*
X298669D01*
X299520Y222489D01*
X300283Y222930D01*
X300906Y223553D01*
X301347Y224316D01*
X301575Y225167D01*
Y226048D01*
X301347Y226900D01*
X300906Y227663D01*
X300283Y228286D01*
X299520Y228726D01*
X298669Y228954D01*
D02*
G37*
G36*
X338992Y225410D02*
X328650D01*
Y220972D01*
X338992D01*
Y225410D01*
D02*
G37*
G36*
X327650D02*
X317307D01*
Y220972D01*
X327650D01*
Y225410D01*
D02*
G37*
G36*
X253551Y226772D02*
X252670D01*
X251819Y226544D01*
X251056Y226103D01*
X250432Y225480D01*
X249992Y224717D01*
X249764Y223866D01*
Y222985D01*
X249992Y222133D01*
X250432Y221370D01*
X251056Y220747D01*
X251819Y220307D01*
X252670Y220079D01*
X253551D01*
X254402Y220307D01*
X255165Y220747D01*
X255788Y221370D01*
X256229Y222133D01*
X256457Y222985D01*
Y223866D01*
X256229Y224717D01*
X255788Y225480D01*
X255165Y226103D01*
X254402Y226544D01*
X253551Y226772D01*
D02*
G37*
G36*
X105315Y222441D02*
X104434D01*
X103583Y222213D01*
X102820Y221772D01*
X102197Y221149D01*
X101756Y220386D01*
X101528Y219535D01*
Y218654D01*
X101756Y217803D01*
X102197Y217040D01*
X102820Y216417D01*
X103583Y215976D01*
X104434Y215748D01*
X105315D01*
X106166Y215976D01*
X106929Y216417D01*
X107552Y217040D01*
X107993Y217803D01*
X108221Y218654D01*
Y219535D01*
X107993Y220386D01*
X107552Y221149D01*
X106929Y221772D01*
X106166Y222213D01*
X105315Y222441D01*
D02*
G37*
G36*
X338992Y219972D02*
X328650D01*
Y215535D01*
X338992D01*
Y219972D01*
D02*
G37*
G36*
X327650D02*
X317307D01*
Y215535D01*
X327650D01*
Y219972D01*
D02*
G37*
G36*
X314583Y219504D02*
X310146D01*
Y209161D01*
X314583D01*
Y219504D01*
D02*
G37*
G36*
X309146D02*
X304709D01*
Y209161D01*
X309146D01*
Y219504D01*
D02*
G37*
G36*
X290795Y212222D02*
X289914D01*
X289063Y211994D01*
X288300Y211553D01*
X287677Y210930D01*
X287236Y210167D01*
X287008Y209316D01*
Y208435D01*
X287236Y207584D01*
X287677Y206821D01*
X288300Y206198D01*
X289063Y205757D01*
X289914Y205529D01*
X290795D01*
X291646Y205757D01*
X292409Y206198D01*
X293032Y206821D01*
X293473Y207584D01*
X293701Y208435D01*
Y209316D01*
X293473Y210167D01*
X293032Y210930D01*
X292409Y211553D01*
X291646Y211994D01*
X290795Y212222D01*
D02*
G37*
G36*
X233708Y212008D02*
X232827D01*
X231976Y211780D01*
X231213Y211339D01*
X230590Y210716D01*
X230149Y209953D01*
X229921Y209102D01*
Y208221D01*
X230149Y207370D01*
X230590Y206607D01*
X231213Y205984D01*
X231976Y205543D01*
X232827Y205315D01*
X233708D01*
X234559Y205543D01*
X235322Y205984D01*
X235946Y206607D01*
X236386Y207370D01*
X236614Y208221D01*
Y209102D01*
X236386Y209953D01*
X235946Y210716D01*
X235322Y211339D01*
X234559Y211780D01*
X233708Y212008D01*
D02*
G37*
G36*
X309146Y208161D02*
X304709D01*
Y197819D01*
X309146D01*
Y208161D01*
D02*
G37*
G36*
X246581Y199803D02*
X245545D01*
X244543Y199535D01*
X243646Y199016D01*
X242913Y198284D01*
X242394Y197386D01*
X242393Y197382D01*
X242173Y197441D01*
X241292D01*
X240441Y197213D01*
X239678Y196772D01*
X239054Y196149D01*
X238614Y195386D01*
X238386Y194535D01*
Y193654D01*
X238614Y192803D01*
X239054Y192040D01*
X239678Y191417D01*
X240441Y190976D01*
X241292Y190748D01*
X242173D01*
X243024Y190976D01*
X243787Y191417D01*
X244410Y192040D01*
X244512Y192216D01*
X244543Y192197D01*
X245545Y191929D01*
X246581D01*
X247583Y192197D01*
X248480Y192716D01*
X249213Y193449D01*
X249732Y194346D01*
X250000Y195348D01*
Y196385D01*
X249732Y197386D01*
X249213Y198284D01*
X248480Y199016D01*
X247583Y199535D01*
X246581Y199803D01*
D02*
G37*
G36*
X92960Y202323D02*
X92079D01*
X91228Y202095D01*
X90465Y201654D01*
X89842Y201031D01*
X89401Y200268D01*
X89173Y199417D01*
Y198536D01*
X89401Y197685D01*
X89842Y196922D01*
X90465Y196299D01*
X91228Y195858D01*
X92079Y195630D01*
X92960D01*
X93811Y195858D01*
X94574Y196299D01*
X95197Y196922D01*
X95638Y197685D01*
X95866Y198536D01*
Y199417D01*
X95638Y200268D01*
X95197Y201031D01*
X94574Y201654D01*
X93811Y202095D01*
X92960Y202323D01*
D02*
G37*
G36*
X65401D02*
X64520D01*
X63669Y202095D01*
X62906Y201654D01*
X62283Y201031D01*
X61842Y200268D01*
X61614Y199417D01*
Y198536D01*
X61842Y197685D01*
X62283Y196922D01*
X62906Y196299D01*
X63669Y195858D01*
X64520Y195630D01*
X65401D01*
X66252Y195858D01*
X67015Y196299D01*
X67638Y196922D01*
X68079Y197685D01*
X68307Y198536D01*
Y199417D01*
X68079Y200268D01*
X67638Y201031D01*
X67015Y201654D01*
X66252Y202095D01*
X65401Y202323D01*
D02*
G37*
G36*
X384115Y197653D02*
X383965D01*
Y193217D01*
X388402D01*
Y193367D01*
X388065Y194622D01*
X387415Y195748D01*
X386496Y196667D01*
X385370Y197317D01*
X384115Y197653D01*
D02*
G37*
G36*
X361630Y238673D02*
X357193D01*
Y234236D01*
X357343D01*
X357693Y234330D01*
X358107Y233613D01*
X358057Y233563D01*
X357195Y232273D01*
X356602Y230840D01*
X356299Y229319D01*
Y227768D01*
X356602Y226247D01*
X357195Y224814D01*
X358057Y223524D01*
X358797Y222784D01*
X359063Y222244D01*
X358797Y221704D01*
X358057Y220964D01*
X357195Y219675D01*
X356602Y218242D01*
X356299Y216720D01*
Y215169D01*
X356602Y213648D01*
X357195Y212215D01*
X358057Y210926D01*
X358797Y210186D01*
X359063Y209646D01*
X358797Y209105D01*
X358057Y208366D01*
X357195Y207076D01*
X356602Y205643D01*
X356299Y204122D01*
Y202571D01*
X356602Y201050D01*
X357195Y199617D01*
X358057Y198327D01*
X359154Y197230D01*
X360443Y196369D01*
X361877Y195775D01*
X363398Y195472D01*
X364949D01*
X366470Y195775D01*
X367903Y196369D01*
X369193Y197230D01*
X370079Y198116D01*
X370965Y197230D01*
X372254Y196369D01*
X373688Y195775D01*
X375209Y195472D01*
X376760D01*
X378281Y195775D01*
X378708Y195952D01*
X379265Y195317D01*
X378864Y194622D01*
X378528Y193367D01*
Y193217D01*
X382965D01*
Y197653D01*
X382815D01*
X382465Y197560D01*
X382050Y198277D01*
X382100Y198327D01*
X382962Y199617D01*
X383556Y201050D01*
X383858Y202571D01*
Y204122D01*
X383556Y205643D01*
X382962Y207076D01*
X382100Y208366D01*
X381361Y209105D01*
X381094Y209646D01*
X381361Y210186D01*
X382100Y210926D01*
X382962Y212215D01*
X383556Y213648D01*
X383858Y215169D01*
Y216720D01*
X383556Y218242D01*
X382962Y219675D01*
X382769Y219964D01*
X383146Y220669D01*
X383858D01*
Y236417D01*
X368110D01*
Y236301D01*
X367310Y235767D01*
X366470Y236115D01*
X364949Y236417D01*
X363398D01*
X361877Y236115D01*
X361450Y235938D01*
X360893Y236573D01*
X361294Y237268D01*
X361630Y238523D01*
Y238673D01*
D02*
G37*
G36*
X33748Y196260D02*
X32866D01*
X32015Y196032D01*
X31252Y195591D01*
X30629Y194968D01*
X30189Y194205D01*
X29961Y193354D01*
Y192473D01*
X30189Y191622D01*
X30629Y190859D01*
X31252Y190236D01*
X32015Y189795D01*
X32866Y189567D01*
X33748D01*
X34599Y189795D01*
X35362Y190236D01*
X35985Y190859D01*
X36426Y191622D01*
X36654Y192473D01*
Y193354D01*
X36426Y194205D01*
X35985Y194968D01*
X35362Y195591D01*
X34599Y196032D01*
X33748Y196260D01*
D02*
G37*
G36*
X18984D02*
X18103D01*
X17252Y196032D01*
X16488Y195591D01*
X15866Y194968D01*
X15425Y194205D01*
X15197Y193354D01*
Y192473D01*
X15425Y191622D01*
X15866Y190859D01*
X16488Y190236D01*
X17252Y189795D01*
X18103Y189567D01*
X18984D01*
X19835Y189795D01*
X20598Y190236D01*
X21221Y190859D01*
X21662Y191622D01*
X21890Y192473D01*
Y193354D01*
X21662Y194205D01*
X21221Y194968D01*
X20598Y195591D01*
X19835Y196032D01*
X18984Y196260D01*
D02*
G37*
G36*
X314583Y208161D02*
X310146D01*
Y197819D01*
X314370D01*
Y188189D01*
X341929D01*
Y203937D01*
X314583D01*
Y208161D01*
D02*
G37*
G36*
X388402Y192217D02*
X383965D01*
Y187779D01*
X384115D01*
X385370Y188116D01*
X386496Y188766D01*
X387415Y189685D01*
X388065Y190811D01*
X388402Y192067D01*
Y192217D01*
D02*
G37*
G36*
X382965D02*
X378528D01*
Y192067D01*
X378864Y190811D01*
X379514Y189685D01*
X380433Y188766D01*
X381559Y188116D01*
X382815Y187779D01*
X382965D01*
Y192217D01*
D02*
G37*
G36*
X225441Y197441D02*
X224559D01*
X223708Y197213D01*
X222945Y196772D01*
X222322Y196149D01*
X221882Y195386D01*
X221654Y194535D01*
Y193654D01*
X221882Y192803D01*
X222322Y192040D01*
X222945Y191417D01*
X223189Y191276D01*
X223076Y190417D01*
X222724Y190323D01*
X221961Y189883D01*
X221338Y189260D01*
X220897Y188496D01*
X220669Y187645D01*
Y186764D01*
X220897Y185913D01*
X221338Y185150D01*
X221961Y184527D01*
X222724Y184086D01*
X223575Y183858D01*
X224456D01*
X225307Y184086D01*
X226070Y184527D01*
X226694Y185150D01*
X227134Y185913D01*
X227362Y186764D01*
Y187645D01*
X227134Y188496D01*
X226694Y189260D01*
X226070Y189883D01*
X225827Y190023D01*
X225940Y190882D01*
X226292Y190976D01*
X227055Y191417D01*
X227678Y192040D01*
X228118Y192803D01*
X228346Y193654D01*
Y194535D01*
X228118Y195386D01*
X227678Y196149D01*
X227055Y196772D01*
X226292Y197213D01*
X225441Y197441D01*
D02*
G37*
G36*
X242173Y189567D02*
X241292D01*
X240441Y189339D01*
X239678Y188898D01*
X239054Y188275D01*
X238614Y187512D01*
X238386Y186661D01*
Y185780D01*
X238614Y184929D01*
X239054Y184166D01*
X239678Y183543D01*
X240441Y183102D01*
X241292Y182874D01*
X242173D01*
X243024Y183102D01*
X243787Y183543D01*
X244410Y184166D01*
X244851Y184929D01*
X245079Y185780D01*
Y186661D01*
X244851Y187512D01*
X244410Y188275D01*
X243787Y188898D01*
X243024Y189339D01*
X242173Y189567D01*
D02*
G37*
G36*
X211007Y187235D02*
X210126D01*
X209275Y187007D01*
X208512Y186566D01*
X207889Y185943D01*
X207448Y185180D01*
X207220Y184329D01*
Y183448D01*
X207448Y182597D01*
X207889Y181834D01*
X208512Y181211D01*
X209275Y180770D01*
X210126Y180542D01*
X211007D01*
X211858Y180770D01*
X212621Y181211D01*
X213244Y181834D01*
X213685Y182597D01*
X213913Y183448D01*
Y184329D01*
X213685Y185180D01*
X213244Y185943D01*
X212621Y186566D01*
X211858Y187007D01*
X211007Y187235D01*
D02*
G37*
G36*
X290285Y188976D02*
X288928D01*
X287597Y188712D01*
X286343Y188192D01*
X285214Y187438D01*
X284255Y186479D01*
X283501Y185350D01*
X282981Y184096D01*
X282716Y182765D01*
Y181408D01*
X282981Y180077D01*
X283501Y178823D01*
X284255Y177695D01*
X285214Y176735D01*
X286343Y175981D01*
X287597Y175462D01*
X288928Y175197D01*
X290285D01*
X291616Y175462D01*
X292870Y175981D01*
X293998Y176735D01*
X294958Y177695D01*
X295712Y178823D01*
X296231Y180077D01*
X296496Y181408D01*
Y182765D01*
X296231Y184096D01*
X295712Y185350D01*
X294958Y186479D01*
X293998Y187438D01*
X292870Y188192D01*
X291616Y188712D01*
X290285Y188976D01*
D02*
G37*
G36*
X260285D02*
X258928D01*
X257597Y188712D01*
X256343Y188192D01*
X255214Y187438D01*
X254255Y186479D01*
X253501Y185350D01*
X252981Y184096D01*
X252716Y182765D01*
Y181408D01*
X252981Y180077D01*
X253501Y178823D01*
X254255Y177695D01*
X255214Y176735D01*
X256343Y175981D01*
X257597Y175462D01*
X258928Y175197D01*
X260285D01*
X261616Y175462D01*
X262870Y175981D01*
X263998Y176735D01*
X264958Y177695D01*
X265712Y178823D01*
X266231Y180077D01*
X266496Y181408D01*
Y182765D01*
X266231Y184096D01*
X265712Y185350D01*
X264958Y186479D01*
X263998Y187438D01*
X262870Y188192D01*
X261616Y188712D01*
X260285Y188976D01*
D02*
G37*
G36*
X165823Y175587D02*
X164886D01*
X163981Y175344D01*
X163169Y174875D01*
X162506Y174213D01*
X162038Y173401D01*
X161795Y172496D01*
Y171559D01*
X162038Y170654D01*
X162506Y169842D01*
X163169Y169180D01*
X163981Y168711D01*
X164886Y168468D01*
X165823D01*
X166728Y168711D01*
X167540Y169180D01*
X168202Y169842D01*
X168671Y170654D01*
X168913Y171559D01*
Y172496D01*
X168671Y173401D01*
X168202Y174213D01*
X167540Y174875D01*
X166728Y175344D01*
X165823Y175587D01*
D02*
G37*
G36*
X242173Y181693D02*
X241292D01*
X240441Y181465D01*
X239678Y181024D01*
X239054Y180401D01*
X238614Y179638D01*
X238386Y178787D01*
Y177906D01*
X238614Y177055D01*
X239054Y176292D01*
X239349Y175997D01*
X239282Y175067D01*
X239248Y175015D01*
X239087Y174922D01*
X238464Y174299D01*
X238023Y173536D01*
X237795Y172685D01*
Y171803D01*
X238023Y170952D01*
X238464Y170189D01*
X239087Y169566D01*
X239850Y169126D01*
X240202Y169031D01*
X240315Y168173D01*
X240071Y168032D01*
X239448Y167409D01*
X239008Y166646D01*
X238779Y165795D01*
Y164914D01*
X239008Y164063D01*
X239448Y163300D01*
X240071Y162677D01*
X240834Y162236D01*
X241685Y162008D01*
X242567D01*
X243418Y162236D01*
X244181Y162677D01*
X244804Y163300D01*
X245244Y164063D01*
X245472Y164914D01*
Y165795D01*
X245244Y166646D01*
X244804Y167409D01*
X244181Y168032D01*
X243418Y168473D01*
X243066Y168567D01*
X242953Y169425D01*
X243197Y169566D01*
X243820Y170189D01*
X244260Y170952D01*
X244488Y171803D01*
Y172685D01*
X244260Y173536D01*
X243820Y174299D01*
X243525Y174593D01*
X243592Y175523D01*
X243626Y175576D01*
X243787Y175669D01*
X244410Y176292D01*
X244851Y177055D01*
X245079Y177906D01*
Y178787D01*
X244851Y179638D01*
X244410Y180401D01*
X243787Y181024D01*
X243024Y181465D01*
X242173Y181693D01*
D02*
G37*
G36*
X319418Y165370D02*
X319398D01*
Y161917D01*
X322850D01*
Y161938D01*
X322581Y162943D01*
X322061Y163844D01*
X321325Y164580D01*
X320423Y165101D01*
X319418Y165370D01*
D02*
G37*
G36*
X318398D02*
X318377D01*
X317372Y165101D01*
X316471Y164580D01*
X315735Y163844D01*
X315214Y162943D01*
X314945Y161938D01*
Y161917D01*
X318398D01*
Y165370D01*
D02*
G37*
G36*
X322850Y160917D02*
X319398D01*
Y157465D01*
X319418D01*
X320423Y157734D01*
X321325Y158254D01*
X322061Y158990D01*
X322581Y159892D01*
X322850Y160897D01*
Y160917D01*
D02*
G37*
G36*
X318398D02*
X314945D01*
Y160897D01*
X315214Y159892D01*
X315735Y158990D01*
X316471Y158254D01*
X317372Y157734D01*
X318377Y157465D01*
X318398D01*
Y160917D01*
D02*
G37*
G36*
X339261Y168307D02*
X337904D01*
X336573Y168042D01*
X335319Y167523D01*
X334191Y166769D01*
X333231Y165809D01*
X332477Y164681D01*
X331958Y163427D01*
X331693Y162096D01*
Y160739D01*
X331958Y159408D01*
X332477Y158154D01*
X333231Y157025D01*
X334191Y156066D01*
X335319Y155312D01*
X336573Y154792D01*
X337904Y154528D01*
X339261D01*
X340592Y154792D01*
X341846Y155312D01*
X342975Y156066D01*
X343934Y157025D01*
X344688Y158154D01*
X345208Y159408D01*
X345472Y160739D01*
Y162096D01*
X345208Y163427D01*
X344688Y164681D01*
X343934Y165809D01*
X342975Y166769D01*
X341846Y167523D01*
X340592Y168042D01*
X339261Y168307D01*
D02*
G37*
G36*
X233118Y157874D02*
X232237D01*
X231385Y157646D01*
X230622Y157205D01*
X229999Y156582D01*
X229559Y155819D01*
X229331Y154968D01*
Y154087D01*
X229559Y153236D01*
X229999Y152473D01*
X230622Y151850D01*
X231385Y151409D01*
X232237Y151181D01*
X233118D01*
X233969Y151409D01*
X234732Y151850D01*
X235355Y152473D01*
X235796Y153236D01*
X236024Y154087D01*
Y154968D01*
X235796Y155819D01*
X235355Y156582D01*
X234732Y157205D01*
X233969Y157646D01*
X233118Y157874D01*
D02*
G37*
G36*
X222283Y155027D02*
X221401D01*
X220550Y154799D01*
X219787Y154359D01*
X219164Y153736D01*
X218724Y152973D01*
X218495Y152122D01*
Y151241D01*
X218724Y150389D01*
X219164Y149626D01*
X219787Y149003D01*
X220550Y148563D01*
X221401Y148335D01*
X222283D01*
X223134Y148563D01*
X223897Y149003D01*
X224520Y149626D01*
X224960Y150389D01*
X225188Y151241D01*
Y152122D01*
X224960Y152973D01*
X224520Y153736D01*
X223897Y154359D01*
X223134Y154799D01*
X222283Y155027D01*
D02*
G37*
G36*
X48669Y152953D02*
X47788D01*
X46937Y152725D01*
X46174Y152284D01*
X45551Y151661D01*
X45110Y150898D01*
X44882Y150047D01*
Y149166D01*
X45110Y148315D01*
X45551Y147552D01*
X46174Y146929D01*
X46937Y146488D01*
X47788Y146260D01*
X48669D01*
X49520Y146488D01*
X50283Y146929D01*
X50906Y147552D01*
X51347Y148315D01*
X51575Y149166D01*
Y150047D01*
X51347Y150898D01*
X50906Y151661D01*
X50283Y152284D01*
X49520Y152725D01*
X48669Y152953D01*
D02*
G37*
G36*
X30952D02*
X30071D01*
X29220Y152725D01*
X28457Y152284D01*
X27834Y151661D01*
X27393Y150898D01*
X27165Y150047D01*
Y149166D01*
X27393Y148315D01*
X27834Y147552D01*
X28457Y146929D01*
X29220Y146488D01*
X30071Y146260D01*
X30952D01*
X31804Y146488D01*
X32567Y146929D01*
X33190Y147552D01*
X33630Y148315D01*
X33858Y149166D01*
Y150047D01*
X33630Y150898D01*
X33190Y151661D01*
X32567Y152284D01*
X31804Y152725D01*
X30952Y152953D01*
D02*
G37*
G36*
X270126Y150984D02*
X269245D01*
X268393Y150756D01*
X267630Y150316D01*
X267007Y149693D01*
X266567Y148930D01*
X266339Y148078D01*
Y147197D01*
X266567Y146346D01*
X267007Y145583D01*
X267630Y144960D01*
X268393Y144519D01*
X269245Y144291D01*
X270126D01*
X270977Y144519D01*
X271740Y144960D01*
X272363Y145583D01*
X272803Y146346D01*
X273031Y147197D01*
Y148078D01*
X272803Y148930D01*
X272363Y149693D01*
X271740Y150316D01*
X270977Y150756D01*
X270126Y150984D01*
D02*
G37*
G36*
X165745Y145508D02*
X164963D01*
X164208Y145306D01*
X163532Y144915D01*
X162979Y144362D01*
X162588Y143685D01*
X162386Y142930D01*
Y142149D01*
X162588Y141394D01*
X162979Y140717D01*
X163532Y140164D01*
X164208Y139773D01*
X164963Y139571D01*
X165745D01*
X166500Y139773D01*
X167177Y140164D01*
X167730Y140717D01*
X168121Y141394D01*
X168323Y142149D01*
Y142930D01*
X168121Y143685D01*
X167730Y144362D01*
X167177Y144915D01*
X166500Y145306D01*
X165745Y145508D01*
D02*
G37*
G36*
X230460Y140354D02*
X229578D01*
X228727Y140126D01*
X227964Y139686D01*
X227341Y139063D01*
X226901Y138300D01*
X226673Y137448D01*
Y136567D01*
X226901Y135716D01*
X227341Y134953D01*
X227964Y134330D01*
X228727Y133889D01*
X229578Y133661D01*
X230460D01*
X231311Y133889D01*
X232074Y134330D01*
X232263Y134519D01*
X232986Y134737D01*
X233312Y134494D01*
X233673Y134133D01*
X234436Y133693D01*
X235287Y133465D01*
X236168D01*
X237019Y133693D01*
X237783Y134133D01*
X238406Y134756D01*
X238846Y135519D01*
X239074Y136371D01*
Y137252D01*
X238846Y138103D01*
X238406Y138866D01*
X237783Y139489D01*
X237019Y139929D01*
X236168Y140157D01*
X235287D01*
X234436Y139929D01*
X233673Y139489D01*
X233484Y139300D01*
X232761Y139082D01*
X232435Y139325D01*
X232074Y139686D01*
X231311Y140126D01*
X230460Y140354D01*
D02*
G37*
G36*
X246531Y138189D02*
X245650D01*
X244799Y137961D01*
X244036Y137520D01*
X243413Y136897D01*
X242972Y136134D01*
X242744Y135283D01*
Y134402D01*
X242972Y133551D01*
X243413Y132788D01*
X244036Y132165D01*
X244799Y131724D01*
X245650Y131496D01*
X246531D01*
X247382Y131724D01*
X248145Y132165D01*
X248768Y132788D01*
X249209Y133551D01*
X249437Y134402D01*
Y135283D01*
X249209Y136134D01*
X248768Y136897D01*
X248145Y137520D01*
X247382Y137961D01*
X246531Y138189D01*
D02*
G37*
G36*
X211661D02*
X210780D01*
X209929Y137961D01*
X209166Y137520D01*
X208543Y136897D01*
X208102Y136134D01*
X207874Y135283D01*
Y134402D01*
X208102Y133551D01*
X208543Y132788D01*
X209166Y132165D01*
X209929Y131724D01*
X210780Y131496D01*
X211661D01*
X212512Y131724D01*
X213275Y132165D01*
X213898Y132788D01*
X214339Y133551D01*
X214567Y134402D01*
Y135283D01*
X214339Y136134D01*
X213898Y136897D01*
X213275Y137520D01*
X212512Y137961D01*
X211661Y138189D01*
D02*
G37*
G36*
X293926Y137870D02*
X292889D01*
X291888Y137602D01*
X290990Y137083D01*
X290257Y136350D01*
X289739Y135452D01*
X289471Y134451D01*
Y133415D01*
X289739Y132413D01*
X290257Y131516D01*
X290990Y130782D01*
X291888Y130264D01*
X292889Y129996D01*
X293926D01*
X294927Y130264D01*
X295825Y130782D01*
X296558Y131516D01*
X297076Y132413D01*
X297345Y133415D01*
Y134451D01*
X297076Y135452D01*
X296558Y136350D01*
X295825Y137083D01*
X294927Y137602D01*
X293926Y137870D01*
D02*
G37*
G36*
X130362Y135693D02*
X129481D01*
X128630Y135465D01*
X127866Y135024D01*
X127243Y134401D01*
X126803Y133638D01*
X126575Y132787D01*
Y131906D01*
X126803Y131055D01*
X127243Y130292D01*
X127866Y129669D01*
X128630Y129228D01*
X129481Y129000D01*
X130362D01*
X131213Y129228D01*
X131976Y129669D01*
X132599Y130292D01*
X133040Y131055D01*
X133268Y131906D01*
Y132787D01*
X133040Y133638D01*
X132599Y134401D01*
X131976Y135024D01*
X131213Y135465D01*
X130362Y135693D01*
D02*
G37*
G36*
X77212D02*
X76331D01*
X75480Y135465D01*
X74717Y135024D01*
X74094Y134401D01*
X73653Y133638D01*
X73425Y132787D01*
Y131906D01*
X73653Y131055D01*
X74094Y130292D01*
X74717Y129669D01*
X75480Y129228D01*
X76331Y129000D01*
X77212D01*
X78063Y129228D01*
X78826Y129669D01*
X79449Y130292D01*
X79890Y131055D01*
X80118Y131906D01*
Y132787D01*
X79890Y133638D01*
X79449Y134401D01*
X78826Y135024D01*
X78063Y135465D01*
X77212Y135693D01*
D02*
G37*
G36*
X104315Y135693D02*
X103434D01*
X102582Y135465D01*
X101819Y135024D01*
X101196Y134401D01*
X100756Y133638D01*
X100528Y132787D01*
Y131906D01*
X100756Y131055D01*
X101196Y130292D01*
X101166Y130064D01*
X100774Y129838D01*
X100151Y129214D01*
X99711Y128451D01*
X99482Y127600D01*
Y126719D01*
X99711Y125868D01*
X100151Y125105D01*
X100774Y124482D01*
X101537Y124041D01*
X102388Y123813D01*
X103270D01*
X104121Y124041D01*
X104884Y124482D01*
X105507Y125105D01*
X105947Y125868D01*
X106175Y126719D01*
Y127600D01*
X105947Y128451D01*
X105507Y129214D01*
X105537Y129442D01*
X105929Y129669D01*
X106552Y130292D01*
X106992Y131055D01*
X107220Y131906D01*
Y132787D01*
X106992Y133638D01*
X106552Y134401D01*
X105929Y135024D01*
X105166Y135465D01*
X104315Y135693D01*
D02*
G37*
G36*
X224332Y129016D02*
X223451D01*
X222600Y128788D01*
X221837Y128347D01*
X221214Y127724D01*
X220774Y126961D01*
X220546Y126110D01*
Y125229D01*
X220774Y124378D01*
X221214Y123615D01*
X221837Y122992D01*
X222600Y122551D01*
X223451Y122323D01*
X224332D01*
X225184Y122551D01*
X225947Y122992D01*
X226570Y123615D01*
X227010Y124378D01*
X227238Y125229D01*
Y126110D01*
X227010Y126961D01*
X226570Y127724D01*
X225947Y128347D01*
X225184Y128788D01*
X224332Y129016D01*
D02*
G37*
G36*
X281030Y125157D02*
X279994D01*
X278992Y124889D01*
X278094Y124371D01*
X277361Y123638D01*
X276843Y122740D01*
X276575Y121739D01*
Y120702D01*
X276843Y119701D01*
X277361Y118803D01*
X278094Y118070D01*
X278992Y117552D01*
X279994Y117283D01*
X281030D01*
X282031Y117552D01*
X282929Y118070D01*
X283662Y118803D01*
X284180Y119701D01*
X284449Y120702D01*
Y121739D01*
X284180Y122740D01*
X283662Y123638D01*
X282929Y124371D01*
X282031Y124889D01*
X281030Y125157D01*
D02*
G37*
G36*
X80165Y121457D02*
X79284D01*
X78433Y121229D01*
X77670Y120788D01*
X77047Y120165D01*
X76606Y119402D01*
X76378Y118551D01*
Y117670D01*
X76606Y116819D01*
X77047Y116056D01*
X77670Y115432D01*
X78433Y114992D01*
X79284Y114764D01*
X80165D01*
X81016Y114992D01*
X81779Y115432D01*
X82402Y116056D01*
X82843Y116819D01*
X83071Y117670D01*
Y118551D01*
X82843Y119402D01*
X82402Y120165D01*
X81779Y120788D01*
X81016Y121229D01*
X80165Y121457D01*
D02*
G37*
G36*
X72291D02*
X71410D01*
X70559Y121229D01*
X69796Y120788D01*
X69173Y120165D01*
X68732Y119402D01*
X68504Y118551D01*
Y117670D01*
X68732Y116819D01*
X69173Y116056D01*
X69796Y115432D01*
X70559Y114992D01*
X71410Y114764D01*
X72291D01*
X73142Y114992D01*
X73905Y115432D01*
X74528Y116056D01*
X74969Y116819D01*
X75197Y117670D01*
Y118551D01*
X74969Y119402D01*
X74528Y120165D01*
X73905Y120788D01*
X73142Y121229D01*
X72291Y121457D01*
D02*
G37*
G36*
X241582Y129016D02*
X240701D01*
X239850Y128788D01*
X239087Y128347D01*
X238464Y127724D01*
X238023Y126961D01*
X237795Y126110D01*
Y125229D01*
X238023Y124378D01*
X238464Y123615D01*
X239087Y122992D01*
X239850Y122551D01*
X240551Y122363D01*
X240758Y121891D01*
X240806Y121523D01*
X240432Y121149D01*
X239992Y120386D01*
X239764Y119535D01*
Y118654D01*
X239992Y117803D01*
X240432Y117040D01*
X241055Y116417D01*
X241819Y115976D01*
X241978Y115933D01*
X242717Y115598D01*
Y114717D01*
X242945Y113866D01*
X243385Y113103D01*
X244008Y112480D01*
X244771Y112039D01*
X245622Y111811D01*
X246504D01*
X247355Y112039D01*
X248118Y112480D01*
X248741Y113103D01*
X249181Y113866D01*
X249409Y114717D01*
Y115598D01*
X249181Y116449D01*
X248741Y117212D01*
X248118Y117835D01*
X247355Y118276D01*
X247195Y118319D01*
X246457Y118654D01*
Y119535D01*
X246229Y120386D01*
X245788Y121149D01*
X245165Y121772D01*
X244402Y122213D01*
X243701Y122401D01*
X243494Y122873D01*
X243446Y123241D01*
X243820Y123615D01*
X244260Y124378D01*
X244488Y125229D01*
Y126110D01*
X244260Y126961D01*
X243820Y127724D01*
X243197Y128347D01*
X242433Y128788D01*
X241582Y129016D01*
D02*
G37*
G36*
X183275Y118268D02*
X182394D01*
X181543Y118040D01*
X180780Y117599D01*
X180157Y116976D01*
X179716Y116213D01*
X179488Y115362D01*
Y114481D01*
X179716Y113630D01*
X180157Y112866D01*
X180780Y112243D01*
X181543Y111803D01*
X182394Y111575D01*
X183275D01*
X184126Y111803D01*
X184889Y112243D01*
X185512Y112866D01*
X185953Y113630D01*
X186181Y114481D01*
Y115362D01*
X185953Y116213D01*
X185512Y116976D01*
X184889Y117599D01*
X184126Y118040D01*
X183275Y118268D01*
D02*
G37*
G36*
X101661Y112441D02*
X100780D01*
X99929Y112213D01*
X99166Y111772D01*
X98543Y111149D01*
X98102Y110386D01*
X97874Y109535D01*
Y108654D01*
X98102Y107803D01*
X98543Y107040D01*
X99166Y106417D01*
X99929Y105976D01*
X100780Y105748D01*
X101661D01*
X102512Y105976D01*
X103275Y106417D01*
X103898Y107040D01*
X104339Y107803D01*
X104567Y108654D01*
Y109535D01*
X104339Y110386D01*
X103898Y111149D01*
X103275Y111772D01*
X102512Y112213D01*
X101661Y112441D01*
D02*
G37*
G36*
X212055Y109646D02*
X211174D01*
X210322Y109418D01*
X209559Y108977D01*
X208936Y108354D01*
X208496Y107591D01*
X208268Y106740D01*
Y105859D01*
X208496Y105008D01*
X208936Y104244D01*
X209559Y103621D01*
X210322Y103181D01*
X211174Y102953D01*
X212055D01*
X212906Y103181D01*
X213669Y103621D01*
X214292Y104244D01*
X214733Y105008D01*
X214961Y105859D01*
Y106740D01*
X214733Y107591D01*
X214292Y108354D01*
X213669Y108977D01*
X212906Y109418D01*
X212055Y109646D01*
D02*
G37*
G36*
X231740Y107677D02*
X230859D01*
X230008Y107449D01*
X229244Y107009D01*
X228621Y106386D01*
X228181Y105622D01*
X227953Y104771D01*
Y103890D01*
X228181Y103039D01*
X228621Y102276D01*
X229244Y101653D01*
X229800Y101332D01*
X229877Y101046D01*
Y100726D01*
X229800Y100440D01*
X229244Y100119D01*
X228621Y99496D01*
X228181Y98733D01*
X227953Y97882D01*
Y97000D01*
X228181Y96149D01*
X228621Y95386D01*
X229244Y94763D01*
X230008Y94323D01*
X230859Y94095D01*
X231740D01*
X232591Y94323D01*
X233354Y94763D01*
X233977Y95386D01*
X234418Y96149D01*
X234646Y97000D01*
Y97882D01*
X234418Y98733D01*
X233977Y99496D01*
X233354Y100119D01*
X232798Y100440D01*
X232721Y100726D01*
Y101046D01*
X232798Y101332D01*
X233354Y101653D01*
X233977Y102276D01*
X234418Y103039D01*
X234646Y103890D01*
Y104771D01*
X234418Y105622D01*
X233977Y106386D01*
X233354Y107009D01*
X232591Y107449D01*
X231740Y107677D01*
D02*
G37*
G36*
X97882Y100787D02*
X97000D01*
X96149Y100559D01*
X95386Y100119D01*
X94763Y99496D01*
X94323Y98733D01*
X94095Y97882D01*
Y97000D01*
X94323Y96149D01*
X94763Y95386D01*
X95149Y95000D01*
X95303Y94488D01*
X95149Y93976D01*
X94763Y93590D01*
X94323Y92827D01*
X94095Y91976D01*
Y91095D01*
X94323Y90244D01*
X94763Y89481D01*
X95386Y88858D01*
X96149Y88417D01*
X97000Y88189D01*
X97882D01*
X98733Y88417D01*
X99496Y88858D01*
X100119Y89481D01*
X100559Y90244D01*
X100787Y91095D01*
Y91976D01*
X100559Y92827D01*
X100119Y93590D01*
X99733Y93976D01*
X99578Y94488D01*
X99733Y95000D01*
X100119Y95386D01*
X100559Y96149D01*
X100787Y97000D01*
Y97882D01*
X100559Y98733D01*
X100119Y99496D01*
X99496Y100119D01*
X98733Y100559D01*
X97882Y100787D01*
D02*
G37*
G36*
X268713Y82865D02*
X267676D01*
X266675Y82597D01*
X265777Y82079D01*
X265734Y82035D01*
X265691Y82079D01*
X264793Y82597D01*
X263791Y82865D01*
X262755D01*
X261754Y82597D01*
X260856Y82079D01*
X260813Y82035D01*
X260769Y82079D01*
X259872Y82597D01*
X258870Y82865D01*
X257834D01*
X256832Y82597D01*
X255935Y82079D01*
X255891Y82035D01*
X255848Y82079D01*
X254950Y82597D01*
X253949Y82865D01*
X252912D01*
X251911Y82597D01*
X251013Y82079D01*
X250280Y81346D01*
X249762Y80448D01*
X249494Y79447D01*
Y78410D01*
X249762Y77409D01*
X250280Y76511D01*
X250324Y76468D01*
X250280Y76424D01*
X249762Y75527D01*
X249494Y74525D01*
Y73489D01*
X249762Y72487D01*
X250280Y71590D01*
X250324Y71546D01*
X250280Y71503D01*
X249762Y70605D01*
X249494Y69604D01*
Y68568D01*
X249762Y67566D01*
X250280Y66668D01*
X251013Y65935D01*
X251911Y65417D01*
X252912Y65149D01*
X253949D01*
X254950Y65417D01*
X255848Y65935D01*
X255891Y65979D01*
X255935Y65935D01*
X256832Y65417D01*
X257834Y65149D01*
X258870D01*
X259872Y65417D01*
X260769Y65935D01*
X260813Y65979D01*
X260856Y65935D01*
X261754Y65417D01*
X262755Y65149D01*
X263791D01*
X264793Y65417D01*
X265691Y65935D01*
X265734Y65979D01*
X265777Y65935D01*
X266675Y65417D01*
X267676Y65149D01*
X268713D01*
X269714Y65417D01*
X270612Y65935D01*
X271345Y66668D01*
X271863Y67566D01*
X272131Y68568D01*
Y69604D01*
X271863Y70605D01*
X271345Y71503D01*
X271302Y71546D01*
X271345Y71590D01*
X271863Y72487D01*
X272131Y73489D01*
Y74525D01*
X271863Y75527D01*
X271345Y76424D01*
X271302Y76468D01*
X271345Y76511D01*
X271863Y77409D01*
X272131Y78410D01*
Y79447D01*
X271863Y80448D01*
X271345Y81346D01*
X270612Y82079D01*
X269714Y82597D01*
X268713Y82865D01*
D02*
G37*
G36*
X69338Y94882D02*
X68457D01*
X67606Y94654D01*
X66843Y94213D01*
X66220Y93590D01*
X65779Y92827D01*
X65551Y91976D01*
Y91095D01*
X65779Y90244D01*
X66220Y89481D01*
X66843Y88858D01*
X67399Y88537D01*
X67475Y88251D01*
Y87931D01*
X67399Y87644D01*
X66843Y87323D01*
X66220Y86700D01*
X65779Y85937D01*
X65551Y85086D01*
Y84205D01*
X65779Y83354D01*
X66220Y82591D01*
X66843Y81968D01*
X67606Y81527D01*
X68457Y81299D01*
X69338D01*
X70189Y81527D01*
X70952Y81968D01*
X71575Y82591D01*
X72016Y83354D01*
X72244Y84205D01*
Y85086D01*
X72016Y85937D01*
X71575Y86700D01*
X70952Y87323D01*
X70397Y87644D01*
X70320Y87931D01*
Y88251D01*
X70397Y88537D01*
X70952Y88858D01*
X71575Y89481D01*
X72016Y90244D01*
X72244Y91095D01*
Y91976D01*
X72016Y92827D01*
X71575Y93590D01*
X70952Y94213D01*
X70189Y94654D01*
X69338Y94882D01*
D02*
G37*
G36*
X97882Y86024D02*
X97000D01*
X96149Y85796D01*
X95386Y85355D01*
X94763Y84732D01*
X94323Y83969D01*
X94095Y83118D01*
Y82237D01*
X94323Y81385D01*
X94763Y80622D01*
X95149Y80236D01*
X95303Y79724D01*
X95149Y79212D01*
X94763Y78826D01*
X94323Y78063D01*
X94095Y77212D01*
Y76331D01*
X94323Y75480D01*
X94763Y74717D01*
X95386Y74094D01*
X96149Y73653D01*
X97000Y73425D01*
X97882D01*
X98733Y73653D01*
X99496Y74094D01*
X100119Y74717D01*
X100559Y75480D01*
X100787Y76331D01*
Y77212D01*
X100559Y78063D01*
X100119Y78826D01*
X99733Y79212D01*
X99578Y79724D01*
X99733Y80236D01*
X100119Y80622D01*
X100559Y81385D01*
X100787Y82237D01*
Y83118D01*
X100559Y83969D01*
X100119Y84732D01*
X99496Y85355D01*
X98733Y85796D01*
X97882Y86024D01*
D02*
G37*
G36*
X69338Y70276D02*
X68457D01*
X67606Y70047D01*
X66843Y69607D01*
X66220Y68984D01*
X65779Y68221D01*
X65551Y67370D01*
Y66489D01*
X65779Y65637D01*
X66220Y64874D01*
X66843Y64251D01*
X67606Y63811D01*
X68457Y63583D01*
X69338D01*
X70189Y63811D01*
X70952Y64251D01*
X71575Y64874D01*
X72016Y65637D01*
X72244Y66489D01*
Y67370D01*
X72016Y68221D01*
X71575Y68984D01*
X70952Y69607D01*
X70189Y70047D01*
X69338Y70276D01*
D02*
G37*
G36*
X80165Y63878D02*
X79284D01*
X78433Y63650D01*
X77670Y63209D01*
X77047Y62586D01*
X76606Y61823D01*
X76378Y60972D01*
Y60091D01*
X76606Y59240D01*
X77047Y58477D01*
X77670Y57854D01*
X78433Y57413D01*
X79284Y57185D01*
X80165D01*
X81016Y57413D01*
X81779Y57854D01*
X82402Y58477D01*
X82843Y59240D01*
X83071Y60091D01*
Y60972D01*
X82843Y61823D01*
X82402Y62586D01*
X81779Y63209D01*
X81016Y63650D01*
X80165Y63878D01*
D02*
G37*
G36*
X88039Y63386D02*
X87158D01*
X86307Y63158D01*
X85544Y62717D01*
X84921Y62094D01*
X84480Y61331D01*
X84252Y60480D01*
Y59599D01*
X84480Y58748D01*
X84921Y57985D01*
X85544Y57362D01*
X86307Y56921D01*
X87158Y56693D01*
X88039D01*
X88890Y56921D01*
X89653Y57362D01*
X90276Y57985D01*
X90717Y58748D01*
X90945Y59599D01*
Y60480D01*
X90717Y61331D01*
X90276Y62094D01*
X89653Y62717D01*
X88890Y63158D01*
X88039Y63386D01*
D02*
G37*
G36*
X231740Y66339D02*
X230859D01*
X230008Y66110D01*
X229244Y65670D01*
X228621Y65047D01*
X228181Y64284D01*
X227953Y63433D01*
Y62552D01*
X228181Y61700D01*
X228621Y60937D01*
X229244Y60314D01*
X229800Y59993D01*
X229877Y59707D01*
Y59387D01*
X229800Y59101D01*
X229244Y58780D01*
X228621Y58157D01*
X228181Y57394D01*
X227953Y56543D01*
Y55662D01*
X228181Y54811D01*
X228621Y54048D01*
X229244Y53425D01*
X230008Y52984D01*
X230859Y52756D01*
X231740D01*
X232591Y52984D01*
X233354Y53425D01*
X233977Y54048D01*
X234418Y54811D01*
X234646Y55662D01*
Y56543D01*
X234418Y57394D01*
X233977Y58157D01*
X233354Y58780D01*
X232798Y59101D01*
X232721Y59387D01*
Y59707D01*
X232798Y59993D01*
X233354Y60314D01*
X233977Y60937D01*
X234418Y61700D01*
X234646Y62552D01*
Y63433D01*
X234418Y64284D01*
X233977Y65047D01*
X233354Y65670D01*
X232591Y66110D01*
X231740Y66339D01*
D02*
G37*
G36*
X97882Y59449D02*
X97000D01*
X96149Y59221D01*
X95386Y58780D01*
X94763Y58157D01*
X94323Y57394D01*
X94095Y56543D01*
Y55662D01*
X94323Y54811D01*
X94763Y54048D01*
X95386Y53425D01*
X96149Y52984D01*
X97000Y52756D01*
X97882D01*
X98733Y52984D01*
X99496Y53425D01*
X100119Y54048D01*
X100559Y54811D01*
X100787Y55662D01*
Y56543D01*
X100559Y57394D01*
X100119Y58157D01*
X99496Y58780D01*
X98733Y59221D01*
X97882Y59449D01*
D02*
G37*
G36*
X125421Y62441D02*
X124540D01*
X123689Y62213D01*
X122925Y61772D01*
X122302Y61149D01*
X121862Y60386D01*
X121634Y59535D01*
Y58654D01*
X121862Y57803D01*
X122302Y57040D01*
X122748Y56595D01*
X122302Y56149D01*
X121862Y55386D01*
X121634Y54535D01*
Y53654D01*
X121862Y52803D01*
X122302Y52040D01*
X122925Y51417D01*
X123689Y50976D01*
X124540Y50748D01*
X125421D01*
X126272Y50976D01*
X127035Y51417D01*
X127658Y52040D01*
X128099Y52803D01*
X128327Y53654D01*
Y54535D01*
X128099Y55386D01*
X127658Y56149D01*
X127213Y56595D01*
X127658Y57040D01*
X128099Y57803D01*
X128327Y58654D01*
Y59535D01*
X128099Y60386D01*
X127658Y61149D01*
X127035Y61772D01*
X126272Y62213D01*
X125421Y62441D01*
D02*
G37*
G36*
X238707Y47244D02*
X237671D01*
X236669Y46976D01*
X235772Y46457D01*
X235728Y46414D01*
X235685Y46457D01*
X234787Y46976D01*
X233786Y47244D01*
X232749D01*
X231748Y46976D01*
X230850Y46457D01*
X230807Y46414D01*
X230764Y46457D01*
X229866Y46976D01*
X228865Y47244D01*
X227828D01*
X226827Y46976D01*
X225929Y46457D01*
X225886Y46414D01*
X225843Y46457D01*
X224945Y46976D01*
X223943Y47244D01*
X222907D01*
X221906Y46976D01*
X221008Y46457D01*
X220275Y45724D01*
X219757Y44827D01*
X219488Y43825D01*
Y42789D01*
X219757Y41787D01*
X220275Y40890D01*
X220318Y40846D01*
X220275Y40803D01*
X219757Y39906D01*
X219488Y38904D01*
Y37868D01*
X219757Y36866D01*
X220275Y35969D01*
X221008Y35236D01*
X221906Y34717D01*
X222907Y34449D01*
X223943D01*
X224945Y34717D01*
X225843Y35236D01*
X225886Y35279D01*
X225929Y35236D01*
X226827Y34717D01*
X227828Y34449D01*
X228865D01*
X229866Y34717D01*
X230764Y35236D01*
X230807Y35279D01*
X230850Y35236D01*
X231748Y34717D01*
X232749Y34449D01*
X233786D01*
X234787Y34717D01*
X235685Y35236D01*
X235728Y35279D01*
X235772Y35236D01*
X236669Y34717D01*
X237671Y34449D01*
X238707D01*
X239709Y34717D01*
X240606Y35236D01*
X241339Y35969D01*
X241858Y36866D01*
X242126Y37868D01*
Y38904D01*
X241858Y39906D01*
X241339Y40803D01*
X241296Y40846D01*
X241339Y40890D01*
X241858Y41787D01*
X242126Y42789D01*
Y43825D01*
X241858Y44827D01*
X241339Y45724D01*
X240606Y46457D01*
X239709Y46976D01*
X238707Y47244D01*
D02*
G37*
G36*
X80165Y48622D02*
X79284D01*
X78433Y48394D01*
X77670Y47953D01*
X77047Y47330D01*
X76606Y46567D01*
X76378Y45716D01*
Y44835D01*
X76606Y43984D01*
X77047Y43221D01*
X77670Y42598D01*
X78433Y42157D01*
X79284Y41929D01*
X80165D01*
X81016Y42157D01*
X81779Y42598D01*
X82402Y43221D01*
X82843Y43984D01*
X83071Y44835D01*
Y45716D01*
X82843Y46567D01*
X82402Y47330D01*
X81779Y47953D01*
X81016Y48394D01*
X80165Y48622D01*
D02*
G37*
G36*
X72291D02*
X71410D01*
X70559Y48394D01*
X69796Y47953D01*
X69173Y47330D01*
X68732Y46567D01*
X68504Y45716D01*
Y44835D01*
X68732Y43984D01*
X69173Y43221D01*
X69796Y42598D01*
X70559Y42157D01*
X71410Y41929D01*
X72291D01*
X73142Y42157D01*
X73905Y42598D01*
X74528Y43221D01*
X74969Y43984D01*
X75197Y44835D01*
Y45716D01*
X74969Y46567D01*
X74528Y47330D01*
X73905Y47953D01*
X73142Y48394D01*
X72291Y48622D01*
D02*
G37*
G36*
X300715Y37402D02*
X299678D01*
X298677Y37133D01*
X297779Y36615D01*
X297736Y36572D01*
X297693Y36615D01*
X296795Y37133D01*
X295794Y37402D01*
X294757D01*
X293756Y37133D01*
X292858Y36615D01*
X292815Y36572D01*
X292772Y36615D01*
X291874Y37133D01*
X290873Y37402D01*
X289836D01*
X288835Y37133D01*
X287937Y36615D01*
X287894Y36572D01*
X287850Y36615D01*
X286953Y37133D01*
X285951Y37402D01*
X284915D01*
X283913Y37133D01*
X283016Y36615D01*
X282283Y35882D01*
X281764Y34984D01*
X281496Y33983D01*
Y32946D01*
X281764Y31945D01*
X282283Y31047D01*
X282326Y31004D01*
X282283Y30961D01*
X281764Y30063D01*
X281496Y29062D01*
Y28025D01*
X281764Y27024D01*
X282283Y26126D01*
X282326Y26083D01*
X282283Y26039D01*
X281764Y25142D01*
X281496Y24140D01*
Y23104D01*
X281764Y22102D01*
X282283Y21205D01*
X283016Y20472D01*
X283913Y19953D01*
X284915Y19685D01*
X285951D01*
X286953Y19953D01*
X287850Y20472D01*
X287894Y20515D01*
X287937Y20472D01*
X288835Y19953D01*
X289836Y19685D01*
X290873D01*
X291874Y19953D01*
X292772Y20472D01*
X292815Y20515D01*
X292858Y20472D01*
X293756Y19953D01*
X294757Y19685D01*
X295794D01*
X296795Y19953D01*
X297693Y20472D01*
X297736Y20515D01*
X297779Y20472D01*
X298677Y19953D01*
X299678Y19685D01*
X300715D01*
X301716Y19953D01*
X302614Y20472D01*
X303347Y21205D01*
X303866Y22102D01*
X304134Y23104D01*
Y24140D01*
X303866Y25142D01*
X303347Y26039D01*
X303304Y26083D01*
X303347Y26126D01*
X303866Y27024D01*
X304134Y28025D01*
Y29062D01*
X303866Y30063D01*
X303347Y30961D01*
X303304Y31004D01*
X303347Y31047D01*
X303866Y31945D01*
X304134Y32946D01*
Y33983D01*
X303866Y34984D01*
X303347Y35882D01*
X302614Y36615D01*
X301716Y37133D01*
X300715Y37402D01*
D02*
G37*
G36*
X339103Y37417D02*
X339083D01*
Y33965D01*
X342535D01*
Y33985D01*
X342266Y34990D01*
X341746Y35892D01*
X341010Y36628D01*
X340108Y37148D01*
X339103Y37417D01*
D02*
G37*
G36*
X338083D02*
X338062D01*
X337057Y37148D01*
X336156Y36628D01*
X335420Y35892D01*
X334899Y34990D01*
X334630Y33985D01*
Y33965D01*
X338083D01*
Y37417D01*
D02*
G37*
G36*
X107881Y39764D02*
X107000D01*
X106149Y39536D01*
X105386Y39095D01*
X104763Y38472D01*
X104323Y37709D01*
X104095Y36858D01*
Y35977D01*
X104323Y35126D01*
X104763Y34363D01*
X105386Y33740D01*
X106149Y33299D01*
X107000Y33071D01*
X107881D01*
X108733Y33299D01*
X109496Y33740D01*
X110119Y34363D01*
X110559Y35126D01*
X110787Y35977D01*
Y36858D01*
X110559Y37709D01*
X110119Y38472D01*
X109496Y39095D01*
X108733Y39536D01*
X107881Y39764D01*
D02*
G37*
G36*
X342535Y32965D02*
X339083D01*
Y29512D01*
X339103D01*
X340108Y29781D01*
X341010Y30302D01*
X341746Y31038D01*
X342266Y31939D01*
X342535Y32944D01*
Y32965D01*
D02*
G37*
G36*
X338083D02*
X334630D01*
Y32944D01*
X334899Y31939D01*
X335420Y31038D01*
X336156Y30302D01*
X337057Y29781D01*
X338062Y29512D01*
X338083D01*
Y32965D01*
D02*
G37*
G36*
X172685Y35827D02*
X171803D01*
X170952Y35599D01*
X170189Y35158D01*
X169566Y34535D01*
X169126Y33772D01*
X168898Y32921D01*
Y32040D01*
X169126Y31189D01*
X169566Y30426D01*
X170189Y29803D01*
X170952Y29362D01*
X171803Y29134D01*
X172685D01*
X173536Y29362D01*
X174299Y29803D01*
X174922Y30426D01*
X175363Y31189D01*
X175591Y32040D01*
Y32921D01*
X175363Y33772D01*
X174922Y34535D01*
X174299Y35158D01*
X173536Y35599D01*
X172685Y35827D01*
D02*
G37*
G36*
X319576Y40354D02*
X318219D01*
X316888Y40090D01*
X315634Y39570D01*
X314506Y38816D01*
X313546Y37857D01*
X312792Y36728D01*
X312273Y35474D01*
X312008Y34143D01*
Y32786D01*
X312273Y31455D01*
X312792Y30201D01*
X313546Y29073D01*
X314506Y28113D01*
X315634Y27359D01*
X316888Y26840D01*
X318219Y26575D01*
X319576D01*
X320907Y26840D01*
X322161Y27359D01*
X323290Y28113D01*
X324249Y29073D01*
X325003Y30201D01*
X325523Y31455D01*
X325787Y32786D01*
Y34143D01*
X325523Y35474D01*
X325003Y36728D01*
X324249Y37857D01*
X323290Y38816D01*
X322161Y39570D01*
X320907Y40090D01*
X319576Y40354D01*
D02*
G37*
G36*
X156085Y29227D02*
X155203D01*
X154352Y28999D01*
X153589Y28558D01*
X152966Y27935D01*
X152526Y27172D01*
X152297Y26321D01*
Y25440D01*
X152526Y24589D01*
X152966Y23826D01*
X153589Y23203D01*
X154352Y22762D01*
X155203Y22534D01*
X156085D01*
X156936Y22762D01*
X157699Y23203D01*
X158322Y23826D01*
X158762Y24589D01*
X158990Y25440D01*
Y26321D01*
X158762Y27172D01*
X158322Y27935D01*
X157699Y28558D01*
X156936Y28999D01*
X156085Y29227D01*
D02*
G37*
G36*
X173309Y26766D02*
X172428D01*
X171577Y26538D01*
X170814Y26098D01*
X170191Y25475D01*
X169750Y24711D01*
X169522Y23860D01*
Y22979D01*
X169750Y22128D01*
X170191Y21365D01*
X170814Y20742D01*
X171577Y20301D01*
X172428Y20073D01*
X173309D01*
X174160Y20301D01*
X174923Y20742D01*
X175546Y21365D01*
X175987Y22128D01*
X176215Y22979D01*
Y23860D01*
X175987Y24711D01*
X175546Y25475D01*
X174923Y26098D01*
X174160Y26538D01*
X173309Y26766D01*
D02*
G37*
G36*
X110775Y26083D02*
X109894D01*
X109043Y25855D01*
X108280Y25414D01*
X107657Y24791D01*
X107216Y24028D01*
X106988Y23177D01*
Y22296D01*
X107216Y21445D01*
X107657Y20682D01*
X108280Y20058D01*
X109043Y19618D01*
X109894Y19390D01*
X110775D01*
X111626Y19618D01*
X112389Y20058D01*
X113013Y20682D01*
X113453Y21445D01*
X113681Y22296D01*
Y23177D01*
X113453Y24028D01*
X113013Y24791D01*
X112389Y25414D01*
X111626Y25855D01*
X110775Y26083D01*
D02*
G37*
G36*
X60480Y25984D02*
X59599D01*
X58748Y25756D01*
X57985Y25316D01*
X57362Y24693D01*
X56921Y23930D01*
X56693Y23078D01*
Y22197D01*
X56921Y21346D01*
X57362Y20583D01*
X57985Y19960D01*
X58748Y19519D01*
X59599Y19291D01*
X60480D01*
X61331Y19519D01*
X62094Y19960D01*
X62717Y20583D01*
X63158Y21346D01*
X63386Y22197D01*
Y23078D01*
X63158Y23930D01*
X62717Y24693D01*
X62094Y25316D01*
X61331Y25756D01*
X60480Y25984D01*
D02*
G37*
G36*
X171269Y17717D02*
X169912D01*
X168581Y17452D01*
X167327Y16932D01*
X166199Y16178D01*
X165591Y15570D01*
X164982Y16178D01*
X163854Y16932D01*
X162600Y17452D01*
X161269Y17717D01*
X159912D01*
X158581Y17452D01*
X157327Y16932D01*
X156199Y16178D01*
X155591Y15570D01*
X154982Y16178D01*
X153854Y16932D01*
X152600Y17452D01*
X151269Y17717D01*
X149912D01*
X148581Y17452D01*
X147327Y16932D01*
X146199Y16178D01*
X145591Y15570D01*
X144983Y16178D01*
X143854Y16932D01*
X142600Y17452D01*
X141269Y17717D01*
X139912D01*
X138581Y17452D01*
X137327Y16932D01*
X136199Y16178D01*
X135239Y15219D01*
X134485Y14090D01*
X133966Y12836D01*
X133701Y11505D01*
Y10148D01*
X133966Y8817D01*
X134485Y7563D01*
X135239Y6435D01*
X136199Y5475D01*
X137327Y4721D01*
X138581Y4202D01*
X139912Y3937D01*
X141269D01*
X142600Y4202D01*
X143854Y4721D01*
X144983Y5475D01*
X145591Y6083D01*
X146199Y5475D01*
X147327Y4721D01*
X148581Y4202D01*
X149912Y3937D01*
X151269D01*
X152600Y4202D01*
X153854Y4721D01*
X154982Y5475D01*
X155591Y6083D01*
X156199Y5475D01*
X157327Y4721D01*
X158581Y4202D01*
X159912Y3937D01*
X161269D01*
X162600Y4202D01*
X163854Y4721D01*
X164982Y5475D01*
X165591Y6083D01*
X166199Y5475D01*
X167327Y4721D01*
X168581Y4202D01*
X169912Y3937D01*
X171269D01*
X172600Y4202D01*
X173854Y4721D01*
X174983Y5475D01*
X175942Y6435D01*
X176696Y7563D01*
X176835Y7899D01*
X177768Y8060D01*
X178164Y7664D01*
X179065Y7143D01*
X180070Y6874D01*
X180091D01*
Y10827D01*
Y14780D01*
X180070D01*
X179065Y14510D01*
X178164Y13990D01*
X177768Y13594D01*
X176835Y13755D01*
X176696Y14090D01*
X175942Y15219D01*
X174983Y16178D01*
X173854Y16932D01*
X172600Y17452D01*
X171269Y17717D01*
D02*
G37*
G36*
X197480D02*
X183701D01*
Y14313D01*
X182901Y14057D01*
X182116Y14510D01*
X181111Y14780D01*
X181091D01*
Y10827D01*
Y6874D01*
X181111D01*
X182116Y7143D01*
X182901Y7596D01*
X183701Y7340D01*
Y3937D01*
X197480D01*
Y17717D01*
D02*
G37*
G36*
X381890Y27704D02*
X380325Y27550D01*
X378821Y27094D01*
X377435Y26353D01*
X376220Y25355D01*
X375222Y24140D01*
X374481Y22754D01*
X374025Y21249D01*
X373871Y19685D01*
X374025Y18121D01*
X374481Y16616D01*
X375222Y15230D01*
X376220Y14015D01*
X377435Y13017D01*
X378821Y12276D01*
X380325Y11820D01*
X381890Y11666D01*
X383454Y11820D01*
X384959Y12276D01*
X386345Y13017D01*
X387560Y14015D01*
X388557Y15230D01*
X389298Y16616D01*
X389755Y18121D01*
X389909Y19685D01*
X389755Y21249D01*
X389298Y22754D01*
X388557Y24140D01*
X387560Y25355D01*
X386345Y26353D01*
X384959Y27094D01*
X383454Y27550D01*
X381890Y27704D01*
D02*
G37*
%LPD*%
D98*
X112947Y230939D02*
D03*
X92947D02*
D03*
X72947D02*
D03*
X160734D02*
D03*
X180734D02*
D03*
X381890Y19685D02*
D03*
X11811Y236221D02*
D03*
D99*
X52947Y230939D02*
D03*
X140734D02*
D03*
D100*
X259606Y182087D02*
D03*
X289606D02*
D03*
X180591Y10827D02*
D03*
X170591D02*
D03*
X160591D02*
D03*
X150591D02*
D03*
X140591D02*
D03*
X338583Y161417D02*
D03*
X318898D02*
D03*
X338583Y33465D02*
D03*
X318898D02*
D03*
D101*
X270590Y242126D02*
D03*
X280591D02*
D03*
X219488D02*
D03*
X229488D02*
D03*
X255000D02*
D03*
X245000D02*
D03*
D103*
X190591Y10827D02*
D03*
D104*
X375984Y228543D02*
D03*
D105*
Y215945D02*
D03*
Y203346D02*
D03*
X364173Y228543D02*
D03*
Y215945D02*
D03*
Y203346D02*
D03*
X383465Y192717D02*
D03*
X356693Y239173D02*
D03*
D106*
X309646Y208661D02*
D03*
D107*
X328150Y220472D02*
D03*
Y196063D02*
D03*
D108*
X165354Y172028D02*
D03*
D109*
Y142539D02*
D03*
X285433Y33465D02*
D03*
X295276Y23622D02*
D03*
X290354D02*
D03*
X300197D02*
D03*
X285433Y28543D02*
D03*
Y23622D02*
D03*
X300197Y33465D02*
D03*
Y28543D02*
D03*
X295276Y33465D02*
D03*
Y28543D02*
D03*
X290354D02*
D03*
Y33465D02*
D03*
X115079Y175197D02*
D03*
X262874Y120434D02*
D03*
X268701Y128937D02*
D03*
X271654Y92323D02*
D03*
X280512Y121221D02*
D03*
X293408Y133933D02*
D03*
X238189Y43307D02*
D03*
X233268D02*
D03*
X228346D02*
D03*
X223425D02*
D03*
Y38386D02*
D03*
X228346D02*
D03*
X233268D02*
D03*
X238189D02*
D03*
X246063Y195866D02*
D03*
X253431Y74007D02*
D03*
X268195D02*
D03*
X253431Y78928D02*
D03*
X258352D02*
D03*
X268195D02*
D03*
X263273D02*
D03*
X258352Y74007D02*
D03*
X263273D02*
D03*
X253431Y69086D02*
D03*
X258352D02*
D03*
X263273D02*
D03*
X268195D02*
D03*
D110*
X87598Y60039D02*
D03*
X79724Y60532D02*
D03*
X97441Y56102D02*
D03*
Y91535D02*
D03*
X68898Y66929D02*
D03*
X97441Y76772D02*
D03*
Y82677D02*
D03*
X102829Y127160D02*
D03*
X97441Y97441D02*
D03*
X68898Y91535D02*
D03*
Y84646D02*
D03*
X71850Y118110D02*
D03*
X79724D02*
D03*
X79724Y45276D02*
D03*
X71850D02*
D03*
X107441Y36417D02*
D03*
X60039Y22638D02*
D03*
X110335Y22736D02*
D03*
X172244Y32480D02*
D03*
X172868Y23420D02*
D03*
X155644Y25880D02*
D03*
X101221Y109095D02*
D03*
X124980Y54094D02*
D03*
Y59095D02*
D03*
X182835Y114921D02*
D03*
X211614Y106299D02*
D03*
X269685Y147638D02*
D03*
X227756Y153543D02*
D03*
X235728Y136811D02*
D03*
X211221Y134843D02*
D03*
X246091D02*
D03*
X221842Y151681D02*
D03*
X232677Y154527D02*
D03*
X230019Y137008D02*
D03*
X210566Y183889D02*
D03*
X241732Y194095D02*
D03*
Y178347D02*
D03*
Y186221D02*
D03*
X224016Y187205D02*
D03*
X88504Y175197D02*
D03*
X231299Y56102D02*
D03*
X298228Y225608D02*
D03*
X290354Y208875D02*
D03*
X231299Y62992D02*
D03*
X225000Y194095D02*
D03*
X233268Y208661D02*
D03*
X246063Y115157D02*
D03*
X241142Y172244D02*
D03*
X242126Y165354D02*
D03*
X243110Y119095D02*
D03*
X253110Y223425D02*
D03*
X223892Y125669D02*
D03*
X241142D02*
D03*
X231299Y97441D02*
D03*
Y104331D02*
D03*
X29528Y187008D02*
D03*
X44528D02*
D03*
X62008Y175197D02*
D03*
X48228Y149606D02*
D03*
X92520Y198976D02*
D03*
X64961D02*
D03*
X18543Y192913D02*
D03*
X33307D02*
D03*
X30512Y149606D02*
D03*
X104874Y219094D02*
D03*
X129921Y132346D02*
D03*
X103874Y132346D02*
D03*
X76772Y132346D02*
D03*
D111*
X5906Y1969D02*
D03*
X344488D02*
D03*
X336614D02*
D03*
X340551D02*
D03*
X332677D02*
D03*
X320866D02*
D03*
X316929D02*
D03*
X312992D02*
D03*
X324803D02*
D03*
X328740D02*
D03*
X297244D02*
D03*
X301181D02*
D03*
X305118D02*
D03*
X309055D02*
D03*
X269685D02*
D03*
X265748D02*
D03*
X261811D02*
D03*
X257874D02*
D03*
X253937D02*
D03*
X250000D02*
D03*
X246063D02*
D03*
X242126D02*
D03*
X289370D02*
D03*
X285433D02*
D03*
X273622D02*
D03*
X277559D02*
D03*
X281496D02*
D03*
X293307D02*
D03*
X238189D02*
D03*
X226378D02*
D03*
X222441D02*
D03*
X218504D02*
D03*
X230315D02*
D03*
X234252D02*
D03*
X183071D02*
D03*
X187008D02*
D03*
X190945D02*
D03*
X194882D02*
D03*
X198819D02*
D03*
X202756D02*
D03*
X206693D02*
D03*
X210630D02*
D03*
X214567D02*
D03*
X179134D02*
D03*
X167323D02*
D03*
X163386D02*
D03*
X159449D02*
D03*
X171260D02*
D03*
X175197D02*
D03*
X124016D02*
D03*
X127953D02*
D03*
X131890D02*
D03*
X135827D02*
D03*
X139764D02*
D03*
X143701D02*
D03*
X147638D02*
D03*
X151575D02*
D03*
X155512D02*
D03*
X120079D02*
D03*
X108268D02*
D03*
X104331D02*
D03*
X100394D02*
D03*
X112205D02*
D03*
X116142D02*
D03*
X64961D02*
D03*
X68898D02*
D03*
X72835D02*
D03*
X76772D02*
D03*
X80709D02*
D03*
X84646D02*
D03*
X88583D02*
D03*
X92520D02*
D03*
X96457D02*
D03*
X29528D02*
D03*
X33465D02*
D03*
X37402D02*
D03*
X41339D02*
D03*
X45276D02*
D03*
X49213D02*
D03*
X53150D02*
D03*
X57087D02*
D03*
X61024D02*
D03*
X9843D02*
D03*
X13780D02*
D03*
X25591D02*
D03*
X21654D02*
D03*
X17717D02*
D03*
X1969D02*
D03*
X364173D02*
D03*
X360236D02*
D03*
X352362D02*
D03*
X356299D02*
D03*
X348425D02*
D03*
X383858D02*
D03*
X379921D02*
D03*
X372047D02*
D03*
X375984D02*
D03*
X368110D02*
D03*
X387795D02*
D03*
X391732D02*
D03*
Y250000D02*
D03*
Y246063D02*
D03*
Y253937D02*
D03*
X1969Y41339D02*
D03*
Y37402D02*
D03*
Y33465D02*
D03*
Y29528D02*
D03*
Y57087D02*
D03*
Y53150D02*
D03*
Y49213D02*
D03*
Y45276D02*
D03*
Y61024D02*
D03*
Y76772D02*
D03*
Y72835D02*
D03*
Y68898D02*
D03*
Y64961D02*
D03*
Y80709D02*
D03*
Y96457D02*
D03*
Y92520D02*
D03*
Y88583D02*
D03*
Y84646D02*
D03*
Y100394D02*
D03*
Y116142D02*
D03*
Y112205D02*
D03*
Y108268D02*
D03*
Y104331D02*
D03*
Y120079D02*
D03*
X391732Y5906D02*
D03*
Y9843D02*
D03*
Y13780D02*
D03*
Y17717D02*
D03*
Y21654D02*
D03*
Y25591D02*
D03*
Y29528D02*
D03*
Y33465D02*
D03*
Y37402D02*
D03*
Y41339D02*
D03*
Y45276D02*
D03*
Y49213D02*
D03*
Y53150D02*
D03*
Y57087D02*
D03*
Y61024D02*
D03*
Y64961D02*
D03*
Y68898D02*
D03*
Y72835D02*
D03*
Y76772D02*
D03*
Y242126D02*
D03*
Y238189D02*
D03*
Y234252D02*
D03*
Y230315D02*
D03*
Y226378D02*
D03*
Y222441D02*
D03*
Y218504D02*
D03*
Y214567D02*
D03*
Y210630D02*
D03*
Y206693D02*
D03*
Y202756D02*
D03*
Y198819D02*
D03*
Y194882D02*
D03*
Y190945D02*
D03*
Y187008D02*
D03*
Y183071D02*
D03*
Y179134D02*
D03*
Y175197D02*
D03*
Y171260D02*
D03*
Y167323D02*
D03*
Y163386D02*
D03*
Y159449D02*
D03*
Y155512D02*
D03*
Y151575D02*
D03*
Y147638D02*
D03*
Y143701D02*
D03*
Y139764D02*
D03*
Y135827D02*
D03*
Y131890D02*
D03*
Y127953D02*
D03*
Y124016D02*
D03*
Y120079D02*
D03*
Y116142D02*
D03*
Y112205D02*
D03*
Y108268D02*
D03*
Y104331D02*
D03*
Y100394D02*
D03*
Y96457D02*
D03*
Y92520D02*
D03*
Y88583D02*
D03*
Y84646D02*
D03*
Y80709D02*
D03*
X387795Y253937D02*
D03*
X368110D02*
D03*
X375984D02*
D03*
X372047D02*
D03*
X379921D02*
D03*
X383858D02*
D03*
X348425D02*
D03*
X356299D02*
D03*
X352362D02*
D03*
X360236D02*
D03*
X364173D02*
D03*
X1969Y250000D02*
D03*
Y246063D02*
D03*
Y242126D02*
D03*
Y238189D02*
D03*
Y234252D02*
D03*
Y230315D02*
D03*
Y226378D02*
D03*
Y253937D02*
D03*
X17717D02*
D03*
X21654D02*
D03*
X25591D02*
D03*
X13780D02*
D03*
X9843D02*
D03*
X61024D02*
D03*
X57087D02*
D03*
X53150D02*
D03*
X49213D02*
D03*
X45276D02*
D03*
X41339D02*
D03*
X37402D02*
D03*
X33465D02*
D03*
X29528D02*
D03*
X96457D02*
D03*
X92520D02*
D03*
X88583D02*
D03*
X84646D02*
D03*
X80709D02*
D03*
X76772D02*
D03*
X72835D02*
D03*
X68898D02*
D03*
X64961D02*
D03*
X116142D02*
D03*
X112205D02*
D03*
X100394D02*
D03*
X104331D02*
D03*
X108268D02*
D03*
X120079D02*
D03*
X155512D02*
D03*
X151575D02*
D03*
X147638D02*
D03*
X143701D02*
D03*
X139764D02*
D03*
X135827D02*
D03*
X131890D02*
D03*
X127953D02*
D03*
X124016D02*
D03*
X175197D02*
D03*
X171260D02*
D03*
X159449D02*
D03*
X163386D02*
D03*
X167323D02*
D03*
X179134D02*
D03*
X214567D02*
D03*
X210630D02*
D03*
X206693D02*
D03*
X202756D02*
D03*
X198819D02*
D03*
X194882D02*
D03*
X190945D02*
D03*
X187008D02*
D03*
X183071D02*
D03*
X234252D02*
D03*
X230315D02*
D03*
X218504D02*
D03*
X222441D02*
D03*
X226378D02*
D03*
X238189D02*
D03*
X293307D02*
D03*
X281496D02*
D03*
X277559D02*
D03*
X273622D02*
D03*
X285433D02*
D03*
X289370D02*
D03*
X242126D02*
D03*
X246063D02*
D03*
X250000D02*
D03*
X253937D02*
D03*
X257874D02*
D03*
X261811D02*
D03*
X265748D02*
D03*
X269685D02*
D03*
X309055D02*
D03*
X305118D02*
D03*
X301181D02*
D03*
X297244D02*
D03*
X328740D02*
D03*
X324803D02*
D03*
X312992D02*
D03*
X316929D02*
D03*
X320866D02*
D03*
X332677D02*
D03*
X340551D02*
D03*
X336614D02*
D03*
X344488D02*
D03*
X5906D02*
D03*
X1969Y124016D02*
D03*
Y147638D02*
D03*
Y143701D02*
D03*
Y139764D02*
D03*
Y135827D02*
D03*
Y131890D02*
D03*
Y127953D02*
D03*
Y171260D02*
D03*
Y167323D02*
D03*
Y163386D02*
D03*
Y159449D02*
D03*
Y155512D02*
D03*
Y151575D02*
D03*
Y175197D02*
D03*
Y179134D02*
D03*
Y183071D02*
D03*
Y187008D02*
D03*
Y190945D02*
D03*
Y194882D02*
D03*
Y198819D02*
D03*
Y202756D02*
D03*
Y206693D02*
D03*
Y210630D02*
D03*
Y214567D02*
D03*
Y218504D02*
D03*
Y222441D02*
D03*
Y25591D02*
D03*
Y21654D02*
D03*
Y17717D02*
D03*
Y13780D02*
D03*
Y9843D02*
D03*
Y5906D02*
D03*
M02*
