G04*
G04 #@! TF.GenerationSoftware,Altium Limited,Altium Designer,24.5.2 (23)*
G04*
G04 Layer_Physical_Order=3*
G04 Layer_Color=16440176*
%FSLAX25Y25*%
%MOIN*%
G70*
G04*
G04 #@! TF.SameCoordinates,69DD5750-F066-4D08-A96F-D9ADA75AFFB9*
G04*
G04*
G04 #@! TF.FilePolarity,Positive*
G04*
G01*
G75*
%ADD88C,0.01575*%
%ADD95C,0.03937*%
%ADD97C,0.11811*%
%ADD98R,0.11811X0.11811*%
%ADD99C,0.05906*%
%ADD100C,0.05937*%
%ADD102R,0.05906X0.05906*%
%ADD103R,0.07874X0.07874*%
%ADD104C,0.07874*%
%ADD105R,0.07874X0.19685*%
%ADD106R,0.19685X0.07874*%
%ADD107C,0.05118*%
%ADD108C,0.03937*%
%ADD109C,0.02756*%
%ADD110C,0.01968*%
G36*
X386306Y251358D02*
X387024Y251060D01*
X387795Y250959D01*
X388116Y251001D01*
X388149Y250991D01*
X388786Y250354D01*
X388796Y250321D01*
X388754Y250000D01*
X388856Y249229D01*
X389153Y248511D01*
X389521Y248031D01*
X389153Y247552D01*
X388856Y246834D01*
X388754Y246063D01*
X388856Y245292D01*
X389153Y244574D01*
X389521Y244094D01*
X389153Y243615D01*
X388856Y242897D01*
X388754Y242126D01*
X388856Y241355D01*
X389153Y240637D01*
X389521Y240158D01*
X389153Y239678D01*
X388856Y238960D01*
X388754Y238189D01*
X388856Y237418D01*
X389153Y236700D01*
X389521Y236221D01*
X389153Y235741D01*
X388856Y235023D01*
X388754Y234252D01*
X388856Y233481D01*
X389153Y232763D01*
X389521Y232283D01*
X389153Y231804D01*
X388856Y231086D01*
X388754Y230315D01*
X388856Y229544D01*
X389153Y228826D01*
X389521Y228346D01*
X389153Y227867D01*
X388856Y227149D01*
X388754Y226378D01*
X388856Y225607D01*
X389153Y224889D01*
X389521Y224410D01*
X389153Y223930D01*
X388856Y223212D01*
X388754Y222441D01*
X388856Y221670D01*
X389153Y220952D01*
X389521Y220472D01*
X389153Y219993D01*
X388856Y219275D01*
X388754Y218504D01*
X388856Y217733D01*
X389153Y217015D01*
X389521Y216535D01*
X389153Y216056D01*
X388856Y215338D01*
X388754Y214567D01*
X388856Y213796D01*
X389153Y213078D01*
X389521Y212598D01*
X389153Y212119D01*
X388856Y211401D01*
X388754Y210630D01*
X388856Y209859D01*
X389153Y209141D01*
X389521Y208661D01*
X389153Y208182D01*
X388856Y207464D01*
X388754Y206693D01*
X388856Y205922D01*
X389153Y205204D01*
X389521Y204724D01*
X389153Y204245D01*
X388856Y203527D01*
X388754Y202756D01*
X388856Y201985D01*
X389153Y201267D01*
X389521Y200787D01*
X389153Y200308D01*
X388856Y199590D01*
X388846Y199521D01*
X387995Y199185D01*
X387860Y199295D01*
X386492Y200026D01*
X385008Y200477D01*
X384202Y200556D01*
X383627Y201416D01*
X383744Y201803D01*
X383896Y203346D01*
X383744Y204890D01*
X383294Y206374D01*
X382563Y207742D01*
X381579Y208941D01*
X381208Y209246D01*
Y210046D01*
X381579Y210350D01*
X382563Y211549D01*
X383294Y212917D01*
X383744Y214401D01*
X383896Y215945D01*
X383744Y217489D01*
X383294Y218973D01*
X382815Y219869D01*
X383294Y220669D01*
X383858D01*
Y236417D01*
X368110D01*
Y236145D01*
X367424Y235734D01*
X367201Y235853D01*
X365717Y236303D01*
X364911Y236383D01*
X364336Y237243D01*
X364453Y237630D01*
X364605Y239173D01*
X364453Y240717D01*
X364003Y242201D01*
X363272Y243569D01*
X362288Y244768D01*
X361089Y245752D01*
X359721Y246483D01*
X358237Y246933D01*
X356693Y247085D01*
X355149Y246933D01*
X353665Y246483D01*
X352297Y245752D01*
X351098Y244768D01*
X350114Y243569D01*
X349383Y242201D01*
X348933Y240717D01*
X348781Y239173D01*
X348933Y237630D01*
X349383Y236145D01*
X350114Y234777D01*
X351098Y233578D01*
X352297Y232594D01*
X353665Y231863D01*
X355149Y231413D01*
X355955Y231334D01*
X356530Y230473D01*
X356413Y230087D01*
X356261Y228543D01*
X356413Y227000D01*
X356863Y225516D01*
X357366Y224575D01*
X356887Y223775D01*
X354057D01*
X353289Y223622D01*
X352638Y223187D01*
X342729Y213279D01*
X341929Y213610D01*
Y228346D01*
X314370D01*
Y222441D01*
X301772D01*
Y194882D01*
X314370D01*
Y188189D01*
X316037D01*
X316161Y188106D01*
X316929Y187954D01*
X357283D01*
X358051Y188106D01*
X358703Y188541D01*
X359138Y189193D01*
X359291Y189961D01*
Y196196D01*
X360090Y196600D01*
X361145Y196037D01*
X362630Y195586D01*
X364173Y195434D01*
X365717Y195586D01*
X367201Y196037D01*
X368569Y196768D01*
X369521Y197549D01*
X370079Y197679D01*
X370637Y197549D01*
X371588Y196768D01*
X372956Y196037D01*
X374441Y195586D01*
X375247Y195507D01*
X375822Y194647D01*
X375705Y194260D01*
X375552Y192717D01*
X375705Y191173D01*
X376155Y189689D01*
X376886Y188321D01*
X377870Y187122D01*
X379069Y186138D01*
X380437Y185407D01*
X381921Y184956D01*
X383465Y184804D01*
X385008Y184956D01*
X386492Y185407D01*
X387860Y186138D01*
X388116Y186348D01*
X388954Y186000D01*
X389153Y185519D01*
X389521Y185039D01*
X389153Y184560D01*
X388856Y183842D01*
X388754Y183071D01*
X388856Y182300D01*
X389153Y181582D01*
X389521Y181102D01*
X389153Y180623D01*
X388856Y179905D01*
X388754Y179134D01*
X388856Y178363D01*
X389153Y177645D01*
X389521Y177165D01*
X389153Y176686D01*
X388856Y175968D01*
X388754Y175197D01*
X388856Y174426D01*
X389153Y173708D01*
X389521Y173228D01*
X389153Y172749D01*
X388856Y172031D01*
X388754Y171260D01*
X388856Y170489D01*
X389153Y169771D01*
X389521Y169291D01*
X389153Y168812D01*
X388856Y168094D01*
X388754Y167323D01*
X388856Y166552D01*
X389153Y165834D01*
X389521Y165354D01*
X389153Y164875D01*
X388856Y164157D01*
X388754Y163386D01*
X388856Y162615D01*
X389153Y161897D01*
X389521Y161417D01*
X389153Y160938D01*
X388856Y160220D01*
X388754Y159449D01*
X388856Y158678D01*
X389153Y157960D01*
X389521Y157480D01*
X389153Y157001D01*
X388856Y156283D01*
X388754Y155512D01*
X388856Y154741D01*
X389153Y154023D01*
X389521Y153543D01*
X389153Y153064D01*
X388856Y152346D01*
X388754Y151575D01*
X388856Y150804D01*
X389153Y150086D01*
X389521Y149606D01*
X389153Y149127D01*
X388856Y148409D01*
X388754Y147638D01*
X388856Y146867D01*
X389153Y146149D01*
X389521Y145669D01*
X389153Y145190D01*
X388856Y144472D01*
X388754Y143701D01*
X388856Y142930D01*
X389153Y142212D01*
X389521Y141732D01*
X389153Y141253D01*
X388856Y140535D01*
X388754Y139764D01*
X388856Y138993D01*
X389153Y138275D01*
X389521Y137795D01*
X389153Y137316D01*
X388856Y136598D01*
X388754Y135827D01*
X388856Y135056D01*
X389153Y134338D01*
X389521Y133858D01*
X389153Y133379D01*
X388856Y132661D01*
X388754Y131890D01*
X388856Y131119D01*
X389153Y130401D01*
X389521Y129921D01*
X389153Y129442D01*
X388856Y128724D01*
X388754Y127953D01*
X388856Y127182D01*
X389153Y126464D01*
X389521Y125984D01*
X389153Y125505D01*
X388856Y124787D01*
X388754Y124016D01*
X388856Y123245D01*
X389153Y122527D01*
X389521Y122047D01*
X389153Y121568D01*
X388856Y120850D01*
X388754Y120079D01*
X388856Y119308D01*
X389153Y118590D01*
X389521Y118110D01*
X389153Y117631D01*
X388856Y116913D01*
X388754Y116142D01*
X388856Y115371D01*
X389153Y114653D01*
X389521Y114173D01*
X389153Y113694D01*
X388856Y112976D01*
X388754Y112205D01*
X388856Y111434D01*
X389153Y110716D01*
X389521Y110236D01*
X389153Y109757D01*
X388856Y109038D01*
X388754Y108268D01*
X388856Y107497D01*
X389153Y106779D01*
X389521Y106299D01*
X389153Y105820D01*
X388856Y105102D01*
X388754Y104331D01*
X388856Y103560D01*
X389153Y102842D01*
X389521Y102362D01*
X389153Y101883D01*
X388856Y101164D01*
X388754Y100394D01*
X388856Y99623D01*
X389153Y98905D01*
X389521Y98425D01*
X389153Y97946D01*
X388856Y97228D01*
X388754Y96457D01*
X388856Y95686D01*
X389153Y94968D01*
X389521Y94488D01*
X389153Y94009D01*
X388856Y93291D01*
X388754Y92520D01*
X388856Y91749D01*
X389153Y91031D01*
X389521Y90551D01*
X389153Y90072D01*
X388856Y89354D01*
X388754Y88583D01*
X388856Y87812D01*
X389153Y87094D01*
X389521Y86614D01*
X389153Y86135D01*
X388856Y85417D01*
X388754Y84646D01*
X388856Y83875D01*
X389153Y83157D01*
X389521Y82677D01*
X389153Y82198D01*
X388856Y81480D01*
X388754Y80709D01*
X388856Y79938D01*
X389153Y79220D01*
X389521Y78740D01*
X389153Y78261D01*
X388856Y77543D01*
X388754Y76772D01*
X388856Y76001D01*
X389153Y75283D01*
X389521Y74803D01*
X389153Y74324D01*
X388856Y73606D01*
X388754Y72835D01*
X388856Y72064D01*
X389153Y71346D01*
X389521Y70866D01*
X389153Y70387D01*
X388856Y69669D01*
X388754Y68898D01*
X388856Y68127D01*
X389153Y67409D01*
X389521Y66929D01*
X389153Y66450D01*
X388856Y65731D01*
X388754Y64961D01*
X388856Y64190D01*
X389153Y63472D01*
X389521Y62992D01*
X389153Y62513D01*
X388856Y61794D01*
X388754Y61024D01*
X388856Y60253D01*
X389153Y59535D01*
X389521Y59055D01*
X389153Y58576D01*
X388856Y57857D01*
X388754Y57087D01*
X388856Y56316D01*
X389153Y55598D01*
X389521Y55118D01*
X389153Y54639D01*
X388856Y53920D01*
X388754Y53150D01*
X388856Y52379D01*
X389153Y51661D01*
X389521Y51181D01*
X389153Y50702D01*
X388856Y49983D01*
X388754Y49213D01*
X388856Y48442D01*
X389153Y47723D01*
X389521Y47244D01*
X389153Y46765D01*
X388856Y46046D01*
X388754Y45276D01*
X388856Y44505D01*
X389153Y43786D01*
X389521Y43307D01*
X389153Y42828D01*
X388856Y42109D01*
X388754Y41339D01*
X388856Y40568D01*
X389153Y39849D01*
X389521Y39370D01*
X389153Y38891D01*
X388856Y38172D01*
X388754Y37402D01*
X388856Y36631D01*
X389153Y35912D01*
X389521Y35433D01*
X389153Y34954D01*
X388856Y34235D01*
X388754Y33465D01*
X388856Y32694D01*
X389153Y31975D01*
X389521Y31496D01*
X389153Y31017D01*
X388856Y30298D01*
X388754Y29528D01*
X388856Y28757D01*
X389127Y28102D01*
X389138Y28003D01*
X388943Y27538D01*
X388058Y27356D01*
X387384Y27908D01*
X385675Y28822D01*
X383819Y29385D01*
X381890Y29575D01*
X379960Y29385D01*
X378105Y28822D01*
X376395Y27908D01*
X374896Y26678D01*
X373666Y25180D01*
X372752Y23470D01*
X372190Y21614D01*
X372000Y19685D01*
X372190Y17756D01*
X372752Y15900D01*
X373666Y14190D01*
X374896Y12692D01*
X376395Y11462D01*
X378105Y10548D01*
X379960Y9985D01*
X381890Y9795D01*
X383819Y9985D01*
X385675Y10548D01*
X387384Y11462D01*
X388058Y12014D01*
X388943Y11832D01*
X389138Y11367D01*
X389127Y11268D01*
X388856Y10613D01*
X388754Y9843D01*
X388856Y9072D01*
X389153Y8353D01*
X389521Y7874D01*
X389153Y7395D01*
X388856Y6676D01*
X388754Y5906D01*
X388796Y5584D01*
X388786Y5551D01*
X388149Y4915D01*
X388116Y4904D01*
X387795Y4947D01*
X387024Y4845D01*
X386306Y4548D01*
X385827Y4180D01*
X385347Y4548D01*
X384629Y4845D01*
X383858Y4947D01*
X383087Y4845D01*
X382369Y4548D01*
X381890Y4180D01*
X381410Y4548D01*
X380692Y4845D01*
X379921Y4947D01*
X379151Y4845D01*
X378432Y4548D01*
X377953Y4180D01*
X377473Y4548D01*
X376755Y4845D01*
X375984Y4947D01*
X375213Y4845D01*
X374495Y4548D01*
X374016Y4180D01*
X373536Y4548D01*
X372818Y4845D01*
X372047Y4947D01*
X371276Y4845D01*
X370558Y4548D01*
X370079Y4180D01*
X369599Y4548D01*
X368881Y4845D01*
X368110Y4947D01*
X367339Y4845D01*
X366621Y4548D01*
X366142Y4180D01*
X365662Y4548D01*
X364944Y4845D01*
X364173Y4947D01*
X363402Y4845D01*
X362684Y4548D01*
X362205Y4180D01*
X361725Y4548D01*
X361007Y4845D01*
X360236Y4947D01*
X359465Y4845D01*
X358747Y4548D01*
X358268Y4180D01*
X357788Y4548D01*
X357070Y4845D01*
X356299Y4947D01*
X355528Y4845D01*
X354810Y4548D01*
X354331Y4180D01*
X353851Y4548D01*
X353133Y4845D01*
X352362Y4947D01*
X351591Y4845D01*
X350873Y4548D01*
X350394Y4180D01*
X349914Y4548D01*
X349196Y4845D01*
X348425Y4947D01*
X347654Y4845D01*
X346936Y4548D01*
X346457Y4180D01*
X345977Y4548D01*
X345259Y4845D01*
X344488Y4947D01*
X343717Y4845D01*
X342999Y4548D01*
X342520Y4180D01*
X342040Y4548D01*
X341322Y4845D01*
X340551Y4947D01*
X339780Y4845D01*
X339062Y4548D01*
X338583Y4180D01*
X338103Y4548D01*
X337385Y4845D01*
X336614Y4947D01*
X335843Y4845D01*
X335125Y4548D01*
X334646Y4180D01*
X334166Y4548D01*
X333448Y4845D01*
X332677Y4947D01*
X331906Y4845D01*
X331188Y4548D01*
X330709Y4180D01*
X330229Y4548D01*
X329511Y4845D01*
X328740Y4947D01*
X327969Y4845D01*
X327251Y4548D01*
X326772Y4180D01*
X326292Y4548D01*
X325574Y4845D01*
X324803Y4947D01*
X324032Y4845D01*
X323314Y4548D01*
X322835Y4180D01*
X322355Y4548D01*
X321637Y4845D01*
X320866Y4947D01*
X320095Y4845D01*
X319377Y4548D01*
X318898Y4180D01*
X318418Y4548D01*
X317700Y4845D01*
X316929Y4947D01*
X316158Y4845D01*
X315440Y4548D01*
X314961Y4180D01*
X314481Y4548D01*
X313763Y4845D01*
X312992Y4947D01*
X312221Y4845D01*
X311503Y4548D01*
X311024Y4180D01*
X310544Y4548D01*
X309826Y4845D01*
X309055Y4947D01*
X308284Y4845D01*
X307566Y4548D01*
X307087Y4180D01*
X306607Y4548D01*
X305889Y4845D01*
X305118Y4947D01*
X304347Y4845D01*
X303629Y4548D01*
X303150Y4180D01*
X302670Y4548D01*
X301952Y4845D01*
X301181Y4947D01*
X300410Y4845D01*
X299692Y4548D01*
X299213Y4180D01*
X298733Y4548D01*
X298015Y4845D01*
X297244Y4947D01*
X296473Y4845D01*
X295755Y4548D01*
X295276Y4180D01*
X294796Y4548D01*
X294078Y4845D01*
X293307Y4947D01*
X292536Y4845D01*
X291818Y4548D01*
X291339Y4180D01*
X290859Y4548D01*
X290141Y4845D01*
X289370Y4947D01*
X288599Y4845D01*
X287881Y4548D01*
X287402Y4180D01*
X286922Y4548D01*
X286204Y4845D01*
X285433Y4947D01*
X284662Y4845D01*
X283944Y4548D01*
X283465Y4180D01*
X282985Y4548D01*
X282267Y4845D01*
X281496Y4947D01*
X280725Y4845D01*
X280007Y4548D01*
X279528Y4180D01*
X279048Y4548D01*
X278330Y4845D01*
X277559Y4947D01*
X276788Y4845D01*
X276070Y4548D01*
X275590Y4180D01*
X275111Y4548D01*
X274393Y4845D01*
X273622Y4947D01*
X272851Y4845D01*
X272133Y4548D01*
X271654Y4180D01*
X271174Y4548D01*
X270456Y4845D01*
X269685Y4947D01*
X268914Y4845D01*
X268196Y4548D01*
X267717Y4180D01*
X267237Y4548D01*
X266519Y4845D01*
X265748Y4947D01*
X264977Y4845D01*
X264259Y4548D01*
X263779Y4180D01*
X263300Y4548D01*
X262582Y4845D01*
X261811Y4947D01*
X261040Y4845D01*
X260322Y4548D01*
X259842Y4180D01*
X259363Y4548D01*
X258645Y4845D01*
X257874Y4947D01*
X257103Y4845D01*
X256385Y4548D01*
X255906Y4180D01*
X255426Y4548D01*
X254708Y4845D01*
X253937Y4947D01*
X253166Y4845D01*
X252448Y4548D01*
X251969Y4180D01*
X251489Y4548D01*
X250771Y4845D01*
X250000Y4947D01*
X249229Y4845D01*
X248511Y4548D01*
X248031Y4180D01*
X247552Y4548D01*
X246834Y4845D01*
X246063Y4947D01*
X245292Y4845D01*
X244574Y4548D01*
X244094Y4180D01*
X243615Y4548D01*
X242897Y4845D01*
X242126Y4947D01*
X241355Y4845D01*
X240637Y4548D01*
X240158Y4180D01*
X239678Y4548D01*
X238960Y4845D01*
X238189Y4947D01*
X237418Y4845D01*
X236700Y4548D01*
X236221Y4180D01*
X235741Y4548D01*
X235023Y4845D01*
X234252Y4947D01*
X233481Y4845D01*
X232763Y4548D01*
X232283Y4180D01*
X231804Y4548D01*
X231086Y4845D01*
X230315Y4947D01*
X229544Y4845D01*
X228826Y4548D01*
X228346Y4180D01*
X227867Y4548D01*
X227149Y4845D01*
X226378Y4947D01*
X225607Y4845D01*
X224889Y4548D01*
X224410Y4180D01*
X223930Y4548D01*
X223212Y4845D01*
X222441Y4947D01*
X221670Y4845D01*
X220952Y4548D01*
X220472Y4180D01*
X219993Y4548D01*
X219275Y4845D01*
X218504Y4947D01*
X217733Y4845D01*
X217015Y4548D01*
X216535Y4180D01*
X216056Y4548D01*
X215338Y4845D01*
X214567Y4947D01*
X213796Y4845D01*
X213078Y4548D01*
X212598Y4180D01*
X212119Y4548D01*
X211401Y4845D01*
X210630Y4947D01*
X209859Y4845D01*
X209141Y4548D01*
X208661Y4180D01*
X208182Y4548D01*
X207464Y4845D01*
X206693Y4947D01*
X205922Y4845D01*
X205204Y4548D01*
X204724Y4180D01*
X204245Y4548D01*
X203527Y4845D01*
X202756Y4947D01*
X201985Y4845D01*
X201267Y4548D01*
X200787Y4180D01*
X200308Y4548D01*
X199590Y4845D01*
X198819Y4947D01*
X198280Y4876D01*
X197480Y5371D01*
Y17717D01*
X183701D01*
Y17717D01*
X182901Y17326D01*
X181941Y17617D01*
X180591Y17750D01*
X179240Y17617D01*
X177941Y17223D01*
X176744Y16583D01*
X176189Y16127D01*
X175591Y15782D01*
X174993Y16127D01*
X174437Y16583D01*
X173240Y17223D01*
X172084Y17573D01*
X171717Y18338D01*
X173508Y20129D01*
X173742Y20159D01*
X174556Y20497D01*
X175255Y21033D01*
X175792Y21732D01*
X176129Y22546D01*
X176244Y23420D01*
X176129Y24293D01*
X175792Y25107D01*
X175255Y25806D01*
X174556Y26343D01*
X173742Y26680D01*
X172868Y26795D01*
X171995Y26680D01*
X171181Y26343D01*
X170482Y25806D01*
X169945Y25107D01*
X169608Y24293D01*
X169577Y24060D01*
X166998Y21481D01*
X115522D01*
X113626Y23376D01*
X113595Y23610D01*
X113258Y24424D01*
X112721Y25123D01*
X112022Y25659D01*
X111208Y25997D01*
X111385Y26748D01*
X140581D01*
X143414Y23915D01*
X143990Y23473D01*
X144660Y23195D01*
X145379Y23101D01*
X153769D01*
X153956Y22957D01*
X154770Y22620D01*
X155644Y22505D01*
X156518Y22620D01*
X157332Y22957D01*
X158031Y23494D01*
X158567Y24193D01*
X158904Y25007D01*
X159019Y25880D01*
X158908Y26725D01*
X158903Y26892D01*
X159397Y27525D01*
X168194D01*
X168327Y27543D01*
X168462Y27534D01*
X168840Y27610D01*
X169222Y27660D01*
X169346Y27712D01*
X169478Y27738D01*
X169824Y27909D01*
X170180Y28057D01*
X170286Y28139D01*
X170407Y28199D01*
X170696Y28453D01*
X171002Y28688D01*
X171084Y28795D01*
X171185Y28884D01*
X171467Y29207D01*
X172244Y29105D01*
X173021Y29207D01*
X173303Y28884D01*
X173404Y28795D01*
X173486Y28688D01*
X173792Y28453D01*
X174081Y28199D01*
X174202Y28139D01*
X174309Y28057D01*
X174665Y27909D01*
X175010Y27738D01*
X175142Y27712D01*
X175266Y27660D01*
X175648Y27610D01*
X176026Y27534D01*
X176161Y27543D01*
X176294Y27525D01*
X274606D01*
X275634Y27660D01*
X276592Y28057D01*
X277414Y28688D01*
X278045Y29511D01*
X278442Y30468D01*
X278577Y31496D01*
Y88618D01*
X278560Y88747D01*
X278569Y88877D01*
X278493Y89259D01*
X278442Y89645D01*
X278392Y89766D01*
X278367Y89894D01*
X278194Y90244D01*
X278045Y90603D01*
X277966Y90707D01*
X277908Y90824D01*
X277651Y91117D01*
X277414Y91426D01*
X277311Y91505D01*
X277225Y91603D01*
X276901Y91820D01*
X276874Y91840D01*
X276817Y91992D01*
Y92653D01*
X276874Y92806D01*
X276901Y92826D01*
X277225Y93042D01*
X277311Y93141D01*
X277414Y93220D01*
X277651Y93529D01*
X277908Y93822D01*
X277966Y93939D01*
X278045Y94042D01*
X278194Y94402D01*
X278367Y94752D01*
X278392Y94880D01*
X278442Y95000D01*
X278493Y95386D01*
X278569Y95768D01*
X278560Y95898D01*
X278577Y96028D01*
Y117040D01*
X279242Y117485D01*
X279484Y117385D01*
X280512Y117250D01*
X280591Y117260D01*
X280669Y117250D01*
X281697Y117385D01*
X282655Y117781D01*
X283477Y118413D01*
X296104Y131039D01*
X296216Y131125D01*
X296847Y131947D01*
X297243Y132905D01*
X297379Y133933D01*
X297243Y134961D01*
X296847Y135918D01*
X296216Y136741D01*
X296208Y136746D01*
X296203Y136754D01*
X295380Y137385D01*
X294423Y137782D01*
X293395Y137917D01*
X292367Y137782D01*
X291409Y137385D01*
X290587Y136754D01*
X279316Y125483D01*
X278577Y125789D01*
Y137795D01*
X278442Y138823D01*
X278045Y139781D01*
X277414Y140603D01*
X276592Y141234D01*
X275634Y141631D01*
X274606Y141766D01*
X256924D01*
Y178278D01*
X257724Y178588D01*
X258574Y178236D01*
X259106Y178166D01*
Y182087D01*
Y186008D01*
X258574Y185938D01*
X257724Y185585D01*
X256924Y185896D01*
Y199803D01*
X256788Y200831D01*
X256392Y201789D01*
X255761Y202611D01*
X254938Y203242D01*
X253980Y203639D01*
X252953Y203774D01*
X196850D01*
X195823Y203639D01*
X194865Y203242D01*
X194043Y202611D01*
X193411Y201789D01*
X193015Y200831D01*
X192879Y199803D01*
Y141766D01*
X171808D01*
X171271Y142359D01*
X171288Y142539D01*
X171174Y143697D01*
X170837Y144810D01*
X170288Y145836D01*
X169550Y146735D01*
X168651Y147473D01*
X167625Y148022D01*
X166512Y148359D01*
X165354Y148473D01*
X164197Y148359D01*
X163084Y148022D01*
X162057Y147473D01*
X161158Y146735D01*
X160420Y145836D01*
X159872Y144810D01*
X159534Y143697D01*
X159420Y142539D01*
X159438Y142359D01*
X158901Y141766D01*
X50197D01*
X49169Y141631D01*
X48211Y141234D01*
X47389Y140603D01*
X46758Y139781D01*
X46361Y138823D01*
X46226Y137795D01*
Y31496D01*
X46361Y30468D01*
X46758Y29511D01*
X47389Y28688D01*
X48211Y28057D01*
X49169Y27660D01*
X50197Y27525D01*
X59950D01*
X60256Y26786D01*
X59399Y25929D01*
X59166Y25898D01*
X58352Y25561D01*
X57653Y25025D01*
X57116Y24326D01*
X56779Y23511D01*
X56664Y22638D01*
X56779Y21764D01*
X57116Y20950D01*
X57653Y20251D01*
X58352Y19715D01*
X59166Y19377D01*
X60039Y19263D01*
X60913Y19377D01*
X61727Y19715D01*
X62426Y20251D01*
X62963Y20950D01*
X63300Y21764D01*
X63330Y21998D01*
X68081Y26748D01*
X109284D01*
X109461Y25997D01*
X108647Y25659D01*
X107948Y25123D01*
X107412Y24424D01*
X107074Y23610D01*
X106959Y22736D01*
X107074Y21863D01*
X107412Y21049D01*
X107948Y20349D01*
X108647Y19813D01*
X109461Y19476D01*
X109695Y19445D01*
X112405Y16735D01*
X112980Y16294D01*
X113651Y16016D01*
X114370Y15921D01*
X134824D01*
X135202Y15121D01*
X134834Y14673D01*
X134194Y13476D01*
X133800Y12177D01*
X133668Y10827D01*
X133800Y9476D01*
X134194Y8177D01*
X134834Y6981D01*
X135695Y5931D01*
X135929Y5739D01*
X135881Y5363D01*
X135661Y4925D01*
X135056Y4845D01*
X134338Y4548D01*
X133858Y4180D01*
X133379Y4548D01*
X132661Y4845D01*
X131890Y4947D01*
X131119Y4845D01*
X130401Y4548D01*
X129921Y4180D01*
X129442Y4548D01*
X128724Y4845D01*
X127953Y4947D01*
X127182Y4845D01*
X126464Y4548D01*
X125984Y4180D01*
X125505Y4548D01*
X124787Y4845D01*
X124016Y4947D01*
X123245Y4845D01*
X122527Y4548D01*
X122047Y4180D01*
X121568Y4548D01*
X120850Y4845D01*
X120079Y4947D01*
X119308Y4845D01*
X118590Y4548D01*
X118110Y4180D01*
X117631Y4548D01*
X116913Y4845D01*
X116142Y4947D01*
X115371Y4845D01*
X114653Y4548D01*
X114173Y4180D01*
X113694Y4548D01*
X112976Y4845D01*
X112205Y4947D01*
X111434Y4845D01*
X110716Y4548D01*
X110236Y4180D01*
X109757Y4548D01*
X109038Y4845D01*
X108268Y4947D01*
X107497Y4845D01*
X106779Y4548D01*
X106299Y4180D01*
X105820Y4548D01*
X105102Y4845D01*
X104331Y4947D01*
X103560Y4845D01*
X102842Y4548D01*
X102362Y4180D01*
X101883Y4548D01*
X101164Y4845D01*
X100394Y4947D01*
X99623Y4845D01*
X98905Y4548D01*
X98425Y4180D01*
X97946Y4548D01*
X97228Y4845D01*
X96457Y4947D01*
X95686Y4845D01*
X94968Y4548D01*
X94488Y4180D01*
X94009Y4548D01*
X93291Y4845D01*
X92520Y4947D01*
X91749Y4845D01*
X91031Y4548D01*
X90551Y4180D01*
X90072Y4548D01*
X89354Y4845D01*
X88583Y4947D01*
X87812Y4845D01*
X87094Y4548D01*
X86614Y4180D01*
X86135Y4548D01*
X85417Y4845D01*
X84646Y4947D01*
X83875Y4845D01*
X83157Y4548D01*
X82677Y4180D01*
X82198Y4548D01*
X81480Y4845D01*
X80709Y4947D01*
X79938Y4845D01*
X79220Y4548D01*
X78740Y4180D01*
X78261Y4548D01*
X77543Y4845D01*
X76772Y4947D01*
X76001Y4845D01*
X75283Y4548D01*
X74803Y4180D01*
X74324Y4548D01*
X73606Y4845D01*
X72835Y4947D01*
X72064Y4845D01*
X71346Y4548D01*
X70866Y4180D01*
X70387Y4548D01*
X69669Y4845D01*
X68898Y4947D01*
X68127Y4845D01*
X67409Y4548D01*
X66929Y4180D01*
X66450Y4548D01*
X65731Y4845D01*
X64961Y4947D01*
X64190Y4845D01*
X63472Y4548D01*
X62992Y4180D01*
X62513Y4548D01*
X61794Y4845D01*
X61024Y4947D01*
X60253Y4845D01*
X59535Y4548D01*
X59055Y4180D01*
X58576Y4548D01*
X57857Y4845D01*
X57087Y4947D01*
X56316Y4845D01*
X55598Y4548D01*
X55118Y4180D01*
X54639Y4548D01*
X53920Y4845D01*
X53150Y4947D01*
X52379Y4845D01*
X51661Y4548D01*
X51181Y4180D01*
X50702Y4548D01*
X49983Y4845D01*
X49213Y4947D01*
X48442Y4845D01*
X47723Y4548D01*
X47244Y4180D01*
X46765Y4548D01*
X46046Y4845D01*
X45276Y4947D01*
X44505Y4845D01*
X43786Y4548D01*
X43307Y4180D01*
X42828Y4548D01*
X42109Y4845D01*
X41339Y4947D01*
X40568Y4845D01*
X39849Y4548D01*
X39370Y4180D01*
X38891Y4548D01*
X38172Y4845D01*
X37402Y4947D01*
X36631Y4845D01*
X35912Y4548D01*
X35433Y4180D01*
X34954Y4548D01*
X34235Y4845D01*
X33465Y4947D01*
X32694Y4845D01*
X31975Y4548D01*
X31496Y4180D01*
X31017Y4548D01*
X30298Y4845D01*
X29528Y4947D01*
X28757Y4845D01*
X28038Y4548D01*
X27559Y4180D01*
X27080Y4548D01*
X26361Y4845D01*
X25591Y4947D01*
X24820Y4845D01*
X24101Y4548D01*
X23622Y4180D01*
X23143Y4548D01*
X22424Y4845D01*
X21654Y4947D01*
X20883Y4845D01*
X20164Y4548D01*
X19685Y4180D01*
X19206Y4548D01*
X18487Y4845D01*
X17717Y4947D01*
X16946Y4845D01*
X16227Y4548D01*
X15748Y4180D01*
X15269Y4548D01*
X14550Y4845D01*
X13780Y4947D01*
X13009Y4845D01*
X12290Y4548D01*
X11811Y4180D01*
X11332Y4548D01*
X10613Y4845D01*
X9843Y4947D01*
X9072Y4845D01*
X8353Y4548D01*
X7874Y4180D01*
X7395Y4548D01*
X6676Y4845D01*
X5906Y4947D01*
X5584Y4904D01*
X5551Y4915D01*
X4915Y5551D01*
X4904Y5584D01*
X4947Y5906D01*
X4845Y6676D01*
X4548Y7395D01*
X4180Y7874D01*
X4548Y8353D01*
X4845Y9072D01*
X4947Y9843D01*
X4845Y10613D01*
X4548Y11332D01*
X4180Y11811D01*
X4548Y12290D01*
X4845Y13009D01*
X4947Y13780D01*
X4845Y14550D01*
X4548Y15269D01*
X4180Y15748D01*
X4548Y16227D01*
X4845Y16946D01*
X4947Y17717D01*
X4845Y18487D01*
X4548Y19206D01*
X4180Y19685D01*
X4548Y20164D01*
X4845Y20883D01*
X4947Y21654D01*
X4845Y22424D01*
X4548Y23143D01*
X4180Y23622D01*
X4548Y24101D01*
X4845Y24820D01*
X4947Y25591D01*
X4845Y26361D01*
X4548Y27080D01*
X4180Y27559D01*
X4548Y28038D01*
X4845Y28757D01*
X4947Y29528D01*
X4845Y30298D01*
X4548Y31017D01*
X4180Y31496D01*
X4548Y31975D01*
X4845Y32694D01*
X4947Y33465D01*
X4845Y34235D01*
X4548Y34954D01*
X4180Y35433D01*
X4548Y35912D01*
X4845Y36631D01*
X4947Y37402D01*
X4845Y38172D01*
X4548Y38891D01*
X4180Y39370D01*
X4548Y39849D01*
X4845Y40568D01*
X4947Y41339D01*
X4845Y42109D01*
X4548Y42828D01*
X4180Y43307D01*
X4548Y43786D01*
X4845Y44505D01*
X4947Y45276D01*
X4845Y46046D01*
X4548Y46765D01*
X4180Y47244D01*
X4548Y47723D01*
X4845Y48442D01*
X4947Y49213D01*
X4845Y49983D01*
X4548Y50702D01*
X4180Y51181D01*
X4548Y51661D01*
X4845Y52379D01*
X4947Y53150D01*
X4845Y53920D01*
X4548Y54639D01*
X4180Y55118D01*
X4548Y55598D01*
X4845Y56316D01*
X4947Y57087D01*
X4845Y57857D01*
X4548Y58576D01*
X4180Y59055D01*
X4548Y59535D01*
X4845Y60253D01*
X4947Y61024D01*
X4845Y61794D01*
X4548Y62513D01*
X4180Y62992D01*
X4548Y63472D01*
X4845Y64190D01*
X4947Y64961D01*
X4845Y65731D01*
X4548Y66450D01*
X4180Y66929D01*
X4548Y67409D01*
X4845Y68127D01*
X4947Y68898D01*
X4845Y69669D01*
X4548Y70387D01*
X4180Y70866D01*
X4548Y71346D01*
X4845Y72064D01*
X4947Y72835D01*
X4845Y73606D01*
X4548Y74324D01*
X4180Y74803D01*
X4548Y75283D01*
X4845Y76001D01*
X4947Y76772D01*
X4845Y77543D01*
X4548Y78261D01*
X4180Y78740D01*
X4548Y79220D01*
X4845Y79938D01*
X4947Y80709D01*
X4845Y81480D01*
X4548Y82198D01*
X4180Y82677D01*
X4548Y83157D01*
X4845Y83875D01*
X4947Y84646D01*
X4845Y85417D01*
X4548Y86135D01*
X4180Y86614D01*
X4548Y87094D01*
X4845Y87812D01*
X4947Y88583D01*
X4845Y89354D01*
X4548Y90072D01*
X4180Y90551D01*
X4548Y91031D01*
X4845Y91749D01*
X4947Y92520D01*
X4845Y93291D01*
X4548Y94009D01*
X4180Y94488D01*
X4548Y94968D01*
X4845Y95686D01*
X4947Y96457D01*
X4845Y97228D01*
X4548Y97946D01*
X4180Y98425D01*
X4548Y98905D01*
X4845Y99623D01*
X4947Y100394D01*
X4845Y101164D01*
X4548Y101883D01*
X4180Y102362D01*
X4548Y102842D01*
X4845Y103560D01*
X4947Y104331D01*
X4845Y105102D01*
X4548Y105820D01*
X4180Y106299D01*
X4548Y106779D01*
X4845Y107497D01*
X4947Y108268D01*
X4845Y109038D01*
X4548Y109757D01*
X4180Y110236D01*
X4548Y110716D01*
X4845Y111434D01*
X4947Y112205D01*
X4845Y112976D01*
X4548Y113694D01*
X4180Y114173D01*
X4548Y114653D01*
X4845Y115371D01*
X4947Y116142D01*
X4845Y116912D01*
X4548Y117631D01*
X4180Y118110D01*
X4548Y118590D01*
X4845Y119308D01*
X4947Y120079D01*
X4845Y120850D01*
X4548Y121568D01*
X4180Y122047D01*
X4548Y122527D01*
X4845Y123245D01*
X4947Y124016D01*
X4845Y124787D01*
X4548Y125505D01*
X4180Y125984D01*
X4548Y126464D01*
X4845Y127182D01*
X4947Y127953D01*
X4845Y128724D01*
X4548Y129442D01*
X4180Y129921D01*
X4548Y130401D01*
X4845Y131119D01*
X4947Y131890D01*
X4845Y132661D01*
X4548Y133379D01*
X4180Y133858D01*
X4548Y134338D01*
X4845Y135056D01*
X4947Y135827D01*
X4845Y136598D01*
X4548Y137316D01*
X4180Y137795D01*
X4548Y138275D01*
X4845Y138993D01*
X4947Y139764D01*
X4845Y140535D01*
X4548Y141253D01*
X4180Y141732D01*
X4548Y142212D01*
X4845Y142930D01*
X4947Y143701D01*
X4845Y144472D01*
X4548Y145190D01*
X4180Y145669D01*
X4548Y146149D01*
X4845Y146867D01*
X4947Y147638D01*
X4845Y148409D01*
X4548Y149127D01*
X4180Y149606D01*
X4548Y150086D01*
X4845Y150804D01*
X4947Y151575D01*
X4845Y152346D01*
X4548Y153064D01*
X4180Y153543D01*
X4548Y154023D01*
X4845Y154741D01*
X4947Y155512D01*
X4845Y156283D01*
X4548Y157001D01*
X4180Y157480D01*
X4548Y157960D01*
X4845Y158678D01*
X4947Y159449D01*
X4845Y160220D01*
X4548Y160938D01*
X4180Y161417D01*
X4548Y161897D01*
X4845Y162615D01*
X4947Y163386D01*
X4845Y164157D01*
X4548Y164875D01*
X4180Y165354D01*
X4548Y165834D01*
X4845Y166552D01*
X4947Y167323D01*
X4845Y168094D01*
X4548Y168812D01*
X4180Y169291D01*
X4548Y169771D01*
X4845Y170489D01*
X4947Y171260D01*
X4845Y172031D01*
X4548Y172749D01*
X4180Y173228D01*
X4548Y173708D01*
X4845Y174426D01*
X4947Y175197D01*
X4845Y175968D01*
X4548Y176686D01*
X4180Y177165D01*
X4548Y177645D01*
X4845Y178363D01*
X4947Y179134D01*
X4845Y179905D01*
X4548Y180623D01*
X4180Y181102D01*
X4548Y181582D01*
X4845Y182300D01*
X4947Y183071D01*
X4845Y183842D01*
X4548Y184560D01*
X4180Y185039D01*
X4548Y185519D01*
X4845Y186237D01*
X4947Y187008D01*
X4845Y187779D01*
X4548Y188497D01*
X4180Y188976D01*
X4548Y189456D01*
X4845Y190174D01*
X4947Y190945D01*
X4845Y191716D01*
X4548Y192434D01*
X4180Y192913D01*
X4548Y193393D01*
X4845Y194111D01*
X4947Y194882D01*
X4845Y195653D01*
X4548Y196371D01*
X4180Y196850D01*
X4548Y197330D01*
X4845Y198048D01*
X4947Y198819D01*
X4845Y199590D01*
X4548Y200308D01*
X4180Y200787D01*
X4548Y201267D01*
X4845Y201985D01*
X4947Y202756D01*
X4845Y203527D01*
X4548Y204245D01*
X4180Y204724D01*
X4548Y205204D01*
X4845Y205922D01*
X4947Y206693D01*
X4845Y207464D01*
X4548Y208182D01*
X4180Y208661D01*
X4548Y209141D01*
X4845Y209859D01*
X4947Y210630D01*
X4845Y211401D01*
X4548Y212119D01*
X4180Y212598D01*
X4548Y213078D01*
X4845Y213796D01*
X4947Y214567D01*
X4845Y215338D01*
X4548Y216056D01*
X4180Y216535D01*
X4548Y217015D01*
X4845Y217733D01*
X4947Y218504D01*
X4845Y219275D01*
X4548Y219993D01*
X4180Y220472D01*
X4548Y220952D01*
X4845Y221670D01*
X4947Y222441D01*
X4845Y223212D01*
X4548Y223930D01*
X4180Y224410D01*
X4548Y224889D01*
X4845Y225607D01*
X4947Y226378D01*
X4845Y227149D01*
X4574Y227804D01*
X4563Y227903D01*
X4758Y228368D01*
X5643Y228550D01*
X6316Y227997D01*
X8026Y227083D01*
X9882Y226520D01*
X11811Y226330D01*
X13740Y226520D01*
X15596Y227083D01*
X17306Y227997D01*
X18804Y229227D01*
X20034Y230726D01*
X20948Y232436D01*
X21511Y234291D01*
X21701Y236221D01*
X21511Y238150D01*
X20948Y240005D01*
X20034Y241715D01*
X18804Y243214D01*
X17306Y244444D01*
X15596Y245358D01*
X13740Y245921D01*
X11811Y246111D01*
X9882Y245921D01*
X8026Y245358D01*
X6316Y244444D01*
X5643Y243891D01*
X4758Y244073D01*
X4563Y244538D01*
X4574Y244637D01*
X4845Y245292D01*
X4947Y246063D01*
X4845Y246834D01*
X4548Y247552D01*
X4180Y248031D01*
X4548Y248511D01*
X4845Y249229D01*
X4947Y250000D01*
X4904Y250321D01*
X4915Y250354D01*
X5551Y250991D01*
X5584Y251001D01*
X5906Y250959D01*
X6676Y251060D01*
X7395Y251358D01*
X7874Y251726D01*
X8353Y251358D01*
X9072Y251060D01*
X9843Y250959D01*
X10613Y251060D01*
X11332Y251358D01*
X11811Y251726D01*
X12290Y251358D01*
X13009Y251060D01*
X13780Y250959D01*
X14550Y251060D01*
X15269Y251358D01*
X15748Y251726D01*
X16227Y251358D01*
X16946Y251060D01*
X17717Y250959D01*
X18487Y251060D01*
X19206Y251358D01*
X19685Y251726D01*
X20164Y251358D01*
X20883Y251060D01*
X21654Y250959D01*
X22424Y251060D01*
X23143Y251358D01*
X23622Y251726D01*
X24101Y251358D01*
X24820Y251060D01*
X25591Y250959D01*
X26361Y251060D01*
X27080Y251358D01*
X27559Y251726D01*
X28038Y251358D01*
X28757Y251060D01*
X29528Y250959D01*
X30298Y251060D01*
X31017Y251358D01*
X31496Y251726D01*
X31975Y251358D01*
X32694Y251060D01*
X33465Y250959D01*
X34235Y251060D01*
X34954Y251358D01*
X35433Y251726D01*
X35912Y251358D01*
X36631Y251060D01*
X37402Y250959D01*
X38172Y251060D01*
X38891Y251358D01*
X39370Y251726D01*
X39849Y251358D01*
X40568Y251060D01*
X41339Y250959D01*
X42109Y251060D01*
X42828Y251358D01*
X43307Y251726D01*
X43786Y251358D01*
X44505Y251060D01*
X45276Y250959D01*
X46046Y251060D01*
X46765Y251358D01*
X47244Y251726D01*
X47723Y251358D01*
X48442Y251060D01*
X49213Y250959D01*
X49983Y251060D01*
X50702Y251358D01*
X51181Y251726D01*
X51661Y251358D01*
X52379Y251060D01*
X53150Y250959D01*
X53920Y251060D01*
X54639Y251358D01*
X55118Y251726D01*
X55598Y251358D01*
X56316Y251060D01*
X57087Y250959D01*
X57857Y251060D01*
X58576Y251358D01*
X59055Y251726D01*
X59535Y251358D01*
X60253Y251060D01*
X61024Y250959D01*
X61794Y251060D01*
X62513Y251358D01*
X62992Y251726D01*
X63472Y251358D01*
X64190Y251060D01*
X64961Y250959D01*
X65731Y251060D01*
X66450Y251358D01*
X66929Y251726D01*
X67409Y251358D01*
X68127Y251060D01*
X68898Y250959D01*
X69669Y251060D01*
X70387Y251358D01*
X70866Y251726D01*
X71346Y251358D01*
X72064Y251060D01*
X72835Y250959D01*
X73606Y251060D01*
X74324Y251358D01*
X74803Y251726D01*
X75283Y251358D01*
X76001Y251060D01*
X76772Y250959D01*
X77543Y251060D01*
X78261Y251358D01*
X78740Y251726D01*
X79220Y251358D01*
X79938Y251060D01*
X80709Y250959D01*
X81480Y251060D01*
X82198Y251358D01*
X82677Y251726D01*
X83157Y251358D01*
X83875Y251060D01*
X84646Y250959D01*
X85417Y251060D01*
X86135Y251358D01*
X86614Y251726D01*
X87094Y251358D01*
X87812Y251060D01*
X88583Y250959D01*
X89354Y251060D01*
X90072Y251358D01*
X90551Y251726D01*
X91031Y251358D01*
X91749Y251060D01*
X92520Y250959D01*
X93291Y251060D01*
X94009Y251358D01*
X94488Y251726D01*
X94968Y251358D01*
X95686Y251060D01*
X96457Y250959D01*
X97228Y251060D01*
X97946Y251358D01*
X98425Y251726D01*
X98905Y251358D01*
X99623Y251060D01*
X100394Y250959D01*
X101164Y251060D01*
X101883Y251358D01*
X102362Y251726D01*
X102842Y251358D01*
X103560Y251060D01*
X104331Y250959D01*
X105102Y251060D01*
X105820Y251358D01*
X106299Y251726D01*
X106779Y251358D01*
X107497Y251060D01*
X108268Y250959D01*
X109038Y251060D01*
X109757Y251358D01*
X110236Y251726D01*
X110716Y251358D01*
X111434Y251060D01*
X112205Y250959D01*
X112976Y251060D01*
X113694Y251358D01*
X114173Y251726D01*
X114653Y251358D01*
X115371Y251060D01*
X116142Y250959D01*
X116913Y251060D01*
X117631Y251358D01*
X118110Y251726D01*
X118590Y251358D01*
X119308Y251060D01*
X120079Y250959D01*
X120850Y251060D01*
X121568Y251358D01*
X122047Y251726D01*
X122527Y251358D01*
X123245Y251060D01*
X124016Y250959D01*
X124787Y251060D01*
X125505Y251358D01*
X125984Y251726D01*
X126464Y251358D01*
X127182Y251060D01*
X127953Y250959D01*
X128724Y251060D01*
X129442Y251358D01*
X129921Y251726D01*
X130401Y251358D01*
X131119Y251060D01*
X131890Y250959D01*
X132661Y251060D01*
X133379Y251358D01*
X133858Y251726D01*
X134338Y251358D01*
X135056Y251060D01*
X135827Y250959D01*
X136598Y251060D01*
X137316Y251358D01*
X137795Y251726D01*
X138275Y251358D01*
X138993Y251060D01*
X139764Y250959D01*
X140535Y251060D01*
X141253Y251358D01*
X141732Y251726D01*
X142212Y251358D01*
X142930Y251060D01*
X143701Y250959D01*
X144472Y251060D01*
X145190Y251358D01*
X145669Y251726D01*
X146149Y251358D01*
X146867Y251060D01*
X147638Y250959D01*
X148409Y251060D01*
X149127Y251358D01*
X149606Y251726D01*
X150086Y251358D01*
X150804Y251060D01*
X151575Y250959D01*
X152346Y251060D01*
X153064Y251358D01*
X153543Y251726D01*
X154023Y251358D01*
X154741Y251060D01*
X155512Y250959D01*
X156283Y251060D01*
X157001Y251358D01*
X157480Y251726D01*
X157960Y251358D01*
X158678Y251060D01*
X159449Y250959D01*
X160220Y251060D01*
X160938Y251358D01*
X161417Y251726D01*
X161897Y251358D01*
X162615Y251060D01*
X163386Y250959D01*
X164157Y251060D01*
X164875Y251358D01*
X165354Y251726D01*
X165834Y251358D01*
X166552Y251060D01*
X167323Y250959D01*
X168094Y251060D01*
X168812Y251358D01*
X169291Y251726D01*
X169771Y251358D01*
X170489Y251060D01*
X171260Y250959D01*
X172031Y251060D01*
X172749Y251358D01*
X173228Y251726D01*
X173708Y251358D01*
X174426Y251060D01*
X175197Y250959D01*
X175968Y251060D01*
X176686Y251358D01*
X177165Y251726D01*
X177645Y251358D01*
X178363Y251060D01*
X179134Y250959D01*
X179905Y251060D01*
X180623Y251358D01*
X181102Y251726D01*
X181582Y251358D01*
X182300Y251060D01*
X183071Y250959D01*
X183842Y251060D01*
X184560Y251358D01*
X185039Y251726D01*
X185519Y251358D01*
X186237Y251060D01*
X187008Y250959D01*
X187779Y251060D01*
X188497Y251358D01*
X188976Y251726D01*
X189456Y251358D01*
X190174Y251060D01*
X190945Y250959D01*
X191716Y251060D01*
X192434Y251358D01*
X192913Y251726D01*
X193393Y251358D01*
X194111Y251060D01*
X194882Y250959D01*
X195653Y251060D01*
X196371Y251358D01*
X196850Y251726D01*
X197330Y251358D01*
X198048Y251060D01*
X198819Y250959D01*
X199590Y251060D01*
X200308Y251358D01*
X200787Y251726D01*
X201267Y251358D01*
X201985Y251060D01*
X202756Y250959D01*
X203527Y251060D01*
X204245Y251358D01*
X204724Y251726D01*
X205204Y251358D01*
X205922Y251060D01*
X206693Y250959D01*
X207464Y251060D01*
X208182Y251358D01*
X208661Y251726D01*
X209141Y251358D01*
X209859Y251060D01*
X210630Y250959D01*
X211401Y251060D01*
X212119Y251358D01*
X212598Y251726D01*
X213078Y251358D01*
X213796Y251060D01*
X214567Y250959D01*
X215338Y251060D01*
X216056Y251358D01*
X216535Y251726D01*
X217015Y251358D01*
X217733Y251060D01*
X218504Y250959D01*
X219275Y251060D01*
X219993Y251358D01*
X220472Y251726D01*
X220952Y251358D01*
X221670Y251060D01*
X222441Y250959D01*
X223212Y251060D01*
X223930Y251358D01*
X224410Y251726D01*
X224889Y251358D01*
X225607Y251060D01*
X226378Y250959D01*
X227149Y251060D01*
X227867Y251358D01*
X228346Y251726D01*
X228826Y251358D01*
X229544Y251060D01*
X230315Y250959D01*
X231086Y251060D01*
X231804Y251358D01*
X232283Y251726D01*
X232763Y251358D01*
X233481Y251060D01*
X234252Y250959D01*
X235023Y251060D01*
X235741Y251358D01*
X236221Y251726D01*
X236700Y251358D01*
X237418Y251060D01*
X238189Y250959D01*
X238960Y251060D01*
X239678Y251358D01*
X240158Y251726D01*
X240637Y251358D01*
X241355Y251060D01*
X242126Y250959D01*
X242897Y251060D01*
X243615Y251358D01*
X244094Y251726D01*
X244574Y251358D01*
X245292Y251060D01*
X246063Y250959D01*
X246834Y251060D01*
X247552Y251358D01*
X248031Y251726D01*
X248511Y251358D01*
X249229Y251060D01*
X250000Y250959D01*
X250771Y251060D01*
X251489Y251358D01*
X251969Y251726D01*
X252448Y251358D01*
X253166Y251060D01*
X253937Y250959D01*
X254708Y251060D01*
X255426Y251358D01*
X255906Y251726D01*
X256385Y251358D01*
X257103Y251060D01*
X257874Y250959D01*
X258645Y251060D01*
X259363Y251358D01*
X259842Y251726D01*
X260322Y251358D01*
X261040Y251060D01*
X261811Y250959D01*
X262582Y251060D01*
X263300Y251358D01*
X263779Y251726D01*
X264259Y251358D01*
X264977Y251060D01*
X265748Y250959D01*
X266519Y251060D01*
X267237Y251358D01*
X267717Y251726D01*
X268196Y251358D01*
X268914Y251060D01*
X269685Y250959D01*
X270456Y251060D01*
X271174Y251358D01*
X271654Y251726D01*
X272133Y251358D01*
X272851Y251060D01*
X273622Y250959D01*
X274393Y251060D01*
X275111Y251358D01*
X275590Y251726D01*
X276070Y251358D01*
X276788Y251060D01*
X277559Y250959D01*
X278330Y251060D01*
X279048Y251358D01*
X279528Y251726D01*
X280007Y251358D01*
X280725Y251060D01*
X281496Y250959D01*
X282267Y251060D01*
X282985Y251358D01*
X283465Y251726D01*
X283944Y251358D01*
X284662Y251060D01*
X285433Y250959D01*
X286204Y251060D01*
X286922Y251358D01*
X287402Y251726D01*
X287881Y251358D01*
X288599Y251060D01*
X289370Y250959D01*
X290141Y251060D01*
X290859Y251358D01*
X291339Y251726D01*
X291818Y251358D01*
X292536Y251060D01*
X293307Y250959D01*
X294078Y251060D01*
X294796Y251358D01*
X295276Y251726D01*
X295755Y251358D01*
X296473Y251060D01*
X297244Y250959D01*
X298015Y251060D01*
X298733Y251358D01*
X299213Y251726D01*
X299692Y251358D01*
X300410Y251060D01*
X301181Y250959D01*
X301952Y251060D01*
X302670Y251358D01*
X303150Y251726D01*
X303629Y251358D01*
X304347Y251060D01*
X305118Y250959D01*
X305889Y251060D01*
X306607Y251358D01*
X307087Y251726D01*
X307566Y251358D01*
X308284Y251060D01*
X309055Y250959D01*
X309826Y251060D01*
X310544Y251358D01*
X311024Y251726D01*
X311503Y251358D01*
X312221Y251060D01*
X312992Y250959D01*
X313763Y251060D01*
X314481Y251358D01*
X314961Y251726D01*
X315440Y251358D01*
X316158Y251060D01*
X316929Y250959D01*
X317700Y251060D01*
X318418Y251358D01*
X318898Y251726D01*
X319377Y251358D01*
X320095Y251060D01*
X320866Y250959D01*
X321637Y251060D01*
X322355Y251358D01*
X322835Y251726D01*
X323314Y251358D01*
X324032Y251060D01*
X324803Y250959D01*
X325574Y251060D01*
X326292Y251358D01*
X326772Y251726D01*
X327251Y251358D01*
X327969Y251060D01*
X328740Y250959D01*
X329511Y251060D01*
X330229Y251358D01*
X330709Y251726D01*
X331188Y251358D01*
X331906Y251060D01*
X332677Y250959D01*
X333448Y251060D01*
X334166Y251358D01*
X334646Y251726D01*
X335125Y251358D01*
X335843Y251060D01*
X336614Y250959D01*
X337385Y251060D01*
X338103Y251358D01*
X338583Y251726D01*
X339062Y251358D01*
X339780Y251060D01*
X340551Y250959D01*
X341322Y251060D01*
X342040Y251358D01*
X342520Y251726D01*
X342999Y251358D01*
X343717Y251060D01*
X344488Y250959D01*
X345259Y251060D01*
X345977Y251358D01*
X346457Y251726D01*
X346936Y251358D01*
X347654Y251060D01*
X348425Y250959D01*
X349196Y251060D01*
X349914Y251358D01*
X350394Y251726D01*
X350873Y251358D01*
X351591Y251060D01*
X352362Y250959D01*
X353133Y251060D01*
X353851Y251358D01*
X354331Y251726D01*
X354810Y251358D01*
X355528Y251060D01*
X356299Y250959D01*
X357070Y251060D01*
X357788Y251358D01*
X358268Y251726D01*
X358747Y251358D01*
X359465Y251060D01*
X360236Y250959D01*
X361007Y251060D01*
X361725Y251358D01*
X362205Y251726D01*
X362684Y251358D01*
X363402Y251060D01*
X364173Y250959D01*
X364944Y251060D01*
X365662Y251358D01*
X366142Y251726D01*
X366621Y251358D01*
X367339Y251060D01*
X368110Y250959D01*
X368881Y251060D01*
X369599Y251358D01*
X370079Y251726D01*
X370558Y251358D01*
X371276Y251060D01*
X372047Y250959D01*
X372818Y251060D01*
X373536Y251358D01*
X374016Y251726D01*
X374495Y251358D01*
X375213Y251060D01*
X375984Y250959D01*
X376755Y251060D01*
X377473Y251358D01*
X377953Y251726D01*
X378432Y251358D01*
X379151Y251060D01*
X379921Y250959D01*
X380692Y251060D01*
X381410Y251358D01*
X381890Y251726D01*
X382369Y251358D01*
X383087Y251060D01*
X383858Y250959D01*
X384629Y251060D01*
X385347Y251358D01*
X385827Y251726D01*
X386306Y251358D01*
D02*
G37*
G36*
X377433Y221541D02*
X378508Y221096D01*
X379475Y220449D01*
X380298Y219627D01*
X380944Y218660D01*
X381389Y217585D01*
X381616Y216444D01*
X381616Y215862D01*
X381616Y215281D01*
X381389Y214140D01*
X380944Y213065D01*
X380298Y212098D01*
X379475Y211275D01*
X378508Y210629D01*
X377433Y210184D01*
X376292Y209957D01*
X375710Y209957D01*
X359563D01*
X357283Y207677D01*
Y189961D01*
X316929D01*
Y208973D01*
X341262D01*
X354057Y221768D01*
X375710Y221768D01*
X376292Y221768D01*
X377433Y221541D01*
D02*
G37*
G36*
X252953Y183953D02*
X252716Y182765D01*
Y181408D01*
X252953Y180220D01*
Y137795D01*
X274606D01*
Y96028D01*
X273806Y95633D01*
X273639Y95762D01*
X272681Y96158D01*
X271654Y96294D01*
X270626Y96158D01*
X269668Y95762D01*
X268846Y95131D01*
X268215Y94308D01*
X267818Y93351D01*
X267683Y92323D01*
X267818Y91295D01*
X268215Y90337D01*
X268846Y89515D01*
X269668Y88884D01*
X270626Y88487D01*
X271654Y88352D01*
X272681Y88487D01*
X273639Y88884D01*
X273806Y89012D01*
X274606Y88618D01*
Y31496D01*
X176294D01*
X175595Y32296D01*
X175619Y32480D01*
X175504Y33354D01*
X175167Y34168D01*
X174631Y34867D01*
X173932Y35403D01*
X173118Y35741D01*
X172244Y35856D01*
X171370Y35741D01*
X170556Y35403D01*
X169857Y34867D01*
X169321Y34168D01*
X168984Y33354D01*
X168869Y32480D01*
X168893Y32296D01*
X168194Y31496D01*
X143694D01*
X143122Y31935D01*
X142452Y32212D01*
X141732Y32307D01*
X66929D01*
X66210Y32212D01*
X65539Y31935D01*
X64968Y31496D01*
X50197D01*
Y137795D01*
X161826D01*
X162057Y137605D01*
X163084Y137057D01*
X164197Y136719D01*
X165354Y136605D01*
X166512Y136719D01*
X167625Y137057D01*
X168651Y137605D01*
X168883Y137795D01*
X196850D01*
Y199803D01*
X252953D01*
Y183953D01*
D02*
G37*
%LPC*%
G36*
X280591Y249065D02*
X279237Y248932D01*
X277935Y248537D01*
X276735Y247896D01*
X276191Y247448D01*
X275590Y247089D01*
X274990Y247448D01*
X274446Y247896D01*
X273246Y248537D01*
X271944Y248932D01*
X270590Y249065D01*
X269237Y248932D01*
X267935Y248537D01*
X266736Y247896D01*
X265684Y247032D01*
X264821Y245981D01*
X264180Y244781D01*
X263785Y243480D01*
X263652Y242126D01*
X263785Y240772D01*
X264180Y239471D01*
X264821Y238271D01*
X265684Y237219D01*
X266736Y236356D01*
X267935Y235715D01*
X269237Y235320D01*
X270590Y235187D01*
X271944Y235320D01*
X273246Y235715D01*
X274446Y236356D01*
X274990Y236804D01*
X275590Y237163D01*
X276191Y236804D01*
X276735Y236356D01*
X277935Y235715D01*
X279237Y235320D01*
X280591Y235187D01*
X281944Y235320D01*
X283246Y235715D01*
X284446Y236356D01*
X285497Y237219D01*
X286360Y238271D01*
X287001Y239471D01*
X287396Y240772D01*
X287529Y242126D01*
X287396Y243480D01*
X287001Y244781D01*
X286360Y245981D01*
X285497Y247032D01*
X284446Y247896D01*
X283246Y248537D01*
X281944Y248932D01*
X280591Y249065D01*
D02*
G37*
G36*
X255000D02*
X253646Y248932D01*
X252345Y248537D01*
X251145Y247896D01*
X250600Y247448D01*
X250000Y247089D01*
X249400Y247448D01*
X248855Y247896D01*
X247655Y248537D01*
X246354Y248932D01*
X245000Y249065D01*
X243646Y248932D01*
X242345Y248537D01*
X241145Y247896D01*
X240093Y247032D01*
X239230Y245981D01*
X238589Y244781D01*
X238194Y243480D01*
X238061Y242126D01*
X238194Y240772D01*
X238589Y239471D01*
X239230Y238271D01*
X240093Y237219D01*
X241145Y236356D01*
X242345Y235715D01*
X243646Y235320D01*
X245000Y235187D01*
X246354Y235320D01*
X247655Y235715D01*
X248855Y236356D01*
X249400Y236804D01*
X250000Y237163D01*
X250600Y236804D01*
X251145Y236356D01*
X252345Y235715D01*
X253646Y235320D01*
X255000Y235187D01*
X256354Y235320D01*
X257655Y235715D01*
X258855Y236356D01*
X259907Y237219D01*
X260770Y238271D01*
X261411Y239471D01*
X261806Y240772D01*
X261939Y242126D01*
X261806Y243480D01*
X261411Y244781D01*
X260770Y245981D01*
X259907Y247032D01*
X258855Y247896D01*
X257655Y248537D01*
X256354Y248932D01*
X255000Y249065D01*
D02*
G37*
G36*
X229488D02*
X228134Y248932D01*
X226833Y248537D01*
X225633Y247896D01*
X225088Y247448D01*
X224488Y247089D01*
X223888Y247448D01*
X223343Y247896D01*
X222144Y248537D01*
X220842Y248932D01*
X219488Y249065D01*
X218134Y248932D01*
X216833Y248537D01*
X215633Y247896D01*
X214582Y247032D01*
X213719Y245981D01*
X213077Y244781D01*
X212683Y243480D01*
X212549Y242126D01*
X212683Y240772D01*
X213077Y239471D01*
X213719Y238271D01*
X214582Y237219D01*
X215633Y236356D01*
X216833Y235715D01*
X218134Y235320D01*
X219488Y235187D01*
X220842Y235320D01*
X222144Y235715D01*
X223343Y236356D01*
X223888Y236804D01*
X224488Y237163D01*
X225088Y236804D01*
X225633Y236356D01*
X226833Y235715D01*
X228134Y235320D01*
X229488Y235187D01*
X230842Y235320D01*
X232144Y235715D01*
X233343Y236356D01*
X234395Y237219D01*
X235258Y238271D01*
X235899Y239471D01*
X236294Y240772D01*
X236427Y242126D01*
X236294Y243480D01*
X235899Y244781D01*
X235258Y245981D01*
X234395Y247032D01*
X233343Y247896D01*
X232144Y248537D01*
X230842Y248932D01*
X229488Y249065D01*
D02*
G37*
G36*
X180734Y240829D02*
X178805Y240639D01*
X176950Y240076D01*
X175240Y239162D01*
X173741Y237932D01*
X172511Y236434D01*
X171597Y234724D01*
X171152Y233258D01*
X170316D01*
X169872Y234724D01*
X168958Y236434D01*
X167728Y237932D01*
X166229Y239162D01*
X164519Y240076D01*
X162664Y240639D01*
X160734Y240829D01*
X158805Y240639D01*
X156949Y240076D01*
X155240Y239162D01*
X153741Y237932D01*
X152511Y236434D01*
X151597Y234724D01*
X151034Y232868D01*
X150844Y230939D01*
X151034Y229009D01*
X151597Y227154D01*
X152511Y225444D01*
X153741Y223945D01*
X155240Y222715D01*
X156949Y221802D01*
X158805Y221239D01*
X160734Y221049D01*
X162664Y221239D01*
X164519Y221802D01*
X166229Y222715D01*
X167728Y223945D01*
X168958Y225444D01*
X169872Y227154D01*
X170316Y228620D01*
X171152D01*
X171597Y227154D01*
X172511Y225444D01*
X173741Y223945D01*
X175240Y222715D01*
X176950Y221802D01*
X178805Y221239D01*
X180734Y221049D01*
X182664Y221239D01*
X184519Y221802D01*
X186229Y222715D01*
X187728Y223945D01*
X188958Y225444D01*
X189872Y227154D01*
X190434Y229009D01*
X190624Y230939D01*
X190434Y232868D01*
X189872Y234724D01*
X188958Y236434D01*
X187728Y237932D01*
X186229Y239162D01*
X184519Y240076D01*
X182664Y240639D01*
X180734Y240829D01*
D02*
G37*
G36*
X112947D02*
X111018Y240639D01*
X109162Y240076D01*
X107452Y239162D01*
X105954Y237932D01*
X104724Y236434D01*
X103810Y234724D01*
X103365Y233258D01*
X102529D01*
X102085Y234724D01*
X101171Y236434D01*
X99941Y237932D01*
X98442Y239162D01*
X96732Y240076D01*
X94877Y240639D01*
X92947Y240829D01*
X91018Y240639D01*
X89162Y240076D01*
X87453Y239162D01*
X85954Y237932D01*
X84724Y236434D01*
X83810Y234724D01*
X83365Y233258D01*
X82529D01*
X82085Y234724D01*
X81170Y236434D01*
X79940Y237932D01*
X78442Y239162D01*
X76732Y240076D01*
X74877Y240639D01*
X72947Y240829D01*
X71018Y240639D01*
X69162Y240076D01*
X67453Y239162D01*
X65954Y237932D01*
X64724Y236434D01*
X63810Y234724D01*
X63247Y232868D01*
X63057Y230939D01*
X63247Y229009D01*
X63810Y227154D01*
X64724Y225444D01*
X65954Y223945D01*
X67453Y222715D01*
X69162Y221802D01*
X71018Y221239D01*
X72947Y221049D01*
X74877Y221239D01*
X76732Y221802D01*
X78442Y222715D01*
X79940Y223945D01*
X81170Y225444D01*
X82085Y227154D01*
X82529Y228620D01*
X83365D01*
X83810Y227154D01*
X84724Y225444D01*
X85954Y223945D01*
X87453Y222715D01*
X89162Y221802D01*
X91018Y221239D01*
X92947Y221049D01*
X94877Y221239D01*
X96732Y221802D01*
X98442Y222715D01*
X99941Y223945D01*
X101171Y225444D01*
X102085Y227154D01*
X102529Y228620D01*
X103365D01*
X103810Y227154D01*
X104724Y225444D01*
X105954Y223945D01*
X107452Y222715D01*
X109162Y221802D01*
X111018Y221239D01*
X112947Y221049D01*
X114877Y221239D01*
X116732Y221802D01*
X118442Y222715D01*
X119940Y223945D01*
X121170Y225444D01*
X122084Y227154D01*
X122647Y229009D01*
X122837Y230939D01*
X122647Y232868D01*
X122084Y234724D01*
X121170Y236434D01*
X119940Y237932D01*
X118442Y239162D01*
X116732Y240076D01*
X114877Y240639D01*
X112947Y240829D01*
D02*
G37*
G36*
X147640Y237844D02*
X141234D01*
Y231439D01*
X147640D01*
Y237844D01*
D02*
G37*
G36*
X140234D02*
X133829D01*
Y231439D01*
X140234D01*
Y237844D01*
D02*
G37*
G36*
X59853D02*
X53447D01*
Y231439D01*
X59853D01*
Y237844D01*
D02*
G37*
G36*
X52447D02*
X46042D01*
Y231439D01*
X52447D01*
Y237844D01*
D02*
G37*
G36*
X147640Y230439D02*
X141234D01*
Y224033D01*
X147640D01*
Y230439D01*
D02*
G37*
G36*
X140234D02*
X133829D01*
Y224033D01*
X140234D01*
Y230439D01*
D02*
G37*
G36*
X59853D02*
X53447D01*
Y224033D01*
X59853D01*
Y230439D01*
D02*
G37*
G36*
X52447D02*
X46042D01*
Y224033D01*
X52447D01*
Y230439D01*
D02*
G37*
G36*
X298228Y228983D02*
X297355Y228868D01*
X296541Y228531D01*
X295842Y227994D01*
X295305Y227295D01*
X294968Y226481D01*
X294853Y225608D01*
X294968Y224734D01*
X295305Y223920D01*
X295842Y223221D01*
X296541Y222685D01*
X297355Y222347D01*
X298228Y222233D01*
X299102Y222347D01*
X299916Y222685D01*
X300615Y223221D01*
X301151Y223920D01*
X301489Y224734D01*
X301604Y225608D01*
X301489Y226481D01*
X301151Y227295D01*
X300615Y227994D01*
X299916Y228531D01*
X299102Y228868D01*
X298228Y228983D01*
D02*
G37*
G36*
X104874Y222470D02*
X104001Y222355D01*
X103187Y222018D01*
X102488Y221481D01*
X101951Y220782D01*
X101614Y219968D01*
X101499Y219094D01*
X101614Y218221D01*
X101951Y217407D01*
X102488Y216708D01*
X103187Y216171D01*
X104001Y215834D01*
X104874Y215719D01*
X105748Y215834D01*
X106562Y216171D01*
X107261Y216708D01*
X107798Y217407D01*
X108135Y218221D01*
X108250Y219094D01*
X108135Y219968D01*
X107798Y220782D01*
X107261Y221481D01*
X106562Y222018D01*
X105748Y222355D01*
X104874Y222470D01*
D02*
G37*
G36*
X290354Y212251D02*
X289481Y212136D01*
X288667Y211799D01*
X287968Y211262D01*
X287431Y210563D01*
X287094Y209749D01*
X286979Y208875D01*
X287094Y208002D01*
X287431Y207188D01*
X287968Y206489D01*
X288667Y205952D01*
X289481Y205615D01*
X290354Y205500D01*
X291228Y205615D01*
X292042Y205952D01*
X292741Y206489D01*
X293277Y207188D01*
X293615Y208002D01*
X293730Y208875D01*
X293615Y209749D01*
X293277Y210563D01*
X292741Y211262D01*
X292042Y211799D01*
X291228Y212136D01*
X290354Y212251D01*
D02*
G37*
G36*
X233268Y212037D02*
X232394Y211922D01*
X231580Y211584D01*
X230881Y211048D01*
X230345Y210349D01*
X230007Y209535D01*
X229892Y208661D01*
X230007Y207788D01*
X230345Y206974D01*
X230881Y206275D01*
X231580Y205738D01*
X232394Y205401D01*
X233268Y205286D01*
X234141Y205401D01*
X234955Y205738D01*
X235654Y206275D01*
X236191Y206974D01*
X236528Y207788D01*
X236643Y208661D01*
X236528Y209535D01*
X236191Y210349D01*
X235654Y211048D01*
X234955Y211584D01*
X234141Y211922D01*
X233268Y212037D01*
D02*
G37*
G36*
X44528Y190383D02*
X43654Y190268D01*
X42840Y189931D01*
X42141Y189395D01*
X41604Y188696D01*
X41267Y187882D01*
X41152Y187008D01*
X41267Y186134D01*
X41604Y185320D01*
X42141Y184621D01*
X42840Y184085D01*
X43654Y183748D01*
X44528Y183633D01*
X45401Y183748D01*
X46215Y184085D01*
X46914Y184621D01*
X47451Y185320D01*
X47788Y186134D01*
X47903Y187008D01*
X47788Y187882D01*
X47451Y188696D01*
X46914Y189395D01*
X46215Y189931D01*
X45401Y190268D01*
X44528Y190383D01*
D02*
G37*
G36*
X29528D02*
X28654Y190268D01*
X27840Y189931D01*
X27141Y189395D01*
X26604Y188696D01*
X26267Y187882D01*
X26152Y187008D01*
X26267Y186134D01*
X26604Y185320D01*
X27141Y184621D01*
X27840Y184085D01*
X28654Y183748D01*
X29528Y183633D01*
X30401Y183748D01*
X31215Y184085D01*
X31914Y184621D01*
X32451Y185320D01*
X32788Y186134D01*
X32903Y187008D01*
X32788Y187882D01*
X32451Y188696D01*
X31914Y189395D01*
X31215Y189931D01*
X30401Y190268D01*
X29528Y190383D01*
D02*
G37*
G36*
X260106Y186008D02*
Y182587D01*
X263527D01*
X263457Y183118D01*
X263059Y184080D01*
X262425Y184906D01*
X261600Y185539D01*
X260638Y185938D01*
X260106Y186008D01*
D02*
G37*
G36*
X263527Y181587D02*
X260106D01*
Y178166D01*
X260638Y178236D01*
X261600Y178634D01*
X262425Y179268D01*
X263059Y180093D01*
X263457Y181055D01*
X263527Y181587D01*
D02*
G37*
G36*
X289606Y189010D02*
X288256Y188877D01*
X286957Y188483D01*
X285760Y187843D01*
X284711Y186982D01*
X283850Y185933D01*
X283210Y184736D01*
X282816Y183437D01*
X282683Y182087D01*
X282816Y180736D01*
X283210Y179437D01*
X283850Y178240D01*
X284711Y177191D01*
X285760Y176330D01*
X286957Y175690D01*
X288256Y175296D01*
X289606Y175163D01*
X290957Y175296D01*
X292256Y175690D01*
X293453Y176330D01*
X294502Y177191D01*
X295363Y178240D01*
X296002Y179437D01*
X296396Y180736D01*
X296529Y182087D01*
X296396Y183437D01*
X296002Y184736D01*
X295363Y185933D01*
X294502Y186982D01*
X293453Y187843D01*
X292256Y188483D01*
X290957Y188877D01*
X289606Y189010D01*
D02*
G37*
G36*
X88504Y178572D02*
X87630Y178457D01*
X86816Y178120D01*
X86117Y177584D01*
X85581Y176884D01*
X85244Y176070D01*
X85129Y175197D01*
X85244Y174323D01*
X85581Y173509D01*
X86117Y172810D01*
X86816Y172274D01*
X87630Y171937D01*
X88504Y171821D01*
X89377Y171937D01*
X90192Y172274D01*
X90891Y172810D01*
X91427Y173509D01*
X91764Y174323D01*
X91879Y175197D01*
X91764Y176070D01*
X91427Y176884D01*
X90891Y177584D01*
X90192Y178120D01*
X89377Y178457D01*
X88504Y178572D01*
D02*
G37*
G36*
X62008D02*
X61134Y178457D01*
X60320Y178120D01*
X59621Y177584D01*
X59085Y176884D01*
X58748Y176070D01*
X58632Y175197D01*
X58748Y174323D01*
X59085Y173509D01*
X59621Y172810D01*
X60320Y172274D01*
X61134Y171937D01*
X62008Y171821D01*
X62881Y171937D01*
X63696Y172274D01*
X64395Y172810D01*
X64931Y173509D01*
X65268Y174323D01*
X65383Y175197D01*
X65268Y176070D01*
X64931Y176884D01*
X64395Y177584D01*
X63696Y178120D01*
X62881Y178457D01*
X62008Y178572D01*
D02*
G37*
G36*
X115079Y179168D02*
X114051Y179033D01*
X113093Y178636D01*
X112271Y178005D01*
X111640Y177182D01*
X111243Y176225D01*
X111108Y175197D01*
X111243Y174169D01*
X111640Y173211D01*
X112271Y172389D01*
X113093Y171758D01*
X114051Y171361D01*
X115079Y171226D01*
X116106Y171361D01*
X117064Y171758D01*
X117887Y172389D01*
X118518Y173211D01*
X118914Y174169D01*
X119050Y175197D01*
X118914Y176225D01*
X118518Y177182D01*
X117887Y178005D01*
X117064Y178636D01*
X116106Y179033D01*
X115079Y179168D01*
D02*
G37*
G36*
X165354Y178555D02*
X164081Y178430D01*
X162856Y178058D01*
X161728Y177455D01*
X160739Y176643D01*
X159927Y175654D01*
X159324Y174525D01*
X158952Y173301D01*
X158827Y172028D01*
X158952Y170754D01*
X159324Y169530D01*
X159927Y168401D01*
X160739Y167412D01*
X161728Y166600D01*
X162856Y165997D01*
X164081Y165626D01*
X165354Y165500D01*
X166628Y165626D01*
X167852Y165997D01*
X168981Y166600D01*
X169970Y167412D01*
X170782Y168401D01*
X171385Y169530D01*
X171756Y170754D01*
X171882Y172028D01*
X171756Y173301D01*
X171385Y174525D01*
X170782Y175654D01*
X169970Y176643D01*
X168981Y177455D01*
X167852Y178058D01*
X166628Y178430D01*
X165354Y178555D01*
D02*
G37*
G36*
X338583Y168340D02*
X337232Y168207D01*
X335933Y167813D01*
X334736Y167174D01*
X333687Y166313D01*
X332826Y165264D01*
X332187Y164067D01*
X331793Y162768D01*
X331660Y161417D01*
X331793Y160067D01*
X332187Y158768D01*
X332826Y157571D01*
X333687Y156522D01*
X334736Y155661D01*
X335933Y155021D01*
X337232Y154627D01*
X338583Y154494D01*
X339933Y154627D01*
X341232Y155021D01*
X342429Y155661D01*
X343478Y156522D01*
X344339Y157571D01*
X344979Y158768D01*
X345373Y160067D01*
X345506Y161417D01*
X345373Y162768D01*
X344979Y164067D01*
X344339Y165264D01*
X343478Y166313D01*
X342429Y167174D01*
X341232Y167813D01*
X339933Y168207D01*
X338583Y168340D01*
D02*
G37*
G36*
X318898D02*
X317547Y168207D01*
X316248Y167813D01*
X315051Y167174D01*
X314002Y166313D01*
X313141Y165264D01*
X312502Y164067D01*
X312108Y162768D01*
X311975Y161417D01*
X312108Y160067D01*
X312502Y158768D01*
X313141Y157571D01*
X314002Y156522D01*
X315051Y155661D01*
X316248Y155021D01*
X317547Y154627D01*
X318898Y154494D01*
X320248Y154627D01*
X321547Y155021D01*
X322744Y155661D01*
X323793Y156522D01*
X324654Y157571D01*
X325294Y158768D01*
X325688Y160067D01*
X325821Y161417D01*
X325688Y162768D01*
X325294Y164067D01*
X324654Y165264D01*
X323793Y166313D01*
X322744Y167174D01*
X321547Y167813D01*
X320248Y168207D01*
X318898Y168340D01*
D02*
G37*
G36*
X30512Y152982D02*
X29638Y152867D01*
X28824Y152529D01*
X28125Y151993D01*
X27589Y151294D01*
X27251Y150480D01*
X27136Y149606D01*
X27251Y148733D01*
X27589Y147919D01*
X28125Y147220D01*
X28824Y146683D01*
X29638Y146346D01*
X30512Y146231D01*
X31385Y146346D01*
X32199Y146683D01*
X32899Y147220D01*
X33435Y147919D01*
X33772Y148733D01*
X33887Y149606D01*
X33772Y150480D01*
X33435Y151294D01*
X32899Y151993D01*
X32199Y152529D01*
X31385Y152867D01*
X30512Y152982D01*
D02*
G37*
G36*
X269685Y151013D02*
X268811Y150898D01*
X267997Y150561D01*
X267298Y150024D01*
X266762Y149326D01*
X266425Y148511D01*
X266310Y147638D01*
X266425Y146764D01*
X266762Y145950D01*
X267298Y145251D01*
X267997Y144715D01*
X268811Y144378D01*
X269685Y144263D01*
X270559Y144378D01*
X271373Y144715D01*
X272072Y145251D01*
X272608Y145950D01*
X272945Y146764D01*
X273060Y147638D01*
X272945Y148511D01*
X272608Y149326D01*
X272072Y150024D01*
X271373Y150561D01*
X270559Y150898D01*
X269685Y151013D01*
D02*
G37*
G36*
X319398Y37386D02*
Y33965D01*
X322819D01*
X322749Y34496D01*
X322350Y35458D01*
X321717Y36284D01*
X320891Y36917D01*
X319930Y37316D01*
X319398Y37386D01*
D02*
G37*
G36*
X318398D02*
X317866Y37316D01*
X316904Y36917D01*
X316078Y36284D01*
X315445Y35458D01*
X315047Y34496D01*
X314977Y33965D01*
X318398D01*
Y37386D01*
D02*
G37*
G36*
X322819Y32965D02*
X319398D01*
Y29544D01*
X319930Y29614D01*
X320891Y30012D01*
X321717Y30645D01*
X322350Y31471D01*
X322749Y32433D01*
X322819Y32965D01*
D02*
G37*
G36*
X318398D02*
X314977D01*
X315047Y32433D01*
X315445Y31471D01*
X316078Y30645D01*
X316904Y30012D01*
X317866Y29614D01*
X318398Y29544D01*
Y32965D01*
D02*
G37*
G36*
X338583Y40388D02*
X337232Y40255D01*
X335933Y39861D01*
X334736Y39221D01*
X333687Y38360D01*
X332826Y37311D01*
X332187Y36114D01*
X331793Y34815D01*
X331660Y33465D01*
X331793Y32114D01*
X332187Y30815D01*
X332826Y29618D01*
X333687Y28569D01*
X334736Y27708D01*
X335933Y27068D01*
X337232Y26675D01*
X338583Y26542D01*
X339933Y26675D01*
X341232Y27068D01*
X342429Y27708D01*
X343478Y28569D01*
X344339Y29618D01*
X344979Y30815D01*
X345373Y32114D01*
X345506Y33465D01*
X345373Y34815D01*
X344979Y36114D01*
X344339Y37311D01*
X343478Y38360D01*
X342429Y39221D01*
X341232Y39861D01*
X339933Y40255D01*
X338583Y40388D01*
D02*
G37*
G36*
X225441Y197441D02*
X224559D01*
X223708Y197213D01*
X222945Y196772D01*
X222322Y196149D01*
X221882Y195386D01*
X221654Y194535D01*
Y193654D01*
X221882Y192803D01*
X222322Y192040D01*
X222945Y191417D01*
X223189Y191276D01*
X223076Y190417D01*
X222724Y190323D01*
X221961Y189883D01*
X221338Y189260D01*
X220897Y188496D01*
X220669Y187645D01*
Y186764D01*
X220897Y185913D01*
X221338Y185150D01*
X221961Y184527D01*
X222724Y184086D01*
X223575Y183858D01*
X224456D01*
X225307Y184086D01*
X226070Y184527D01*
X226694Y185150D01*
X227134Y185913D01*
X227362Y186764D01*
Y187645D01*
X227134Y188496D01*
X226694Y189260D01*
X226070Y189883D01*
X225827Y190023D01*
X225940Y190882D01*
X226292Y190976D01*
X227055Y191417D01*
X227678Y192040D01*
X228118Y192803D01*
X228346Y193654D01*
Y194535D01*
X228118Y195386D01*
X227678Y196149D01*
X227055Y196772D01*
X226292Y197213D01*
X225441Y197441D01*
D02*
G37*
G36*
X241582Y175591D02*
X240701D01*
X239850Y175363D01*
X239087Y174922D01*
X238464Y174299D01*
X238023Y173536D01*
X237795Y172685D01*
Y171803D01*
X238023Y170952D01*
X238464Y170189D01*
X239087Y169566D01*
X239850Y169126D01*
X240202Y169031D01*
X240315Y168173D01*
X240071Y168032D01*
X239448Y167409D01*
X239008Y166646D01*
X238779Y165795D01*
Y164914D01*
X239008Y164063D01*
X239448Y163300D01*
X240071Y162677D01*
X240834Y162236D01*
X241685Y162008D01*
X242567D01*
X243418Y162236D01*
X244181Y162677D01*
X244804Y163300D01*
X245244Y164063D01*
X245472Y164914D01*
Y165795D01*
X245244Y166646D01*
X244804Y167409D01*
X244181Y168032D01*
X243418Y168473D01*
X243066Y168567D01*
X242953Y169425D01*
X243197Y169566D01*
X243820Y170189D01*
X244260Y170952D01*
X244488Y171803D01*
Y172685D01*
X244260Y173536D01*
X243820Y174299D01*
X243197Y174922D01*
X242433Y175363D01*
X241582Y175591D01*
D02*
G37*
G36*
X228197Y156890D02*
X227315D01*
X226464Y156662D01*
X225701Y156221D01*
X225078Y155598D01*
X224638Y154835D01*
X224409Y153984D01*
Y153103D01*
X224638Y152252D01*
X225078Y151489D01*
X225701Y150865D01*
X226464Y150425D01*
X227315Y150197D01*
X228197D01*
X229048Y150425D01*
X229811Y150865D01*
X230434Y151489D01*
X230874Y152252D01*
X231102Y153103D01*
Y153984D01*
X230874Y154835D01*
X230434Y155598D01*
X229811Y156221D01*
X229048Y156662D01*
X228197Y156890D01*
D02*
G37*
G36*
X230460Y140354D02*
X229578D01*
X228727Y140126D01*
X227964Y139686D01*
X227341Y139063D01*
X226901Y138300D01*
X226673Y137448D01*
Y137334D01*
X226547Y137332D01*
X226668Y137194D01*
X226644Y137008D01*
X226759Y136134D01*
X227096Y135320D01*
X227632Y134621D01*
X228331Y134085D01*
X229146Y133748D01*
X230019Y133633D01*
X230893Y133748D01*
X231707Y134085D01*
X232324Y134558D01*
X232406Y134621D01*
X233302Y134475D01*
X233341Y134424D01*
X234040Y133888D01*
X234854Y133551D01*
X235728Y133436D01*
X236601Y133551D01*
X237415Y133888D01*
X238115Y134424D01*
X238651Y135123D01*
X238988Y135937D01*
X239103Y136811D01*
X239079Y136995D01*
X239573Y137560D01*
X238994Y137550D01*
X238846Y138103D01*
X238406Y138866D01*
X237783Y139489D01*
X237019Y139929D01*
X236168Y140157D01*
X235287D01*
X234436Y139929D01*
X233673Y139489D01*
X233484Y139300D01*
X232761Y139082D01*
X232435Y139325D01*
X232074Y139686D01*
X231311Y140126D01*
X230460Y140354D01*
D02*
G37*
G36*
X268701Y132908D02*
X267673Y132773D01*
X266715Y132376D01*
X265893Y131745D01*
X265262Y130922D01*
X264865Y129965D01*
X264730Y128937D01*
X264865Y127909D01*
X265262Y126952D01*
X265893Y126129D01*
X266715Y125498D01*
X267673Y125101D01*
X268701Y124966D01*
X269728Y125101D01*
X270686Y125498D01*
X271509Y126129D01*
X272140Y126952D01*
X272536Y127909D01*
X272672Y128937D01*
X272536Y129965D01*
X272140Y130922D01*
X271509Y131745D01*
X270686Y132376D01*
X269728Y132773D01*
X268701Y132908D01*
D02*
G37*
G36*
X102829Y130535D02*
X101955Y130420D01*
X101141Y130083D01*
X100442Y129546D01*
X99906Y128847D01*
X99569Y128033D01*
X99454Y127160D01*
X99569Y126286D01*
X99906Y125472D01*
X100442Y124773D01*
X101141Y124237D01*
X101955Y123899D01*
X102829Y123784D01*
X103702Y123899D01*
X104517Y124237D01*
X105216Y124773D01*
X105752Y125472D01*
X106089Y126286D01*
X106204Y127160D01*
X106089Y128033D01*
X105752Y128847D01*
X105216Y129546D01*
X104517Y130083D01*
X103702Y130420D01*
X102829Y130535D01*
D02*
G37*
G36*
X262874Y124405D02*
X261846Y124270D01*
X260889Y123873D01*
X260066Y123242D01*
X259435Y122420D01*
X259038Y121462D01*
X258903Y120434D01*
X259038Y119406D01*
X259435Y118449D01*
X260066Y117626D01*
X260889Y116995D01*
X261846Y116599D01*
X262874Y116463D01*
X263902Y116599D01*
X264860Y116995D01*
X265682Y117626D01*
X266313Y118449D01*
X266710Y119406D01*
X266845Y120434D01*
X266710Y121462D01*
X266313Y122420D01*
X265682Y123242D01*
X264860Y123873D01*
X263902Y124270D01*
X262874Y124405D01*
D02*
G37*
G36*
X243110Y122470D02*
X242237Y122355D01*
X241423Y122018D01*
X240723Y121481D01*
X240187Y120782D01*
X239850Y119968D01*
X239735Y119095D01*
X239850Y118221D01*
X240187Y117407D01*
X240723Y116708D01*
X241423Y116171D01*
X242237Y115834D01*
X242768Y115764D01*
X242688Y115157D01*
X242803Y114284D01*
X243140Y113470D01*
X243676Y112771D01*
X244375Y112234D01*
X245189Y111897D01*
X246063Y111782D01*
X246937Y111897D01*
X247751Y112234D01*
X248450Y112771D01*
X248986Y113470D01*
X249323Y114284D01*
X249438Y115157D01*
X249323Y116031D01*
X248986Y116845D01*
X248450Y117544D01*
X247751Y118081D01*
X246937Y118418D01*
X246406Y118488D01*
X246486Y119095D01*
X246371Y119968D01*
X246033Y120782D01*
X245497Y121481D01*
X244798Y122018D01*
X243984Y122355D01*
X243110Y122470D01*
D02*
G37*
G36*
X182835Y118297D02*
X181961Y118182D01*
X181147Y117844D01*
X180448Y117308D01*
X179911Y116609D01*
X179574Y115795D01*
X179459Y114921D01*
X179574Y114048D01*
X179911Y113234D01*
X180448Y112534D01*
X181147Y111998D01*
X181961Y111661D01*
X182835Y111546D01*
X183708Y111661D01*
X184522Y111998D01*
X185221Y112534D01*
X185758Y113234D01*
X186095Y114048D01*
X186210Y114921D01*
X186095Y115795D01*
X185758Y116609D01*
X185221Y117308D01*
X184522Y117844D01*
X183708Y118182D01*
X182835Y118297D01*
D02*
G37*
G36*
X101221Y112470D02*
X100347Y112355D01*
X99533Y112018D01*
X98834Y111481D01*
X98297Y110782D01*
X97960Y109968D01*
X97845Y109095D01*
X97960Y108221D01*
X98297Y107407D01*
X98834Y106708D01*
X99533Y106171D01*
X100347Y105834D01*
X101221Y105719D01*
X102094Y105834D01*
X102908Y106171D01*
X103607Y106708D01*
X104144Y107407D01*
X104481Y108221D01*
X104596Y109095D01*
X104481Y109968D01*
X104144Y110782D01*
X103607Y111481D01*
X102908Y112018D01*
X102094Y112355D01*
X101221Y112470D01*
D02*
G37*
G36*
X211614Y109675D02*
X210741Y109560D01*
X209927Y109222D01*
X209227Y108686D01*
X208691Y107987D01*
X208354Y107173D01*
X208239Y106299D01*
X208354Y105426D01*
X208691Y104612D01*
X209227Y103912D01*
X209927Y103376D01*
X210741Y103039D01*
X211614Y102924D01*
X212488Y103039D01*
X213302Y103376D01*
X214001Y103912D01*
X214537Y104612D01*
X214875Y105426D01*
X214989Y106299D01*
X214875Y107173D01*
X214537Y107987D01*
X214001Y108686D01*
X213302Y109222D01*
X212488Y109560D01*
X211614Y109675D01*
D02*
G37*
G36*
X231299Y107706D02*
X230426Y107591D01*
X229611Y107254D01*
X228912Y106717D01*
X228376Y106018D01*
X228039Y105204D01*
X227924Y104331D01*
X228039Y103457D01*
X228376Y102643D01*
X228912Y101944D01*
X229611Y101408D01*
X229826Y101319D01*
Y100453D01*
X229611Y100364D01*
X228912Y99828D01*
X228376Y99129D01*
X228039Y98315D01*
X227924Y97441D01*
X228039Y96567D01*
X228376Y95753D01*
X228912Y95054D01*
X229611Y94518D01*
X230426Y94181D01*
X231299Y94066D01*
X232173Y94181D01*
X232987Y94518D01*
X233686Y95054D01*
X234222Y95753D01*
X234559Y96567D01*
X234675Y97441D01*
X234559Y98315D01*
X234222Y99129D01*
X233686Y99828D01*
X232987Y100364D01*
X232772Y100453D01*
Y101319D01*
X232987Y101408D01*
X233686Y101944D01*
X234222Y102643D01*
X234559Y103457D01*
X234675Y104331D01*
X234559Y105204D01*
X234222Y106018D01*
X233686Y106717D01*
X232987Y107254D01*
X232173Y107591D01*
X231299Y107706D01*
D02*
G37*
G36*
X97441Y100816D02*
X96567Y100701D01*
X95753Y100364D01*
X95054Y99828D01*
X94518Y99129D01*
X94181Y98314D01*
X94066Y97441D01*
X94181Y96567D01*
X94518Y95753D01*
X95054Y95054D01*
X95135Y94992D01*
Y93984D01*
X95054Y93922D01*
X94518Y93223D01*
X94181Y92409D01*
X94066Y91535D01*
X94181Y90662D01*
X94518Y89848D01*
X95054Y89149D01*
X95753Y88612D01*
X96567Y88275D01*
X97441Y88160D01*
X98314Y88275D01*
X99129Y88612D01*
X99828Y89149D01*
X100364Y89848D01*
X100701Y90662D01*
X100816Y91535D01*
X100701Y92409D01*
X100364Y93223D01*
X99828Y93922D01*
X99747Y93984D01*
Y94992D01*
X99828Y95054D01*
X100364Y95753D01*
X100701Y96567D01*
X100816Y97441D01*
X100701Y98314D01*
X100364Y99129D01*
X99828Y99828D01*
X99129Y100364D01*
X98314Y100701D01*
X97441Y100816D01*
D02*
G37*
G36*
X68898Y94911D02*
X68024Y94796D01*
X67210Y94459D01*
X66511Y93922D01*
X65974Y93223D01*
X65637Y92409D01*
X65522Y91535D01*
X65637Y90662D01*
X65974Y89848D01*
X66511Y89149D01*
X67210Y88612D01*
X67424Y88524D01*
Y87658D01*
X67210Y87569D01*
X66511Y87032D01*
X65974Y86333D01*
X65637Y85519D01*
X65522Y84646D01*
X65637Y83772D01*
X65974Y82958D01*
X66511Y82259D01*
X67210Y81723D01*
X68024Y81385D01*
X68898Y81270D01*
X69771Y81385D01*
X70585Y81723D01*
X71284Y82259D01*
X71821Y82958D01*
X72158Y83772D01*
X72273Y84646D01*
X72158Y85519D01*
X71821Y86333D01*
X71284Y87032D01*
X70585Y87569D01*
X70371Y87658D01*
Y88524D01*
X70585Y88612D01*
X71284Y89149D01*
X71821Y89848D01*
X72158Y90662D01*
X72273Y91535D01*
X72158Y92409D01*
X71821Y93223D01*
X71284Y93922D01*
X70585Y94459D01*
X69771Y94796D01*
X68898Y94911D01*
D02*
G37*
G36*
X97441Y86053D02*
X96567Y85938D01*
X95753Y85600D01*
X95054Y85064D01*
X94518Y84365D01*
X94181Y83551D01*
X94066Y82677D01*
X94181Y81804D01*
X94518Y80989D01*
X95054Y80290D01*
X95135Y80229D01*
Y79220D01*
X95054Y79158D01*
X94518Y78459D01*
X94181Y77645D01*
X94066Y76772D01*
X94181Y75898D01*
X94518Y75084D01*
X95054Y74385D01*
X95753Y73848D01*
X96567Y73511D01*
X97441Y73396D01*
X98314Y73511D01*
X99129Y73848D01*
X99828Y74385D01*
X100364Y75084D01*
X100701Y75898D01*
X100816Y76772D01*
X100701Y77645D01*
X100364Y78459D01*
X99828Y79158D01*
X99747Y79220D01*
Y80229D01*
X99828Y80290D01*
X100364Y80989D01*
X100701Y81804D01*
X100816Y82677D01*
X100701Y83551D01*
X100364Y84365D01*
X99828Y85064D01*
X99129Y85600D01*
X98314Y85938D01*
X97441Y86053D01*
D02*
G37*
G36*
X68898Y70305D02*
X68024Y70189D01*
X67210Y69852D01*
X66511Y69316D01*
X65974Y68617D01*
X65637Y67803D01*
X65522Y66929D01*
X65637Y66056D01*
X65974Y65241D01*
X66511Y64542D01*
X67210Y64006D01*
X68024Y63669D01*
X68898Y63554D01*
X69771Y63669D01*
X70585Y64006D01*
X71284Y64542D01*
X71821Y65241D01*
X72158Y66056D01*
X72273Y66929D01*
X72158Y67803D01*
X71821Y68617D01*
X71284Y69316D01*
X70585Y69852D01*
X69771Y70189D01*
X68898Y70305D01*
D02*
G37*
G36*
X231299Y66368D02*
X230426Y66252D01*
X229611Y65915D01*
X228912Y65379D01*
X228376Y64680D01*
X228039Y63866D01*
X227924Y62992D01*
X228039Y62119D01*
X228376Y61304D01*
X228912Y60605D01*
X229611Y60069D01*
X230426Y59732D01*
X231299Y59617D01*
X232173Y59732D01*
X232987Y60069D01*
X233686Y60605D01*
X234222Y61304D01*
X234559Y62119D01*
X234675Y62992D01*
X234559Y63866D01*
X234222Y64680D01*
X233686Y65379D01*
X232987Y65915D01*
X232173Y66252D01*
X231299Y66368D01*
D02*
G37*
G36*
X79724Y63907D02*
X78851Y63792D01*
X78037Y63455D01*
X77338Y62918D01*
X76801Y62219D01*
X76464Y61405D01*
X76349Y60532D01*
X76464Y59658D01*
X76801Y58844D01*
X77338Y58145D01*
X78037Y57608D01*
X78851Y57271D01*
X79724Y57156D01*
X80598Y57271D01*
X81412Y57608D01*
X82111Y58145D01*
X82648Y58844D01*
X82985Y59658D01*
X83100Y60532D01*
X82985Y61405D01*
X82648Y62219D01*
X82111Y62918D01*
X81412Y63455D01*
X80598Y63792D01*
X79724Y63907D01*
D02*
G37*
G36*
X124980Y62470D02*
X124107Y62355D01*
X123293Y62018D01*
X122594Y61481D01*
X122057Y60782D01*
X121720Y59968D01*
X121605Y59095D01*
X121720Y58221D01*
X122057Y57407D01*
X122216Y57200D01*
X122534Y56595D01*
X122216Y55989D01*
X122057Y55782D01*
X121720Y54968D01*
X121605Y54094D01*
X121720Y53221D01*
X122057Y52407D01*
X122594Y51708D01*
X123293Y51171D01*
X124107Y50834D01*
X124980Y50719D01*
X125854Y50834D01*
X126668Y51171D01*
X127367Y51708D01*
X127903Y52407D01*
X128241Y53221D01*
X128356Y54094D01*
X128241Y54968D01*
X127903Y55782D01*
X127745Y55989D01*
X127427Y56595D01*
X127745Y57200D01*
X127903Y57407D01*
X128241Y58221D01*
X128356Y59095D01*
X128241Y59968D01*
X127903Y60782D01*
X127367Y61481D01*
X126668Y62018D01*
X125854Y62355D01*
X124980Y62470D01*
D02*
G37*
G36*
X231299Y56525D02*
X230426Y56410D01*
X229611Y56073D01*
X228912Y55536D01*
X228376Y54837D01*
X228039Y54023D01*
X227924Y53150D01*
X228039Y52276D01*
X228376Y51462D01*
X228912Y50763D01*
X229611Y50226D01*
X230426Y49889D01*
X231299Y49774D01*
X232173Y49889D01*
X232987Y50226D01*
X233686Y50763D01*
X234222Y51462D01*
X234559Y52276D01*
X234675Y53150D01*
X234559Y54023D01*
X234222Y54837D01*
X233686Y55536D01*
X232987Y56073D01*
X232173Y56410D01*
X231299Y56525D01*
D02*
G37*
G36*
X101353Y51795D02*
X100479Y51680D01*
X99665Y51343D01*
X98966Y50806D01*
X98429Y50107D01*
X98092Y49293D01*
X97977Y48419D01*
X98092Y47546D01*
X98429Y46732D01*
X98966Y46033D01*
X99665Y45496D01*
X100479Y45159D01*
X101353Y45044D01*
X102226Y45159D01*
X103040Y45496D01*
X103739Y46033D01*
X104276Y46732D01*
X104613Y47546D01*
X104728Y48419D01*
X104613Y49293D01*
X104276Y50107D01*
X103739Y50806D01*
X103040Y51343D01*
X102226Y51680D01*
X101353Y51795D01*
D02*
G37*
%LPD*%
D88*
X110335Y22736D02*
X114370Y18701D01*
X60039Y22638D02*
X66929Y29528D01*
X141732D02*
X145379Y25880D01*
X66929Y29528D02*
X141732D01*
X145379Y25880D02*
X155644D01*
X168149Y18701D02*
X172868Y23420D01*
X114370Y18701D02*
X168149D01*
D95*
X280669Y121221D02*
X293395Y133946D01*
D97*
X112947Y230939D02*
D03*
X92947D02*
D03*
X72947D02*
D03*
X160734D02*
D03*
X180734D02*
D03*
X381890Y19685D02*
D03*
X11811Y236221D02*
D03*
D98*
X52947Y230939D02*
D03*
X140734D02*
D03*
D99*
X259606Y182087D02*
D03*
X289606D02*
D03*
X180591Y10827D02*
D03*
X170591D02*
D03*
X160591D02*
D03*
X150591D02*
D03*
X140591D02*
D03*
X338583Y161417D02*
D03*
X318898D02*
D03*
X338583Y33465D02*
D03*
X318898D02*
D03*
D100*
X270590Y242126D02*
D03*
X280591D02*
D03*
X219488D02*
D03*
X229488D02*
D03*
X255000D02*
D03*
X245000D02*
D03*
D102*
X190591Y10827D02*
D03*
D103*
X375984Y228543D02*
D03*
D104*
Y215945D02*
D03*
Y203346D02*
D03*
X364173Y228543D02*
D03*
Y215945D02*
D03*
Y203346D02*
D03*
X383465Y192717D02*
D03*
X356693Y239173D02*
D03*
D105*
X309646Y208661D02*
D03*
D106*
X328150Y220472D02*
D03*
Y196063D02*
D03*
D107*
X165354Y172028D02*
D03*
D108*
Y142539D02*
D03*
X285433Y33465D02*
D03*
X295276Y23622D02*
D03*
X290354D02*
D03*
X300197D02*
D03*
X285433Y28543D02*
D03*
Y23622D02*
D03*
X300197Y33465D02*
D03*
Y28543D02*
D03*
X295276Y33465D02*
D03*
Y28543D02*
D03*
X290354D02*
D03*
Y33465D02*
D03*
X115079Y175197D02*
D03*
X262874Y120434D02*
D03*
X268701Y128937D02*
D03*
X271654Y92323D02*
D03*
X280512Y121221D02*
D03*
X293408Y133933D02*
D03*
X238189Y43307D02*
D03*
X233268D02*
D03*
X228346D02*
D03*
X223425D02*
D03*
Y38386D02*
D03*
X228346D02*
D03*
X233268D02*
D03*
X238189D02*
D03*
X246063Y195866D02*
D03*
X253431Y74007D02*
D03*
X268195D02*
D03*
X253431Y78928D02*
D03*
X258352D02*
D03*
X268195D02*
D03*
X263273D02*
D03*
X258352Y74007D02*
D03*
X263273D02*
D03*
X253431Y69086D02*
D03*
X258352D02*
D03*
X263273D02*
D03*
X268195D02*
D03*
D109*
X87598Y60039D02*
D03*
X79724Y60532D02*
D03*
X101353Y48419D02*
D03*
X97441Y91535D02*
D03*
X68898Y66929D02*
D03*
X97441Y76772D02*
D03*
Y82677D02*
D03*
X102829Y127160D02*
D03*
X97441Y97441D02*
D03*
X68898Y91535D02*
D03*
Y84646D02*
D03*
X71850Y118110D02*
D03*
X79724D02*
D03*
X79724Y45276D02*
D03*
X71850D02*
D03*
X107441Y36417D02*
D03*
X60039Y22638D02*
D03*
X110335Y22736D02*
D03*
X172244Y32480D02*
D03*
X172868Y23420D02*
D03*
X155644Y25880D02*
D03*
X101221Y109095D02*
D03*
X124980Y54094D02*
D03*
Y59095D02*
D03*
X182835Y114921D02*
D03*
X211614Y106299D02*
D03*
X269685Y147638D02*
D03*
X227756Y153543D02*
D03*
X235728Y136811D02*
D03*
X211221Y134843D02*
D03*
X246091D02*
D03*
X221842Y151681D02*
D03*
X232677Y154527D02*
D03*
X230019Y137008D02*
D03*
X210566Y183889D02*
D03*
X241732Y194095D02*
D03*
Y178347D02*
D03*
Y186221D02*
D03*
X224016Y187205D02*
D03*
X88504Y175197D02*
D03*
X231299Y53150D02*
D03*
X298228Y225608D02*
D03*
X290354Y208875D02*
D03*
X231299Y62992D02*
D03*
X225000Y194095D02*
D03*
X233268Y208661D02*
D03*
X246063Y115157D02*
D03*
X241142Y172244D02*
D03*
X242126Y165354D02*
D03*
X243110Y119095D02*
D03*
X253110Y223425D02*
D03*
X223892Y125669D02*
D03*
X241142D02*
D03*
X231299Y97441D02*
D03*
Y104331D02*
D03*
X29528Y187008D02*
D03*
X44528D02*
D03*
X62008Y175197D02*
D03*
X48228Y149606D02*
D03*
X92520Y198976D02*
D03*
X64961D02*
D03*
X18543Y192913D02*
D03*
X33307D02*
D03*
X30512Y149606D02*
D03*
X104874Y219094D02*
D03*
X129921Y132346D02*
D03*
X103874Y132346D02*
D03*
X76772Y132346D02*
D03*
D110*
X5906Y1969D02*
D03*
X344488D02*
D03*
X336614D02*
D03*
X340551D02*
D03*
X332677D02*
D03*
X320866D02*
D03*
X316929D02*
D03*
X312992D02*
D03*
X324803D02*
D03*
X328740D02*
D03*
X297244D02*
D03*
X301181D02*
D03*
X305118D02*
D03*
X309055D02*
D03*
X269685D02*
D03*
X265748D02*
D03*
X261811D02*
D03*
X257874D02*
D03*
X253937D02*
D03*
X250000D02*
D03*
X246063D02*
D03*
X242126D02*
D03*
X289370D02*
D03*
X285433D02*
D03*
X273622D02*
D03*
X277559D02*
D03*
X281496D02*
D03*
X293307D02*
D03*
X238189D02*
D03*
X226378D02*
D03*
X222441D02*
D03*
X218504D02*
D03*
X230315D02*
D03*
X234252D02*
D03*
X183071D02*
D03*
X187008D02*
D03*
X190945D02*
D03*
X194882D02*
D03*
X198819D02*
D03*
X202756D02*
D03*
X206693D02*
D03*
X210630D02*
D03*
X214567D02*
D03*
X179134D02*
D03*
X167323D02*
D03*
X163386D02*
D03*
X159449D02*
D03*
X171260D02*
D03*
X175197D02*
D03*
X124016D02*
D03*
X127953D02*
D03*
X131890D02*
D03*
X135827D02*
D03*
X139764D02*
D03*
X143701D02*
D03*
X147638D02*
D03*
X151575D02*
D03*
X155512D02*
D03*
X120079D02*
D03*
X108268D02*
D03*
X104331D02*
D03*
X100394D02*
D03*
X112205D02*
D03*
X116142D02*
D03*
X64961D02*
D03*
X68898D02*
D03*
X72835D02*
D03*
X76772D02*
D03*
X80709D02*
D03*
X84646D02*
D03*
X88583D02*
D03*
X92520D02*
D03*
X96457D02*
D03*
X29528D02*
D03*
X33465D02*
D03*
X37402D02*
D03*
X41339D02*
D03*
X45276D02*
D03*
X49213D02*
D03*
X53150D02*
D03*
X57087D02*
D03*
X61024D02*
D03*
X9843D02*
D03*
X13780D02*
D03*
X25591D02*
D03*
X21654D02*
D03*
X17717D02*
D03*
X1969D02*
D03*
X364173D02*
D03*
X360236D02*
D03*
X352362D02*
D03*
X356299D02*
D03*
X348425D02*
D03*
X383858D02*
D03*
X379921D02*
D03*
X372047D02*
D03*
X375984D02*
D03*
X368110D02*
D03*
X387795D02*
D03*
X391732D02*
D03*
Y250000D02*
D03*
Y246063D02*
D03*
Y253937D02*
D03*
X1969Y41339D02*
D03*
Y37402D02*
D03*
Y33465D02*
D03*
Y29528D02*
D03*
Y57087D02*
D03*
Y53150D02*
D03*
Y49213D02*
D03*
Y45276D02*
D03*
Y61024D02*
D03*
Y76772D02*
D03*
Y72835D02*
D03*
Y68898D02*
D03*
Y64961D02*
D03*
Y80709D02*
D03*
Y96457D02*
D03*
Y92520D02*
D03*
Y88583D02*
D03*
Y84646D02*
D03*
Y100394D02*
D03*
Y116142D02*
D03*
Y112205D02*
D03*
Y108268D02*
D03*
Y104331D02*
D03*
Y120079D02*
D03*
X391732Y5906D02*
D03*
Y9843D02*
D03*
Y13780D02*
D03*
Y17717D02*
D03*
Y21654D02*
D03*
Y25591D02*
D03*
Y29528D02*
D03*
Y33465D02*
D03*
Y37402D02*
D03*
Y41339D02*
D03*
Y45276D02*
D03*
Y49213D02*
D03*
Y53150D02*
D03*
Y57087D02*
D03*
Y61024D02*
D03*
Y64961D02*
D03*
Y68898D02*
D03*
Y72835D02*
D03*
Y76772D02*
D03*
Y242126D02*
D03*
Y238189D02*
D03*
Y234252D02*
D03*
Y230315D02*
D03*
Y226378D02*
D03*
Y222441D02*
D03*
Y218504D02*
D03*
Y214567D02*
D03*
Y210630D02*
D03*
Y206693D02*
D03*
Y202756D02*
D03*
Y198819D02*
D03*
Y194882D02*
D03*
Y190945D02*
D03*
Y187008D02*
D03*
Y183071D02*
D03*
Y179134D02*
D03*
Y175197D02*
D03*
Y171260D02*
D03*
Y167323D02*
D03*
Y163386D02*
D03*
Y159449D02*
D03*
Y155512D02*
D03*
Y151575D02*
D03*
Y147638D02*
D03*
Y143701D02*
D03*
Y139764D02*
D03*
Y135827D02*
D03*
Y131890D02*
D03*
Y127953D02*
D03*
Y124016D02*
D03*
Y120079D02*
D03*
Y116142D02*
D03*
Y112205D02*
D03*
Y108268D02*
D03*
Y104331D02*
D03*
Y100394D02*
D03*
Y96457D02*
D03*
Y92520D02*
D03*
Y88583D02*
D03*
Y84646D02*
D03*
Y80709D02*
D03*
X387795Y253937D02*
D03*
X368110D02*
D03*
X375984D02*
D03*
X372047D02*
D03*
X379921D02*
D03*
X383858D02*
D03*
X348425D02*
D03*
X356299D02*
D03*
X352362D02*
D03*
X360236D02*
D03*
X364173D02*
D03*
X1969Y250000D02*
D03*
Y246063D02*
D03*
Y242126D02*
D03*
Y238189D02*
D03*
Y234252D02*
D03*
Y230315D02*
D03*
Y226378D02*
D03*
Y253937D02*
D03*
X17717D02*
D03*
X21654D02*
D03*
X25591D02*
D03*
X13780D02*
D03*
X9843D02*
D03*
X61024D02*
D03*
X57087D02*
D03*
X53150D02*
D03*
X49213D02*
D03*
X45276D02*
D03*
X41339D02*
D03*
X37402D02*
D03*
X33465D02*
D03*
X29528D02*
D03*
X96457D02*
D03*
X92520D02*
D03*
X88583D02*
D03*
X84646D02*
D03*
X80709D02*
D03*
X76772D02*
D03*
X72835D02*
D03*
X68898D02*
D03*
X64961D02*
D03*
X116142D02*
D03*
X112205D02*
D03*
X100394D02*
D03*
X104331D02*
D03*
X108268D02*
D03*
X120079D02*
D03*
X155512D02*
D03*
X151575D02*
D03*
X147638D02*
D03*
X143701D02*
D03*
X139764D02*
D03*
X135827D02*
D03*
X131890D02*
D03*
X127953D02*
D03*
X124016D02*
D03*
X175197D02*
D03*
X171260D02*
D03*
X159449D02*
D03*
X163386D02*
D03*
X167323D02*
D03*
X179134D02*
D03*
X214567D02*
D03*
X210630D02*
D03*
X206693D02*
D03*
X202756D02*
D03*
X198819D02*
D03*
X194882D02*
D03*
X190945D02*
D03*
X187008D02*
D03*
X183071D02*
D03*
X234252D02*
D03*
X230315D02*
D03*
X218504D02*
D03*
X222441D02*
D03*
X226378D02*
D03*
X238189D02*
D03*
X293307D02*
D03*
X281496D02*
D03*
X277559D02*
D03*
X273622D02*
D03*
X285433D02*
D03*
X289370D02*
D03*
X242126D02*
D03*
X246063D02*
D03*
X250000D02*
D03*
X253937D02*
D03*
X257874D02*
D03*
X261811D02*
D03*
X265748D02*
D03*
X269685D02*
D03*
X309055D02*
D03*
X305118D02*
D03*
X301181D02*
D03*
X297244D02*
D03*
X328740D02*
D03*
X324803D02*
D03*
X312992D02*
D03*
X316929D02*
D03*
X320866D02*
D03*
X332677D02*
D03*
X340551D02*
D03*
X336614D02*
D03*
X344488D02*
D03*
X5906D02*
D03*
X1969Y124016D02*
D03*
Y147638D02*
D03*
Y143701D02*
D03*
Y139764D02*
D03*
Y135827D02*
D03*
Y131890D02*
D03*
Y127953D02*
D03*
Y171260D02*
D03*
Y167323D02*
D03*
Y163386D02*
D03*
Y159449D02*
D03*
Y155512D02*
D03*
Y151575D02*
D03*
Y175197D02*
D03*
Y179134D02*
D03*
Y183071D02*
D03*
Y187008D02*
D03*
Y190945D02*
D03*
Y194882D02*
D03*
Y198819D02*
D03*
Y202756D02*
D03*
Y206693D02*
D03*
Y210630D02*
D03*
Y214567D02*
D03*
Y218504D02*
D03*
Y222441D02*
D03*
Y25591D02*
D03*
Y21654D02*
D03*
Y17717D02*
D03*
Y13780D02*
D03*
Y9843D02*
D03*
Y5906D02*
D03*
M02*
