G04*
G04 #@! TF.GenerationSoftware,Altium Limited,Altium Designer,24.5.2 (23)*
G04*
G04 Layer_Color=16711935*
%FSLAX25Y25*%
%MOIN*%
G70*
G04*
G04 #@! TF.SameCoordinates,69DD5750-F066-4D08-A96F-D9ADA75AFFB9*
G04*
G04*
G04 #@! TF.FilePolarity,Negative*
G04*
G01*
G75*
%ADD75C,0.12611*%
%ADD76R,0.12611X0.12611*%
%ADD77C,0.06706*%
%ADD78C,0.06737*%
%ADD79R,0.06737X0.06737*%
%ADD80R,0.06706X0.06706*%
%ADD81R,0.08674X0.08674*%
%ADD82C,0.08674*%
%ADD83R,0.08674X0.20485*%
%ADD84R,0.20485X0.08674*%
%ADD85C,0.05918*%
%ADD86C,0.04737*%
G36*
X393209Y252461D02*
Y492D01*
X492D01*
Y1969D01*
Y255413D01*
X393209D01*
Y252461D01*
D02*
G37*
%LPC*%
G36*
X390256D02*
X3445D01*
Y3445D01*
X390256D01*
Y252461D01*
D02*
G37*
%LPD*%
D75*
X112947Y230939D02*
D03*
X92947D02*
D03*
X72947D02*
D03*
X160734D02*
D03*
X180734D02*
D03*
X381890Y19685D02*
D03*
X11811Y236221D02*
D03*
D76*
X52947Y230939D02*
D03*
X140734D02*
D03*
D77*
X259606Y182087D02*
D03*
X289606D02*
D03*
X180591Y10827D02*
D03*
X170591D02*
D03*
X160591D02*
D03*
X150591D02*
D03*
X140591D02*
D03*
X338583Y161417D02*
D03*
X318898D02*
D03*
X338583Y33465D02*
D03*
X318898D02*
D03*
D78*
X270590Y242126D02*
D03*
X219488D02*
D03*
X245000D02*
D03*
D79*
X280591D02*
D03*
X229488D02*
D03*
X255000D02*
D03*
D80*
X190591Y10827D02*
D03*
D81*
X375984Y228543D02*
D03*
D82*
Y215945D02*
D03*
Y203346D02*
D03*
X364173Y228543D02*
D03*
Y215945D02*
D03*
Y203346D02*
D03*
X383465Y192717D02*
D03*
X356693Y239173D02*
D03*
D83*
X309646Y208661D02*
D03*
D84*
X328150Y220472D02*
D03*
Y196063D02*
D03*
D85*
X165354Y172028D02*
D03*
D86*
Y142539D02*
D03*
M02*
