G04*
G04 #@! TF.GenerationSoftware,Altium Limited,Altium Designer,24.5.2 (23)*
G04*
G04 Layer_Physical_Order=1*
G04 Layer_Color=255*
%FSLAX25Y25*%
%MOIN*%
G70*
G04*
G04 #@! TF.SameCoordinates,878A51A9-24BE-43F0-8DEF-E1219167CBE3*
G04*
G04*
G04 #@! TF.FilePolarity,Positive*
G04*
G01*
G75*
%ADD17R,0.03071X0.04134*%
%ADD18R,0.03661X0.03543*%
%ADD19R,0.13110X0.02756*%
%ADD20R,0.11024X0.03386*%
%ADD21R,0.07205X0.04488*%
%ADD22R,0.04331X0.02756*%
%ADD23R,0.04016X0.03701*%
%ADD24R,0.03701X0.04016*%
%ADD25R,0.03937X0.03543*%
%ADD26R,0.05512X0.03937*%
%ADD27R,0.08268X0.05512*%
%ADD28R,0.03543X0.03937*%
%ADD29R,0.03543X0.03543*%
%ADD30R,0.05906X0.03543*%
%ADD31R,0.03543X0.05906*%
%ADD32R,0.04724X0.08661*%
%ADD33R,0.13780X0.08661*%
%ADD34R,0.02362X0.01181*%
%ADD35R,0.01181X0.02362*%
%ADD36R,0.08504X0.04213*%
%ADD37R,0.03150X0.01968*%
%ADD38R,0.05906X0.08268*%
%ADD39R,0.03937X0.05512*%
%ADD40R,0.02559X0.06496*%
%ADD41R,0.03543X0.03150*%
%ADD42R,0.09843X0.12992*%
%ADD43R,0.21260X0.11417*%
%ADD44R,0.11024X0.08465*%
%ADD45R,0.10236X0.14173*%
%AMCUSTOMSHAPE88*
4,1,8,-0.15098,0.21260,-0.09311,0.21260,-0.09311,0.17126,0.15098,0.17126,0.15098,-0.17126,-0.09311,-0.17126,-0.09311,-0.21260,-0.15098,-0.21260,-0.15098,0.21260,0.0*%
%ADD88CUSTOMSHAPE88*%

%ADD89C,0.01575*%
%ADD90C,0.03937*%
%ADD91C,0.01968*%
%ADD92C,0.03150*%
%ADD93C,0.01320*%
%ADD94C,0.02362*%
%ADD95C,0.01181*%
%ADD96C,0.02756*%
%ADD97C,0.00800*%
%ADD98C,0.11811*%
%ADD99R,0.11811X0.11811*%
%ADD100C,0.05906*%
%ADD101C,0.05937*%
%ADD102R,0.05937X0.05937*%
%ADD103R,0.05906X0.05906*%
%ADD104R,0.07874X0.07874*%
%ADD105C,0.07874*%
%ADD106R,0.07874X0.19685*%
%ADD107R,0.19685X0.07874*%
%ADD108C,0.05118*%
%ADD109C,0.03937*%
%ADD110C,0.02756*%
%ADD111C,0.01968*%
G36*
X393209Y252461D02*
Y1969D01*
Y492D01*
X492D01*
Y1969D01*
Y252461D01*
Y255413D01*
X393209D01*
Y252461D01*
D02*
G37*
%LPC*%
G36*
X273685Y249031D02*
X273026Y248591D01*
X272605Y248766D01*
X271271Y249031D01*
X269910D01*
X268576Y248766D01*
X267320Y248246D01*
X266189Y247490D01*
X265227Y246528D01*
X264471Y245397D01*
X263950Y244140D01*
X263685Y242806D01*
Y241446D01*
X263946Y240134D01*
X263809Y239955D01*
X263472Y239141D01*
X263357Y238268D01*
Y223465D01*
X262756D01*
Y222496D01*
X260343D01*
Y219646D01*
X259842D01*
Y219146D01*
X256835D01*
Y217244D01*
X255866D01*
Y209606D01*
X263819D01*
Y209606D01*
X270709D01*
Y210473D01*
X271283Y210548D01*
X272001Y210846D01*
X272618Y211319D01*
X274291Y212992D01*
X278346D01*
Y215898D01*
X278740Y216535D01*
X286221D01*
X286378Y215801D01*
Y209606D01*
X286979D01*
Y208875D01*
X287008Y208656D01*
Y208435D01*
X287065Y208221D01*
X287094Y208002D01*
X287179Y207798D01*
X287236Y207584D01*
X287347Y207392D01*
X287431Y207188D01*
X287566Y207012D01*
X287677Y206821D01*
X287833Y206664D01*
X287968Y206489D01*
X288143Y206354D01*
X288300Y206198D01*
X288491Y206087D01*
X288667Y205952D01*
X288871Y205868D01*
X289063Y205757D01*
X289276Y205700D01*
X289481Y205615D01*
X289700Y205586D01*
X289914Y205529D01*
X290135D01*
X290354Y205500D01*
X290574Y205529D01*
X290795D01*
X291009Y205586D01*
X291228Y205615D01*
X291432Y205700D01*
X291646Y205757D01*
X291838Y205868D01*
X292042Y205952D01*
X292217Y206087D01*
X292409Y206198D01*
X292565Y206354D01*
X292741Y206489D01*
X292876Y206664D01*
X293032Y206821D01*
X293143Y207012D01*
X293277Y207188D01*
X293362Y207392D01*
X293473Y207584D01*
X293530Y207798D01*
X293615Y208002D01*
X293643Y208221D01*
X293701Y208435D01*
Y208656D01*
X293730Y208875D01*
Y209606D01*
X294331D01*
Y209606D01*
X302205D01*
Y215827D01*
Y223465D01*
X301604D01*
Y225608D01*
X301575Y225827D01*
Y226048D01*
X301518Y226262D01*
X301489Y226481D01*
X301404Y226686D01*
X301347Y226900D01*
X301236Y227091D01*
X301151Y227295D01*
X301017Y227471D01*
X300906Y227663D01*
X300750Y227819D01*
X300615Y227994D01*
X300440Y228129D01*
X300283Y228286D01*
X300092Y228396D01*
X299916Y228531D01*
X299712Y228615D01*
X299520Y228726D01*
X299306Y228783D01*
X299102Y228868D01*
X298883Y228897D01*
X298669Y228954D01*
X298448D01*
X298228Y228983D01*
X298009Y228954D01*
X297788D01*
X297574Y228897D01*
X297355Y228868D01*
X297150Y228783D01*
X296937Y228726D01*
X296745Y228615D01*
X296541Y228531D01*
X296365Y228396D01*
X296174Y228286D01*
X296017Y228129D01*
X295842Y227994D01*
X295707Y227819D01*
X295550Y227663D01*
X295440Y227471D01*
X295305Y227295D01*
X295221Y227091D01*
X295110Y226900D01*
X295053Y226686D01*
X294968Y226481D01*
X294939Y226262D01*
X294882Y226048D01*
Y225827D01*
X294853Y225608D01*
Y223945D01*
X294053Y223465D01*
X286974D01*
X286221Y223622D01*
D01*
X285472Y223747D01*
Y231339D01*
X281449D01*
X281142Y232078D01*
X282977Y233912D01*
X283514Y234612D01*
X283766Y235221D01*
X287496D01*
Y249031D01*
X273685D01*
Y249031D01*
D02*
G37*
G36*
X222583D02*
X221924Y248591D01*
X221502Y248766D01*
X220168Y249031D01*
X218808D01*
X217474Y248766D01*
X216217Y248246D01*
X215086Y247490D01*
X214124Y246528D01*
X213369Y245397D01*
X212848Y244140D01*
X212583Y242806D01*
Y241446D01*
X212848Y240112D01*
X213369Y238855D01*
X214124Y237724D01*
X215086Y236762D01*
X216217Y236006D01*
X216708Y235803D01*
Y235236D01*
X216803Y234517D01*
X217081Y233846D01*
X217523Y233271D01*
X217826Y232967D01*
X217559Y232323D01*
X217559D01*
Y224370D01*
X224025D01*
Y205472D01*
X224146Y204548D01*
X224503Y203685D01*
X225071Y202945D01*
X229146Y198871D01*
X228814Y198071D01*
X225945D01*
Y197828D01*
X225441Y197441D01*
X224559D01*
X223708Y197213D01*
X222945Y196772D01*
X222322Y196149D01*
X221882Y195386D01*
X221706Y194732D01*
X220478Y193504D01*
X215945D01*
Y192535D01*
X215264D01*
Y190551D01*
X214264D01*
Y192535D01*
X213016D01*
Y192962D01*
X212921Y193681D01*
X212644Y194351D01*
X212202Y194927D01*
X211069Y196060D01*
X210493Y196502D01*
X210433Y196527D01*
Y198031D01*
X209619D01*
X209570Y198409D01*
X209272Y199127D01*
X208799Y199744D01*
X208799Y199744D01*
X206633Y201909D01*
X206017Y202382D01*
X205298Y202680D01*
X204528Y202781D01*
X168307D01*
X168307Y202781D01*
X167922Y202731D01*
X167536Y202680D01*
X166818Y202382D01*
X166201Y201909D01*
X163248Y198956D01*
X162775Y198339D01*
X162478Y197621D01*
X162477Y197618D01*
X158268D01*
Y179508D01*
X172441D01*
Y196825D01*
X197228D01*
Y194595D01*
X200000D01*
Y194095D01*
X200500D01*
Y191126D01*
X202772D01*
X202827Y190905D01*
X202953Y190157D01*
X202827Y189410D01*
X202772Y189189D01*
X202153Y189189D01*
X200500D01*
Y186221D01*
Y183252D01*
X202014Y183252D01*
X202665Y182452D01*
X202638Y182323D01*
X202638D01*
Y181354D01*
X200736D01*
Y178347D01*
Y175339D01*
X202638D01*
Y174370D01*
X210276D01*
Y175567D01*
X211221D01*
X211940Y175662D01*
X212610Y175939D01*
X213186Y176381D01*
X213774Y176969D01*
X223031D01*
X223031Y176969D01*
Y176969D01*
X223031Y176969D01*
X223714Y176685D01*
X224019Y176381D01*
X224594Y175939D01*
X225265Y175662D01*
X225945Y175572D01*
Y174370D01*
X227036D01*
X227079Y174044D01*
X227357Y173374D01*
X227798Y172798D01*
X229334Y171263D01*
X229909Y170821D01*
X230580Y170543D01*
X231299Y170449D01*
X237795D01*
X238007Y170131D01*
X237578Y169331D01*
X231653D01*
Y168520D01*
X229240D01*
Y165748D01*
X228740D01*
Y165248D01*
X225772D01*
Y162976D01*
X225047Y162795D01*
X224803D01*
Y155315D01*
X227619D01*
X229508Y153426D01*
X229559Y153236D01*
X229592Y153178D01*
X229130Y152378D01*
X228134D01*
Y152165D01*
X227333D01*
X227165Y152187D01*
X225171D01*
X224960Y152973D01*
X224520Y153736D01*
X223897Y154359D01*
X223134Y154799D01*
X222283Y155027D01*
X222048D01*
X221707Y155368D01*
X221417Y155591D01*
Y157480D01*
X213937D01*
Y157237D01*
X213756Y156512D01*
X211484D01*
Y153543D01*
X210984D01*
Y153043D01*
X208213D01*
Y150630D01*
X207402D01*
Y149433D01*
X206693D01*
X205974Y149338D01*
X205303Y149061D01*
X204727Y148619D01*
X201056Y144948D01*
X200614Y144372D01*
X200336Y143701D01*
X200242Y142982D01*
Y120798D01*
X200336Y120078D01*
X200614Y119408D01*
X201056Y118832D01*
X205712Y114176D01*
X206287Y113734D01*
X206958Y113457D01*
X207677Y113362D01*
X232116D01*
X233441Y112038D01*
Y107882D01*
X232641Y107420D01*
X232591Y107449D01*
X231740Y107677D01*
X230859D01*
X230354Y108064D01*
Y108307D01*
X216496D01*
Y107110D01*
X214861D01*
X214733Y107591D01*
X214292Y108354D01*
X213669Y108977D01*
X212906Y109418D01*
X212055Y109646D01*
X211174D01*
X210322Y109418D01*
X209559Y108977D01*
X208936Y108354D01*
X208496Y107591D01*
X208268Y106740D01*
Y105859D01*
X208496Y105008D01*
X208936Y104244D01*
X209559Y103621D01*
X210322Y103181D01*
X210400Y102989D01*
X209862Y102189D01*
X204724D01*
Y107835D01*
X194882D01*
Y100354D01*
Y95354D01*
Y90354D01*
Y85354D01*
Y80354D01*
Y75354D01*
Y70354D01*
Y65354D01*
Y60354D01*
Y55354D01*
Y50354D01*
Y45354D01*
Y40354D01*
X195850D01*
Y39595D01*
X199803D01*
X203756D01*
Y40354D01*
X204724D01*
Y40521D01*
X206139D01*
Y40421D01*
X206383D01*
X207108Y40240D01*
Y37969D01*
X210076D01*
Y37469D01*
X210577D01*
Y34697D01*
X212986D01*
Y34697D01*
X215455D01*
Y37469D01*
X216455D01*
Y34697D01*
X217486D01*
Y34449D01*
X217621Y33421D01*
X218018Y32463D01*
X218649Y31641D01*
X219471Y31010D01*
X220429Y30613D01*
X221457Y30478D01*
X242126D01*
X243154Y30613D01*
X244111Y31010D01*
X244934Y31641D01*
X245565Y32463D01*
X245962Y33421D01*
X246097Y34449D01*
Y46260D01*
X245962Y47288D01*
X245565Y48245D01*
X244934Y49068D01*
X244111Y49699D01*
X243154Y50095D01*
X242126Y50231D01*
X218923D01*
X217896Y50095D01*
X216938Y49699D01*
X216115Y49068D01*
X215762Y48607D01*
X214927Y48497D01*
X213969Y48101D01*
X213710Y47902D01*
X211343D01*
X211036Y48641D01*
X215696Y53300D01*
X216496Y53269D01*
Y52126D01*
X230354D01*
Y52369D01*
X230859Y52756D01*
X231740D01*
X232591Y52984D01*
X233354Y53425D01*
X233977Y54048D01*
X234418Y54811D01*
X234646Y55662D01*
Y56543D01*
X234418Y57394D01*
X233977Y58157D01*
X233354Y58780D01*
X232798Y59101D01*
X232721Y59387D01*
Y59707D01*
X232798Y59993D01*
X233354Y60314D01*
X233977Y60937D01*
X234418Y61700D01*
X234646Y62552D01*
Y63433D01*
X234418Y64284D01*
X233977Y65047D01*
X233354Y65670D01*
X232591Y66110D01*
X231875Y66302D01*
X231981Y67102D01*
X235236D01*
X235956Y67197D01*
X236626Y67475D01*
X237202Y67916D01*
X245285Y76000D01*
X246024Y75694D01*
Y56102D01*
X246177Y55334D01*
X246612Y54683D01*
X247263Y54248D01*
X248031Y54095D01*
X256856D01*
Y42323D01*
X256496D01*
Y29724D01*
X257253D01*
Y27871D01*
X256890D01*
Y20391D01*
X257133D01*
X257858Y20210D01*
X257858Y19591D01*
Y17938D01*
X263795D01*
X263795Y20210D01*
X264520Y20391D01*
X264764D01*
Y21931D01*
X265564Y22604D01*
X265768Y22569D01*
X265943Y22146D01*
X265945Y22143D01*
Y20391D01*
X266188D01*
X266913Y20210D01*
Y17938D01*
X269882D01*
Y17438D01*
X270382D01*
Y14667D01*
X272850D01*
Y17683D01*
X274040D01*
Y14667D01*
X276509D01*
Y17438D01*
X277509D01*
Y14667D01*
X279977D01*
Y15235D01*
X280579Y15762D01*
X280946Y15714D01*
X326772D01*
X327799Y15849D01*
X328757Y16246D01*
X329580Y16877D01*
X330211Y17699D01*
X330607Y18657D01*
X330743Y19685D01*
Y41512D01*
X366142D01*
X366861Y41606D01*
X367532Y41884D01*
X368107Y42326D01*
X372044Y46263D01*
X372486Y46839D01*
X372764Y47509D01*
X372858Y48228D01*
Y72667D01*
X374964Y74773D01*
X375406Y75349D01*
X375683Y76019D01*
X375706Y76189D01*
X376975D01*
Y76545D01*
X377429Y77157D01*
X379937D01*
Y80008D01*
X380437D01*
Y80508D01*
X383444D01*
Y82409D01*
X384413D01*
Y90047D01*
X376460D01*
X376460Y90047D01*
Y90047D01*
X376460Y90047D01*
X375778Y90332D01*
Y99406D01*
X376390Y100018D01*
X376988Y100453D01*
Y100453D01*
X376988Y100453D01*
X377957D01*
Y98335D01*
X383209D01*
Y97835D01*
D01*
Y98335D01*
X388461D01*
Y100453D01*
X389429D01*
Y107146D01*
Y113839D01*
Y120531D01*
Y123940D01*
X390234Y124274D01*
X390256Y124290D01*
Y189017D01*
X390234Y189034D01*
X390174Y189059D01*
X390121Y189097D01*
X389415Y189474D01*
X389354Y189497D01*
X389300Y189533D01*
X388870Y189679D01*
X388445Y189839D01*
X388380Y189846D01*
X388273Y189981D01*
X387995Y190689D01*
X388065Y190811D01*
X388402Y192067D01*
Y192217D01*
X383465D01*
Y193217D01*
X388402D01*
Y193367D01*
X388065Y194622D01*
X387995Y194744D01*
X388273Y195452D01*
X388380Y195588D01*
X388445Y195594D01*
X388870Y195754D01*
X389300Y195900D01*
X389354Y195936D01*
X389415Y195959D01*
X390121Y196336D01*
X390174Y196374D01*
X390234Y196399D01*
X390256Y196416D01*
Y214052D01*
X390234Y214069D01*
X389277Y214466D01*
X388249Y214601D01*
X384325D01*
X383858Y215169D01*
Y216720D01*
X383556Y218242D01*
X382962Y219675D01*
X382769Y219964D01*
X383146Y220669D01*
X383858D01*
Y236417D01*
X368110D01*
Y236301D01*
X367310Y235767D01*
X366470Y236115D01*
X364949Y236417D01*
X363398D01*
X361877Y236115D01*
X361450Y235938D01*
X360893Y236573D01*
X361294Y237268D01*
X361630Y238523D01*
Y238673D01*
X357193D01*
Y234236D01*
X357343D01*
X357693Y234330D01*
X358107Y233613D01*
X358057Y233563D01*
X357195Y232273D01*
X356602Y230840D01*
X356299Y229319D01*
Y227768D01*
X356602Y226247D01*
X357195Y224814D01*
X358057Y223524D01*
X358797Y222784D01*
X359063Y222244D01*
X358797Y221704D01*
X358057Y220964D01*
X357195Y219675D01*
X356602Y218242D01*
X356299Y216720D01*
Y215169D01*
X355833Y214601D01*
X350892D01*
X350888Y214600D01*
X350885Y214601D01*
X350371Y214532D01*
X349864Y214466D01*
X349861Y214464D01*
X349857Y214464D01*
X349381Y214265D01*
X348907Y214069D01*
X348904Y214067D01*
X348900Y214065D01*
X348495Y213753D01*
X348084Y213438D01*
X348082Y213435D01*
X348079Y213433D01*
X347515Y212866D01*
X347512Y212863D01*
X347509Y212861D01*
X347197Y212450D01*
X346885Y212042D01*
X346884Y212039D01*
X346881Y212036D01*
X346686Y211560D01*
X346490Y211084D01*
X346490Y211080D01*
X346488Y211077D01*
X346423Y210570D01*
X346357Y210056D01*
X346357Y210052D01*
X346357Y210049D01*
X346480Y176383D01*
X346548Y175877D01*
X346615Y175370D01*
X346618Y175363D01*
X346619Y175356D01*
X346748Y175047D01*
X346568Y174621D01*
X346214Y174247D01*
X332677D01*
X331649Y174111D01*
X330692Y173715D01*
X329869Y173083D01*
X329238Y172261D01*
X328841Y171303D01*
X328706Y170276D01*
Y150591D01*
X328841Y149563D01*
X329238Y148605D01*
X329869Y147783D01*
X330692Y147152D01*
X331649Y146755D01*
X332677Y146620D01*
X360227D01*
Y145811D01*
X362999D01*
Y144811D01*
X360227D01*
Y142723D01*
X359258D01*
Y138813D01*
X317914D01*
X317913Y138813D01*
X316886Y138678D01*
X315928Y138282D01*
X315106Y137650D01*
X315105Y137650D01*
X299536Y122081D01*
X289370D01*
X288342Y121946D01*
X287385Y121549D01*
X286562Y120918D01*
X285931Y120096D01*
X285534Y119138D01*
X285399Y118110D01*
Y97441D01*
X285534Y96413D01*
X285931Y95455D01*
X286562Y94633D01*
X287385Y94002D01*
X288342Y93605D01*
X289370Y93470D01*
X323457D01*
X323770Y92752D01*
X323764Y92670D01*
X323513Y92478D01*
X323208Y92279D01*
X323103Y92163D01*
X322979Y92068D01*
X322758Y91780D01*
X322515Y91509D01*
X322444Y91370D01*
X322348Y91246D01*
X322209Y90909D01*
X322044Y90585D01*
X322011Y90432D01*
X321952Y90288D01*
X321904Y89927D01*
X321829Y89571D01*
X321837Y89415D01*
X321816Y89260D01*
Y85664D01*
X289370D01*
X288342Y85529D01*
X287385Y85132D01*
X286562Y84501D01*
X285931Y83678D01*
X285534Y82721D01*
X285399Y81693D01*
Y50231D01*
X266720D01*
X265692Y50095D01*
X265463Y50001D01*
X264798Y50445D01*
Y54095D01*
X273622D01*
X274390Y54248D01*
X275041Y54683D01*
X275476Y55334D01*
X275629Y56102D01*
Y82677D01*
X275476Y83445D01*
X275041Y84096D01*
X274390Y84531D01*
X273622Y84684D01*
X248031D01*
X247858Y84826D01*
Y85460D01*
X247953Y86221D01*
X257795D01*
Y98425D01*
X256448D01*
Y101787D01*
X258528Y103867D01*
X269646D01*
Y103622D01*
X270614D01*
Y101720D01*
X273622D01*
X276630D01*
Y103622D01*
X277598D01*
Y111181D01*
Y117250D01*
X280512D01*
X280770Y117283D01*
X281030D01*
X281282Y117351D01*
X281540Y117385D01*
X281780Y117484D01*
X282031Y117552D01*
X282257Y117682D01*
X282497Y117781D01*
X282704Y117940D01*
X282929Y118070D01*
X283113Y118254D01*
X283320Y118413D01*
X283478Y118619D01*
X283662Y118803D01*
X283792Y119028D01*
X283951Y119235D01*
X284050Y119475D01*
X284180Y119701D01*
X284248Y119952D01*
X284348Y120193D01*
X284381Y120451D01*
X284449Y120702D01*
Y120962D01*
X284483Y121221D01*
X284449Y121478D01*
Y121739D01*
X284381Y121990D01*
X284348Y122248D01*
X284248Y122489D01*
X284180Y122740D01*
X284050Y122966D01*
X283951Y123206D01*
X283792Y123413D01*
X283662Y123638D01*
X283478Y123822D01*
X283320Y124028D01*
X283147Y124161D01*
X283140Y124251D01*
X283437Y124961D01*
X283504D01*
Y127702D01*
X288157Y132355D01*
X288157Y132355D01*
X288725Y133095D01*
X288727Y133100D01*
X289229Y133139D01*
X289558Y133015D01*
X289572Y132905D01*
X289672Y132665D01*
X289739Y132413D01*
X289869Y132188D01*
X289969Y131947D01*
X290127Y131741D01*
X290257Y131516D01*
X290441Y131332D01*
X290600Y131125D01*
X290806Y130967D01*
X290990Y130782D01*
X291216Y130652D01*
X291422Y130494D01*
X291663Y130394D01*
X291888Y130264D01*
X292140Y130197D01*
X292380Y130097D01*
X292638Y130063D01*
X292889Y129996D01*
X293150D01*
X293408Y129962D01*
X298303D01*
X299331Y130097D01*
X300289Y130494D01*
X301111Y131125D01*
X304973Y134987D01*
X305604Y135810D01*
X306001Y136767D01*
X306136Y137795D01*
Y174294D01*
X320032Y188189D01*
X341929D01*
Y203937D01*
X314583D01*
Y208161D01*
X310146D01*
Y197819D01*
X314370D01*
Y193759D01*
X299358Y178746D01*
X298726Y177924D01*
X298330Y176966D01*
X298194Y175939D01*
Y139440D01*
X296658Y137904D01*
X293408D01*
X293150Y137870D01*
X292889D01*
X292638Y137803D01*
X292380Y137769D01*
X292140Y137669D01*
X291888Y137602D01*
X291663Y137471D01*
X291422Y137372D01*
X291216Y137213D01*
X290990Y137083D01*
X290806Y136899D01*
X290600Y136741D01*
X290441Y136534D01*
X290257Y136350D01*
X290127Y136125D01*
X290004Y135964D01*
X289920Y135959D01*
X289204Y136340D01*
Y138583D01*
X289567D01*
Y139008D01*
X290142Y139551D01*
X290367Y139551D01*
X292610D01*
Y143307D01*
X293110D01*
Y143807D01*
X296079D01*
Y147063D01*
X294032D01*
X293307Y147244D01*
X293307Y147863D01*
Y156693D01*
X292944D01*
Y176031D01*
X293998Y176735D01*
X294958Y177695D01*
X295712Y178823D01*
X296231Y180077D01*
X296496Y181408D01*
Y182765D01*
X296231Y184096D01*
X295712Y185350D01*
X294958Y186479D01*
X293998Y187438D01*
X292870Y188192D01*
X291616Y188712D01*
X290285Y188976D01*
X288928D01*
X287597Y188712D01*
X286343Y188192D01*
X285214Y187438D01*
X284255Y186479D01*
X283501Y185350D01*
X282981Y184096D01*
X282716Y182765D01*
Y181408D01*
X282981Y180077D01*
X283501Y178823D01*
X284255Y177695D01*
X285214Y176735D01*
X285796Y176346D01*
Y156693D01*
X285433D01*
Y148031D01*
X281693D01*
Y147428D01*
X281535Y146693D01*
X273725D01*
X273322Y146819D01*
X273031Y147197D01*
Y148078D01*
X272803Y148930D01*
X272363Y149693D01*
X271740Y150316D01*
X270977Y150756D01*
X270126Y150984D01*
X269245D01*
X268393Y150756D01*
X267630Y150316D01*
X267007Y149693D01*
X266567Y148930D01*
X266339Y148078D01*
Y147197D01*
X265952Y146693D01*
X265709D01*
Y139632D01*
X259685D01*
X258914Y139530D01*
X258196Y139233D01*
X257579Y138760D01*
X257579Y138759D01*
X256869Y138049D01*
X256130Y138356D01*
Y142677D01*
X256130D01*
Y150630D01*
X255161D01*
Y153043D01*
X252311D01*
Y153543D01*
X251811D01*
Y156551D01*
X249909D01*
Y157520D01*
X242272D01*
Y157347D01*
X241472Y157076D01*
X241392Y157179D01*
X239606Y158965D01*
Y162068D01*
X240406Y162483D01*
X240834Y162236D01*
X241685Y162008D01*
X242567D01*
X243418Y162236D01*
X244181Y162677D01*
X244804Y163300D01*
X245244Y164063D01*
X245472Y164914D01*
Y165795D01*
X245244Y166646D01*
X244804Y167409D01*
X244181Y168032D01*
X243418Y168473D01*
X243066Y168567D01*
X242953Y169425D01*
X243197Y169566D01*
X243820Y170189D01*
X244260Y170952D01*
X244488Y171803D01*
Y172685D01*
X244260Y173536D01*
X243820Y174299D01*
X243525Y174593D01*
X243592Y175523D01*
X243626Y175576D01*
X243787Y175669D01*
X244410Y176292D01*
X244851Y177055D01*
X245079Y177906D01*
Y178787D01*
X244851Y179638D01*
X244410Y180401D01*
X243787Y181024D01*
X243024Y181465D01*
X242173Y181693D01*
X241292D01*
X240686Y181531D01*
X240013Y181988D01*
Y182579D01*
X240686Y183036D01*
X241292Y182874D01*
X242173D01*
X243024Y183102D01*
X243787Y183543D01*
X244410Y184166D01*
X244851Y184929D01*
X245079Y185780D01*
Y186661D01*
X244851Y187512D01*
X244410Y188275D01*
X243787Y188898D01*
X243024Y189339D01*
X242173Y189567D01*
X241292D01*
X240686Y189405D01*
X240013Y189862D01*
Y190453D01*
X240686Y190910D01*
X241292Y190748D01*
X242173D01*
X243024Y190976D01*
X243787Y191417D01*
X244410Y192040D01*
X244512Y192216D01*
X244543Y192197D01*
X245545Y191929D01*
X246581D01*
X247583Y192197D01*
X248480Y192716D01*
X249213Y193449D01*
X249732Y194346D01*
X250000Y195348D01*
Y196385D01*
X249732Y197386D01*
X249518Y197757D01*
X249515Y197775D01*
X249158Y198637D01*
X248590Y199378D01*
X244653Y203314D01*
X243913Y203883D01*
X243051Y204240D01*
X242126Y204361D01*
X234372D01*
X234130Y204524D01*
X234095Y204592D01*
X234508Y205529D01*
X234559Y205543D01*
X235322Y205984D01*
X235946Y206607D01*
X236386Y207370D01*
X236614Y208221D01*
Y209102D01*
X236386Y209953D01*
X236246Y210196D01*
Y233268D01*
X236144Y234038D01*
X235986Y234420D01*
X236394Y235221D01*
X236394D01*
Y249031D01*
X222583D01*
Y249031D01*
D02*
G37*
G36*
X258968Y246094D02*
X255500D01*
Y242626D01*
X258968D01*
Y246094D01*
D02*
G37*
G36*
X357343Y244110D02*
X357193D01*
Y239673D01*
X361630D01*
Y239823D01*
X361294Y241079D01*
X360644Y242205D01*
X359724Y243124D01*
X358598Y243774D01*
X357343Y244110D01*
D02*
G37*
G36*
X356193D02*
X356043D01*
X354787Y243774D01*
X353661Y243124D01*
X352742Y242205D01*
X352092Y241079D01*
X351756Y239823D01*
Y239673D01*
X356193D01*
Y244110D01*
D02*
G37*
G36*
X258968Y241626D02*
X255500D01*
Y238158D01*
X258968D01*
Y241626D01*
D02*
G37*
G36*
X356193Y238673D02*
X351756D01*
Y238523D01*
X352092Y237268D01*
X352742Y236142D01*
X353661Y235223D01*
X354787Y234573D01*
X356043Y234236D01*
X356193D01*
Y238673D01*
D02*
G37*
G36*
X161704Y240781D02*
X159765D01*
X157863Y240403D01*
X156072Y239661D01*
X154460Y238584D01*
X153089Y237213D01*
X152012Y235601D01*
X151377Y234068D01*
X150577Y234227D01*
Y240781D01*
X130892D01*
Y222073D01*
X106409D01*
X106166Y222213D01*
X105315Y222441D01*
X104434D01*
X103583Y222213D01*
X102820Y221772D01*
X102197Y221149D01*
X101756Y220386D01*
X101528Y219535D01*
Y218654D01*
X101756Y217803D01*
X102197Y217040D01*
X102820Y216417D01*
X103583Y215976D01*
X104434Y215748D01*
X105315D01*
X106166Y215976D01*
X106409Y216116D01*
X157087D01*
X157857Y216218D01*
X158576Y216515D01*
X159193Y216989D01*
X162840Y220636D01*
X163313Y221253D01*
X163387Y221431D01*
X163605Y221475D01*
X165396Y222217D01*
X167008Y223294D01*
X168379Y224665D01*
X169457Y226277D01*
X170199Y228068D01*
X170577Y229970D01*
Y231908D01*
X170199Y233810D01*
X169457Y235601D01*
X168379Y237213D01*
X167008Y238584D01*
X165396Y239661D01*
X163605Y240403D01*
X161704Y240781D01*
D02*
G37*
G36*
X93916D02*
X91978D01*
X90076Y240403D01*
X88285Y239661D01*
X86673Y238584D01*
X85302Y237213D01*
X84225Y235601D01*
X83483Y233810D01*
X83355Y233167D01*
X82539D01*
X82411Y233810D01*
X81669Y235601D01*
X80592Y237213D01*
X79221Y238584D01*
X77609Y239661D01*
X75818Y240403D01*
X73917Y240781D01*
X71978D01*
X70076Y240403D01*
X68285Y239661D01*
X66673Y238584D01*
X65302Y237213D01*
X64225Y235601D01*
X63590Y234068D01*
X62790Y234227D01*
Y240781D01*
X43105D01*
Y221096D01*
X62790D01*
Y227651D01*
X63590Y227810D01*
X64225Y226277D01*
X65302Y224665D01*
X66673Y223294D01*
X68285Y222217D01*
X69226Y221827D01*
Y214186D01*
X65696Y210655D01*
X59055D01*
X59055Y210655D01*
X29528D01*
X28757Y210554D01*
X28038Y210256D01*
X27422Y209783D01*
X22658Y205019D01*
X22185Y204402D01*
X21887Y203684D01*
X21786Y202913D01*
Y201811D01*
X14724D01*
Y193858D01*
X14969D01*
Y192913D01*
X15091Y191988D01*
X15448Y191126D01*
X16016Y190386D01*
X16756Y189818D01*
X17618Y189461D01*
X18543Y189339D01*
X19468Y189461D01*
X20330Y189818D01*
X20749Y190140D01*
X21549Y189745D01*
Y185630D01*
X16280D01*
Y184661D01*
X15028D01*
Y180413D01*
Y176165D01*
X16280D01*
Y175197D01*
X16620D01*
X16651Y174965D01*
X16948Y174247D01*
X17422Y173630D01*
X23866Y167185D01*
X24483Y166712D01*
X25201Y166415D01*
X25972Y166313D01*
X27198D01*
X27504Y165574D01*
X27422Y165492D01*
X26948Y164875D01*
X26651Y164157D01*
X26549Y163386D01*
X11280D01*
Y152953D01*
X28038D01*
X28200Y152695D01*
X28326Y152153D01*
X27834Y151661D01*
X27393Y150898D01*
X27165Y150047D01*
Y149166D01*
X27393Y148315D01*
X27834Y147552D01*
X28457Y146929D01*
X29220Y146488D01*
X30071Y146260D01*
X30952D01*
X31804Y146488D01*
X32567Y146929D01*
X33190Y147552D01*
X33630Y148315D01*
X33703Y148585D01*
X36634Y151516D01*
X37107Y152133D01*
X37404Y152851D01*
X37418Y152953D01*
X37776D01*
Y153921D01*
X39028D01*
Y158169D01*
X40028D01*
Y153921D01*
X41280D01*
Y152953D01*
X41397D01*
X41459Y152485D01*
X41776Y151719D01*
X42281Y151061D01*
X45223Y148119D01*
X45551Y147552D01*
X46174Y146929D01*
X46937Y146488D01*
X47788Y146260D01*
X48669D01*
X49520Y146488D01*
X50283Y146929D01*
X50906Y147552D01*
X51347Y148315D01*
X51575Y149166D01*
Y150047D01*
X51347Y150898D01*
X50906Y151661D01*
X50283Y152284D01*
X49715Y152612D01*
X47776Y154552D01*
Y162376D01*
X95472D01*
X96243Y162478D01*
X96962Y162775D01*
X97578Y163248D01*
X108405Y174075D01*
X108405Y174075D01*
X108878Y174692D01*
X109176Y175410D01*
X109277Y176181D01*
Y185774D01*
X110326Y186823D01*
X111126Y186491D01*
Y182783D01*
X115079D01*
X119032D01*
Y186969D01*
X120158D01*
Y176181D01*
X130000D01*
Y188386D01*
X128976D01*
Y194921D01*
X115118D01*
Y193923D01*
X110236D01*
X109465Y193822D01*
X108747Y193524D01*
X108130Y193051D01*
X108130Y193051D01*
X104193Y189114D01*
X104018Y188886D01*
X103425Y188386D01*
X103052D01*
X102480Y188937D01*
Y196890D01*
X96356D01*
X95822Y197690D01*
X95972Y198051D01*
X96094Y198976D01*
X95972Y199901D01*
X95615Y200763D01*
X95047Y201503D01*
X94307Y202071D01*
X93445Y202429D01*
X92520Y202550D01*
X92520Y202550D01*
X90459D01*
Y202795D01*
X86722D01*
X86416Y203534D01*
X94311Y211429D01*
X94784Y212046D01*
X95082Y212764D01*
X95183Y213535D01*
Y221348D01*
X95818Y221475D01*
X97609Y222217D01*
X99221Y223294D01*
X100592Y224665D01*
X101670Y226277D01*
X102411Y228068D01*
X102790Y229970D01*
Y231908D01*
X102411Y233810D01*
X101670Y235601D01*
X100592Y237213D01*
X99221Y238584D01*
X97609Y239661D01*
X95818Y240403D01*
X93916Y240781D01*
D02*
G37*
G36*
X181414Y237844D02*
X181234D01*
Y231439D01*
X187640D01*
Y231619D01*
X187374Y232953D01*
X186854Y234210D01*
X186098Y235341D01*
X185136Y236303D01*
X184005Y237058D01*
X182748Y237579D01*
X181414Y237844D01*
D02*
G37*
G36*
X180234D02*
X180054D01*
X178720Y237579D01*
X177463Y237058D01*
X176332Y236303D01*
X175370Y235341D01*
X174615Y234210D01*
X174094Y232953D01*
X173829Y231619D01*
Y231439D01*
X180234D01*
Y237844D01*
D02*
G37*
G36*
X113627D02*
X113447D01*
Y231439D01*
X119853D01*
Y231619D01*
X119587Y232953D01*
X119067Y234210D01*
X118311Y235341D01*
X117349Y236303D01*
X116218Y237058D01*
X114961Y237579D01*
X113627Y237844D01*
D02*
G37*
G36*
X112447D02*
X112267D01*
X110933Y237579D01*
X109676Y237058D01*
X108545Y236303D01*
X107583Y235341D01*
X106828Y234210D01*
X106307Y232953D01*
X106042Y231619D01*
Y231439D01*
X112447D01*
Y237844D01*
D02*
G37*
G36*
X11811Y244239D02*
X10247Y244085D01*
X8742Y243629D01*
X7356Y242888D01*
X6141Y241891D01*
X5144Y240675D01*
X4403Y239289D01*
X3946Y237785D01*
X3792Y236221D01*
X3946Y234656D01*
X4403Y233152D01*
X5144Y231765D01*
X6141Y230550D01*
X7356Y229553D01*
X8742Y228812D01*
X10247Y228356D01*
X11811Y228202D01*
X13375Y228356D01*
X14880Y228812D01*
X16266Y229553D01*
X17481Y230550D01*
X18478Y231765D01*
X19219Y233152D01*
X19676Y234656D01*
X19830Y236221D01*
X19676Y237785D01*
X19219Y239289D01*
X18478Y240675D01*
X17481Y241891D01*
X16266Y242888D01*
X14880Y243629D01*
X13375Y244085D01*
X11811Y244239D01*
D02*
G37*
G36*
X187640Y230439D02*
X181234D01*
Y224033D01*
X181414D01*
X182748Y224299D01*
X184005Y224819D01*
X185136Y225575D01*
X186098Y226537D01*
X186854Y227668D01*
X187374Y228925D01*
X187640Y230259D01*
Y230439D01*
D02*
G37*
G36*
X180234D02*
X173829D01*
Y230259D01*
X174094Y228925D01*
X174615Y227668D01*
X175370Y226537D01*
X176332Y225575D01*
X177463Y224819D01*
X178720Y224299D01*
X180054Y224033D01*
X180234D01*
Y230439D01*
D02*
G37*
G36*
X119853D02*
X113447D01*
Y224033D01*
X113627D01*
X114961Y224299D01*
X116218Y224819D01*
X117349Y225575D01*
X118311Y226537D01*
X119067Y227668D01*
X119587Y228925D01*
X119853Y230259D01*
Y230439D01*
D02*
G37*
G36*
X112447D02*
X106042D01*
Y230259D01*
X106307Y228925D01*
X106828Y227668D01*
X107583Y226537D01*
X108545Y225575D01*
X109676Y224819D01*
X110933Y224299D01*
X112267Y224033D01*
X112447D01*
Y230439D01*
D02*
G37*
G36*
X338992Y225410D02*
X328650D01*
Y220972D01*
X338992D01*
Y225410D01*
D02*
G37*
G36*
X327650D02*
X317307D01*
Y220972D01*
X327650D01*
Y225410D01*
D02*
G37*
G36*
X245680Y249031D02*
X244320D01*
X242986Y248766D01*
X241729Y248246D01*
X240598Y247490D01*
X239636Y246528D01*
X238880Y245397D01*
X238360Y244140D01*
X238094Y242806D01*
Y241446D01*
X238360Y240112D01*
X238880Y238855D01*
X239636Y237724D01*
X240598Y236762D01*
X241729Y236006D01*
X242220Y235803D01*
Y230236D01*
X242315Y229517D01*
X242593Y228846D01*
X243035Y228271D01*
X243071Y228234D01*
Y224370D01*
X249377D01*
X249764Y223866D01*
Y222985D01*
X249992Y222133D01*
X250432Y221370D01*
X251056Y220747D01*
X251819Y220307D01*
X252670Y220079D01*
X253551D01*
X254402Y220307D01*
X255165Y220747D01*
X255788Y221370D01*
X256035Y221797D01*
X256835Y221583D01*
Y220146D01*
X259343D01*
Y222496D01*
X257154D01*
X256611Y222876D01*
X256457Y223140D01*
Y223866D01*
X256844Y224370D01*
X256929D01*
Y232323D01*
X247780D01*
Y235803D01*
X248271Y236006D01*
X249402Y236762D01*
X250364Y237724D01*
X250398Y237775D01*
X251031Y238158D01*
Y238158D01*
X251031Y238158D01*
X254500D01*
Y242126D01*
Y246094D01*
X251031D01*
X251031Y246094D01*
Y246094D01*
X250398Y246476D01*
X250364Y246528D01*
X249402Y247490D01*
X248271Y248246D01*
X247014Y248766D01*
X245680Y249031D01*
D02*
G37*
G36*
X338992Y219972D02*
X328650D01*
Y215535D01*
X338992D01*
Y219972D01*
D02*
G37*
G36*
X327650D02*
X317307D01*
Y215535D01*
X327650D01*
Y219972D01*
D02*
G37*
G36*
X285252Y215567D02*
X282980D01*
Y213492D01*
X285252D01*
Y215567D01*
D02*
G37*
G36*
X281980D02*
X279709D01*
Y213492D01*
X281980D01*
Y215567D01*
D02*
G37*
G36*
X285252Y212492D02*
X282980D01*
Y210417D01*
X285252D01*
Y212492D01*
D02*
G37*
G36*
X281980D02*
X279709D01*
Y210417D01*
X281980D01*
Y212492D01*
D02*
G37*
G36*
X314583Y219504D02*
X310146D01*
Y209161D01*
X314583D01*
Y219504D01*
D02*
G37*
G36*
X309146D02*
X304709D01*
Y209161D01*
X309146D01*
Y219504D01*
D02*
G37*
G36*
Y208161D02*
X304709D01*
Y197819D01*
X309146D01*
Y208161D01*
D02*
G37*
G36*
X199500Y193595D02*
X197228D01*
Y191126D01*
X199500D01*
Y193595D01*
D02*
G37*
G36*
X199500Y189189D02*
X197228D01*
Y186721D01*
X199500D01*
Y189189D01*
D02*
G37*
G36*
Y185721D02*
X197228D01*
Y183252D01*
X199500D01*
Y185721D01*
D02*
G37*
G36*
X14028Y184661D02*
X12248D01*
Y180913D01*
X14028D01*
Y184661D01*
D02*
G37*
G36*
X199736Y181354D02*
X197386D01*
Y178847D01*
X199736D01*
Y181354D01*
D02*
G37*
G36*
X119032Y181783D02*
X115579D01*
Y177150D01*
X119032D01*
Y181783D01*
D02*
G37*
G36*
X114579D02*
X111126D01*
Y177150D01*
X114579D01*
Y181783D01*
D02*
G37*
G36*
X14028Y179913D02*
X12248D01*
Y176165D01*
X14028D01*
Y179913D01*
D02*
G37*
G36*
X199736Y177847D02*
X197386D01*
Y175339D01*
X199736D01*
Y177847D01*
D02*
G37*
G36*
X260285Y188976D02*
X258928D01*
X257597Y188712D01*
X256343Y188192D01*
X255214Y187438D01*
X254255Y186479D01*
X253501Y185350D01*
X252981Y184096D01*
X252716Y182765D01*
Y181408D01*
X252981Y180077D01*
X253501Y178823D01*
X254255Y177695D01*
X255214Y176735D01*
X256343Y175981D01*
X257597Y175462D01*
X258928Y175197D01*
X260285D01*
X261616Y175462D01*
X262870Y175981D01*
X263998Y176735D01*
X264958Y177695D01*
X265712Y178823D01*
X266231Y180077D01*
X266496Y181408D01*
Y182765D01*
X266231Y184096D01*
X265712Y185350D01*
X264958Y186479D01*
X263998Y187438D01*
X262870Y188192D01*
X261616Y188712D01*
X260285Y188976D01*
D02*
G37*
G36*
X165823Y175587D02*
X164886D01*
X163981Y175344D01*
X163169Y174875D01*
X162506Y174213D01*
X162038Y173401D01*
X161795Y172496D01*
Y171559D01*
X162038Y170654D01*
X162506Y169842D01*
X163169Y169180D01*
X163981Y168711D01*
X164886Y168468D01*
X165823D01*
X166728Y168711D01*
X167540Y169180D01*
X168202Y169842D01*
X168671Y170654D01*
X168913Y171559D01*
Y172496D01*
X168671Y173401D01*
X168202Y174213D01*
X167540Y174875D01*
X166728Y175344D01*
X165823Y175587D01*
D02*
G37*
G36*
X228240Y168520D02*
X225772D01*
Y166248D01*
X228240D01*
Y168520D01*
D02*
G37*
G36*
X319418Y165370D02*
X319398D01*
Y161917D01*
X322850D01*
Y161938D01*
X322581Y162943D01*
X322061Y163844D01*
X321325Y164580D01*
X320423Y165101D01*
X319418Y165370D01*
D02*
G37*
G36*
X318398D02*
X318377D01*
X317372Y165101D01*
X316471Y164580D01*
X315735Y163844D01*
X315214Y162943D01*
X314945Y161938D01*
Y161917D01*
X318398D01*
Y165370D01*
D02*
G37*
G36*
X322850Y160917D02*
X319398D01*
Y157465D01*
X319418D01*
X320423Y157734D01*
X321325Y158254D01*
X322061Y158990D01*
X322581Y159892D01*
X322850Y160897D01*
Y160917D01*
D02*
G37*
G36*
X318398D02*
X314945D01*
Y160897D01*
X315214Y159892D01*
X315735Y158990D01*
X316471Y158254D01*
X317372Y157734D01*
X318377Y157465D01*
X318398D01*
Y160917D01*
D02*
G37*
G36*
X255161Y156551D02*
X252811D01*
Y154043D01*
X255161D01*
Y156551D01*
D02*
G37*
G36*
X210484Y156512D02*
X208213D01*
Y154043D01*
X210484D01*
Y156512D01*
D02*
G37*
G36*
X165745Y145508D02*
X164963D01*
X164208Y145306D01*
X163532Y144915D01*
X162979Y144362D01*
X162588Y143685D01*
X162386Y142930D01*
Y142149D01*
X162588Y141394D01*
X162979Y140717D01*
X163532Y140164D01*
X164208Y139773D01*
X164963Y139571D01*
X165745D01*
X166500Y139773D01*
X167177Y140164D01*
X167730Y140717D01*
X168121Y141394D01*
X168323Y142149D01*
Y142930D01*
X168121Y143685D01*
X167730Y144362D01*
X167177Y144915D01*
X166500Y145306D01*
X165745Y145508D01*
D02*
G37*
G36*
X296079Y142807D02*
X293610D01*
Y139551D01*
X296079D01*
Y142807D01*
D02*
G37*
G36*
X118087Y131846D02*
X115579D01*
Y129496D01*
X118087D01*
Y131846D01*
D02*
G37*
G36*
X61429Y131846D02*
X58921D01*
Y129496D01*
X61429D01*
Y131846D01*
D02*
G37*
G36*
X66850Y152559D02*
Y152559D01*
X57008D01*
Y140354D01*
X57953D01*
Y134748D01*
X58921D01*
Y132846D01*
X61929D01*
Y132346D01*
X62429D01*
Y129496D01*
X64149D01*
Y128937D01*
X64244Y128218D01*
X64522Y127547D01*
X64964Y126971D01*
X66932Y125003D01*
X67508Y124561D01*
X68178Y124284D01*
X68898Y124189D01*
X82510D01*
X86787Y119912D01*
Y71850D01*
X86882Y71131D01*
X87160Y70461D01*
X87601Y69885D01*
X96460Y61027D01*
X97035Y60585D01*
X97402Y60433D01*
Y59449D01*
X97000D01*
X96149Y59221D01*
X95386Y58780D01*
X94763Y58157D01*
X94323Y57394D01*
X94095Y56543D01*
Y55662D01*
X94323Y54811D01*
X94763Y54048D01*
X95386Y53425D01*
X96149Y52984D01*
X97000Y52756D01*
X97402D01*
Y52126D01*
X111260D01*
X111260Y52126D01*
Y52126D01*
X111800Y51592D01*
X121263Y42129D01*
X121838Y41687D01*
X122509Y41410D01*
X123228Y41315D01*
X125984D01*
Y40354D01*
X126953D01*
Y39595D01*
X130905D01*
X134858D01*
Y40354D01*
X135827D01*
Y45354D01*
Y50354D01*
Y55354D01*
Y60354D01*
Y65354D01*
Y70354D01*
Y75354D01*
Y80354D01*
Y85354D01*
Y90354D01*
Y95354D01*
Y100354D01*
Y107835D01*
X125984D01*
Y106874D01*
X111260D01*
Y108307D01*
X104833D01*
X104567Y108654D01*
Y109535D01*
X104339Y110386D01*
X103898Y111149D01*
X103275Y111772D01*
X102512Y112213D01*
X101661Y112441D01*
X100780D01*
X99929Y112213D01*
X99166Y111772D01*
X98543Y111149D01*
X98102Y110386D01*
X97874Y109535D01*
Y108654D01*
X97608Y108307D01*
X97402D01*
Y100787D01*
X97000D01*
X96149Y100559D01*
X96099Y100531D01*
X95299Y100992D01*
Y123903D01*
X95563Y124246D01*
X95841Y124916D01*
X95935Y125636D01*
Y128527D01*
X98903D01*
X99517Y127727D01*
X99482Y127600D01*
Y126719D01*
X99711Y125868D01*
X100151Y125105D01*
X100774Y124482D01*
X101537Y124041D01*
X102388Y123813D01*
X103270D01*
X104121Y124041D01*
X104707Y124380D01*
X106490D01*
X107210Y124475D01*
X107880Y124752D01*
X108456Y125194D01*
X111217Y127956D01*
X111659Y128531D01*
X111778Y128817D01*
X112071Y129496D01*
X114579D01*
Y132346D01*
X115079D01*
Y132846D01*
X118087D01*
Y134748D01*
X119055D01*
Y139789D01*
X119621Y140354D01*
X120537D01*
X121102Y139789D01*
Y134748D01*
Y128528D01*
X129055D01*
Y128773D01*
X129921D01*
X130846Y128894D01*
X131708Y129251D01*
X132448Y129819D01*
X133016Y130560D01*
X133373Y131421D01*
X133495Y132346D01*
X133373Y133272D01*
X133016Y134133D01*
X132448Y134874D01*
X131708Y135442D01*
X130846Y135799D01*
X129921Y135920D01*
X129055D01*
Y140354D01*
X130000D01*
Y152559D01*
X120800D01*
X120158Y152559D01*
X119358Y152559D01*
X110158D01*
Y140745D01*
X109880Y140533D01*
X107286Y137938D01*
X106845Y137363D01*
X106567Y136692D01*
X106472Y135973D01*
Y135827D01*
X105672Y135433D01*
X105661Y135442D01*
X104799Y135799D01*
X103874Y135920D01*
X102480D01*
Y140354D01*
X103425D01*
Y152559D01*
X93583D01*
Y152559D01*
X93425D01*
Y152559D01*
X83583D01*
Y140354D01*
X84528D01*
Y134748D01*
X85496D01*
Y132846D01*
X88504D01*
Y131846D01*
X85496D01*
Y130022D01*
X85445Y129947D01*
X84696Y129523D01*
X84381Y129654D01*
X83661Y129748D01*
X80252D01*
X79858Y130548D01*
X79867Y130560D01*
X80224Y131421D01*
X80345Y132346D01*
X80224Y133272D01*
X79867Y134133D01*
X79299Y134874D01*
X78559Y135442D01*
X77697Y135799D01*
X76772Y135920D01*
X75906D01*
Y140354D01*
X76850D01*
Y152559D01*
X67008D01*
Y152559D01*
X66850D01*
D02*
G37*
G36*
X171473Y134484D02*
X165854D01*
Y126898D01*
X171473D01*
Y134484D01*
D02*
G37*
G36*
X164854D02*
X159236D01*
Y126898D01*
X164854D01*
Y134484D01*
D02*
G37*
G36*
X171473Y125898D02*
X165854D01*
Y118311D01*
X171473D01*
Y125898D01*
D02*
G37*
G36*
X164854D02*
X159236D01*
Y118311D01*
X164854D01*
Y125898D01*
D02*
G37*
G36*
X80165Y121457D02*
X79284D01*
X78433Y121229D01*
X77670Y120788D01*
X77047Y120165D01*
X76606Y119402D01*
X76378Y118551D01*
Y118150D01*
X75197D01*
Y118551D01*
X74969Y119402D01*
X74528Y120165D01*
X73905Y120788D01*
X73142Y121229D01*
X72291Y121457D01*
X71410D01*
X70559Y121229D01*
X69796Y120788D01*
X69173Y120165D01*
X68732Y119402D01*
X68504Y118551D01*
Y118150D01*
X67874D01*
Y110512D01*
Y104291D01*
X69071D01*
Y95640D01*
X68260Y94829D01*
X67606Y94654D01*
X66843Y94213D01*
X66220Y93590D01*
X66036Y93272D01*
X65236Y93487D01*
Y96378D01*
X56968D01*
Y89685D01*
Y85354D01*
Y81024D01*
Y76693D01*
Y72362D01*
X57937D01*
Y71878D01*
X61102D01*
Y70878D01*
X57937D01*
Y70394D01*
X56968D01*
Y63701D01*
Y61158D01*
X55629D01*
Y97441D01*
X55476Y98209D01*
X55041Y98860D01*
X54390Y99295D01*
X53622Y99448D01*
X23622D01*
X22854Y99295D01*
X22203Y98860D01*
X21768Y98209D01*
X21615Y97441D01*
Y60528D01*
X17252D01*
Y58150D01*
Y55772D01*
X21923D01*
X22203Y55352D01*
X22854Y54917D01*
X23622Y54765D01*
X53622D01*
X54390Y54917D01*
X55041Y55352D01*
X55321Y55772D01*
X58634D01*
Y58465D01*
X59134D01*
Y58965D01*
X65646D01*
Y61158D01*
X65236D01*
Y64268D01*
X66827D01*
X66843Y64251D01*
X67606Y63811D01*
X68260Y63635D01*
X69071Y62825D01*
Y59095D01*
X67874D01*
Y51457D01*
Y45236D01*
X68504D01*
Y44835D01*
X68732Y43984D01*
X69173Y43221D01*
X69796Y42598D01*
X70559Y42157D01*
X71410Y41929D01*
X72291D01*
X73142Y42157D01*
X73905Y42598D01*
X74528Y43221D01*
X74969Y43984D01*
X75197Y44835D01*
Y45236D01*
X76378D01*
Y44835D01*
X76606Y43984D01*
X77047Y43221D01*
X77670Y42598D01*
X78433Y42157D01*
X79284Y41929D01*
X80165D01*
X81016Y42157D01*
X81779Y42598D01*
X82402Y43221D01*
X82843Y43984D01*
X83071Y44835D01*
Y45236D01*
X83701D01*
Y51003D01*
X83830Y51103D01*
X84071Y51064D01*
X84630Y50711D01*
Y49319D01*
X87598D01*
X90567D01*
X90567Y51591D01*
X91292Y51772D01*
X91535D01*
Y59252D01*
X91211D01*
X90945Y59599D01*
Y60480D01*
X90717Y61331D01*
X90276Y62094D01*
X90040Y62330D01*
X90006Y62414D01*
X89564Y62989D01*
X70910Y81643D01*
X70952Y81968D01*
X71575Y82591D01*
X72016Y83354D01*
X72191Y84008D01*
X81690Y93507D01*
X82132Y94083D01*
X82409Y94753D01*
X82504Y95472D01*
Y104291D01*
X83701D01*
Y110512D01*
Y118150D01*
X83071D01*
Y118551D01*
X82843Y119402D01*
X82402Y120165D01*
X81779Y120788D01*
X81016Y121229D01*
X80165Y121457D01*
D02*
G37*
G36*
X24307Y111551D02*
X17252D01*
Y109673D01*
X24307D01*
Y111551D01*
D02*
G37*
G36*
X16252D02*
X9197D01*
Y109673D01*
X16252D01*
Y111551D01*
D02*
G37*
G36*
X190606Y112969D02*
X188335D01*
Y109516D01*
X190606D01*
Y112969D01*
D02*
G37*
G36*
X65646Y111551D02*
X61543D01*
Y108807D01*
X65646D01*
Y111551D01*
D02*
G37*
G36*
X60543D02*
X56441D01*
Y108807D01*
X60543D01*
Y111551D01*
D02*
G37*
G36*
X43386Y112583D02*
X33932D01*
X33164Y112430D01*
X32513Y111995D01*
X32078Y111344D01*
X31925Y110576D01*
Y107795D01*
X32078Y107027D01*
X32513Y106376D01*
X33164Y105941D01*
X33932Y105788D01*
X43386D01*
X44154Y105941D01*
X44805Y106376D01*
X45240Y107027D01*
X45393Y107795D01*
Y110576D01*
X45240Y111344D01*
X44805Y111995D01*
X44154Y112430D01*
X43386Y112583D01*
D02*
G37*
G36*
X190606Y108516D02*
X188335D01*
Y105063D01*
X190606D01*
Y108516D01*
D02*
G37*
G36*
X65646Y107807D02*
X61543D01*
Y105063D01*
X65646D01*
Y107807D01*
D02*
G37*
G36*
X60543D02*
X56441D01*
Y105063D01*
X60543D01*
Y107807D01*
D02*
G37*
G36*
X183275Y118268D02*
X182394D01*
X181543Y118040D01*
X180780Y117599D01*
X180157Y116976D01*
X179716Y116213D01*
X179488Y115362D01*
Y114481D01*
X179071Y113937D01*
X139094D01*
Y104095D01*
X186575D01*
Y105063D01*
X187335D01*
Y109016D01*
Y112969D01*
X186575D01*
Y113937D01*
X186575D01*
X186175Y114458D01*
X186181Y114481D01*
Y115362D01*
X185953Y116213D01*
X185512Y116976D01*
X184889Y117599D01*
X184126Y118040D01*
X183275Y118268D01*
D02*
G37*
G36*
X276630Y100721D02*
X274122D01*
Y98370D01*
X276630D01*
Y100721D01*
D02*
G37*
G36*
X273122D02*
X270614D01*
Y98370D01*
X273122D01*
Y100721D01*
D02*
G37*
G36*
X388461Y97335D02*
X383709D01*
Y94728D01*
X388461D01*
Y97335D01*
D02*
G37*
G36*
X382709D02*
X377957D01*
Y94728D01*
X382709D01*
Y97335D01*
D02*
G37*
G36*
X266827Y97457D02*
X263374D01*
Y92823D01*
X266827D01*
Y97457D01*
D02*
G37*
G36*
X262374D02*
X258921D01*
Y92823D01*
X262374D01*
Y97457D01*
D02*
G37*
G36*
X24307Y108673D02*
X16752D01*
X9197D01*
Y106795D01*
X11162D01*
X11404Y105995D01*
X11009Y105731D01*
X10574Y105080D01*
X10421Y104312D01*
Y103819D01*
X8228D01*
Y96339D01*
X9665D01*
Y94173D01*
X9817Y93405D01*
X10252Y92754D01*
X10904Y92319D01*
X11672Y92166D01*
X13858D01*
X14626Y92319D01*
X15278Y92754D01*
X15712Y93405D01*
X15865Y94173D01*
Y96349D01*
X15827Y96542D01*
Y100099D01*
X20945D01*
X21713Y100252D01*
X22364Y100687D01*
X22799Y101338D01*
X22952Y102106D01*
Y104312D01*
X22799Y105080D01*
X22364Y105731D01*
X21969Y105995D01*
X22212Y106795D01*
X24307D01*
Y108673D01*
D02*
G37*
G36*
X266827Y91823D02*
X263374D01*
Y87189D01*
X266827D01*
Y91823D01*
D02*
G37*
G36*
X262374D02*
X258921D01*
Y87189D01*
X262374D01*
Y91823D01*
D02*
G37*
G36*
X15236Y87323D02*
X8228D01*
Y79252D01*
X15236D01*
Y87323D01*
D02*
G37*
G36*
X383444Y79508D02*
X380937D01*
Y77157D01*
X383444D01*
Y79508D01*
D02*
G37*
G36*
X179543Y76276D02*
X177272D01*
Y74004D01*
X179543D01*
Y76276D01*
D02*
G37*
G36*
X165248D02*
X162976D01*
Y74004D01*
X165248D01*
Y76276D01*
D02*
G37*
G36*
X176272D02*
X171760D01*
Y73504D01*
X170760D01*
Y76276D01*
X166248D01*
Y73504D01*
X165748D01*
Y73004D01*
X162976D01*
Y70732D01*
Y68492D01*
X165748D01*
Y67492D01*
X162976D01*
Y65220D01*
Y62980D01*
X165748D01*
Y62480D01*
X166248D01*
Y59709D01*
X170760D01*
Y62480D01*
X171760D01*
Y59709D01*
X176272D01*
Y62480D01*
X176772D01*
Y62980D01*
X179543D01*
Y65220D01*
Y67492D01*
X176772D01*
Y68492D01*
X179543D01*
Y70732D01*
Y73004D01*
X176772D01*
Y73504D01*
X176272D01*
Y76276D01*
D02*
G37*
G36*
X388402Y69504D02*
X382980D01*
Y62508D01*
X388402D01*
Y69504D01*
D02*
G37*
G36*
X381980D02*
X376559D01*
Y62508D01*
X381980D01*
Y69504D01*
D02*
G37*
G36*
X179543Y61980D02*
X177272D01*
Y59709D01*
X179543D01*
Y61980D01*
D02*
G37*
G36*
X165248D02*
X162976D01*
Y59709D01*
X165248D01*
Y61980D01*
D02*
G37*
G36*
X16252Y60528D02*
X9197D01*
Y58650D01*
X16252D01*
Y60528D01*
D02*
G37*
G36*
X65646Y57965D02*
X59634D01*
Y55772D01*
X65646D01*
Y57965D01*
D02*
G37*
G36*
X16252Y57650D02*
X9197D01*
Y55772D01*
X16252D01*
Y57650D01*
D02*
G37*
G36*
X388402Y61508D02*
X382980D01*
Y54512D01*
X388402D01*
Y61508D01*
D02*
G37*
G36*
X381980D02*
X376559D01*
Y54512D01*
X381980D01*
Y61508D01*
D02*
G37*
G36*
X90567Y48319D02*
X88098D01*
Y46047D01*
X90567D01*
Y48319D01*
D02*
G37*
G36*
X87098D02*
X84630D01*
Y46047D01*
X87098D01*
Y48319D01*
D02*
G37*
G36*
X82768Y39386D02*
X80496D01*
Y36917D01*
X82768D01*
Y39386D01*
D02*
G37*
G36*
X255134Y41354D02*
X252272D01*
Y36524D01*
X255134D01*
Y41354D01*
D02*
G37*
G36*
X251272D02*
X248410D01*
Y36524D01*
X251272D01*
Y41354D01*
D02*
G37*
G36*
X203756Y38594D02*
X200303D01*
Y36323D01*
X203756D01*
Y38594D01*
D02*
G37*
G36*
X199303D02*
X195850D01*
Y36323D01*
X199303D01*
Y38594D01*
D02*
G37*
G36*
X134858D02*
X131405D01*
Y36323D01*
X134858D01*
Y38594D01*
D02*
G37*
G36*
X130405D02*
X126953D01*
Y36323D01*
X130405D01*
Y38594D01*
D02*
G37*
G36*
X209577Y36969D02*
X207108D01*
Y34697D01*
X209577D01*
Y36969D01*
D02*
G37*
G36*
X339103Y37417D02*
X339083D01*
Y33965D01*
X342535D01*
Y33985D01*
X342266Y34990D01*
X341746Y35892D01*
X341010Y36628D01*
X340108Y37148D01*
X339103Y37417D01*
D02*
G37*
G36*
X338083D02*
X338062D01*
X337057Y37148D01*
X336156Y36628D01*
X335420Y35892D01*
X334899Y34990D01*
X334630Y33985D01*
Y33965D01*
X338083D01*
Y37417D01*
D02*
G37*
G36*
X82768Y35917D02*
X80496D01*
Y33449D01*
X82768D01*
Y35917D01*
D02*
G37*
G36*
X172685Y35827D02*
X171803D01*
X170952Y35599D01*
X170189Y35158D01*
X169566Y34535D01*
X169126Y33772D01*
X168898Y32921D01*
Y32520D01*
X163328D01*
X162807Y32919D01*
X162137Y33197D01*
X161417Y33292D01*
X145669D01*
X144950Y33197D01*
X144279Y32919D01*
X143704Y32477D01*
X143510Y32283D01*
X134646D01*
Y24409D01*
Y16929D01*
X135971D01*
X136124Y16426D01*
X136149Y16129D01*
X135239Y15219D01*
X134485Y14090D01*
X133966Y12836D01*
X133701Y11505D01*
Y10148D01*
X133966Y8817D01*
X134485Y7563D01*
X135239Y6435D01*
X136199Y5475D01*
X137327Y4721D01*
X138581Y4202D01*
X139912Y3937D01*
X141269D01*
X142600Y4202D01*
X143854Y4721D01*
X144983Y5475D01*
X145591Y6083D01*
X146199Y5475D01*
X147327Y4721D01*
X148581Y4202D01*
X149912Y3937D01*
X151269D01*
X152600Y4202D01*
X153854Y4721D01*
X154982Y5475D01*
X155591Y6083D01*
X156199Y5475D01*
X157327Y4721D01*
X158581Y4202D01*
X159912Y3937D01*
X161269D01*
X162600Y4202D01*
X163854Y4721D01*
X164982Y5475D01*
X165591Y6083D01*
X166199Y5475D01*
X167327Y4721D01*
X168581Y4202D01*
X169912Y3937D01*
X171269D01*
X172600Y4202D01*
X173854Y4721D01*
X174983Y5475D01*
X175942Y6435D01*
X176696Y7563D01*
X176835Y7899D01*
X177768Y8060D01*
X178164Y7664D01*
X179065Y7143D01*
X180070Y6874D01*
X180091D01*
Y10827D01*
X181091D01*
Y6874D01*
X181111D01*
X182116Y7143D01*
X182901Y7596D01*
X183701Y7340D01*
Y3937D01*
X197480D01*
Y17717D01*
X195079D01*
Y24409D01*
Y32283D01*
X186204D01*
X186024Y32307D01*
X176221D01*
Y32520D01*
X175591D01*
Y32921D01*
X175363Y33772D01*
X174922Y34535D01*
X174299Y35158D01*
X173536Y35599D01*
X172685Y35827D01*
D02*
G37*
G36*
X255134Y35524D02*
X252272D01*
Y30693D01*
X255134D01*
Y35524D01*
D02*
G37*
G36*
X251272D02*
X248410D01*
Y30693D01*
X251272D01*
Y35524D01*
D02*
G37*
G36*
X342535Y32965D02*
X339083D01*
Y29512D01*
X339103D01*
X340108Y29781D01*
X341010Y30302D01*
X341746Y31038D01*
X342266Y31939D01*
X342535Y32944D01*
Y32965D01*
D02*
G37*
G36*
X338083D02*
X334630D01*
Y32944D01*
X334899Y31939D01*
X335420Y31038D01*
X336156Y30302D01*
X337057Y29781D01*
X338062Y29512D01*
X338083D01*
Y32965D01*
D02*
G37*
G36*
X80709Y32283D02*
X68504D01*
Y22835D01*
X80709D01*
Y32283D01*
D02*
G37*
G36*
X30084D02*
X17879D01*
Y22835D01*
X30084D01*
Y32283D01*
D02*
G37*
G36*
X107480Y40394D02*
X93622D01*
Y40354D01*
X86221D01*
Y40111D01*
X86039Y39386D01*
X85421Y39386D01*
X83768D01*
Y36417D01*
Y33449D01*
X86039Y33449D01*
X86221Y32724D01*
Y32480D01*
X87181D01*
Y31102D01*
X87276Y30383D01*
X87553Y29713D01*
X87995Y29137D01*
X91538Y25594D01*
X92114Y25152D01*
X92785Y24874D01*
X93504Y24779D01*
X104331D01*
Y22835D01*
X106988D01*
Y22296D01*
X107216Y21445D01*
X107657Y20682D01*
X108280Y20058D01*
X109043Y19618D01*
X109894Y19390D01*
X110775D01*
X111626Y19618D01*
X112389Y20058D01*
X113013Y20682D01*
X113453Y21445D01*
X113681Y22296D01*
Y22835D01*
X116535D01*
Y32283D01*
X108215D01*
X108114Y32305D01*
X108094Y33128D01*
X108733Y33299D01*
X109496Y33740D01*
X110119Y34363D01*
X110559Y35126D01*
X110787Y35977D01*
Y36858D01*
X110559Y37709D01*
X110119Y38472D01*
X109496Y39095D01*
X108733Y39536D01*
X107881Y39764D01*
X107480D01*
Y40394D01*
D02*
G37*
G36*
X65910Y32283D02*
X53706D01*
Y22835D01*
X56693D01*
Y22197D01*
X56921Y21346D01*
X57362Y20583D01*
X57985Y19960D01*
X58748Y19519D01*
X59599Y19291D01*
X60480D01*
X61331Y19519D01*
X62094Y19960D01*
X62717Y20583D01*
X63158Y21346D01*
X63386Y22197D01*
Y22835D01*
X65910D01*
Y32283D01*
D02*
G37*
G36*
X263795Y16938D02*
X261327D01*
Y14667D01*
X263795D01*
Y16938D01*
D02*
G37*
G36*
X260327D02*
X257858D01*
Y14667D01*
X260327D01*
Y16938D01*
D02*
G37*
G36*
X269382Y16938D02*
X266913D01*
Y14667D01*
X269382D01*
Y16938D01*
D02*
G37*
G36*
X381890Y27704D02*
X380325Y27550D01*
X378821Y27094D01*
X377435Y26353D01*
X376220Y25355D01*
X375222Y24140D01*
X374481Y22754D01*
X374025Y21249D01*
X373871Y19685D01*
X374025Y18121D01*
X374481Y16616D01*
X375222Y15230D01*
X376220Y14015D01*
X377435Y13017D01*
X378821Y12276D01*
X380325Y11820D01*
X381890Y11666D01*
X383454Y11820D01*
X384959Y12276D01*
X386345Y13017D01*
X387560Y14015D01*
X388557Y15230D01*
X389298Y16616D01*
X389755Y18121D01*
X389909Y19685D01*
X389755Y21249D01*
X389298Y22754D01*
X388557Y24140D01*
X387560Y25355D01*
X386345Y26353D01*
X384959Y27094D01*
X383454Y27550D01*
X381890Y27704D01*
D02*
G37*
G36*
X115567Y13598D02*
X110933D01*
Y10343D01*
X115567D01*
Y13598D01*
D02*
G37*
G36*
X64942D02*
X60308D01*
Y10343D01*
X64942D01*
Y13598D01*
D02*
G37*
G36*
X109933D02*
X105299D01*
Y10343D01*
X109933D01*
Y13598D01*
D02*
G37*
G36*
X59308D02*
X54674D01*
Y10343D01*
X59308D01*
Y13598D01*
D02*
G37*
G36*
X115567Y9342D02*
X110933D01*
Y6087D01*
X115567D01*
Y9342D01*
D02*
G37*
G36*
X109933D02*
X105299D01*
Y6087D01*
X109933D01*
Y9342D01*
D02*
G37*
G36*
X64942D02*
X60308D01*
Y6087D01*
X64942D01*
Y9342D01*
D02*
G37*
G36*
X59308D02*
X54674D01*
Y6087D01*
X59308D01*
Y9342D01*
D02*
G37*
G36*
X80709Y14567D02*
X68504D01*
Y5118D01*
X80709D01*
Y14567D01*
D02*
G37*
G36*
X30084D02*
X17879D01*
Y5118D01*
X30084D01*
Y14567D01*
D02*
G37*
%LPD*%
G36*
X388249Y199838D02*
X387543Y199461D01*
X387194Y199694D01*
X385761Y200288D01*
X384240Y200591D01*
X382689D01*
X381168Y200288D01*
X380741Y200111D01*
X380184Y200746D01*
X380585Y201441D01*
X380921Y202696D01*
Y202847D01*
X376484D01*
Y198409D01*
X376634D01*
X376984Y198503D01*
X377398Y197786D01*
X377348Y197736D01*
X376487Y196446D01*
X375893Y195013D01*
X375590Y193492D01*
Y191941D01*
X375893Y190420D01*
X376487Y188987D01*
X377348Y187697D01*
X378445Y186600D01*
X379735Y185739D01*
X381168Y185145D01*
X382689Y184843D01*
X384240D01*
X385761Y185145D01*
X387194Y185739D01*
X387543Y185972D01*
X388249Y185595D01*
Y176397D01*
X350450D01*
X350327Y210063D01*
X350892Y210630D01*
X358353D01*
X359154Y209829D01*
X360443Y208967D01*
X361603Y208487D01*
X361714Y207720D01*
X361686Y207611D01*
X361142Y207297D01*
X360223Y206378D01*
X359573Y205252D01*
X359236Y203996D01*
Y203847D01*
X364173D01*
X369110D01*
Y203996D01*
X368774Y205252D01*
X368124Y206378D01*
X367205Y207297D01*
X366660Y207611D01*
X366633Y207720D01*
X366744Y208487D01*
X367903Y208967D01*
X369193Y209829D01*
X369994Y210630D01*
X370164D01*
X370965Y209829D01*
X372254Y208967D01*
X373414Y208487D01*
X373525Y207720D01*
X373498Y207611D01*
X372953Y207297D01*
X372034Y206378D01*
X371384Y205252D01*
X371047Y203996D01*
Y203847D01*
X375984D01*
X380921D01*
Y203996D01*
X380585Y205252D01*
X379935Y206378D01*
X379016Y207297D01*
X378471Y207611D01*
X378444Y207720D01*
X378555Y208487D01*
X379714Y208967D01*
X381004Y209829D01*
X381805Y210630D01*
X388249D01*
Y199838D01*
D02*
G37*
G36*
X273583Y132835D02*
X275866D01*
Y131945D01*
X273965D01*
Y128937D01*
X273465D01*
Y128437D01*
X270614D01*
Y125929D01*
X272219D01*
X272488Y125129D01*
X272369Y125039D01*
X269646D01*
Y117402D01*
Y111015D01*
X257047D01*
X256122Y110893D01*
X255260Y110536D01*
X254520Y109968D01*
X250347Y105795D01*
X249779Y105055D01*
X249422Y104193D01*
X249300Y103268D01*
Y98425D01*
X247953D01*
X247858Y99186D01*
Y106132D01*
X254840Y113113D01*
X255281Y113689D01*
X255559Y114359D01*
X255654Y115079D01*
Y122047D01*
X257795D01*
Y130280D01*
X258121Y130531D01*
X258921Y130137D01*
Y128650D01*
X262874D01*
X266827D01*
Y132835D01*
X273583D01*
Y132835D01*
D02*
G37*
G36*
X388249Y127713D02*
X383709D01*
Y124606D01*
X383209D01*
Y124106D01*
X377957D01*
Y123027D01*
X377157Y122696D01*
X367126Y132726D01*
Y135817D01*
X369191D01*
Y138786D01*
X369691D01*
Y139286D01*
X372463D01*
Y141754D01*
X372463D01*
Y142343D01*
X372463D01*
Y144811D01*
X369691D01*
Y145311D01*
X369191D01*
Y148280D01*
X367126D01*
Y150591D01*
X332677D01*
Y170276D01*
X388249D01*
Y127713D01*
D02*
G37*
G36*
X359623Y132080D02*
X359738Y131207D01*
X360075Y130393D01*
X360612Y129694D01*
X365158Y125148D01*
Y79724D01*
Y51181D01*
X330743D01*
Y81693D01*
X330607Y82721D01*
X330211Y83678D01*
X329580Y84501D01*
X328757Y85132D01*
X327799Y85529D01*
X326772Y85664D01*
X325787D01*
Y89260D01*
X326587Y89409D01*
X326700Y89240D01*
X327031Y89019D01*
X327421Y88941D01*
X333209D01*
X333599Y89019D01*
X333930Y89240D01*
X334151Y89570D01*
X334228Y89961D01*
Y93075D01*
X342020D01*
Y110721D01*
X326402D01*
Y97889D01*
X325787Y97441D01*
X325602Y97441D01*
X289370D01*
Y118110D01*
X301181D01*
X317913Y134843D01*
X359623D01*
Y132080D01*
D02*
G37*
G36*
X273622Y56102D02*
X248031D01*
Y82677D01*
X273622D01*
Y56102D01*
D02*
G37*
G36*
X242126Y34449D02*
X221457D01*
Y42323D01*
X218923D01*
Y43661D01*
X215955D01*
Y44662D01*
X218923D01*
Y46260D01*
X242126D01*
Y34449D01*
D02*
G37*
G36*
X326772Y41339D02*
Y19685D01*
X280946D01*
Y21178D01*
X280512D01*
Y21654D01*
X279977D01*
Y23631D01*
X274040D01*
Y21654D01*
X272850D01*
Y23631D01*
X269882D01*
Y24131D01*
X269382D01*
Y26903D01*
X266913D01*
X266720Y27623D01*
Y30693D01*
X269382D01*
Y36024D01*
Y41354D01*
X266720D01*
Y46260D01*
X289370D01*
Y81693D01*
X326772D01*
Y41339D01*
D02*
G37*
%LPC*%
G36*
X375484Y202847D02*
X371047D01*
Y202696D01*
X371384Y201441D01*
X372034Y200315D01*
X372953Y199396D01*
X374079Y198746D01*
X375334Y198409D01*
X375484D01*
Y202847D01*
D02*
G37*
G36*
X369110Y202847D02*
X364673D01*
Y198409D01*
X364823D01*
X366079Y198746D01*
X367205Y199396D01*
X368124Y200315D01*
X368774Y201441D01*
X369110Y202696D01*
Y202847D01*
D02*
G37*
G36*
X363673D02*
X359236D01*
Y202696D01*
X359573Y201441D01*
X360223Y200315D01*
X361142Y199396D01*
X362268Y198746D01*
X363523Y198409D01*
X363673D01*
Y202847D01*
D02*
G37*
G36*
X375606Y188126D02*
X369595D01*
Y183394D01*
X375606D01*
Y188126D01*
D02*
G37*
G36*
X368595D02*
X362583D01*
Y183394D01*
X368595D01*
Y188126D01*
D02*
G37*
G36*
X375606Y182394D02*
X369595D01*
Y177661D01*
X375606D01*
Y182394D01*
D02*
G37*
G36*
X368595D02*
X362583D01*
Y177661D01*
X368595D01*
Y182394D01*
D02*
G37*
G36*
X272965Y131945D02*
X270614D01*
Y129437D01*
X272965D01*
Y131945D01*
D02*
G37*
G36*
X266827Y127650D02*
X263374D01*
Y123016D01*
X266827D01*
Y127650D01*
D02*
G37*
G36*
X262374D02*
X258921D01*
Y123016D01*
X262374D01*
Y127650D01*
D02*
G37*
G36*
X375606Y168795D02*
X369595D01*
Y164063D01*
X375606D01*
Y168795D01*
D02*
G37*
G36*
X368595D02*
X362583D01*
Y164063D01*
X368595D01*
Y168795D01*
D02*
G37*
G36*
X339103Y165370D02*
X339083D01*
Y161917D01*
X342535D01*
Y161938D01*
X342266Y162943D01*
X341746Y163844D01*
X341010Y164580D01*
X340108Y165101D01*
X339103Y165370D01*
D02*
G37*
G36*
X338083D02*
X338062D01*
X337057Y165101D01*
X336156Y164580D01*
X335420Y163844D01*
X334899Y162943D01*
X334630Y161938D01*
Y161917D01*
X338083D01*
Y165370D01*
D02*
G37*
G36*
X375606Y163063D02*
X369595D01*
Y158331D01*
X375606D01*
Y163063D01*
D02*
G37*
G36*
X368595D02*
X362583D01*
Y158331D01*
X368595D01*
Y163063D01*
D02*
G37*
G36*
X342535Y160917D02*
X339083D01*
Y157465D01*
X339103D01*
X340108Y157734D01*
X341010Y158254D01*
X341746Y158990D01*
X342266Y159892D01*
X342535Y160897D01*
Y160917D01*
D02*
G37*
G36*
X338083D02*
X334630D01*
Y160897D01*
X334899Y159892D01*
X335420Y158990D01*
X336156Y158254D01*
X337057Y157734D01*
X338062Y157465D01*
X338083D01*
Y160917D01*
D02*
G37*
G36*
X372463Y148280D02*
X370191D01*
Y145811D01*
X372463D01*
Y148280D01*
D02*
G37*
G36*
Y138286D02*
X370191D01*
Y135817D01*
X372463D01*
Y138286D01*
D02*
G37*
G36*
X382709Y127713D02*
X377957D01*
Y125106D01*
X382709D01*
Y127713D01*
D02*
G37*
G36*
X357618Y129366D02*
X343020D01*
Y111721D01*
X358638D01*
Y128347D01*
X358560Y128737D01*
X358339Y129067D01*
X358008Y129288D01*
X357618Y129366D01*
D02*
G37*
G36*
X333209Y133500D02*
X327421D01*
X327031Y133422D01*
X326700Y133201D01*
X326479Y132870D01*
X326402Y132480D01*
Y111721D01*
X342020D01*
Y129366D01*
X334228D01*
Y132480D01*
X334151Y132870D01*
X333930Y133201D01*
X333599Y133422D01*
X333209Y133500D01*
D02*
G37*
G36*
X313594Y114228D02*
X302464D01*
Y108019D01*
X313594D01*
Y114228D01*
D02*
G37*
G36*
X301464D02*
X290334D01*
Y108019D01*
X301464D01*
Y114228D01*
D02*
G37*
G36*
X313594Y107019D02*
X302464D01*
Y100811D01*
X313594D01*
Y107019D01*
D02*
G37*
G36*
X301464D02*
X290334D01*
Y100811D01*
X301464D01*
Y107019D01*
D02*
G37*
G36*
X358638Y110721D02*
X343020D01*
Y93075D01*
X357618D01*
X358008Y93152D01*
X358339Y93374D01*
X358560Y93704D01*
X358638Y94095D01*
Y110721D01*
D02*
G37*
G36*
X361630Y69504D02*
X356209D01*
Y62508D01*
X361630D01*
Y69504D01*
D02*
G37*
G36*
X355209D02*
X349787D01*
Y62508D01*
X355209D01*
Y69504D01*
D02*
G37*
G36*
X361630Y61508D02*
X356209D01*
Y54512D01*
X361630D01*
Y61508D01*
D02*
G37*
G36*
X355209D02*
X349787D01*
Y54512D01*
X355209D01*
Y61508D01*
D02*
G37*
G36*
X313594Y75251D02*
X302464D01*
Y69043D01*
X313594D01*
Y75251D01*
D02*
G37*
G36*
X301464D02*
X290334D01*
Y69043D01*
X301464D01*
Y75251D01*
D02*
G37*
G36*
X313594Y68043D02*
X302464D01*
Y61834D01*
X313594D01*
Y68043D01*
D02*
G37*
G36*
X301464D02*
X290334D01*
Y61834D01*
X301464D01*
Y68043D01*
D02*
G37*
G36*
X273244Y41354D02*
X270382D01*
Y36524D01*
X273244D01*
Y41354D01*
D02*
G37*
G36*
X319418Y37417D02*
X319398D01*
Y33965D01*
X322850D01*
Y33985D01*
X322581Y34990D01*
X322061Y35892D01*
X321325Y36628D01*
X320423Y37148D01*
X319418Y37417D01*
D02*
G37*
G36*
X318398D02*
X318377D01*
X317372Y37148D01*
X316471Y36628D01*
X315735Y35892D01*
X315214Y34990D01*
X314945Y33985D01*
Y33965D01*
X318398D01*
Y37417D01*
D02*
G37*
G36*
X273244Y35524D02*
X270382D01*
Y30693D01*
X273244D01*
Y35524D01*
D02*
G37*
G36*
X322850Y32965D02*
X319398D01*
Y29512D01*
X319418D01*
X320423Y29781D01*
X321325Y30302D01*
X322061Y31038D01*
X322581Y31939D01*
X322850Y32944D01*
Y32965D01*
D02*
G37*
G36*
X318398D02*
X314945D01*
Y32944D01*
X315214Y31939D01*
X315735Y31038D01*
X316471Y30302D01*
X317372Y29781D01*
X318377Y29512D01*
X318398D01*
Y32965D01*
D02*
G37*
G36*
X279977Y26903D02*
X277509D01*
Y24631D01*
X279977D01*
Y26903D01*
D02*
G37*
G36*
X276509D02*
X274040D01*
Y24631D01*
X276509D01*
Y26903D01*
D02*
G37*
G36*
X270382Y26903D02*
Y24631D01*
X272850D01*
Y26903D01*
X270382D01*
D02*
G37*
%LPD*%
G36*
X38331Y203960D02*
X37422Y203051D01*
X36948Y202434D01*
X36690Y201811D01*
X29488D01*
Y193858D01*
X29733D01*
Y192913D01*
X29855Y191988D01*
X30212Y191126D01*
X30780Y190386D01*
X31520Y189818D01*
X32382Y189461D01*
X33307Y189339D01*
X34232Y189461D01*
X35094Y189818D01*
X35749Y190321D01*
X36099Y190245D01*
X36549Y190004D01*
Y185630D01*
X31280D01*
Y184661D01*
X30028D01*
Y180413D01*
X29028D01*
Y184661D01*
X27776D01*
Y185630D01*
X27506D01*
Y193858D01*
X28583D01*
Y201811D01*
X28583D01*
X28375Y202313D01*
X30761Y204699D01*
X38025D01*
X38331Y203960D01*
D02*
G37*
G36*
X55079Y196519D02*
X54961Y195734D01*
X54190Y195633D01*
X53471Y195335D01*
X52855Y194862D01*
X52855Y194862D01*
X50059Y192067D01*
X49586Y191450D01*
X49289Y190731D01*
X49187Y189961D01*
Y179383D01*
X47546Y177742D01*
X46807Y178049D01*
Y179913D01*
X44528D01*
Y180413D01*
X44028D01*
Y184661D01*
X42776D01*
Y185630D01*
X42506D01*
Y193858D01*
X43347D01*
Y200552D01*
X44525Y201730D01*
X55079D01*
Y196519D01*
D02*
G37*
G36*
X67008Y188386D02*
Y176181D01*
X76589D01*
X76681Y175381D01*
X73570Y172270D01*
X51542D01*
X51236Y173009D01*
X54271Y176044D01*
X54745Y176661D01*
X55042Y177379D01*
X55093Y177764D01*
X55144Y178150D01*
X55144Y178150D01*
Y188727D01*
X55354Y188937D01*
X66436D01*
X67008Y188386D01*
D02*
G37*
G36*
X93583D02*
Y176181D01*
X101042D01*
X101348Y175442D01*
X94239Y168333D01*
X79102D01*
X78795Y169072D01*
X81830Y172107D01*
X82304Y172723D01*
X82601Y173442D01*
X82652Y173827D01*
X82703Y174213D01*
X82703Y174213D01*
Y187871D01*
X83769Y188937D01*
X90459D01*
Y188937D01*
X93011D01*
X93583Y188386D01*
D02*
G37*
%LPC*%
G36*
X46807Y184661D02*
X45028D01*
Y180913D01*
X46807D01*
Y184661D01*
D02*
G37*
G36*
X65882Y187417D02*
X62429D01*
Y182783D01*
X65882D01*
Y187417D01*
D02*
G37*
G36*
X61429D02*
X57976D01*
Y182783D01*
X61429D01*
Y187417D01*
D02*
G37*
G36*
X65882Y181783D02*
X62429D01*
Y177150D01*
X65882D01*
Y181783D01*
D02*
G37*
G36*
X61429D02*
X57976D01*
Y177150D01*
X61429D01*
Y181783D01*
D02*
G37*
G36*
X92457Y187417D02*
X89004D01*
Y182783D01*
X92457D01*
Y187417D01*
D02*
G37*
G36*
X88004D02*
X84551D01*
Y182783D01*
X88004D01*
Y187417D01*
D02*
G37*
G36*
X92457Y181783D02*
X89004D01*
Y177150D01*
X92457D01*
Y181783D01*
D02*
G37*
G36*
X88004D02*
X84551D01*
Y177150D01*
X88004D01*
Y181783D01*
D02*
G37*
%LPD*%
D17*
X11732Y83287D02*
D03*
D18*
X12028Y100079D02*
D03*
D19*
X16752Y58150D02*
D03*
Y109173D02*
D03*
D20*
X59134Y58465D02*
D03*
D21*
X61043Y108307D02*
D03*
D22*
X61102Y62717D02*
D03*
Y67047D02*
D03*
Y71378D02*
D03*
Y75709D02*
D03*
Y80039D02*
D03*
Y84370D02*
D03*
Y88701D02*
D03*
Y93032D02*
D03*
D23*
X79724Y55276D02*
D03*
Y49055D02*
D03*
X71850Y108110D02*
D03*
Y114331D02*
D03*
X79724Y108110D02*
D03*
Y114331D02*
D03*
X71850Y55276D02*
D03*
Y49055D02*
D03*
X235630Y159291D02*
D03*
Y165512D02*
D03*
X228740Y125669D02*
D03*
X228740Y131890D02*
D03*
X235630Y125669D02*
D03*
Y131890D02*
D03*
X273622Y121221D02*
D03*
Y115000D02*
D03*
Y107441D02*
D03*
Y101221D02*
D03*
X269685Y142874D02*
D03*
Y136653D02*
D03*
X277559Y136653D02*
D03*
Y142874D02*
D03*
X259842Y219646D02*
D03*
Y213425D02*
D03*
X115079Y132346D02*
D03*
Y138567D02*
D03*
X125079Y132346D02*
D03*
Y138567D02*
D03*
X266732Y219646D02*
D03*
Y213425D02*
D03*
X380437Y80008D02*
D03*
Y86228D02*
D03*
X372998Y86228D02*
D03*
Y80008D02*
D03*
X298228Y219646D02*
D03*
Y213425D02*
D03*
X290354Y219646D02*
D03*
Y213425D02*
D03*
X88504Y138567D02*
D03*
Y132346D02*
D03*
X98504Y132346D02*
D03*
Y138567D02*
D03*
X61929Y138567D02*
D03*
Y132346D02*
D03*
X71929D02*
D03*
Y138567D02*
D03*
X59055Y198976D02*
D03*
Y192756D02*
D03*
X86483Y198976D02*
D03*
Y192756D02*
D03*
D24*
X101221Y56102D02*
D03*
X107441D02*
D03*
X103661Y36417D02*
D03*
X97441D02*
D03*
X166181Y28543D02*
D03*
X172402D02*
D03*
X157323Y20669D02*
D03*
X163543D02*
D03*
X217441Y146653D02*
D03*
X211221D02*
D03*
X252311D02*
D03*
X246091D02*
D03*
X252311Y153543D02*
D03*
X246091D02*
D03*
X252311Y139764D02*
D03*
X246091D02*
D03*
X211221D02*
D03*
X217441D02*
D03*
X206457Y178347D02*
D03*
X200236D02*
D03*
X229764D02*
D03*
X235984D02*
D03*
Y186221D02*
D03*
X229764D02*
D03*
X235984Y194095D02*
D03*
X229764D02*
D03*
X273465Y128937D02*
D03*
X279685D02*
D03*
X39528Y197835D02*
D03*
X33307D02*
D03*
X24764D02*
D03*
X18543D02*
D03*
X125157Y190945D02*
D03*
X118937D02*
D03*
X101221Y104331D02*
D03*
X107441D02*
D03*
X226535Y83661D02*
D03*
X220315D02*
D03*
X226535Y97441D02*
D03*
X220315D02*
D03*
X101221Y76772D02*
D03*
X107441D02*
D03*
X101221Y90551D02*
D03*
X107441D02*
D03*
X226535Y104331D02*
D03*
X220315D02*
D03*
X220315Y56102D02*
D03*
X226535D02*
D03*
X101221Y97441D02*
D03*
X107441D02*
D03*
X101221Y83661D02*
D03*
X107441D02*
D03*
X101221Y69882D02*
D03*
X107441D02*
D03*
X253110Y228346D02*
D03*
X246890D02*
D03*
X227598D02*
D03*
X221378D02*
D03*
X226535Y69882D02*
D03*
X220315D02*
D03*
X226535Y62992D02*
D03*
X220315D02*
D03*
X220315Y90551D02*
D03*
X226535D02*
D03*
X226535Y76772D02*
D03*
X220315D02*
D03*
X101221Y62992D02*
D03*
X107441D02*
D03*
X281653Y227362D02*
D03*
X275433D02*
D03*
X65787Y192913D02*
D03*
X72008D02*
D03*
X92441Y192913D02*
D03*
X98661D02*
D03*
D25*
X87598Y55512D02*
D03*
Y48819D02*
D03*
X215955Y44161D02*
D03*
Y37469D02*
D03*
X260827Y17438D02*
D03*
Y24131D02*
D03*
X228740Y165748D02*
D03*
Y159055D02*
D03*
X269882Y24131D02*
D03*
Y17438D02*
D03*
X210076Y37469D02*
D03*
Y44161D02*
D03*
X277009Y24131D02*
D03*
Y17438D02*
D03*
D26*
X139370Y28346D02*
D03*
Y20866D02*
D03*
X148031Y24606D02*
D03*
X181693D02*
D03*
X190354Y28346D02*
D03*
Y20866D02*
D03*
D27*
X74606Y27559D02*
D03*
Y9843D02*
D03*
X110433D02*
D03*
Y27559D02*
D03*
X59808Y27559D02*
D03*
Y9843D02*
D03*
X23981D02*
D03*
Y27559D02*
D03*
D28*
X83268Y36417D02*
D03*
X89961D02*
D03*
X210984Y153543D02*
D03*
X217677D02*
D03*
X206693Y194095D02*
D03*
X200000D02*
D03*
X206693Y186221D02*
D03*
X200000D02*
D03*
X369691Y138786D02*
D03*
X362999D02*
D03*
Y145311D02*
D03*
X369691D02*
D03*
D29*
X165748Y73504D02*
D03*
X171260D02*
D03*
X176772D02*
D03*
X165748Y67992D02*
D03*
X171260D02*
D03*
X176772D02*
D03*
X165748Y62480D02*
D03*
X171260D02*
D03*
X176772D02*
D03*
D30*
X130905Y39094D02*
D03*
Y44094D02*
D03*
Y49095D02*
D03*
Y54094D02*
D03*
Y59095D02*
D03*
Y64095D02*
D03*
Y69095D02*
D03*
Y74094D02*
D03*
Y79094D02*
D03*
Y84095D02*
D03*
Y89095D02*
D03*
Y94095D02*
D03*
Y99094D02*
D03*
Y104095D02*
D03*
X199803D02*
D03*
Y99094D02*
D03*
Y94095D02*
D03*
Y89095D02*
D03*
Y84095D02*
D03*
Y79094D02*
D03*
Y74094D02*
D03*
Y69095D02*
D03*
Y64095D02*
D03*
Y59095D02*
D03*
Y54094D02*
D03*
Y49095D02*
D03*
Y44094D02*
D03*
Y39094D02*
D03*
D31*
X142835Y109016D02*
D03*
X147835D02*
D03*
X152835D02*
D03*
X157835D02*
D03*
X162835D02*
D03*
X167835D02*
D03*
X172835D02*
D03*
X177835D02*
D03*
X182835D02*
D03*
X187835D02*
D03*
D32*
X251772Y36024D02*
D03*
X260827D02*
D03*
X269882D02*
D03*
D33*
X260827Y60433D02*
D03*
D34*
X236221Y143701D02*
D03*
Y145669D02*
D03*
Y147638D02*
D03*
Y149606D02*
D03*
X227165D02*
D03*
Y147638D02*
D03*
Y145669D02*
D03*
Y143701D02*
D03*
D35*
X233661Y150197D02*
D03*
X231693D02*
D03*
X229724D02*
D03*
Y143110D02*
D03*
X231693D02*
D03*
X233661D02*
D03*
D36*
X383209Y124606D02*
D03*
Y117913D02*
D03*
Y111221D02*
D03*
Y104528D02*
D03*
Y97835D02*
D03*
D37*
X219488Y179921D02*
D03*
Y183465D02*
D03*
Y187008D02*
D03*
Y190551D02*
D03*
X214764D02*
D03*
Y187008D02*
D03*
Y183465D02*
D03*
Y179921D02*
D03*
D38*
X252874Y92323D02*
D03*
X262874Y92323D02*
D03*
Y128150D02*
D03*
X252874D02*
D03*
X125079Y182283D02*
D03*
X115079D02*
D03*
Y146457D02*
D03*
X125079D02*
D03*
X98504Y182283D02*
D03*
X88504D02*
D03*
Y146457D02*
D03*
X98504D02*
D03*
X71929D02*
D03*
X61929D02*
D03*
Y182283D02*
D03*
X71929D02*
D03*
D39*
X289370Y151969D02*
D03*
X293110Y143307D02*
D03*
X285630D02*
D03*
D40*
X14528Y158169D02*
D03*
X19528D02*
D03*
X24528D02*
D03*
X29528D02*
D03*
X34528D02*
D03*
X39528D02*
D03*
X44528D02*
D03*
X14528Y180413D02*
D03*
X19528D02*
D03*
X24528D02*
D03*
X29528D02*
D03*
X34528D02*
D03*
X39528D02*
D03*
X44528D02*
D03*
D41*
X274606Y216535D02*
D03*
X282480Y220079D02*
D03*
Y212992D02*
D03*
D42*
X355709Y62008D02*
D03*
X382480D02*
D03*
D43*
X301964Y107519D02*
D03*
Y68543D02*
D03*
D44*
X369094Y182894D02*
D03*
Y163563D02*
D03*
D45*
X165354Y188563D02*
D03*
Y126398D02*
D03*
D88*
X342520Y111221D02*
D03*
D89*
X97441Y56102D02*
X101221D01*
X111221D02*
X123228Y44094D01*
X107441Y56102D02*
X111221D01*
X123228Y44094D02*
X130905D01*
X114173Y59055D02*
X124134Y49095D01*
X128543D01*
X207559D02*
X214567Y56102D01*
X220315D01*
X61378Y84646D02*
X68898D01*
X61102Y84370D02*
X61378Y84646D01*
X79724Y95472D02*
Y108110D01*
X68898Y84646D02*
X79724Y95472D01*
X61102Y75709D02*
X67008D01*
X79724Y62992D01*
Y60532D02*
Y62992D01*
Y55276D02*
Y60532D01*
X61102Y80039D02*
X68583D01*
X87598Y60039D02*
Y61024D01*
X68583Y80039D02*
X87598Y61024D01*
Y55512D02*
Y60039D01*
X71850Y55276D02*
Y63976D01*
X68898Y66929D02*
X71850Y63976D01*
X61102Y67047D02*
X68779D01*
X68898Y66929D01*
X71850Y94488D02*
Y108110D01*
X68898Y91535D02*
X71850Y94488D01*
X66063Y88701D02*
X68898Y91535D01*
X98425Y62992D02*
X101221D01*
X89567Y71850D02*
X98425Y62992D01*
X89567Y71850D02*
Y121063D01*
X92520Y74803D02*
X97441Y69882D01*
X101221D01*
X92520Y74803D02*
Y125000D01*
X83661Y126969D02*
X89567Y121063D01*
X92520Y125000D02*
X93155Y125636D01*
X61102Y88701D02*
X66063D01*
X109252Y129921D02*
Y135973D01*
X106490Y127160D02*
X109252Y129921D01*
X102829Y127160D02*
X106490D01*
X130905Y44094D02*
X130905Y44094D01*
X110236Y27559D02*
X110335Y27461D01*
X89961Y36417D02*
X97441D01*
X93504Y27559D02*
X110236D01*
X89961Y31102D02*
X93504Y27559D01*
X89961Y31102D02*
Y36417D01*
X60039Y22638D02*
Y27328D01*
X59808Y27559D02*
X60039Y27328D01*
X110335Y22736D02*
Y27461D01*
X124982Y59389D02*
X125276Y59095D01*
X172402Y28543D02*
Y32889D01*
X157323Y14095D02*
Y20669D01*
Y14095D02*
X160591Y10827D01*
X143504Y20866D02*
X144685Y19685D01*
X153543D02*
X154528Y20669D01*
X144685Y19685D02*
X153543D01*
X139370Y20866D02*
X143504D01*
X154528Y20669D02*
X157323D01*
X186024Y29528D02*
X187205Y28346D01*
X176181Y29528D02*
X186024D01*
X175197Y28543D02*
X176181Y29528D01*
X187205Y28346D02*
X190354D01*
X172402Y28543D02*
X175197D01*
X168307Y18701D02*
X185039D01*
X187205Y20866D02*
X190354D01*
X185039Y18701D02*
X187205Y20866D01*
X163386Y28543D02*
X166181D01*
X145669Y30512D02*
X161417D01*
X163386Y28543D01*
X143504Y28346D02*
X145669Y30512D01*
X139370Y28346D02*
X143504D01*
X166339Y20669D02*
X168307Y18701D01*
X163543Y20669D02*
X166339D01*
X174055Y24606D02*
X181693D01*
X172868Y23420D02*
X174055Y24606D01*
X154528D02*
X155512Y25591D01*
X148031Y24606D02*
X154528D01*
X245079Y79724D02*
Y85630D01*
X235236Y69882D02*
X245079Y79724D01*
X226535Y69882D02*
X235236D01*
X242126Y85630D02*
Y111221D01*
X226535Y76772D02*
X233268D01*
X242126Y85630D01*
X239173Y89567D02*
Y115157D01*
Y89567D02*
Y89567D01*
X235630Y165512D02*
X242126D01*
X234252Y84646D02*
X239173Y89567D01*
X226535Y89554D02*
Y90551D01*
X233268D01*
X236221Y93504D01*
Y113189D01*
X182835Y114921D02*
X183071Y115157D01*
X182835Y109016D02*
Y114921D01*
X101221Y109095D02*
X101378Y109252D01*
X101221Y104331D02*
Y109095D01*
X125276Y59095D02*
X130905D01*
X124980Y54094D02*
X130905D01*
X245079Y85630D02*
Y107283D01*
X252874Y115079D02*
Y128150D01*
X245079Y107283D02*
X252874Y115079D01*
X242126Y111221D02*
X246063Y115157D01*
X233268Y83661D02*
X239173Y89567D01*
Y115157D02*
X243110Y119095D01*
X207677Y116142D02*
X233268D01*
X236221Y113189D01*
X226535Y104331D02*
X230315D01*
X182835Y107047D02*
X183071Y107283D01*
X213583Y104331D02*
X220315D01*
X211614Y106299D02*
X213583Y104331D01*
X226535Y97441D02*
X231299D01*
X200118Y99410D02*
X210630D01*
X199803Y99094D02*
X200118Y99410D01*
X210630D02*
X212598Y97441D01*
X220315D01*
X110236Y62992D02*
X114173Y59055D01*
X107441Y104331D02*
X107677Y104095D01*
X130905D01*
X116811Y99094D02*
X130905D01*
X115157Y97441D02*
X116811Y99094D01*
X122520Y89095D02*
X130905D01*
X121063Y90551D02*
X122520Y89095D01*
X107441Y90551D02*
X121063D01*
X120709Y79094D02*
X130905D01*
X116142Y83661D02*
X120709Y79094D01*
X118819Y74094D02*
X130905D01*
X116142Y76772D02*
X118819Y74094D01*
X115157Y69882D02*
X120945Y64095D01*
X130905D01*
X199803Y49095D02*
X207559D01*
X199803Y74094D02*
X205433D01*
X216535Y62992D02*
X220315D01*
X205433Y74094D02*
X216535Y62992D01*
X207323Y79094D02*
X216535Y69882D01*
X220315D01*
X199803Y79094D02*
X207323D01*
X209213Y84095D02*
X216535Y76772D01*
X199803Y84095D02*
X209213D01*
X216535Y76772D02*
X220315D01*
X199803Y89095D02*
X211102D01*
X216535Y83661D01*
X220315D01*
X213583Y93504D02*
X216535Y90551D01*
X200394Y93504D02*
X213583D01*
X216535Y90551D02*
X220315D01*
X199803Y94095D02*
X200394Y93504D01*
X226535Y83661D02*
X233268D01*
X321895Y44291D02*
X366142D01*
X370079Y48228D01*
Y73819D02*
X372998Y76739D01*
X370079Y48228D02*
Y73819D01*
X372998Y76739D02*
Y80008D01*
X203021Y142982D02*
X206693Y146653D01*
X203021Y120798D02*
Y142982D01*
Y120798D02*
X207677Y116142D01*
X107441Y97441D02*
X115157D01*
X206693Y186221D02*
X208235D01*
X210566Y183889D01*
X210990Y183465D01*
X214764D01*
X235984Y178347D02*
X241732D01*
X235984Y186221D02*
X241732D01*
X235984Y194095D02*
X241732D01*
X235984Y194095D02*
X235984Y194095D01*
X219488Y190551D02*
X221457D01*
X228780Y187205D02*
X229764Y186221D01*
X224016Y187205D02*
X228780D01*
X223819Y187008D02*
X224016Y187205D01*
X219488Y187008D02*
X223819D01*
X225984Y178347D02*
X229764D01*
X225000Y179331D02*
X225984Y178347D01*
X225000Y179331D02*
Y181299D01*
X222835Y183465D02*
X225000Y181299D01*
X219488Y183465D02*
X222835D01*
X209103Y194095D02*
X210236Y192962D01*
Y189173D02*
Y192962D01*
X206693Y194095D02*
X209103D01*
X210236Y189173D02*
X212402Y187008D01*
X214764D01*
X206457Y178347D02*
X211221D01*
X212795Y179921D01*
X214764D01*
X240158Y173228D02*
X241142Y172244D01*
X231299Y173228D02*
X240158D01*
X229764Y174764D02*
X231299Y173228D01*
X229764Y174764D02*
Y178347D01*
X225000Y194095D02*
X229764D01*
X221457Y190551D02*
X225000Y194095D01*
X226535Y56102D02*
X231299D01*
X245000Y230236D02*
X246890Y228346D01*
X245000Y230236D02*
Y242126D01*
X219488Y235236D02*
Y242126D01*
Y235236D02*
X221378Y233347D01*
Y228346D02*
Y233347D01*
X206693Y146653D02*
X211221D01*
X93155Y125636D02*
Y136348D01*
X88504Y138567D02*
X90937D01*
X93155Y136348D01*
X68898Y126969D02*
X83661D01*
X66929Y128937D02*
X68898Y126969D01*
X66929Y128937D02*
Y135827D01*
X109252Y135973D02*
X111846Y138567D01*
X114094D01*
X61929Y138660D02*
X64096D01*
X61599D02*
X61929D01*
X64096D02*
X66929Y135827D01*
X107441Y62992D02*
X110236D01*
X107441Y69882D02*
X115157D01*
X107441Y76772D02*
X116142D01*
X107441Y83661D02*
X116142D01*
X270044Y24139D02*
X270052Y24131D01*
X376969Y104528D02*
X383209D01*
X372998Y100558D02*
X376969Y104528D01*
X372998Y86228D02*
Y100558D01*
X380437Y86228D02*
X380437Y86228D01*
X372998Y86228D02*
X380437D01*
D90*
X293408Y133933D02*
X298303D01*
X302165Y137795D01*
Y175939D01*
X320276Y194095D02*
X322244Y196063D01*
X302165Y175939D02*
X320276Y194049D01*
Y194095D01*
X322244Y196063D02*
X328150D01*
X115079Y175197D02*
Y182283D01*
X262874Y120434D02*
Y128150D01*
X268701Y128937D02*
X273465D01*
X262874Y92323D02*
X271654D01*
X356693Y111221D02*
X383209D01*
X273622Y121221D02*
X280512D01*
X88504Y175197D02*
Y182283D01*
X61929Y175276D02*
X62008Y175197D01*
X61929Y175276D02*
Y182283D01*
X260827Y36024D02*
Y60433D01*
D91*
X97441Y91535D02*
X98425Y90551D01*
X101221D01*
X71850Y45670D02*
Y49055D01*
X79724Y45276D02*
Y49055D01*
X97441Y82677D02*
X98425Y83661D01*
X101221D01*
X97441Y76772D02*
X101221D01*
X97441Y97441D02*
X101221D01*
X79724Y114331D02*
Y118110D01*
X71850Y114331D02*
Y118110D01*
X226535Y62992D02*
X230315D01*
X157087Y219094D02*
X160734Y222742D01*
X104874Y219094D02*
X157087D01*
X160734Y222742D02*
Y230939D01*
X254252Y131220D02*
X259685Y136653D01*
X254252Y129528D02*
Y131220D01*
X259685Y136653D02*
X277559D01*
X252874Y128150D02*
X254252Y129528D01*
X79724Y174213D02*
Y189104D01*
X83376Y192756D01*
X74803Y169291D02*
X79724Y174213D01*
X34528Y153622D02*
Y158169D01*
X30512Y149606D02*
X34528Y153622D01*
X252311Y139764D02*
Y146653D01*
X206693Y194095D02*
Y197638D01*
X204528Y199803D02*
X206693Y197638D01*
X168307Y199803D02*
X204528D01*
X259842Y213425D02*
X270512D01*
X273622Y216535D01*
X274606D01*
X289921Y220079D02*
X290354Y219646D01*
X282480Y220079D02*
X289921D01*
X282480D02*
Y224409D01*
X281653Y225236D02*
X282480Y224409D01*
X281653Y225236D02*
Y227362D01*
X233268Y208661D02*
Y233268D01*
X229488Y237047D02*
X233268Y233268D01*
X229488Y237047D02*
Y242126D01*
X165354Y196850D02*
X168307Y199803D01*
X165354Y188563D02*
Y196850D01*
X60285Y204709D02*
X83378D01*
X92205Y213535D01*
Y232283D01*
X24764Y202913D02*
X29528Y207677D01*
X24764Y197835D02*
Y202913D01*
X29528Y207677D02*
X59055D01*
X24528Y180413D02*
Y197598D01*
X24764Y197835D01*
X43291Y204709D02*
X60285D01*
X39528Y200945D02*
X43291Y204709D01*
X39528Y197835D02*
Y200945D01*
X39528Y180413D02*
Y197835D01*
X25972Y169291D02*
X74803D01*
X19528Y175736D02*
X25972Y169291D01*
X110236Y190945D02*
X118937D01*
X106299Y187008D02*
X110236Y190945D01*
X106299Y176181D02*
Y187008D01*
X95472Y165354D02*
X106299Y176181D01*
X31496Y165354D02*
X95472D01*
X29528Y163386D02*
X31496Y165354D01*
X29528Y158169D02*
Y163386D01*
X19528Y175736D02*
Y180413D01*
X83376Y192756D02*
X86483D01*
X54961Y192756D02*
X59055D01*
X52165Y189961D02*
X54961Y192756D01*
X52165Y178150D02*
Y189961D01*
X92441Y192913D02*
X93362D01*
X86867D02*
X92441D01*
X98504Y182283D02*
X98661Y182441D01*
Y192913D01*
X71929Y182283D02*
Y192835D01*
X72008Y192913D01*
X65630Y192756D02*
X65787Y192913D01*
X59055Y192756D02*
X65630D01*
X47244Y173228D02*
X52165Y178150D01*
X36417Y173228D02*
X47244D01*
X34528Y175118D02*
X36417Y173228D01*
X34528Y175118D02*
Y180413D01*
X60285Y204709D02*
X60285Y204709D01*
X59055Y207677D02*
X66929D01*
X59055Y207677D02*
X59055Y207677D01*
X66929D02*
X72205Y212953D01*
Y232283D01*
X125079Y182283D02*
X125157Y182362D01*
Y190945D01*
D92*
X199803Y44094D02*
X215888D01*
X215955Y44161D02*
X225264D01*
X225394Y44291D01*
X215888Y44094D02*
X215955Y44161D01*
X260827Y24131D02*
X260827Y24131D01*
X260827Y24131D02*
Y36024D01*
X279685Y128937D02*
X285630Y134882D01*
X289370Y181850D02*
X289606Y182087D01*
X289370Y151969D02*
Y181850D01*
X285630Y134882D02*
Y143307D01*
X285197Y142874D02*
X285630Y143307D01*
X277559Y142874D02*
X285197D01*
X273622Y107441D02*
Y115000D01*
X257047Y107441D02*
X273622D01*
X252874Y103268D02*
X257047Y107441D01*
X252874Y92323D02*
Y103268D01*
X232283Y200787D02*
X242126D01*
X246063Y196850D01*
Y195866D02*
Y196850D01*
X227598Y205472D02*
Y228346D01*
Y205472D02*
X232283Y200787D01*
X235630Y125669D02*
X241142D01*
X223892D02*
X228740D01*
X92520Y198976D02*
X92520Y198976D01*
X86483Y198976D02*
X92520D01*
X64961Y198976D02*
X64961Y198976D01*
X59055Y198976D02*
X64961D01*
X18543Y192913D02*
Y197835D01*
X33307Y192913D02*
Y197835D01*
X125079Y132346D02*
X129921D01*
X115079Y138567D02*
Y146457D01*
X125079Y138567D02*
Y146457D01*
X71929Y132346D02*
X76772D01*
X98504Y132346D02*
X103874D01*
X61929Y138660D02*
Y146457D01*
X98504Y138567D02*
Y146457D01*
X88504Y138567D02*
Y146457D01*
X71929Y138567D02*
Y146457D01*
D93*
X97441Y76772D02*
X97441Y76772D01*
X97441Y97441D02*
X97441Y97441D01*
D94*
X103661Y36417D02*
X107441D01*
X165748Y67992D02*
X171260D01*
X359230Y145387D02*
X359306Y145311D01*
X362999D01*
X269685Y142874D02*
Y147638D01*
X44528Y153307D02*
X48228Y149606D01*
X44528Y153307D02*
Y158169D01*
X211221Y134843D02*
Y139764D01*
X246091Y134843D02*
Y139764D01*
X253110Y223425D02*
X253110Y223425D01*
X253110Y223425D02*
Y228346D01*
X29528Y180413D02*
Y187008D01*
X44528Y180413D02*
Y187008D01*
D95*
X235630Y131890D02*
Y139764D01*
X219882Y153543D02*
X223606Y149819D01*
X232677Y154527D02*
X233661Y153543D01*
X246091Y146653D02*
X246299D01*
X242520D02*
X246091D01*
X246299D02*
Y153335D01*
X246091Y153543D02*
X246299Y153335D01*
X239567Y143701D02*
X242520Y146653D01*
X236221Y143701D02*
X239567D01*
X217441Y139764D02*
X218425Y138779D01*
X226772D01*
X229724Y141732D01*
Y141732D01*
X229724Y141732D01*
Y143110D01*
X233661Y141732D02*
X235630Y139764D01*
X233661Y141732D02*
Y143110D01*
X252311Y139764D02*
X252311Y139764D01*
X217441Y146653D02*
X222835D01*
X216929D02*
X217441D01*
X217677Y153543D02*
X219882D01*
X223819Y149606D02*
X227165D01*
X223606Y149819D02*
X223819D01*
X233661Y150197D02*
Y153543D01*
X238583Y149606D02*
X239567Y150591D01*
Y155354D01*
X235630Y159291D02*
X239567Y155354D01*
X222835Y146653D02*
X223819Y147638D01*
X227165D01*
X236221Y149606D02*
X238583D01*
X228740Y135729D02*
X230019Y137008D01*
X228740Y131890D02*
Y135729D01*
X231693Y138682D02*
Y143110D01*
X230019Y137008D02*
X231693Y138682D01*
X232057Y154527D02*
X232677D01*
X228740Y157844D02*
Y159055D01*
Y157844D02*
X232057Y154527D01*
D96*
X362999Y132080D02*
X377165Y117913D01*
X383209D01*
X362999Y132080D02*
Y138786D01*
X298228Y219646D02*
Y225608D01*
X290354Y208875D02*
Y213425D01*
X275433Y227362D02*
Y231142D01*
X280591Y236299D01*
Y242126D01*
X266732Y238268D02*
X270590Y242126D01*
X266732Y219646D02*
Y238268D01*
X298228Y213425D02*
X298228Y213425D01*
X290354Y213425D02*
X298228D01*
D97*
X227756Y153543D02*
X229724Y151575D01*
Y150197D02*
Y151575D01*
X230315Y150197D02*
X231693D01*
D98*
X112947Y230939D02*
D03*
X92947D02*
D03*
X72947D02*
D03*
X160734D02*
D03*
X180734D02*
D03*
X381890Y19685D02*
D03*
X11811Y236221D02*
D03*
D99*
X52947Y230939D02*
D03*
X140734D02*
D03*
D100*
X259606Y182087D02*
D03*
X289606D02*
D03*
X180591Y10827D02*
D03*
X170591D02*
D03*
X160591D02*
D03*
X150591D02*
D03*
X140591D02*
D03*
X338583Y161417D02*
D03*
X318898D02*
D03*
X338583Y33465D02*
D03*
X318898D02*
D03*
D101*
X270590Y242126D02*
D03*
X219488D02*
D03*
X245000D02*
D03*
D102*
X280591D02*
D03*
X229488D02*
D03*
X255000D02*
D03*
D103*
X190591Y10827D02*
D03*
D104*
X375984Y228543D02*
D03*
D105*
Y215945D02*
D03*
Y203346D02*
D03*
X364173Y228543D02*
D03*
Y215945D02*
D03*
Y203346D02*
D03*
X383465Y192717D02*
D03*
X356693Y239173D02*
D03*
D106*
X309646Y208661D02*
D03*
D107*
X328150Y220472D02*
D03*
Y196063D02*
D03*
D108*
X165354Y172028D02*
D03*
D109*
Y142539D02*
D03*
X285433Y33465D02*
D03*
X295276Y23622D02*
D03*
X290354D02*
D03*
X300197D02*
D03*
X285433Y28543D02*
D03*
Y23622D02*
D03*
X300197Y33465D02*
D03*
Y28543D02*
D03*
X295276Y33465D02*
D03*
Y28543D02*
D03*
X290354D02*
D03*
Y33465D02*
D03*
X115079Y175197D02*
D03*
X262874Y120434D02*
D03*
X268701Y128937D02*
D03*
X271654Y92323D02*
D03*
X280512Y121221D02*
D03*
X293408Y133933D02*
D03*
X238189Y43307D02*
D03*
X233268D02*
D03*
X228346D02*
D03*
X223425D02*
D03*
Y38386D02*
D03*
X228346D02*
D03*
X233268D02*
D03*
X238189D02*
D03*
X246063Y195866D02*
D03*
X253431Y74007D02*
D03*
X268195D02*
D03*
X253431Y78928D02*
D03*
X258352D02*
D03*
X268195D02*
D03*
X263273D02*
D03*
X258352Y74007D02*
D03*
X263273D02*
D03*
X253431Y69086D02*
D03*
X258352D02*
D03*
X263273D02*
D03*
X268195D02*
D03*
D110*
X87598Y60039D02*
D03*
X79724Y60532D02*
D03*
X97441Y56102D02*
D03*
Y91535D02*
D03*
X68898Y66929D02*
D03*
X97441Y76772D02*
D03*
Y82677D02*
D03*
X102829Y127160D02*
D03*
X97441Y97441D02*
D03*
X68898Y91535D02*
D03*
Y84646D02*
D03*
X71850Y118110D02*
D03*
X79724D02*
D03*
X79724Y45276D02*
D03*
X71850D02*
D03*
X107441Y36417D02*
D03*
X60039Y22638D02*
D03*
X110335Y22736D02*
D03*
X172244Y32480D02*
D03*
X172868Y23420D02*
D03*
X155644Y25880D02*
D03*
X101221Y109095D02*
D03*
X124980Y54094D02*
D03*
Y59095D02*
D03*
X182835Y114921D02*
D03*
X211614Y106299D02*
D03*
X269685Y147638D02*
D03*
X227756Y153543D02*
D03*
X235728Y136811D02*
D03*
X211221Y134843D02*
D03*
X246091D02*
D03*
X221842Y151681D02*
D03*
X232677Y154527D02*
D03*
X230019Y137008D02*
D03*
X210566Y183889D02*
D03*
X241732Y194095D02*
D03*
Y178347D02*
D03*
Y186221D02*
D03*
X224016Y187205D02*
D03*
X88504Y175197D02*
D03*
X231299Y56102D02*
D03*
X298228Y225608D02*
D03*
X290354Y208875D02*
D03*
X231299Y62992D02*
D03*
X225000Y194095D02*
D03*
X233268Y208661D02*
D03*
X246063Y115157D02*
D03*
X241142Y172244D02*
D03*
X242126Y165354D02*
D03*
X243110Y119095D02*
D03*
X253110Y223425D02*
D03*
X223892Y125669D02*
D03*
X241142D02*
D03*
X231299Y97441D02*
D03*
Y104331D02*
D03*
X29528Y187008D02*
D03*
X44528D02*
D03*
X62008Y175197D02*
D03*
X48228Y149606D02*
D03*
X92520Y198976D02*
D03*
X64961D02*
D03*
X18543Y192913D02*
D03*
X33307D02*
D03*
X30512Y149606D02*
D03*
X104874Y219094D02*
D03*
X129921Y132346D02*
D03*
X103874Y132346D02*
D03*
X76772Y132346D02*
D03*
D111*
X5906Y1969D02*
D03*
X344488D02*
D03*
X336614D02*
D03*
X340551D02*
D03*
X332677D02*
D03*
X320866D02*
D03*
X316929D02*
D03*
X312992D02*
D03*
X324803D02*
D03*
X328740D02*
D03*
X297244D02*
D03*
X301181D02*
D03*
X305118D02*
D03*
X309055D02*
D03*
X269685D02*
D03*
X265748D02*
D03*
X261811D02*
D03*
X257874D02*
D03*
X253937D02*
D03*
X250000D02*
D03*
X246063D02*
D03*
X242126D02*
D03*
X289370D02*
D03*
X285433D02*
D03*
X273622D02*
D03*
X277559D02*
D03*
X281496D02*
D03*
X293307D02*
D03*
X238189D02*
D03*
X226378D02*
D03*
X222441D02*
D03*
X218504D02*
D03*
X230315D02*
D03*
X234252D02*
D03*
X183071D02*
D03*
X187008D02*
D03*
X190945D02*
D03*
X194882D02*
D03*
X198819D02*
D03*
X202756D02*
D03*
X206693D02*
D03*
X210630D02*
D03*
X214567D02*
D03*
X179134D02*
D03*
X167323D02*
D03*
X163386D02*
D03*
X159449D02*
D03*
X171260D02*
D03*
X175197D02*
D03*
X124016D02*
D03*
X127953D02*
D03*
X131890D02*
D03*
X135827D02*
D03*
X139764D02*
D03*
X143701D02*
D03*
X147638D02*
D03*
X151575D02*
D03*
X155512D02*
D03*
X120079D02*
D03*
X108268D02*
D03*
X104331D02*
D03*
X100394D02*
D03*
X112205D02*
D03*
X116142D02*
D03*
X64961D02*
D03*
X68898D02*
D03*
X72835D02*
D03*
X76772D02*
D03*
X80709D02*
D03*
X84646D02*
D03*
X88583D02*
D03*
X92520D02*
D03*
X96457D02*
D03*
X29528D02*
D03*
X33465D02*
D03*
X37402D02*
D03*
X41339D02*
D03*
X45276D02*
D03*
X49213D02*
D03*
X53150D02*
D03*
X57087D02*
D03*
X61024D02*
D03*
X9843D02*
D03*
X13780D02*
D03*
X25591D02*
D03*
X21654D02*
D03*
X17717D02*
D03*
X1969D02*
D03*
X364173D02*
D03*
X360236D02*
D03*
X352362D02*
D03*
X356299D02*
D03*
X348425D02*
D03*
X383858D02*
D03*
X379921D02*
D03*
X372047D02*
D03*
X375984D02*
D03*
X368110D02*
D03*
X387795D02*
D03*
X391732D02*
D03*
Y250000D02*
D03*
Y246063D02*
D03*
Y253937D02*
D03*
X1969Y41339D02*
D03*
Y37402D02*
D03*
Y33465D02*
D03*
Y29528D02*
D03*
Y57087D02*
D03*
Y53150D02*
D03*
Y49213D02*
D03*
Y45276D02*
D03*
Y61024D02*
D03*
Y76772D02*
D03*
Y72835D02*
D03*
Y68898D02*
D03*
Y64961D02*
D03*
Y80709D02*
D03*
Y96457D02*
D03*
Y92520D02*
D03*
Y88583D02*
D03*
Y84646D02*
D03*
Y100394D02*
D03*
Y116142D02*
D03*
Y112205D02*
D03*
Y108268D02*
D03*
Y104331D02*
D03*
Y120079D02*
D03*
X391732Y5906D02*
D03*
Y9843D02*
D03*
Y13780D02*
D03*
Y17717D02*
D03*
Y21654D02*
D03*
Y25591D02*
D03*
Y29528D02*
D03*
Y33465D02*
D03*
Y37402D02*
D03*
Y41339D02*
D03*
Y45276D02*
D03*
Y49213D02*
D03*
Y53150D02*
D03*
Y57087D02*
D03*
Y61024D02*
D03*
Y64961D02*
D03*
Y68898D02*
D03*
Y72835D02*
D03*
Y76772D02*
D03*
Y242126D02*
D03*
Y238189D02*
D03*
Y234252D02*
D03*
Y230315D02*
D03*
Y226378D02*
D03*
Y222441D02*
D03*
Y218504D02*
D03*
Y214567D02*
D03*
Y210630D02*
D03*
Y206693D02*
D03*
Y202756D02*
D03*
Y198819D02*
D03*
Y194882D02*
D03*
Y190945D02*
D03*
Y187008D02*
D03*
Y183071D02*
D03*
Y179134D02*
D03*
Y175197D02*
D03*
Y171260D02*
D03*
Y167323D02*
D03*
Y163386D02*
D03*
Y159449D02*
D03*
Y155512D02*
D03*
Y151575D02*
D03*
Y147638D02*
D03*
Y143701D02*
D03*
Y139764D02*
D03*
Y135827D02*
D03*
Y131890D02*
D03*
Y127953D02*
D03*
Y124016D02*
D03*
Y120079D02*
D03*
Y116142D02*
D03*
Y112205D02*
D03*
Y108268D02*
D03*
Y104331D02*
D03*
Y100394D02*
D03*
Y96457D02*
D03*
Y92520D02*
D03*
Y88583D02*
D03*
Y84646D02*
D03*
Y80709D02*
D03*
X387795Y253937D02*
D03*
X368110D02*
D03*
X375984D02*
D03*
X372047D02*
D03*
X379921D02*
D03*
X383858D02*
D03*
X348425D02*
D03*
X356299D02*
D03*
X352362D02*
D03*
X360236D02*
D03*
X364173D02*
D03*
X1969Y250000D02*
D03*
Y246063D02*
D03*
Y242126D02*
D03*
Y238189D02*
D03*
Y234252D02*
D03*
Y230315D02*
D03*
Y226378D02*
D03*
Y253937D02*
D03*
X17717D02*
D03*
X21654D02*
D03*
X25591D02*
D03*
X13780D02*
D03*
X9843D02*
D03*
X61024D02*
D03*
X57087D02*
D03*
X53150D02*
D03*
X49213D02*
D03*
X45276D02*
D03*
X41339D02*
D03*
X37402D02*
D03*
X33465D02*
D03*
X29528D02*
D03*
X96457D02*
D03*
X92520D02*
D03*
X88583D02*
D03*
X84646D02*
D03*
X80709D02*
D03*
X76772D02*
D03*
X72835D02*
D03*
X68898D02*
D03*
X64961D02*
D03*
X116142D02*
D03*
X112205D02*
D03*
X100394D02*
D03*
X104331D02*
D03*
X108268D02*
D03*
X120079D02*
D03*
X155512D02*
D03*
X151575D02*
D03*
X147638D02*
D03*
X143701D02*
D03*
X139764D02*
D03*
X135827D02*
D03*
X131890D02*
D03*
X127953D02*
D03*
X124016D02*
D03*
X175197D02*
D03*
X171260D02*
D03*
X159449D02*
D03*
X163386D02*
D03*
X167323D02*
D03*
X179134D02*
D03*
X214567D02*
D03*
X210630D02*
D03*
X206693D02*
D03*
X202756D02*
D03*
X198819D02*
D03*
X194882D02*
D03*
X190945D02*
D03*
X187008D02*
D03*
X183071D02*
D03*
X234252D02*
D03*
X230315D02*
D03*
X218504D02*
D03*
X222441D02*
D03*
X226378D02*
D03*
X238189D02*
D03*
X293307D02*
D03*
X281496D02*
D03*
X277559D02*
D03*
X273622D02*
D03*
X285433D02*
D03*
X289370D02*
D03*
X242126D02*
D03*
X246063D02*
D03*
X250000D02*
D03*
X253937D02*
D03*
X257874D02*
D03*
X261811D02*
D03*
X265748D02*
D03*
X269685D02*
D03*
X309055D02*
D03*
X305118D02*
D03*
X301181D02*
D03*
X297244D02*
D03*
X328740D02*
D03*
X324803D02*
D03*
X312992D02*
D03*
X316929D02*
D03*
X320866D02*
D03*
X332677D02*
D03*
X340551D02*
D03*
X336614D02*
D03*
X344488D02*
D03*
X5906D02*
D03*
X1969Y124016D02*
D03*
Y147638D02*
D03*
Y143701D02*
D03*
Y139764D02*
D03*
Y135827D02*
D03*
Y131890D02*
D03*
Y127953D02*
D03*
Y171260D02*
D03*
Y167323D02*
D03*
Y163386D02*
D03*
Y159449D02*
D03*
Y155512D02*
D03*
Y151575D02*
D03*
Y175197D02*
D03*
Y179134D02*
D03*
Y183071D02*
D03*
Y187008D02*
D03*
Y190945D02*
D03*
Y194882D02*
D03*
Y198819D02*
D03*
Y202756D02*
D03*
Y206693D02*
D03*
Y210630D02*
D03*
Y214567D02*
D03*
Y218504D02*
D03*
Y222441D02*
D03*
Y25591D02*
D03*
Y21654D02*
D03*
Y17717D02*
D03*
Y13780D02*
D03*
Y9843D02*
D03*
Y5906D02*
D03*
M02*
